<svg width="18" height="18" fill="none" xmlns="http://www.w3.org/2000/svg"><path d="M9 0C4.039 0 .002 4.037.002 9s4.037 9 9 9a.672.672 0 100-1.344C4.78 16.656 1.346 13.22 1.346 9S4.78 1.345 9 1.345 16.656 4.779 16.656 9v2.082c0 .777-.632 1.41-1.41 1.41-.777 0-1.41-.633-1.41-1.41V9a4.841 4.841 0 00-4.835-4.836A4.842 4.842 0 004.165 9 4.842 4.842 0 009 13.836c1.48 0 2.806-.669 3.694-1.72a2.758 2.758 0 002.551 1.72 2.758 2.758 0 002.755-2.754V9c0-4.963-4.038-9-9-9zm0 12.492A3.496 3.496 0 015.51 9 3.496 3.496 0 019 5.508 3.495 3.495 0 0112.493 9a3.496 3.496 0 01-3.491 3.492z" fill="#222"/></svg>