<svg width="13" height="13" fill="none" xmlns="http://www.w3.org/2000/svg"><path d="M12.96 6.002L11.21 2.505a.38.38 0 00-.34-.21H7.646v-1.15a1.147 1.147 0 00-2.292 0v1.15H2.13a.38.38 0 00-.34.21L.04 6.002a.379.379 0 00-.04.17c0 1.174.955 2.13 2.13 2.13 1.173 0 2.128-.956 2.128-2.13a.378.378 0 00-.04-.17L2.745 3.056h2.61v7.653H4.97c-1.053 0-1.91.857-1.91 1.91 0 .21.17.381.38.381h6.12c.21 0 .38-.17.38-.38 0-1.054-.857-1.911-1.91-1.911h-.384V3.056h2.609L8.782 6.002a.378.378 0 00-.04.17c0 1.174.955 2.13 2.129 2.13S13 7.345 13 6.171a.378.378 0 00-.04-.17zM2.13 3.527L3.26 5.791H.997L2.13 3.527zm0 4.013a1.37 1.37 0 01-1.314-.987h2.627a1.37 1.37 0 01-1.314.987zm1.756 4.698a1.151 1.151 0 011.084-.768h3.06c.5 0 .926.321 1.084.768H3.886zm2.23-1.53V3.057h.768v7.653h-.768zm0-8.413v-1.15a.384.384 0 01.768 0v1.15h-.768zm5.887 3.496H9.739l1.132-2.264 1.132 2.264zM10.87 7.54a1.37 1.37 0 01-1.314-.987h2.627a1.37 1.37 0 01-1.313.987z" fill="#222"/></svg>