<svg width="247" height="41" viewBox="0 0 247 41" fill="none" xmlns="http://www.w3.org/2000/svg"><path d="M47.712 22.669c-5.593 0-9.078-3.756-9.078-7.943 0-4.019 3.802-8.57 9.175-8.57 2.278 0 4.675.919 5.179 1.308.173.144.41 1.888.461 3.387 0 .123-.385.098-.41.027-.411-1.889-2.203-3.997-5.814-3.997-3.629 0-6.364 2.566-6.364 6.948 0 5.352 3.607 8.066 7.07 8.066 2.516 0 5.01-1.503 5.205-3.972 0-.072.461-.097.461.047-.076 1.503-.317 3.244-.508 3.391-.876.653-2.4 1.308-5.377 1.308M57.904 17.072h3.366l-1.503-4.066-1.863 4.066zm3.366 5.207c-.144.05-.072-.457 0-.457.825-.101 1.333.02 1.333-.462 0-.558-.317-1.355-.63-2.277l-.437-1.283h-3.92l-.56 1.283c-.457 1.066-.723 1.77-.723 2.252 0 .41.457.41 1.232.486.123 0 .123.509-.025.458-.555-.072-1.305-.097-2.08-.097-1.041 0-1.21 0-2.01.097-.145.026-.073-.457 0-.457 1.21-.101 1.841-.754 2.76-2.786l4.018-8.79c.05-.12.292-.144.34 0l3.488 8.79c.868 1.953.739 2.652 2.19 2.785.07.008.12.509-.024.458-.584-.072-1.03-.097-1.827-.097-1.042 0-2.35 0-3.125.097M66.733 21.497c-.104-.065-.144-1.42-.176-2.706-.011-.123.429-.108.432-.061.296 1.823 1.384 3.189 3.265 3.034 1.305-.108 2.13-.955 2.036-2.112-.252-3.016-5.557-2.577-5.83-5.882-.141-1.664 1.214-3.502 3.434-3.686 1.06-.087 1.762.173 2.422.48.151.086.425 1.059.53 2.288.003.072-.48.111-.483.043-.328-1.312-1.273-2.155-2.577-2.047-1.132.093-1.932.717-1.838 1.827.238 2.897 5.442 2.393 5.734 5.867.162 1.979-1.24 3.816-3.532 4.008-1.33.111-2.411-.336-3.417-1.053zM82.464 22.28c-.674 0-1.816-.098-3.171-.098-1.838 0-4.044 0-5.399.097-.144 0-.072-.458 0-.458 1.842-.22 2.011-.46 2.011-2.764v-5.47c0-2.3-.17-2.588-2.01-2.783-.073 0-.145-.511 0-.486 1.354.123 3.488.148 5.326.148 1.308 0 2.57-.05 3.68-.148-.12.389-.12.897-.12 1.261 0 .195-.025.725 0 .847 0 .047-.46.072-.46.026-.145-.8-.437-1.185-2.783-1.185h-1.575c-.076.41-.097 1.084-.097 2.227v2.223h1.21c2.033 0 2.177-.046 2.372-.821 0-.047.461-.072.436.046-.072.27-.094 1.02-.094 1.431v1.042c.047.02-.461.047-.461.02-.17-.94-.317-1.012-2.252-1.012h-1.211v2.393c0 2.328.122 2.544.944 2.544h.944c2.782 0 2.858-.389 3.125-1.575 0-.02.483-.02.483.05-.072.462-.267 1.644-.39 2.008-.072.364-.19.436-.508.436M151.382 16.344c-.318 0-.462-.026-.678-.026v-2.905c0-1.308.047-2.008.144-2.35.267-.02.339-.047.606-.047 2.108 0 3.268.725 3.268 2.76 0 1.648-.944 2.567-3.34 2.567zm20.39-6.005a17.6 17.6 0 01-2.13.122c-1.066 0-1.672 0-2.396-.122-.148-.05-.148.436-.025.461 1.571.166 1.816.7 1.816 2.782v5.64l-8.451-8.74c-1.042 0-2.447-.02-3.197-.143-.144-.05-.097.461-.025.461.826.094 2.35 1.211 2.35 2.033v6.224c0 1.975-.31 2.558-1.6 2.681a.496.496 0 01-.321-.072c-2.761-2.267-2.728-3.716-3.377-5.37 1.427-.605 2.3-1.795 2.3-3.002 0-1.939-1.745-2.833-5.014-2.98-1.852-.083-3.83-.159-4.912.043-.147.026-.025.483.072.436.267-.05.494-.016.685-.016.847 0 1.226.696 1.226 2.804v5.474c0 2.3-.289 2.588-1.864 2.757-.072 0-.144.512 0 .461.775-.097 1.961-.097 3.028-.097.774 0 2.011.026 2.566.098.147.05.097-.462.025-.462-1.647-.144-1.817-.58-1.817-2.757V17.02c.217.026.339.026.703.026.364 0 .919-.072 1.355-.144.753 2.696 3.413 4.973 4.606 5.359.022.008.158.021.158.021l.328-.01c.004 0 1.565-.094 2.628-.094.749 0 1.405.026 1.96.097.144.05.097-.461.051-.461-1.673-.144-1.842-.822-1.842-2.757v-5.838l9.031 9.179c.148.144.436.047.436-.026-.097-.775-.122-2.422-.122-3.316v-5.474c0-1.936.148-2.664 1.842-2.782.05 0 .169-.487-.073-.462M118.442 21.595c-.101-.072-.079-.537-.04-1.82-.003-.123.411-.08.436-.037.772 1.597 1.24 2.109 3.035 2.026 1.056-.047 2.137-.833 2.108-1.993-.076-3.027-5.402-2.89-5.485-6.21-.043-1.668 1.416-3.423 3.643-3.481 1.064-.026 1.748.274 2.386.62.152.094.368 1.081.397 2.314.003.075-.48.086-.483.015-.249-1.326-1.143-2.223-2.451-2.19-1.139.028-1.971.604-1.942 1.718.072 2.905 5.297 2.703 5.384 6.184.054 1.986-1.406 3.745-3.705 3.803-1.333.032-2.321-.173-3.283-.948M102.005 22.492c-.047.122-.336.173-.411-.021l-3.655-10.268-4.526 10.29c-.05.122-.364.173-.436-.021l-4.674-11.67c-1.165-2.908-1.55-3.73-3.464-3.9-.119 0-.216-.435.025-.41.678.097 1.647.144 2.592.144 1.304 0 2.93-.026 3.874-.144.241-.026.093.41.025.41-1.114.098-1.723.242-1.723.895 0 .511.559 2.18.872 2.955l3.464 8.62 3.582-8.281-.119-.289c-1.186-2.832-1.452-3.73-3.294-3.9-.072 0-.17-.435.025-.41.703.097 1.647.144 2.591.144 1.305 0 3.147-.026 4.091-.144.194-.047.122.41.05.41-1.503.123-1.99.29-1.99 1.017 0 .533.246 1.406.729 2.833l2.93 8.62 3.463-8.74c.555-1.43.869-2.18.869-2.81 0-.606-.386-.797-1.572-.92-.072 0-.219-.435.026-.41.699.097 1.427.144 2.396.144 1.33 0 1.305-.026 2.274-.144.195-.047.098.41.025.41-1.524.145-2.011 1.186-3.149 3.9l-4.89 11.69z" fill="#00284F"/><path d="M116.532 22.276c-.678 0-1.816-.098-3.172-.098-1.841 0-4.043 0-5.398.098-.148 0-.072-.462 0-.462 1.838-.216 2.007-.457 2.007-2.757v-5.474c0-2.3-.169-2.591-2.007-2.782-.072 0-.148-.512 0-.487 1.355.123 3.485.148 5.326.148 1.309 0 2.566-.05 3.68-.148-.119.39-.119.894-.119 1.258 0 .195-.025.728 0 .85 0 .047-.461.073-.461.022-.148-.797-.436-1.186-2.786-1.186h-1.571c-.072.41-.098 1.088-.098 2.227v2.227h1.211c2.033 0 2.177-.046 2.372-.821 0-.047.461-.073.436.046-.072.267-.098 1.02-.098 1.431v1.042c.047.02-.461.046-.461.02-.166-.944-.314-1.016-2.249-1.016h-1.211v2.397c0 2.324.119 2.544.945 2.544h.944c2.782 0 2.858-.389 3.121-1.575 0-.026.483-.026.483.047-.072.461-.263 1.647-.386 2.011-.072.364-.191.436-.508.436M136.267 12.736c0 .072-.436.047-.436 0-.17-.796-.501-1.355-2.437-1.355h-1.301v7.676c0 2.152.145 2.613 1.838 2.757.076 0 .123.483-.072.462-.555-.073-1.791-.098-2.566-.098-1.041 0-2.227 0-2.976.098-.195.05-.098-.462-.025-.462 1.596-.17 1.841-.483 1.841-2.757v-7.676h-1.398c-1.863 0-2.296.533-2.534 1.377-.097.026-.461.026-.436-.047.072-.386.137-1.305.119-1.816a3.517 3.517 0 00-.097-.523c-.015-.076.378-.076.436-.026.375.303.98.184 2.512.187h4.66c1.466-.002 2.36.116 2.558-.187.04-.065.483-.05.436.046-.097.39-.147.599-.147 1.204 0 .292 0 .898.025 1.14M145.421 22.276c-.678 0-1.817-.098-3.175-.098-1.838 0-4.04 0-5.399.098-.144 0-.072-.462 0-.462 1.842-.216 2.011-.457 2.011-2.757v-5.474c0-2.3-.169-2.591-2.011-2.782-.072 0-.144-.512 0-.487 1.359.123 3.489.148 5.327.148 1.308 0 2.569-.05 3.683-.148-.123.39-.123.894-.123 1.258 0 .195-.025.728 0 .85 0 .047-.461.073-.461.022-.144-.797-.436-1.186-2.782-1.186h-1.575c-.072.41-.098 1.088-.098 2.227v2.227h1.211c2.037 0 2.181-.046 2.372-.821 0-.047.461-.073.436.046-.072.267-.094 1.02-.094 1.431v1.042c.047.02-.461.046-.461.02-.17-.944-.314-1.016-2.253-1.016h-1.211v2.397c0 2.324.123 2.544.945 2.544h.944c2.786 0 2.858-.389 3.125-1.575 0-.026.482-.026.482.047-.072.461-.266 1.647-.385 2.011-.072.364-.195.436-.508.436M198.726 21.598c-.097-.068-.079-.533-.04-1.82-.003-.119.415-.079.436-.032.775 1.593 1.24 2.108 3.038 2.025 1.053-.05 2.134-.832 2.105-1.993-.076-3.027-5.402-2.894-5.485-6.21-.04-1.668 1.416-3.427 3.643-3.48 1.064-.03 1.752.27 2.386.616.152.093.371 1.08.4 2.317 0 .072-.483.083-.483.01-.252-1.326-1.146-2.223-2.454-2.19-1.139.028-1.971.605-1.942 1.718.072 2.905 5.297 2.703 5.387 6.188.047 1.986-1.409 3.741-3.708 3.802-1.33.033-2.317-.176-3.283-.951M179.265 7.147c-.123.486-.17 1.6-.17 3.39v4.02c.314.025.509 0 .898 0 3.654 0 4.912-1.33 4.912-3.316 0-3.294-2.152-4.167-4.573-4.167-.364 0-.656.027-1.067.073zm2.252 7.964c-.414.101-.969.123-1.503.123-.457 0-.605-.021-.919-.047v2.858c0 3.46-.025 3.633 2.228 3.824.122 0 .169.508-.025.461-.775-.097-1.986-.148-3.002-.148-1.428 0-2.541 0-3.558.148-.241.026-.144-.436-.025-.461 2.13-.242 2.274-.191 2.274-3.824v-7.29c0-2.736-.072-3.583-1.452-3.583-.241 0-.58.026-.919.097-.072.026-.267-.364-.022-.436.991-.313 3.41-.41 6.051-.41 3.536 0 6.44 1.066 6.44 3.776 0 1.355-1.088 3.413-3.607 4.43 2.35 3.293 2.479 10.4 8.368 10.786.869.058.988-.003 1.871-.241.147-.04.349.338.169.41-1.305.512-2.141.61-3.395.509-6.404-.52-6.966-7.93-8.974-10.982" fill="#00284F"/><path d="M196.69 22.28c-.678 0-1.817-.095-3.172-.095-1.841 0-3.748 0-5.103.094-.144 0-.072-.458 0-.458 1.842-.22 1.716-.46 1.716-2.76v-5.47c0-2.304-.173-2.592-2.011-2.787-.072 0-.148-.508 0-.486 1.355.123 3.485.148 5.326.148 1.308 0 2.566-.05 3.68-.148-.123.389-.123.897-.123 1.261 0 .195-.021.728 0 .847 0 .05-.457.072-.457.026-.145-.8-.437-1.185-2.786-1.185h-1.575c-.072.41-.094 1.088-.094 2.227v2.227h1.211c2.033 0 2.177-.05 2.371-.825 0-.047.458-.072.436.05-.072.267-.097 1.017-.097 1.427v1.042c.047.026-.461.05-.461.026-.17-.944-.314-1.016-2.249-1.016h-1.211v2.396c0 2.325.119 2.541.941 2.541h.948c2.782 0 2.854-.386 3.121-1.575 0-.02.486-.02.486.05-.072.462-.267 1.648-.389 2.008-.072.364-.195.436-.508.436M214.763 22.28c-.677 0-1.813-.095-3.171-.095-1.838 0-4.044 0-5.399.094-.144 0-.072-.458 0-.458 1.842-.22 2.011-.46 2.011-2.76v-5.47c0-2.304-.169-2.592-2.011-2.787-.072 0-.144-.508 0-.486 1.355.123 3.485.148 5.327.148 1.308 0 2.566-.05 3.679-.148-.122.389-.122.897-.122 1.261 0 .195-.021.728 0 .847 0 .05-.458.072-.458.026-.144-.8-.436-1.185-2.782-1.185h-1.575c-.072.41-.097 1.088-.097 2.227v2.227h1.211c2.032 0 2.176-.05 2.375-.825 0-.047.457-.072.432.05-.072.267-.097 1.017-.097 1.427v1.042c.05.026-.458.05-.458.026-.173-.944-.313-1.016-2.252-1.016h-1.211v2.396c0 2.325.119 2.541.944 2.541h.944c2.786 0 2.858-.386 3.125-1.575 0-.02.483-.02.483.05-.072.462-.267 1.648-.39 2.008-.072.364-.194.436-.508.436M219.913 11.071c-.097.339-.144 1.042-.144 2.35v2.905c.22 0 .364.026.678.026 2.396 0 3.34-.923 3.34-2.57 0-2.032-1.16-2.76-3.268-2.76-.263 0-.339.026-.606.05zm.559 5.98c-.364 0-.483 0-.703-.02v2.032c0 2.18.17 2.616 1.816 2.76.073 0 .123.508-.026.458-.555-.069-1.791-.094-2.566-.094-1.066 0-2.252 0-3.027.094-.144.05-.072-.458 0-.458 1.575-.17 1.867-.461 1.867-2.76v-5.471c0-2.108-.386-2.83-1.233-2.83-.194 0-.187.009-.454.055-.097.047-.216-.396-.072-.436.833-.23 2.829-.047 4.689-.061 3.265-.018 5.009 1.041 5.009 2.98 0 1.211-.872 2.397-2.299 3.002.969 2.469 3.564 5.813 5.672 5.813.073 0 .144.458 0 .458-3.971 0-6.519-2.807-7.319-5.665-.436.072-.991.144-1.355.144M232.105 22.402c-.026.072-.317.119-.389-.026l-3.824-8.765c-.872-1.986-1.431-2.685-2.883-2.807-.072 0-.144-.509 0-.462.58.072 1.672.123 2.422.123 1.063 0 2.396 0 3.124-.123.145-.046.145.436.021.462-.8.097-1.257.144-1.257.627 0 .342.097.97.605 2.133l2.638 5.979 2.617-5.979c.58-1.355.655-1.697.655-2.133 0-.411-.389-.555-1.189-.627-.072 0-.148-.509 0-.462.559.072 1.308.123 2.08.123 1.092 0 1.153-.026 1.985-.016.155.003.123.354.051.354-1.139.122-1.791.677-2.736 2.807l-3.92 8.792z" fill="#00284F"/><path d="M245.757 22.28c-.678 0-1.817-.095-3.172-.095-1.841 0-4.043 0-5.398.094-.145 0-.072-.457 0-.457 1.841-.22 2.007-.462 2.007-2.761v-5.47c0-2.304-.166-2.592-2.007-2.787-.072 0-.134-.353.014-.353 1.323-.021 3.471.015 5.312.015 1.308 0 2.566-.05 3.68-.148-.123.39-.123.897-.123 1.261 0 .195-.021.728 0 .847 0 .05-.458.072-.458.025-.147-.8-.436-1.185-2.785-1.185h-1.572c-.072.41-.097 1.088-.097 2.227v2.227h1.211c2.033 0 2.177-.05 2.371-.825 0-.047.458-.072.436.05-.072.267-.097 1.016-.097 1.427v1.042c.051.025-.461.05-.461.025-.17-.944-.314-1.016-2.249-1.016h-1.211v2.396c0 2.325.119 2.541.944 2.541h.945c2.782 0 2.857-.386 3.12-1.575 0-.021.487-.021.487.05-.072.462-.267 1.648-.389 2.008-.072.364-.195.436-.508.436M47.964 32.258c0 1.885-1.42 3.475-3.892 3.475-2.144 0-3.972-1.352-3.972-3.568v-3.247c0-1.755-.201-1.993-1.401-2.141-.058 0-.094-.371.018-.335.573.093 1.456.075 2.288.075.591 0 1.514-.018 1.957-.075.112-.036.112.335.022.335-1.258.108-1.37.48-1.37 2.14v2.934c0 2.163 1.406 3.121 2.826 3.121 1.863 0 2.843-.994 2.843-2.897v-3.287c0-1.59-.202-1.863-1.402-2.011-.09-.018-.09-.371.015-.335.576.093.998.075 1.812.075.573 0 1.183-.018 1.604-.075.152-.018.076.335.04.335-1.276.108-1.388.515-1.388 2.01v3.471M64.838 33.073c0 .68.018 1.939.09 2.526 0 .058-.224.134-.332.021l-6.887-6.999v4.451c0 1.474.13 1.993 1.402 2.105.04 0 .076.385-.036.35a12.153 12.153 0 00-1.496-.072c-.81 0-1.401 0-1.992.071-.094.019-.058-.35 0-.35 1.218-.129 1.401-.536 1.401-2.104v-4.746c0-.627-1.164-1.478-1.79-1.55-.055 0-.094-.39.017-.353.573.094 1.644.112 2.44.112l6.444 6.667v-4.303c0-1.59-.188-1.997-1.388-2.123-.09-.02-.09-.39.019-.353.555.094 1.016.094 1.83.094.591 0 1.218-.04 1.626-.094.183-.018.09.353.054.353-1.29.09-1.402.645-1.402 2.123v4.173M75.47 35.455c-.833 0-1.72 0-2.311.072-.148.036-.054-.35-.018-.35 1.218-.13 1.402-.37 1.402-2.104V28.9c0-1.755-.184-1.997-1.402-2.123-.036 0-.108-.371.036-.353.573.093 1.46.093 2.292.093.552 0 1.514-.04 1.939-.093.148-.019.072.353.036.353-1.276.09-1.406.48-1.406 2.123v4.173c0 1.64.13 1.993 1.406 2.105.036 0 .112.367-.036.35-.425-.055-1.388-.073-1.939-.073zM89.099 35.62c-.018.055-.241.091-.296-.02l-2.915-6.682c-.667-1.513-1.092-2.05-2.198-2.14-.055 0-.112-.39 0-.354.443.055 1.275.094 1.848.094.811 0 1.828 0 2.383-.094.108-.036.108.332.014.354-.606.075-.959.108-.959.479 0 .256.076.735.462 1.625l2.014 4.56 1.993-4.56c.443-1.034.498-1.294.498-1.625 0-.314-.296-.425-.905-.48-.054 0-.112-.389 0-.353.425.055.998.094 1.59.094.828 0 .958 0 1.53-.094.113-.036.076.354.019.354-.869.09-1.366.515-2.087 2.14L89.1 35.621M106.409 35.527c-.519 0-1.388-.072-2.419-.072-1.405 0-3.085 0-4.119.072-.112 0-.054-.35 0-.35 1.402-.165 1.535-.353 1.535-2.104V28.9c0-1.756-.133-1.975-1.535-2.123-.054 0-.112-.39 0-.371 1.034.093 2.66.111 4.062.111.998 0 1.957-.04 2.807-.111-.09.295-.09.68-.09.958 0 .148-.022.555 0 .649 0 .036-.353.054-.353.018-.112-.609-.332-.904-2.123-.904h-1.2c-.058.313-.076.832-.076 1.697v1.698h.923c1.553 0 1.661-.033 1.809-.627 0-.037.353-.055.335.04-.057.201-.075.774-.075 1.088v.793c.039.02-.35.036-.35.02-.13-.724-.241-.778-1.719-.778h-.923v1.827c0 1.773.09 1.939.721 1.939h.721c2.123 0 2.177-.292 2.382-1.2 0-.018.368-.018.368.04-.058.346-.202 1.254-.296 1.531-.054.278-.144.332-.385.332M117.433 26.979c-.076.26-.112.793-.112 1.791v2.216c.166 0 .274.019.515.019 1.831 0 2.552-.703 2.552-1.957 0-1.553-.887-2.105-2.494-2.105-.205 0-.259.018-.461.036zm.425 4.56c-.277 0-.371 0-.537-.02v1.554c0 1.661.13 1.993 1.384 2.105.054 0 .094.385-.018.35-.425-.055-1.366-.073-1.957-.073-.811 0-1.715 0-2.306.072-.112.036-.058-.35 0-.35 1.196-.129 1.42-.352 1.42-2.104V28.9c0-1.608-.296-1.957-.945-1.957-.144 0-.313.018-.511.054-.076.036-.17-.314-.058-.335.591-.184 2.234-.256 3.748-.256 2.494 0 3.82.793 3.82 2.27 0 .923-.663 1.831-1.751 2.289.738 1.885 2.49 4.433 4.097 4.433.054 0 .112.353 0 .353-3.027 0-4.743-2.144-5.355-4.321a7.479 7.479 0 01-1.031.108M130.735 34.882c-.079-.05-.087-1.085-.097-2.065-.008-.094.331-.08.331-.043.202 1.395 1.009 2.454 2.447 2.36.995-.06 1.636-.699 1.582-1.582-.148-2.303-4.202-2.043-4.368-4.566-.079-1.272.981-2.652 2.674-2.764.811-.05 1.341.158 1.838.4.116.069.314.814.372 1.755.007.054-.364.08-.368.021-.231-1.002-.937-1.658-1.935-1.596-.865.057-1.481.522-1.427 1.369.144 2.213 4.119 1.9 4.288 4.552.098 1.513-.994 2.897-2.746 3.009-1.016.065-1.834-.288-2.591-.85M145.932 35.455c-.832 0-1.719 0-2.31.072-.147.036-.054-.35-.018-.35 1.218-.13 1.406-.37 1.406-2.104V28.9c0-1.755-.188-1.997-1.406-2.123-.036 0-.111-.371.04-.353.569.093 1.456.093 2.288.093.555 0 1.514-.04 1.939-.093.148-.019.072.353.036.353-1.272.09-1.402.48-1.402 2.123v4.173c0 1.64.13 1.993 1.402 2.105.036 0 .112.367-.036.35-.425-.055-1.384-.073-1.939-.073zM163.584 28.25c0 .059-.335.04-.335 0-.13-.605-.609-1.033-2.083-1.033h-.89v5.856c0 1.64.112 1.993 1.402 2.101.054 0 .094.371-.054.353-.429-.054-1.37-.072-1.957-.072-.797 0-1.701 0-2.274.072-.148.036-.072-.353-.018-.353 1.222-.126 1.405-.368 1.405-2.101v-5.856h-.966c-1.419 0-1.974.407-2.155 1.056-.079.018-.356.018-.335-.04.054-.296.069-1.017.069-1.406 0-.057-.036-.151-.054-.234-.008-.061.299-.065.335-.021.137.162.147 0 2.14 0h3.352c1.975 0 2.065.17 2.177 0 .032-.047.371-.036.331.04-.072.292-.111.313-.111.775 0 .22 0 .68.021.864M179.755 26.849c-2.252 0-3.899 2.768-3.899 5.87v.354c0 1.661.115 1.993 1.387 2.105.058 0 .094.385-.018.35-.443-.055-1.384-.073-1.957-.073-.811 0-1.719 0-2.31.072-.148.036-.054-.35-.018-.35 1.218-.13 1.423-.37 1.423-2.104v-.353c0-3.377-1.848-5.853-4.007-5.853-.184 0-.35.018-.515.054-.04 0-.13-.313-.022-.331.465-.166.962-.278 1.405-.278 2.051 0 3.748 1.59 4.303 3.654.829-2.303 2.307-3.56 3.968-3.56.299 0 .937.072 1.233.184.108.018 0 .37-.076.331-.22-.054-.656-.072-.897-.072M203.973 39.625l-.065-.076c-.05-.083-.021-.212.015-.27l.028-.058.155-.02c.916-.102.916-.102.916-1.572v-3.197c0-1.481 0-1.481-.919-1.586l-.083-.01h-.004c-.104 0-.14-.155-.14-.23 0-.044.01-.08.029-.109a.15.15 0 01.129-.068c.721.05 1.727.075 2.916.075.85 0 1.546-.026 2.137-.075l.159-.016-.051.155c-.058.184-.068.36-.068.588 0 .1 0 .31.01.389l.004.047-.033.05c-.028.036-.079.058-.147.058-.058 0-.191-.01-.224-.105-.068-.378-.158-.537-1.603-.537h-.93c-.036.303-.04.811-.04 1.32v1.257h.991c.991 0 .998-.054 1.031-.212l.014-.065c.015-.043.051-.098.152-.098 0 0 .173.003.234.069l.04.043-.015.058a2.87 2.87 0 00-.061.634c0 .112 0 .317.011.404l.003.036-.025.05c-.025.047-.083.069-.169.069-.079 0-.18-.018-.209-.101-.054-.274-.076-.386-1.006-.386h-.991v1.453c0 1.405.184 1.405.552 1.405h.565c1.611 0 1.64-.13 1.781-.757 0-.026.021-.1.173-.1.097 0 .165.026.202.068l.036.04-.008.068c-.039.256-.137.764-.205.998-.069.256-.191.303-.4.303-.162 0-.379-.01-.631-.02-.353-.014-.775-.033-1.236-.033-.937 0-2.119.008-2.944.065l-.076-.001zM212.489 39.773c-.764 0-1.402-.235-2.007-.74-.072-.057-.072-.154-.025-.81.018-.202.036-.436.046-.685 0-.018.011-.137.206-.137.191 0 .202.101.202.133.079 1.089.67 1.694 1.676 1.694.601 0 1.308-.299 1.308-1.139 0-.803-.725-1.225-1.492-1.672-.844-.49-1.716-.994-1.716-2.05 0-1.002.887-2.076 2.206-2.076.703 0 1.128.176 1.449.353.144.072.216.494.216 1.254 0 .036-.015.148-.213.148l-.184-.033-.032-.104c-.112-.703-.573-1.085-1.319-1.085-.569 0-1.171.343-1.171.98 0 .746.684 1.143 1.409 1.564.814.473 1.737 1.01 1.737 2.134 0 1.272-1.009 2.27-2.296 2.27M216.839 39.625c-.065 0-.137-.047-.148-.152-.008-.093.029-.241.137-.263.898-.093.898-.093.898-1.578v-4.498h-.209c-1.211 0-1.254.17-1.359.58l-.032.126-.062.016c-.036.01-.082.01-.101.01-.104 0-.158-.02-.19-.064l-.033-.044.013-.06c.029-.156.047-.458.047-.851 0-.155-.013-.224-.036-.339l-.021-.097.026-.05c.04-.062.126-.076.195-.076.079 0 .133.018.166.054.198.22.277.223.973.212l1.928-.002c.216 0 .396.002.551.01.66.016.786 0 .915-.205.011-.019.044-.065.184-.065.087 0 .141.02.173.065l.033.047-.018.068c-.051.234-.08.364-.08.706 0 .159 0 .419.019.537l.007.047-.026.04c-.021.032-.065.065-.191.065-.05 0-.194 0-.194-.123l-.011-.036c-.075-.393-.111-.57-1.362-.57h-.151v4.498c0 1.507 0 1.507.89 1.575.093 0 .148.112.148.217 0 .119-.073.201-.17.201-.321-.04-.829-.064-1.319-.064-.631 0-1.113.01-1.568.06l-.022.003zM220.533 38.937c0-.318.249-.624.624-.624a.61.61 0 01.605.595c0 .32-.274.623-.638.623a.597.597 0 01-.591-.594zM229.258 39.686l-.013-.002c-.314-.04-.8-.04-1.225-.04-.444 0-.945 0-1.269.043-.061.003-.119-.026-.14-.097a.226.226 0 01-.013-.09c0-.144.054-.231.144-.231.717-.087.731-.087.731-.854v-1.917c0-.573-.093-.617-.223-.617a1.1 1.1 0 00-.339.072.192.192 0 01-.205-.137c-.033-.086-.011-.17.046-.22l.126-.068c.447-.253 1.064-.595 1.399-.908l.032-.03.051-.007c.068 0 .169.054.22.108l.028.043.003.083c-.05.209-.065 1.16-.065 1.636v1.96c0 .768 0 .768.732.855h.002c.073 0 .126.086.126.23 0 .18-.115.188-.137.188h-.011zM232.559 32.424c-.641 0-1.056.422-1.056 1.07 0 .725.591 1.157 1.373 1.633.548-.36.836-.858.836-1.438 0-.731-.482-1.265-1.153-1.265zm-.284 3.73c-.779.4-1.114.905-1.114 1.68 0 .926.681 1.412 1.355 1.412.822 0 1.377-.5 1.377-1.243 0-.88-.768-1.337-1.582-1.824l-.036-.025zm.104 3.658c-1.29 0-2.303-.868-2.303-1.978 0-.822.584-1.554 1.615-2.033-.617-.414-1.218-.94-1.218-1.806 0-1.214.983-2.126 2.292-2.126 1.084 0 1.964.79 1.964 1.762 0 .754-.389 1.305-1.301 1.831.735.469 1.459 1.06 1.459 2.054 0 1.309-1.077 2.296-2.508 2.296zM239.89 39.686c-.152 0-.375-.008-.631-.018-.364-.01-.8-.03-1.215-.03-.958 0-1.65 0-2.36.048-.13 0-.188-.166-.209-.235-.04-.155.008-.22.057-.248 2.065-1.082 2.948-2.015 2.948-3.114 0-.753-.414-1.24-1.059-1.24-.472 0-.833.173-1.251.602l-.029.032-.068.008c-.097 0-.177-.093-.209-.155-.029-.068-.026-.137.016-.184.566-.778 1.214-1.175 1.917-1.175 1.045 0 1.806.736 1.806 1.748 0 1.027-1.017 2.141-2.116 2.873h1.225c1.071 0 1.15-.083 1.208-.674 0-.076.075-.116.216-.116.166 0 .191.08.191.127.036.28-.058 1.304-.105 1.477-.032.12-.101.274-.331.274M243.832 39.812c-1.755 0-2.555-1.384-2.555-2.67 0-1.874 1.586-4.228 5.132-5.27l.043-.003c.108 0 .173.105.188.198.018.098-.022.18-.098.206-3.647 1.358-4.04 3.849-4.04 4.858 0 1.258.635 2.17 1.51 2.17.692 0 1.143-.599 1.143-1.525 0-.905-.451-1.467-1.175-1.467a1.24 1.24 0 00-.544.166l-.065.018c-.108 0-.231-.162-.245-.224l-.018-.082.076-.047c.309-.328.843-.566 1.293-.566 1.211 0 1.864 1.002 1.864 1.942 0 1.244-1.15 2.296-2.509 2.296M200.333 39.657H38.817v-.75h161.516v.75zM32.738 39.636H.346V.346h32.392v39.29z" fill="#00284F"/><path d="M4.984 35.13l-.18-10.952c6.39 2.354 9.658 7.223 11.295 11.054L4.984 35.13zm24.41-18.862c-.246-.01-.246.295-.246.295l-.504 18.773-11.616-.097c-.374-1.193-1.124-2.908-1.492-3.727l10.037 2.563c.018.002.033.002.05.002.13 0 .235-.104.235-.241a.231.231 0 00-.152-.22v-.008c-.086-.032-7.085-2.555-9.888-3.568l10.656-.504v-.003a.237.237 0 00.22-.238.237.237 0 00-.22-.24v-.004l-11.067-.482 10.966-4.13v-.003a.245.245 0 00.144-.224.24.24 0 00-.234-.237c-.018 0-.036 0-.054.008l-.003-.008-11.562 3.265 11.853-9.907a.241.241 0 00-.144-.43c-.065 0-.1.03-.162.073l-12.296 8.948L25.299 9.022a.232.232 0 00.044-.14.237.237 0 00-.235-.238c-.086 0-.137.032-.198.119L12.657 24.966l4.447-15.241a.25.25 0 00.01-.072.238.238 0 00-.233-.241.232.232 0 00-.22.169l-5.385 14.7-.144-13.478a.238.238 0 00-.234-.242.238.238 0 00-.234.242v.008c-.029.457-.685 10.047-.905 13.24l-3.204-9.633c-.046-.155-.137-.281-.317-.238-.227.05-.148.346-.148.346l2.202 9.842c-1.099-.537-2.27-.958-3.506-1.261L4.48 4.572l13.258-.62s.314.016.314-.237c0-.267-.325-.25-.325-.25H3.492l.105 32.995 26.023-.109V16.573s.008-.295-.227-.302" fill="#fff"/></svg>