<svg version="1.0" xmlns="http://www.w3.org/2000/svg" width="412" height="394" viewBox="0 0 4120 3940"><path d="M1135 3921c-9-11-26-55-37-98-41-168-40-165-68-158-14 4-38 13-55 21-16 7-75 29-130 48s-120 42-145 51c-57 21-103 13-118-21-24-50-7-118 32-130 12-3 35-12 51-19 60-25 252-95 261-95 5 0 28-8 51-17 33-14 41-22 38-38-3-11-18-78-35-150-35-148-71-308-94-410-74-339-71-331-132-359-97-45-89-48-137 51-55 114-74 141-109 159-24 12-33 13-46 3-57-43-57-96-1-205 65-126 65-123 21-141-45-18-235-109-351-166-46-23-94-55-107-70-41-48-27-105 31-127 39-15 26-20 407 164 76 36 140 66 143 66s5-6 5-12c0-7 7-26 16-43 9-16 29-55 45-87l29-56-21-89c-11-48-27-117-35-153-9-36-22-92-29-125-35-165-55-249-60-253-4-5-83 25-175 65-62 27-124 42-147 36-26-6-53-50-53-85 0-52 47-85 195-137 30-11 73-27 96-37 40-18 41-20 36-59-3-22-13-69-22-105-27-111-30-172-9-197 53-62 123-22 142 82 18 95 39 186 45 192 5 4 93-24 142-47 11-5 52-21 90-36 39-14 84-32 100-39 105-43 136-55 191-76 51-19 66-30 87-64 13-23 28-53 32-66s19-41 32-62c14-22 22-45 19-52-3-8-24-19-48-25-132-35-181-100-125-166 30-35 76-35 182 0 44 14 81 26 82 26 2 0 24-43 49-95 50-105 83-140 124-130 72 18 79 78 21 193l-39 78 66 22c210 70 213 70 285 38 18-8 59-24 92-37s65-26 70-30c6-3 28-12 50-19s54-18 70-26c62-27 201-82 238-94 22-7 51-18 65-26 15-8 32-14 39-14 6 0 14-4 17-8 3-5-13-77-35-160-45-174-50-251-19-282 47-47 101-9 130 93 11 40 25 86 30 102 4 17 11 46 15 65 9 53 27 120 32 120 8 0 157-60 186-75 46-24 92-19 116 11 12 15 21 39 21 55 0 50-42 84-158 129-59 23-111 45-116 50-4 4-1 39 8 77 16 66 79 311 98 384 9 35 11 36 131 73 67 20 129 39 137 42 12 3 31-29 74-123 75-165 96-193 141-193 28 0 37 6 50 30 20 38 19 69-4 130-11 27-15 50-9 50 5 0 37-16 69-35 70-41 88-43 116-12 27 29 33 60 22 101-8 27-23 41-94 82-46 27-85 52-85 55 0 4 12 9 28 12 15 2 41 9 57 15 17 6 55 18 85 28s65 25 77 33c45 32 38 114-12 147-29 19-15 21-195-36-47-15-116-37-154-49s-72-18-76-14-17 33-30 63c-20 49-52 119-122 269-23 49-25 75-8 141 22 84 39 155 53 215 8 33 28 114 45 180s46 185 66 263c19 79 37 146 39 149 6 5 87-17 102-28 6-4 33-14 60-22 70-22 136-46 160-57 11-6 61-24 110-40 50-17 99-35 110-40 39-19 169-60 190-60 12 0 35 12 50 26 23 21 27 31 22 62-8 52-47 81-159 119-51 18-124 44-163 58-38 15-88 33-110 40-22 8-69 25-105 38s-100 37-142 53c-87 31-88 32-63 117 28 93 33 111 55 212 13 55 41 170 63 255 53 206 61 258 48 293-22 57-98 61-127 6-15-30-59-190-89-324-30-135-46-201-61-254-16-61-26-100-45-174-9-38-15-47-28-42-9 4-52 19-96 35-163 57-341 121-360 131-20 9-235 87-267 96-28 8-22 17 35 42 243 110 283 139 273 201-7 45-51 83-85 75-14-4-88-37-165-75-104-50-144-65-152-56-6 6-23 40-39 76-93 215-121 260-160 260s-75-44-75-91c0-21 4-47 9-57 5-9 18-37 29-62s37-80 57-123c22-47 34-82 28-88-5-5-31-1-63 11-30 12-82 30-115 41s-87 31-120 44c-33 12-100 37-150 55-186 66-231 82-280 100-27 10-77 28-110 40s-84 32-113 43l-54 21 7 46c4 25 13 70 21 100 18 71 18 140-2 168s-74 30-99 3zm150-532c60-23 126-47 145-54 41-16 242-88 440-159 47-16 89-33 94-37 7-6-162-93-394-202-36-16-139-66-230-110-292-141-352-168-346-152 3 8 12 52 21 98 9 45 20 98 25 117 14 51 49 199 75 320 7 36 18 83 23 105 6 22 13 57 16 78 4 20 10 37 14 37s56-18 117-41zm995-361c43-17 60-30 70-53 14-31 74-161 136-293 19-40 34-75 34-77 0-3 14-33 30-67 17-35 50-106 72-158 23-52 46-96 50-98s8-8 8-14c0-5 6-24 14-41 24-54 126-277 172-375 24-52 44-106 44-120 0-24-36-171-43-178-2-2-30 13-62 33-55 33-234 134-365 205-30 17-66 38-80 48-14 9-43 26-65 36s-59 31-81 46c-23 15-45 28-48 28-4 0-23 10-44 23-86 54-138 54-167-2-13-27-14-35-2-63 21-49 28-54 197-146 36-20 67-38 70-41s34-21 70-40 79-43 95-52c95-56 182-105 199-112 10-4 30-15 45-26 14-10 58-35 96-56 111-60 104-48 82-142l-18-81-112-36c-62-19-124-38-139-42l-28-6 20 43c24 54 25 83 3 120-30 50-57 40-159-62-93-92-106-103-183-140-136-66-314-15-461 132-79 79-150 173-150 198 0 5-3 11-8 13-6 3-72 134-92 183-54 137-70 226-70 393 0 145 11 227 47 351 14 51 88 204 112 233 6 7 23 28 37 46 32 39 127 112 147 112 7 0 19 6 26 13 8 8 44 12 104 12 85 0 97-3 159-34 165-82 306-270 408-541 28-74 49-116 67-132 31-27 62-31 90-13 25 17 26 19 20 104-6 94-30 168-96 301-66 131-163 253-298 373-39 34-183 107-212 107-39 0-22 15 57 49 42 19 86 41 97 48 26 18 38 17 105-9zm435-157c11-5 47-19 80-31s68-26 77-31c10-5 27-9 37-9 11 0 23-4 26-10 3-5 14-10 23-10s30-7 46-15c15-8 34-15 41-15s34-9 60-21c42-19 46-24 42-47-10-52-86-365-149-611l-22-84-17 39c-10 21-38 82-62 134s-52 113-62 135c-41 94-130 286-166 360-21 45-39 84-39 87s-18 45-40 92-40 87-40 89c0 5 135-38 165-52zm-1349-274c-52-106-74-174-101-313-22-118-20-361 5-489 25-133 39-196 49-220 5-11 18-47 31-80 22-59 116-245 129-255 3-3 18-24 33-47s56-71 91-107c34-36 60-66 56-66-10 0-229 88-269 108-27 14-44 35-73 92-21 41-131 257-244 479-179 353-204 409-200 440 7 47 63 301 68 305 2 2 40 20 84 40 44 21 143 68 220 106s143 69 146 70c3 0-8-28-25-63zm-523-794c13-27 29-57 35-68s48-94 93-185 94-187 108-215c15-27 32-62 38-77 11-25 11-26-15-18-25 7-128 48-177 70-11 5-64 26-117 47-82 31-98 41-98 59 0 11 19 99 41 195 23 96 44 189 47 207 2 17 8 32 13 32 4 0 19-21 32-47zm2193-341c-10-10-29 15-21 28 6 9 10 8 17-4 6-10 7-20 4-24zm-46-181c0-5-7-11-15-15-9-3-15 0-15 9 0 8 7 15 15 15s15-4 15-9zm-274-347c-21-99-71-292-78-299-3-3-21 1-39 8-19 8-59 25-89 37-30 13-68 29-85 36-16 7-48 19-70 27-108 40-159 60-181 72-26 13-41 8 296 113 69 22 154 49 190 60s66 19 68 18c1-2-4-34-12-72zm-1141-69c42-18 37-27-22-38-30-6-34-3-53 33l-20 39 28-9c15-4 45-16 67-25z" fill="#1b2867"/><path d="M1135 3921c-9-11-26-55-37-98-41-168-40-165-68-158-14 4-38 13-55 21-16 7-75 29-130 48s-120 42-145 51c-57 21-103 13-118-21-24-50-7-118 32-130 12-3 35-12 51-19 60-25 252-95 261-95 5 0 28-8 51-17 33-14 41-22 38-38-3-11-18-78-35-150-35-148-71-308-94-410-74-339-71-331-132-359-97-45-89-48-137 51-55 114-74 141-109 159-24 12-33 13-46 3-57-43-57-96-1-205 65-126 65-123 21-141-45-18-235-109-351-166-46-23-94-55-107-70-41-48-27-105 31-127 39-15 26-20 407 164 76 36 140 66 143 66s5-6 5-12c0-7 7-26 16-43 9-16 29-55 45-87l29-56-21-89c-11-48-27-117-35-153-9-36-22-92-29-125-35-165-55-249-60-253-4-5-83 25-175 65-62 27-124 42-147 36-26-6-53-50-53-85 0-52 47-85 195-137 30-11 73-27 96-37 40-18 41-20 36-59-3-22-13-69-22-105-27-111-30-172-9-197 53-62 123-22 142 82 18 95 39 186 45 192 5 4 93-24 142-47 11-5 52-21 90-36 39-14 84-32 100-39 105-43 136-55 191-76 51-19 66-30 87-64 13-23 28-53 32-66s19-41 32-62c14-22 22-45 19-52-3-8-24-19-48-25-132-35-181-100-125-166 30-35 76-35 182 0 44 14 81 26 82 26 2 0 24-43 49-95 50-105 83-140 124-130 72 18 79 78 21 193l-39 78 66 22c210 70 213 70 285 38 18-8 59-24 92-37s65-26 70-30c6-3 28-12 50-19s54-18 70-26c62-27 201-82 238-94 22-7 51-18 65-26 15-8 32-14 39-14 6 0 14-4 17-8 3-5-13-77-35-160-45-174-50-251-19-282 47-47 101-9 130 93 11 40 25 86 30 102 4 17 11 46 15 65 9 53 27 120 32 120 8 0 157-60 186-75 46-24 92-19 116 11 12 15 21 39 21 55 0 50-42 84-158 129-59 23-111 45-116 50-4 4-1 39 8 77 16 66 79 311 98 384 9 35 11 36 131 73 67 20 129 39 137 42 12 3 31-29 74-123 75-165 96-193 141-193 28 0 37 6 50 30 20 38 19 69-4 130-11 27-15 50-9 50 5 0 37-16 69-35 70-41 88-43 116-12 27 29 33 60 22 101-8 27-23 41-94 82-46 27-85 52-85 55 0 4 12 9 28 12 15 2 41 9 57 15 17 6 55 18 85 28s65 25 77 33c45 32 38 114-12 147-29 19-15 21-195-36-47-15-116-37-154-49s-72-18-76-14-17 33-30 63c-20 49-52 119-122 269-23 49-25 75-8 141 22 84 39 155 53 215 8 33 28 114 45 180s46 185 66 263c19 79 37 146 39 149 6 5 87-17 102-28 6-4 33-14 60-22 70-22 136-46 160-57 11-6 61-24 110-40 50-17 99-35 110-40 39-19 169-60 190-60 12 0 35 12 50 26 23 21 27 31 22 62-8 52-47 81-159 119-51 18-124 44-163 58-38 15-88 33-110 40-22 8-69 25-105 38s-100 37-142 53c-87 31-88 32-63 117 28 93 33 111 55 212 13 55 41 170 63 255 53 206 61 258 48 293-22 57-98 61-127 6-15-30-59-190-89-324-30-135-46-201-61-254-16-61-26-100-45-174-9-38-15-47-28-42-9 4-52 19-96 35-163 57-341 121-360 131-20 9-235 87-267 96-28 8-22 17 35 42 243 110 283 139 273 201-7 45-51 83-85 75-14-4-88-37-165-75-104-50-144-65-152-56-6 6-23 40-39 76-93 215-121 260-160 260s-75-44-75-91c0-21 4-47 9-57 5-9 18-37 29-62s37-80 57-123c22-47 34-82 28-88-5-5-31-1-63 11-30 12-82 30-115 41s-87 31-120 44c-33 12-100 37-150 55-186 66-231 82-280 100-27 10-77 28-110 40s-84 32-113 43l-54 21 7 46c4 25 13 70 21 100 18 71 18 140-2 168s-74 30-99 3zm150-532c60-23 126-47 145-54 41-16 242-88 440-159 47-16 89-33 94-37 7-6-162-93-394-202-36-16-139-66-230-110-292-141-352-168-346-152 3 8 12 52 21 98 9 45 20 98 25 117 14 51 49 199 75 320 7 36 18 83 23 105 6 22 13 57 16 78 4 20 10 37 14 37s56-18 117-41zm995-361c43-17 60-30 70-53 14-31 74-161 136-293 19-40 34-75 34-77 0-3 14-33 30-67 17-35 50-106 72-158 23-52 46-96 50-98s8-8 8-14c0-5 6-24 14-41 24-54 126-277 172-375 24-52 44-106 44-120 0-24-36-171-43-178-2-2-30 13-62 33-55 33-234 134-365 205-30 17-66 38-80 48-14 9-43 26-65 36s-59 31-81 46c-23 15-45 28-48 28-4 0-23 10-44 23-86 54-138 54-167-2-13-27-14-35-2-63 21-49 28-54 197-146 36-20 67-38 70-41s34-21 70-40 79-43 95-52c95-56 182-105 199-112 10-4 30-15 45-26 14-10 58-35 96-56 111-60 104-48 82-142l-18-81-112-36c-62-20-126-38-142-42-19-3-39-18-53-39-38-55-116-122-187-161-181-100-380-82-572 50-29 20-57 36-62 36-11 0-225 85-271 108-27 14-44 35-73 92-21 41-131 257-244 479-179 353-204 409-200 440 7 47 63 301 68 305 2 2 31 16 64 31s137 65 230 111c154 75 173 88 205 131 60 82 188 193 223 193 9 0 18 4 21 9 13 21 148 43 229 39 78-5 86-4 162 30 44 20 89 42 100 49 26 18 39 17 105-9zm435-157c11-5 47-19 80-31s68-26 77-31c10-5 27-9 37-9 11 0 23-4 26-10 3-5 14-10 23-10s30-7 46-15c15-8 34-15 41-15s34-9 60-21c42-19 46-24 42-47-10-52-86-365-149-611l-22-84-17 39c-10 21-38 82-62 134s-52 113-62 135c-41 94-130 286-166 360-21 45-39 84-39 87s-18 45-40 92-40 87-40 89c0 5 135-38 165-52zM843 1803c13-27 29-57 35-68s48-94 93-185 94-187 108-215c15-27 32-62 38-77 11-25 11-26-15-18-25 7-128 48-177 70-11 5-64 26-117 47-82 31-98 41-98 59 0 11 19 99 41 195 23 96 44 189 47 207 2 17 8 32 13 32 4 0 19-21 32-47zm2193-341c-10-10-29 15-21 28 6 9 10 8 17-4 6-10 7-20 4-24zm-46-181c0-5-7-11-15-15-9-3-15 0-15 9 0 8 7 15 15 15s15-4 15-9zm-274-347c-21-99-71-292-78-299-3-3-21 1-39 8-19 8-59 25-89 37-30 13-68 29-85 36-16 7-48 19-70 27-108 40-159 60-181 72-26 13-41 8 296 113 69 22 154 49 190 60s66 19 68 18c1-2-4-34-12-72zm-1141-69c42-18 37-27-22-38-30-6-34-3-53 33l-20 39 28-9c15-4 45-16 67-25z" fill="#007a38"/><path d="M2115 3645c-27-27-34-88-16-123 5-9 18-37 29-62s37-80 57-122c20-43 34-82 31-87-6-9-228-121-240-121-4 0-82-36-174-81s-196-95-232-112c-108-50-385-184-555-267-176-86-300-144-333-154-20-7-27 2-65 81-55 114-74 141-109 159-24 12-33 13-46 3-57-43-57-96-1-205 65-126 65-123 21-141-45-18-235-109-351-166-46-23-94-55-107-70-41-48-27-105 31-127 39-15 26-20 407 164 76 36 140 66 143 66s5-6 5-12c0-7 8-26 17-43 9-16 65-127 126-245 60-118 115-226 122-240 8-14 48-95 91-180 72-145 100-199 233-453 28-54 51-103 51-108s11-26 24-47c12-20 27-48 31-62s19-42 32-63c14-22 22-45 19-52-3-8-24-19-48-25-132-35-181-100-125-166 30-35 76-35 182 0 44 14 81 26 82 26 2 0 24-43 49-95 50-105 83-140 124-130 72 18 79 78 21 193l-39 78 61 21c34 11 96 31 137 43s89 27 105 34c17 7 80 27 140 45 254 75 450 136 665 205 58 19 128 41 155 49 28 8 102 31 165 50s124 38 135 41c18 5 28-9 79-121 75-165 96-193 141-193 28 0 37 6 50 30 20 38 19 69-4 130-11 27-15 50-9 50 5 0 37-16 69-35 70-41 88-43 116-13 27 30 33 61 22 102-8 27-23 41-94 82-46 27-85 52-85 55 0 4 12 9 28 12 15 2 41 9 57 15 17 6 55 18 85 28s65 25 77 33c45 32 38 114-12 147-29 19-15 21-195-36-47-15-116-37-154-49s-72-18-76-14-17 33-30 63c-20 48-42 98-121 266-10 23-19 46-19 52s-4 12-9 14c-4 2-41 77-80 168-40 91-87 197-106 235-18 39-43 93-55 120-51 113-134 295-171 370-21 45-39 84-39 88 0 6-52 118-151 323-21 45-39 85-39 90s24 20 53 33c243 110 283 139 273 201-7 45-51 83-85 75-14-4-88-37-165-75-104-50-144-65-152-56-6 6-23 40-39 76-93 215-121 260-160 260-13 0-36-11-50-25zm205-595c18-48 58-137 161-358 22-46 39-85 39-87 0-3 14-33 30-67 17-35 50-106 72-158 23-52 46-96 50-98s8-8 8-14c0-11 6-25 83-193 82-179 114-248 174-375 82-174 106-230 99-238-3-2-74 35-158 83-146 85-320 183-438 247-30 17-66 38-80 48-14 9-43 26-65 36s-59 31-81 46c-23 15-45 28-48 28-4 0-23 10-44 23-86 54-138 54-167-2-13-27-14-35-2-63 21-49 28-54 197-146 36-20 67-38 70-41s34-21 70-40 79-43 95-52c95-56 182-105 199-112 10-4 30-15 45-26 28-19 123-72 231-128 74-39 130-75 130-84 0-8-62-30-150-55-36-9-112-32-169-51-57-18-117-35-135-38-21-4-39-18-54-39-66-97-215-194-330-217-76-14-186-7-260 17-52 17-53 17-135-9-97-30-172-52-209-61-25-6-30-1-70 71-24 43-45 82-47 88-19 50-547 1090-590 1163-17 29-31 56-31 60s-16 38-35 75l-34 68 102 48c56 27 129 61 162 76s137 65 230 111c154 75 173 88 205 131 60 82 188 193 223 193 9 0 18 4 21 9 13 21 148 43 229 39 70-4 90-2 132 17 71 31 169 79 175 85 12 13 76 37 81 31 3-3 12-22 19-41z" fill="#fbc707"/><path d="M1993 2010c-12-5-29-23-38-39-13-27-14-35-2-63 21-49 28-54 197-146 36-20 67-38 70-41s34-21 70-40 79-43 95-52c95-56 182-105 199-112 10-4 30-15 45-26 28-19 97-58 231-128 47-25 92-51 100-58 8-6 29-19 45-27 106-54 321-174 373-209 24-16 45-29 48-29s33-16 65-35c70-41 88-43 116-12 27 29 33 60 22 100-7 27-23 42-86 79-43 26-91 52-108 59-16 8-58 30-93 51-34 21-64 38-66 38-10 0-221 124-224 131-2 5-9 9-15 9-7 0-75 37-152 81-137 79-335 191-445 251-30 17-66 38-80 48-14 9-43 25-65 35s-47 24-55 30c-15 13-115 69-160 91-40 19-64 23-87 14z" fill="#a7a5a6"/></svg>