<svg width="18" height="24" fill="none" xmlns="http://www.w3.org/2000/svg"><path d="M16.405 0H1.595a.703.703 0 00-.703.703V20.45c0 .389.314.703.703.703h5.29v2.144a.703.703 0 00.883.68L9 23.648l1.232.328a.703.703 0 00.883-.68v-2.144h5.29a.703.703 0 00.703-.703V.703A.703.703 0 0016.405 0zM9.18 22.242a.703.703 0 00-.36 0l-.529.14v-1.3a2.72 2.72 0 001.418 0v1.3l-.529-.14zm1.139-3.791A1.32 1.32 0 019 19.77a1.32 1.32 0 01-1.319-1.32A1.32 1.32 0 019 17.133a1.32 1.32 0 011.319 1.319zm5.383 1.296h-4.306c.21-.386.33-.827.33-1.296A2.728 2.728 0 009 15.725a2.728 2.728 0 00-2.397 4.022H2.298V1.407h13.404v18.34z" fill="#5f712d"/><path d="M4.764 14.115h8.472a.703.703 0 100-1.406H4.764a.703.703 0 000 1.406zM4.764 11.291h8.472a.703.703 0 100-1.406H4.764a.703.703 0 000 1.406zM4.764 8.467h8.472a.703.703 0 000-1.406H4.764a.703.703 0 000 1.406zM4.764 5.643h5.648a.703.703 0 000-1.407H4.764a.703.703 0 000 1.407z" fill="#BD5319"/></svg>