<svg width="24" height="17" fill="none" xmlns="http://www.w3.org/2000/svg"><path d="M19.773 3.843L12 10.692 4.227 3.843a.747.747 0 10-.987 1.12l8.267 7.284a.745.745 0 00.988 0l8.265-7.283a.747.747 0 00-.987-1.12z" fill="#5F712D"/><path d="M21.76.67H2.24A2.243 2.243 0 000 2.91v11.848a2.243 2.243 0 002.24 2.24h19.52a2.243 2.243 0 002.24-2.24V2.91A2.243 2.243 0 0021.76.67zm.747 14.088a.748.748 0 01-.747.747H2.24a.748.748 0 01-.747-.747V2.91c0-.412.335-.747.747-.747h19.52c.412 0 .747.335.747.747v11.848z" fill="#5F712D"/></svg>