<svg width="246" height="45" viewBox="0 0 246 45" fill="none" xmlns="http://www.w3.org/2000/svg"><g clip-path="url(#clip0)"><path d="M175.788 43.816c-7.298-.86-13.674-5.037-16.995-11.097-3.362-6.163-3.485-14.394-.308-20.68 2.337-4.607 6.314-8.313 11.112-10.299C173.061.328 174.25.123 179.273.123c5.002 0 6.334.205 9.655 1.556 2.542 1.024 7.155 3.89 7.155 4.463 0 .103-1.517 2.027-3.383 4.26l-3.362 4.074-1.64-1.126c-3.075-2.089-5.022-2.724-8.425-2.724-3.055-.02-4.674.553-7.032 2.437-1.127.921-2.726 3.337-3.321 4.975-.635 1.864-.779 5.017-.307 7.003 1.271 5.323 5.617 8.722 11.193 8.743 2.193 0 4.817-.594 6.088-1.393.431-.286.451-.43.451-2.825v-2.54h-8.2v-8.599h19.68V37.428l-1.066.799c-3.341 2.498-7.769 4.484-11.746 5.282-1.907.39-7.134.553-9.225.307zM28.556 33.845c-4.489-5.16-10.414-11.957-13.181-15.131C4.182 5.917.103 1.208.041 1.024 0 .88 6.047.819 16.892.819h16.912l14.31 16.42c13.058 15.03 17.67 20.312 19.413 22.277 1.948 2.191 2.993 3.44 2.993 3.563 0 .062-7.605.123-16.892.123H36.715l-8.159-9.357zM118.49 22.01V.82h34.03l-.041 5.18-.061 5.16-11.009.061-11.029.041v6.962H150.265v9.827H130.38l-.041 7.535-.062 7.514-5.883.062-5.904.04v-21.19zM217.854 43.059c-.062-.103-1.005-2.375-2.091-5.078-1.927-4.75-2.932-7.248-6.765-16.687-.984-2.416-2.542-6.286-3.485-8.6-.943-2.313-2.399-5.896-3.239-7.985L200.736.921l6.581-.061c5.084-.041 6.601.02 6.724.205.102.143.41.941.697 1.801.594 1.7 1.927 5.406 3.895 10.852a681.911 681.911 0 012.357 6.552c2.501 6.982 2.522 7.064 2.686 6.634.102-.205.779-2.089 1.517-4.177 2.214-6.204 3.341-9.316 4.715-13.104.717-1.966 1.722-4.73 2.214-6.142l.922-2.56 6.499-.061 6.478-.041-.144.45c-.061.266-.635 1.72-1.25 3.235a488.842 488.842 0 00-2.214 5.426 2627.03 2627.03 0 01-4.92 12.08c-1.292 3.174-3.178 7.78-5.125 12.592-2.604 6.41-3.198 7.863-3.403 8.231-.185.348-.595.369-5.617.369-2.973 0-5.453-.061-5.494-.143z" fill="#fff"/><path d="M78.823 26.126c-.554-.389-4.797-3.01-9.43-5.856-4.613-2.846-8.549-5.303-8.713-5.466-.267-.267-.164-.43.922-1.434l7.319-6.859L75.03.82h16.42c9.39 0 16.38.082 16.339.184-.02.103-.943.983-2.009 1.986-1.066.983-3.136 2.908-4.612 4.28-1.456 1.372-4.1 3.808-5.843 5.425-1.743 1.618-3.69 3.42-4.305 4.014-5.35 4.995-10.926 10.114-11.029 10.114-.082-.02-.594-.327-1.168-.696z" fill="#0791D3"/></g><defs><clipPath id="clip0"><path fill="#fff" d="M0 0h246v44.021H0z"/></clipPath></defs></svg>