<svg width="64" height="64" fill="none" xmlns="http://www.w3.org/2000/svg"><circle cx="32" cy="32" r="32" fill="#E86C00"/><path d="M11.075 46.458c-1.367-.288-2.637-1.374-3.198-2.733-.281-.68-.377-1.19-.377-1.95 0-1.455.54-2.696 1.595-3.649 1.315-1.19 3.206-1.47 5.112-.753.51.192 1.359.694 1.47.864.051.081-.133.428-.724 1.374l-.79 1.27-.43-.221c-.856-.436-1.61-.444-2.222-.023-.805.554-.842 1.854-.067 2.371.133.096.355.17.488.17h.25V41.48h3.399V46.48l-.385.052c-.746.088-3.611.037-4.121-.074zM16.245 41.775v-4.801H21.416v2.363H18.978v1.256H20.677v2.364H18.978v1.255l1.204.015 1.197.022.022 1.167.022 1.16h-5.178v-4.801zM22.08 41.775v-4.801h2.327l.886 1.625c.488.894.916 1.625.946 1.625.03 0 .052-.724.052-1.603l-.015-1.61 1.484-.022 1.485-.015v9.602h-2.481l-.806-1.44-.812-1.44-.023 1.44-.014 1.44H22.08v-4.801zM33.307 46.465c-.96-.273-1.839-.857-2.408-1.61-.738-.982-1.026-1.847-1.019-3.08 0-.96.104-1.396.532-2.29.37-.76 1.24-1.647 1.987-2.016 1.787-.88 3.663-.562 5.089.864.702.702 1.137 1.5 1.322 2.422.392 1.98-.406 4.011-1.98 5.067-.79.525-1.314.687-2.304.724-.584.023-.93-.007-1.219-.08zm1.574-3.39c1.078-.458 1.07-2.098-.008-2.57-.857-.385-1.787.295-1.787 1.3 0 .967.938 1.64 1.795 1.27zM39.512 41.775v-4.801H42.518l.54 1.182c.295.65.56 1.181.583 1.181.022 0 .288-.531.59-1.181l.547-1.182H47.784v9.602h-3.028l-.007-2.342v-2.348l-.54 1.063-.539 1.064-.384-.731a34.033 34.033 0 01-.547-1.064l-.162-.332-.022 2.348-.015 2.342h-3.028v-4.801zM48.324 46.487c.014-.052.118-.48.228-.945a3069.35 3069.35 0 001.53-6.796c.206-.915.398-1.684.428-1.72.03-.03.93-.045 2.001-.037l1.95.022.06.258a972.958 972.958 0 001.02 4.801c.117.547.368 1.714.553 2.585.184.872.347 1.662.369 1.758l.037.163-1.381-.015-1.389-.022-.155-.739-.148-.738-1.004-.023-1.005-.022-.155.672a7.606 7.606 0 00-.155.783c0 .09-.236.104-1.41.104-1.101 0-1.404-.022-1.374-.089zm4.557-3.915c0-.192-.4-1.905-.443-1.905-.037 0-.148.465-.429 1.832-.03.155-.007.162.421.162.31 0 .45-.03.45-.089zM25.552 34.95c0-.015.251-.185.561-.377.739-.465 1.743-1.425 2.312-2.23.894-1.249 1.337-2.216 2.26-4.86.65-1.877.901-2.512 1.3-3.302.303-.598.864-1.536.923-1.536.126 0 1.574 3.28 1.485 3.368-.037.037-1.108-.392-2.06-.813-.237-.103-.436-.162-.458-.125-.111.177-.562 1.529-.532 1.595.014.052.472.259 1.019.458 3.974 1.507 6.234 1.5 7.682-.037.842-.901 1.314-2.201 1.566-4.299.066-.546.17-1.167.228-1.366.111-.384.57-1.005.673-.901.08.074.243 1.123.243 1.588l.008.391-.414-.229c-.221-.133-.42-.221-.443-.2-.067.06-.163.828-.118.88.096.096 1.086.443 1.418.495l.332.044v10.562l-.17.274a1.804 1.804 0 01-.443.443l-.273.17-8.546.022c-4.705.007-8.553 0-8.553-.015zM20.75 33.584l-.258-.045-.022-1.396c-.007-.775 0-1.381.022-1.359.089.089 1.123 2.785 1.086 2.83-.052.043-.48.029-.827-.03zM21.32 31.81l-.865-1.69v-3.161l.37-.274c.207-.155.42-.296.48-.318.148-.059 1.713 3.154 2.4 4.92.296.753.547 1.403.569 1.447.052.133-1.566.768-1.965.768-.088 0-.376-.502-.99-1.691zM23.964 30.917a44.564 44.564 0 01-1.41-3.154 58.63 58.63 0 00-.673-1.67c-.081-.132 1.182-.553 2.245-.745l.23-.037.723 1.455c.399.798.93 1.972 1.182 2.6l.458 1.145-.155.222c-.2.287-1.655 1.735-1.75 1.735-.038 0-.422-.694-.85-1.55z" fill="#FFFDFC"/><path d="M26.416 28.871a38.596 38.596 0 01-1.041-2.349l-.466-1.181.562-.023c.605-.022 1.78.133 2.666.355.303.081.554.133.561.126.133-.156.835-1.714.79-1.758-.088-.082-1.72-.57-2.533-.754-.583-.125-.96-.155-2.179-.155-1.647-.007-2.15.067-3.493.517-.421.14-.783.251-.798.251-.015 0-.03-1.278-.03-2.836 0-2.822 0-2.829.17-3.08.089-.133.28-.325.414-.414l.251-.17h10.666c11.618 0 10.843-.03 11.256.421.28.303.362.62.362 1.404 0 .687 0 .694-.162.642-.296-.096-1.042-.051-1.345.074-.812.34-1.026.724-1.44 2.526-.28 1.197-.694 2.467-.812 2.467-.119 0-1.758-3.59-1.67-3.678.045-.052 1.81.71 2.334.997.023.015.089-.184.148-.45l.118-.473-.893-.517c-1.943-1.138-3.162-1.58-4.329-1.588-.871-.008-1.477.177-2.238.687-1.662 1.115-3.08 3.168-4.52 6.573-.488 1.16-1.448 3.14-1.64 3.383-.133.163-.133.163-.709-.997z" fill="#FFFDFC"/><path d="M36.705 26.663c-.524-.082-1.071-.192-1.403-.296l-.37-.11-.524-1.042a33.574 33.574 0 01-.894-1.972l-.362-.93.421-.4c.237-.221.658-.502.946-.642l.524-.251.76 1.514c.644 1.292 1.715 3.796 1.715 4.018 0 .14-.318.184-.813.11zM37.34 25.03c-.642-1.285-1.743-3.877-1.743-4.099 0-.096 1.374-.03 1.773.089.25.066.295.14.871 1.307.636 1.3 1.27 2.836 1.27 3.065 0 .28-1.004 1.093-1.344 1.093-.051 0-.428-.657-.827-1.455zM43.16 22.645c-.214-.082-.236-.155-.332-1.263-.074-.82-.074-.975.015-1.035.133-.08.31-.08.54.008l.191.074v1.145c0 1.24 0 1.24-.413 1.07z" fill="#FFFDFC"/></svg>