<svg width="247" height="63" viewBox="0 0 247 63" fill="none" xmlns="http://www.w3.org/2000/svg"><path d="M100.22 43.189c0-.533-.328-.902-1.025-1.066v-.328c.369 0 1.681.04 2.009.04.287 0 1.558-.04 1.927-.04v.328c-.656.123-.984.492-.984 1.066v6.56c0 2.09 1.148 3.239 3.567 3.239 2.05 0 3.69-.902 3.69-3.116v-6.765c0-.492-.287-.861-1.066-1.025v-.328c.287 0 1.353.04 1.681.04.287 0 1.435-.04 1.722-.04v.328c-.738.164-1.066.492-1.066 1.025v6.396c0 2.87-1.681 4.51-5.289 4.51-3.362 0-5.125-1.517-5.125-4.223l-.041-6.601zM114.652 53.562c.779-.164 1.107-.533 1.107-1.025v-9.061c0-.78-.41-1.107-1.107-1.312v-.328c.41.04 1.066.04 1.394.04.369 0 .738 0 1.107-.04l7.913 9.266v-7.913c0-.492-.287-.861-1.066-1.025v-.328c.287 0 1.312.04 1.681.04.287 0 1.394-.04 1.681-.04v.328c-.738.164-1.107.492-1.107 1.025v10.906h-.492c-.287-.082-.861-.41-1.722-1.353l-7.093-8.2v7.995c0 .492.287.86 1.066 1.025v.328c-.287 0-1.312-.041-1.681-.041-.287 0-1.394.04-1.681.04v-.327zM177.136 51.102h.328c.164.656.574 1.271 1.107 1.64a3.69 3.69 0 002.173.574c1.599 0 2.624-.779 2.624-2.009 0-1.27-1.312-1.968-2.829-2.747-1.148-.574-3.403-1.517-3.403-3.69 0-2.05 1.558-3.28 4.059-3.28 1.64 0 2.419.41 3.526.328l-.041 2.46h-.328c-.451-1.435-1.763-1.968-3.198-1.968-1.64 0-2.214.902-2.214 1.845 0 1.353 1.312 2.01 2.829 2.665 1.681.738 3.526 1.681 3.526 3.772 0 1.968-1.558 3.444-4.428 3.444-1.681 0-2.706-.492-3.608-.615l-.123-2.419zM213.052 48.396v4.1c0 .246.123.533.328.697.205.205.451.328.697.328v.328c-.41 0-1.681-.041-2.05-.041-.287 0-1.517.04-2.009.04v-.286c.287-.041.533-.164.697-.328.205-.205.328-.451.328-.697V48.6l2.009-.205zm-1.845.492l-3.239-5.125c-.533-.902-.984-1.394-1.599-1.6v-.327c.451 0 1.64.04 1.968.04.328 0 1.599-.04 2.05-.04v.328c-.41.082-.615.287-.615.574.041.328.164.656.369.943l2.378 3.936 2.296-3.936c.205-.328.328-.656.41-1.025 0-.246-.164-.41-.574-.492v-.328c.369 0 1.189.04 1.476.04.246 0 1.189-.04 1.599-.04v.287c-.902.369-1.435 1.148-1.968 2.009l-2.952 4.879M151.265 41.836h7.544c.287 0 .574-.04.861-.123h.328l-.041 2.42h-.328c-.287-.78-.574-1.395-2.05-1.395h-3.28v4.264h2.542c.328 0 .656-.04 1.025-.082.246-.04.451-.164.615-.328.164-.164.287-.369.328-.615h.328c-.041.37-.041 1.23-.041 1.476s.041 1.148.041 1.517h-.328c-.164-.492-.369-.86-.902-.984-.328-.082-.656-.082-1.025-.082h-2.542v5.002h3.567c1.558 0 2.009-.656 2.419-1.558l.328.082-.328 2.501c-1.066-.082-2.132-.123-3.157-.082h-3.772c-.369 0-1.681.041-2.091.041v-.328c.697-.123 1.066-.45 1.066-1.107V43.23c0-.574-.287-.943-1.066-1.066l-.041-.328zM131.954 43.27c0-.614-.369-.942-1.107-1.106v-.328c.41 0 1.722.04 2.091.04.328 0 1.681-.04 2.091-.04v.328c-.738.164-1.107.45-1.107 1.107v9.184c0 .615.369.943 1.107 1.107v.328c-.41 0-1.722-.041-2.091-.041-.328 0-1.681.04-2.091.04v-.327c.738-.123 1.107-.451 1.107-1.107V43.27zM189.313 43.27c0-.614-.369-.942-1.107-1.106v-.328c.41 0 1.722.04 2.091.04.287 0 1.681-.04 2.091-.04v.328c-.738.164-1.107.45-1.107 1.107v9.184c0 .615.369.943 1.107 1.107v.328c-.41 0-1.681-.041-2.091-.041-.287 0-1.681.04-2.091.04v-.327c.738-.123 1.107-.451 1.107-1.107V43.27zM199.809 41.877c-4.141 0-4.797-.082-5.658-.123v2.501h.328c.287-1.107.902-1.353 1.722-1.353h2.583v9.594c0 .656-.369.984-1.107 1.107v.328c.41 0 1.804-.04 2.091-.04.369 0 1.681.04 2.091.04v-.369c-.738-.164-1.107-.492-1.107-1.107v-9.594h2.583c.82 0 1.435.287 1.722 1.353h.328v-2.5c-.779.081-1.435.163-5.576.163zM166.763 47.535a18.8 18.8 0 001.517.082c2.255 0 2.993-1.312 2.993-2.46 0-1.64-1.107-2.624-3.075-2.624-.492 0-.943.04-1.435.123v4.879zm0 4.92c0 .615.41.943 1.107 1.107v.328c-.41 0-1.722-.041-2.091-.041-.328 0-1.599.04-2.009.04v-.327c.697-.123 1.066-.451 1.066-1.107v-9.266c0-.574-.287-.902-1.066-1.066v-.328c.41 0 1.681.04 2.05.04.574 0 2.296-.081 2.952-.081 2.911 0 4.51 1.189 4.51 3.239 0 1.599-1.189 2.706-3.075 3.157.328.205.615.45.861.738.492.615 1.886 2.583 2.46 3.28.574.697 1.312 1.476 2.091 1.517v.287c-.492.082-.943.164-1.435.164-.984 0-1.763-.328-2.542-1.271-.656-.82-1.804-2.46-2.46-3.321-.205-.287-.492-.574-.82-.738a2.55 2.55 0 00-1.066-.37c-.164-.04-.369-.04-.574-.081l.041 4.1zM137.94 43.312a1.898 1.898 0 00-.533-.738 2.206 2.206 0 00-.82-.41v-.328c.451 0 1.927.04 2.255.04.328 0 1.599-.04 2.05-.04v.328c-.41.082-.861.287-.861.697 0 .287.164.656.492 1.394l3.116 7.093 2.952-7.093c.205-.41.328-.902.41-1.353 0-.37-.328-.615-.82-.738v-.328c.41 0 1.353.04 1.64.04.287 0 1.394-.04 1.845-.04v.328c-.738.205-1.189.615-1.599 1.558l-4.346 10.209h-.984l-4.797-10.62zM149.133 11.086c-.492-1.107-1.271-1.927-2.583-2.214v-.656c.82 0 3.526.082 4.141.082.574 0 3.198-.082 4.018-.082v.615c-.738.164-1.599.574-1.599 1.312 0 .533.328 1.271.943 2.665l5.945 13.407 5.617-13.448c.451-1.107.779-1.927.779-2.583 0-.697-.656-1.189-1.599-1.394v-.615c.738 0 2.542.082 3.116.082.533 0 2.665-.082 3.485-.082v.615c-1.394.37-2.255 1.19-3.034 2.993l-8.282 19.393h-1.845l-9.102-20.09zM69.183 30.479c1.066-.246 1.845-.738 1.845-1.968V10.758c0-1.19-.697-1.64-1.845-1.927v-.615c.574 0 2.993.082 3.608.082.697 0 3.239-.082 3.813-.082v.615c-1.066.246-1.886.738-1.886 1.927v7.42h13.284v-7.42c0-1.23-.697-1.681-1.845-1.927v-.615c.574 0 3.075.082 3.772.082.574 0 3.075-.082 3.649-.082v.615c-1.066.246-1.886.738-1.886 1.927v17.794c0 1.148.738 1.64 1.886 1.968v.574c-.574 0-3.075-.041-3.649-.041-.697 0-3.198.04-3.772.04v-.573c1.066-.246 1.845-.738 1.845-1.968v-8.405H74.677v8.405c0 1.23.738 1.64 1.886 1.968v.574c-.574 0-3.116-.041-3.813-.041-.574 0-3.034.04-3.608.04v-.614h.041zM228.96 29.29c1.189.164 2.378.246 3.608.246 6.888 0 10.455-4.1 10.455-9.84 0-5.945-3.772-10.127-10.209-10.127-1.271 0-2.583.082-3.854.246V29.29zm-5.822 1.189c1.394-.246 2.132-.779 2.132-2.05V10.758c0-1.23-.738-1.681-2.091-1.927v-.656c.779 0 3.28.082 3.977.082 1.107 0 4.223-.246 6.683-.246 8.2 0 13.161 4.551 13.161 11.439 0 6.724-5.166 11.685-13.612 11.685-2.419 0-5.33-.205-6.437-.205-.697 0-3.034.082-3.772.082l-.041-.533zM130.437 19.04c.943.123 1.927.164 2.87.123 4.305 0 5.658-2.46 5.658-4.633 0-3.075-2.091-5.002-5.863-5.002-.902 0-1.804.082-2.706.246v9.266h.041zm0 9.348c0 1.189.738 1.845 2.132 2.091v.615c-.779 0-3.28-.082-3.977-.082-.615 0-3.075.082-3.854.082v-.615c1.271-.246 2.05-.861 2.05-2.091V10.84c0-1.066-.574-1.763-2.05-2.009v-.615c.779 0 3.198.082 3.895.082 1.107 0 4.305-.205 5.576-.205 5.494 0 8.569 2.255 8.569 6.15 0 3.034-2.296 5.125-5.781 5.945.615.369 1.148.861 1.599 1.394.984 1.148 3.649 4.961 4.756 6.273 1.066 1.312 2.46 2.788 3.977 2.829v.533c-.902.164-1.804.287-2.706.287-1.886 0-3.362-.656-4.838-2.419-1.271-1.517-3.444-4.756-4.674-6.314a4.612 4.612 0 00-1.558-1.394c-.615-.369-1.271-.574-1.968-.697-.369-.041-.697-.123-1.066-.164l-.082 7.872zM203.007 19.04c.943.123 1.927.164 2.87.123 4.305 0 5.658-2.46 5.658-4.633 0-3.075-2.091-5.002-5.822-5.002-.902 0-1.804.082-2.706.246v9.266zm0 9.348c0 1.189.738 1.845 2.132 2.091v.615c-.779 0-3.28-.082-3.977-.082-.615 0-3.075.082-3.854.082v-.615c1.271-.246 2.05-.861 2.05-2.091V10.84c0-1.066-.574-1.763-2.009-2.009v-.615c.779 0 3.198.082 3.895.082 1.148 0 4.305-.205 5.576-.205 5.494 0 8.569 2.255 8.569 6.15 0 3.034-2.296 5.125-5.781 5.945.615.369 1.148.861 1.599 1.394.984 1.148 3.69 4.961 4.756 6.273 1.066 1.312 2.46 2.788 3.936 2.829v.533c-.902.164-1.804.287-2.706.287-1.886 0-3.362-.656-4.838-2.419-1.23-1.517-3.444-4.756-4.674-6.314a4.612 4.612 0 00-1.558-1.394c-.615-.369-1.271-.574-1.968-.697-.369-.041-.697-.123-1.066-.164l-.082 7.872zM111.741 21.91l-3.69-8.487-3.403 8.487h7.093zm-14.678 8.569c1.476-.328 2.255-1.271 2.788-2.542l7.38-17.63c.287-.738.492-1.476.697-2.214h2.05c.164.738.41 1.517.656 2.214l7.79 17.671c.574 1.23 1.148 2.091 2.706 2.501v.574c-.861 0-3.485-.041-4.059-.041-.615 0-3.075.041-3.936.041v-.574c1.148-.287 1.476-.861 1.476-1.394a4.248 4.248 0 00-.451-1.558l-1.681-3.813h-8.569l-1.517 3.813a4.343 4.343 0 00-.369 1.476c0 .656.328 1.148 1.64 1.476v.574c-.779 0-2.788-.041-3.239-.041l-3.321.041-.041-.574zM184.762 21.91l-3.69-8.487-3.403 8.487h7.093zm-14.637 8.569c1.435-.328 2.255-1.271 2.788-2.542l7.38-17.63c.287-.738.492-1.476.697-2.214h2.05c.164.738.41 1.517.656 2.214l7.79 17.671c.533 1.23 1.148 2.091 2.706 2.501v.574c-.861 0-3.485-.041-4.059-.041-.615 0-3.075.041-3.936.041v-.574c1.148-.287 1.476-.861 1.476-1.394-.041-.533-.205-1.066-.41-1.558l-1.681-3.813h-8.569l-1.517 3.813a4.343 4.343 0 00-.369 1.476c0 .656.328 1.148 1.64 1.476v.574c-.779 0-2.788-.041-3.239-.041l-3.321.041-.082-.574z" fill="#fff"/><path d="M1.123 1.082h51.414v19.27c0 8.856-3.321 27.593-25.502 41.574 0 0-24.067-10.004-25.871-41.574V1.082h-.041z" fill="#A62131"/><path d="M1 1h51.455v19.352c0 8.856-3.321 27.593-25.543 41.574 0 0-24.067-10.004-25.912-41.574V1v0z" stroke="#000" stroke-width=".648"/><path d="M40.032 25.887s-.451 1.435-2.501-.041l-7.011-.164s-.902.287-1.025-.656c0 0 .164-1.886.082-2.05 0 0 .041-.533-.861-.533 0 0-1.394.164-1.476-1.066 0 0-.246-1.312 1.722-1.271 0 0 .615.287.656-.492 0 0-.082-5.371-.041-5.781 0 0 .164-.492-.779-.574 0 0-1.394.287-1.517-.615 0 0-.082-1.353.82-1.435 0 0 1.107.082 1.312-.205 0 0 .246.164.205-.82l.041-1.681s.123-.451.82-.41c0 0 1.312.082 1.476-.041.123-.164.246-.369.369-.533 0 0 .656-.041.779.123 0 0 .984.656 4.797.41 0 0 .574 0 .697.164 0 0 .697.533 1.107-.041.82-.123 1.64-.164 2.46-.123 0 0 2.05.533 3.444-.615l.451.082s.574.943.984.656c0 0 1.23-.123 1.476.123 0 0 .41.615.205 2.255 0 0-.246.697.943.697 0 0 1.394-.246 1.189 1.025 0 0 .369 1.435-1.927 1.23a1.113 1.113 0 00-.246.697s-.041 4.715-.082 5.248c0 0-.041.738.943.697 0 0 1.353-.082 1.394 1.107 0 0 .164 1.558-1.763 1.271 0 0-.574.082-.656.451l-.082 2.05s.041 1.025-1.107.779c-.164 0-6.478.123-7.052-.041.123 0-.205-.041-.246.123zM26.584 32.775c.164-.082.287-.164.369-.328 0 0 .861-.082.984-.205l2.747.205s2.706.205 3.854-.615c.246 0 .492.041.697.123 0 0 .574.123.738.369l1.599-.041s.902.287.82.861v.738s-.164 1.476.246 1.558h1.23s.984.451.861 1.025c0 .246-.082.451-.246.656a1.128 1.128 0 01-.615.328c-.369.123-.779.164-1.148.205a2.033 2.033 0 00-.328.82l-.123 5.412s-.082.574.779.492c0 0 1.271-.123 1.681.574 0 0 .328 1.189-.328 1.394l-.492.246-1.107.164s-.451.041-.492.82v1.435s.041.984-.738.984l-1.148.082c-.123.082-.287.123-.41.164-.164 0-.287 0-.451-.082 0 0-7.093.123-7.339.041l-.82.164s-.902.82-1.681.205l-.574-.451c-.205.041-.369.041-.574.041-.164-.041-7.831.082-7.831.082s-1.64.164-1.763-.369c0 0-.205-2.091-.123-2.378 0 0 0-.615-.369-.656 0 0-1.64-.082-1.681-.246 0 0-.861-.615-.615-1.23a1.34 1.34 0 01.451-.615c.205-.164.451-.246.697-.287 0 0 1.312.205 1.312-.164.082-.205.082-.451.082-.656 0 0 .082-4.92.041-5.248 0 0 .123-.615-.41-.615a1.476 1.476 0 01-.943-.082s-.984.041-1.23-.738c-.082-.287-.082-.615.082-.902 0 0 .451-.902 1.804-.615 0 0 .738.205.82-.328l-.041-2.009s-.164-.533.861-.82c0 0 1.353.369 1.763-.287 0 0 .451-.902.82-.287 0 0 .779.738 2.952.656 0 0 3.731-.287 3.813-.123 0 0 .902.123 1.148.41l.369.123zM15.227 25.887s-.451 1.435-2.501-.041l-6.97-.164s-.902.287-1.025-.656c0 0 .164-1.886.082-2.05 0 0 .041-.533-.861-.533 0 0-1.394.164-1.435-1.066 0 0-.246-1.312 1.722-1.271 0 0 .615.287.656-.492 0 0-.082-5.371-.041-5.781 0 0 .164-.492-.779-.574 0 0-1.394.287-1.517-.615 0 0-.082-1.353.82-1.435 0 0 1.107.082 1.312-.205 0 0 .246.164.205-.82l.041-1.722s.123-.451.82-.41c0 0 1.312.082 1.476-.041.123-.164.246-.369.369-.533 0 0 .656-.041.779.123 0 0 .984.656 4.797.41 0 0 .574 0 .697.164 0 0 .697.533 1.107-.041.82-.123 1.681-.123 2.501-.082 0 0 2.05.533 3.444-.615l.451.082s.574.943.984.656c0 0 1.23-.123 1.476.123 0 0 .41.615.205 2.255 0 0-.246.697.943.697 0 0 1.394-.246 1.23 1.025 0 0 .369 1.435-1.927 1.23a1.113 1.113 0 00-.246.697s-.041 4.715-.082 5.248c0 0-.041.738.943.697 0 0 1.312-.082 1.353 1.107 0 0 .164 1.558-1.763 1.271 0 0-.574.082-.656.451l-.082 2.05s.041 1.025-1.107.779c-.164 0-6.478.123-7.052-.041.041 0-.287-.041-.369.123z" fill="#fff"/><path d="M40.032 25.887s-.451 1.435-2.501-.041l-7.011-.164s-.902.287-1.025-.656c0 0 .164-1.886.082-2.05 0 0 .041-.533-.861-.533 0 0-1.394.164-1.476-1.066 0 0-.246-1.312 1.722-1.271 0 0 .615.287.656-.492 0 0-.082-5.371-.041-5.781 0 0 .164-.492-.779-.574 0 0-1.394.287-1.517-.615 0 0-.082-1.353.82-1.435 0 0 1.107.082 1.312-.205 0 0 .246.164.205-.82l.041-1.681s.123-.451.82-.41c0 0 1.312.082 1.476-.041.123-.164.246-.369.369-.533 0 0 .656-.041.779.123 0 0 .984.656 4.797.41 0 0 .574 0 .697.164 0 0 .697.533 1.107-.041.82-.123 1.64-.164 2.46-.123 0 0 2.05.533 3.444-.615l.451.082s.574.943.984.656c0 0 1.23-.123 1.476.123 0 0 .41.615.205 2.255 0 0-.246.697.943.697 0 0 1.394-.246 1.189 1.025 0 0 .369 1.435-1.927 1.23a1.113 1.113 0 00-.246.697s-.041 4.715-.082 5.248c0 0-.041.738.943.697 0 0 1.353-.082 1.394 1.107 0 0 .164 1.558-1.763 1.271 0 0-.574.082-.656.451l-.082 2.05s.041 1.025-1.107.779c-.164 0-6.478.123-7.052-.041.123 0-.205-.041-.246.123z" fill="#000"/><path d="M40.032 25.887s-.451 1.435-2.501-.041l-7.011-.164s-.902.287-1.025-.656c0 0 .164-1.886.082-2.05 0 0 .041-.533-.861-.533 0 0-1.394.164-1.476-1.066 0 0-.246-1.312 1.722-1.271 0 0 .615.287.656-.492 0 0-.082-5.371-.041-5.781 0 0 .164-.492-.779-.574 0 0-1.394.287-1.517-.615 0 0-.082-1.353.82-1.435 0 0 1.107.082 1.312-.205 0 0 .246.164.205-.82l.041-1.681s.123-.451.82-.41c0 0 1.271.082 1.476-.041.123-.164.246-.369.369-.533 0 0 .656-.041.779.123 0 0 .984.656 4.797.41 0 0 .574 0 .697.164 0 0 .697.533 1.107-.041.82-.123 1.64-.164 2.46-.123 0 0 2.05.533 3.444-.615l.451.082s.574.943.984.656c0 0 1.23-.123 1.476.123 0 0 .41.615.205 2.255 0 0-.246.697.943.697 0 0 1.394-.246 1.189 1.025 0 0 .369 1.435-1.927 1.23a1.113 1.113 0 00-.246.697s-.041 4.715-.082 5.248c0 0-.041.738.943.697 0 0 1.353-.082 1.394 1.107 0 0 .164 1.558-1.763 1.271 0 0-.574.082-.656.451l-.082 2.05s.041 1.025-1.107.779c-.164 0-6.478.123-7.052-.041.123 0-.164-.041-.246.123z" stroke="#000" stroke-width=".028"/><path d="M32.16 8.83s.082.82.082 1.026c0 .205-.123 11.972-.123 11.972.041.287 0 .533-.123.779s-.287.45-.533.574c0 0-.205.082-.246-.492l.082-12.423c-.041 0 .041-1.517.861-1.435z" fill="#fff"/><path d="M32.16 8.83s.082.82.082 1.026c0 .205-.123 11.972-.123 11.972.041.287 0 .533-.123.779s-.287.45-.533.574c0 0-.205.082-.246-.492l.082-12.423c-.041 0 .041-1.517.861-1.435z" stroke="#000" stroke-width=".028"/><path d="M30.766 23.304s.082-11.685.041-11.849c-.041-.205.041.164.041.164s-.123-2.05.41-2.87c0 0-.164-.697-1.107.164l-.041 1.681s0 .943-.861.902c0 0-.984-.041-1.476.41 0 0-.246.902.697.738 0 0 1.517 0 1.599.615l-.082 6.273s.328 1.025-.82 1.025c0 0-1.435-.082-1.394.779 0 0 .287.738 1.517.492 0 0 .861.164.82.984v1.558s-.082.615.738.656h6.478s.328.041.328-.369c0 0-.041-.328-.533-.328l-5.412-.082c.041.041-.861.328-.943-.943z" fill="#fff"/><path d="M32.037 23.304s-.164.574.451.451h4.264l1.148.246s1.189-.287 0-.943c0 0-3.813.041-4.182-.04l-.943-.247c.041-.04-.369-.205-.738.533z" fill="#fff"/><path d="M32.037 23.304s-.164.574.451.451h4.264l1.148.246s1.23-.287 0-.943c0 0-3.813.041-4.182-.041 0 0-.779-.205-.943-.246.041 0-.369-.205-.738.533z" stroke="#000" stroke-width=".028"/><path d="M39.171 23.878s-.779 0-.738 1.025c.041.205.123.41.287.574.164.164.369.205.615.205a.911.911 0 00.533-.328.808.808 0 00.123-.615s-.451-1.025-.82-.861zM39.745 23.468s.369-.41.615-.41c0 0 4.182.369 4.879-.123 0 0 .615-.123.779 0 0 0 .615.492.615.779 0 0-.041.369-.779.164l-4.961.041c-.041 0-1.312.287-1.148-.451z" fill="#fff"/><path d="M39.745 23.468s.369-.41.615-.41c0 0 4.182.369 4.879-.123 0 0 .615-.123.779 0 0 0 .615.492.615.779 0 0-.041.369-.779.164l-4.961.041c-.041 0-1.312.287-1.148-.451z" stroke="#000" stroke-width=".028"/><path d="M40.278 24.78s0-.328.574-.328l5.822-.041s.533.287.533-.697c0 0 .205-4.51.246-9.471 0-1.476.082-3.034.041-4.469 0 0-.123-.615-.287-.738 0 0 0-.656.697-.41 0 0 .615.041.451.984l.041 1.435s-.123.615.984.451c0 0 1.107.164 1.148.574 0 0 .328.82-.984.738h-.984c-.123.082-.205.205-.287.328-.041.123-.082.287-.041.41l-.123 6.027s-.082 1.025.902.984c0 0 1.025-.041 1.23.287 0 0 .697 1.025-.82.943 0 0-.943-.041-1.148.123 0 0-.164.205-.287 2.173 0 0 .082 1.148-.779 1.025 0 0-5.781.082-6.314-.041 0 0-.574.164-.656-.287M32.775 8.421l-.123 13.284s-.041.615.984.738c0 0 1.189.123 1.476 0 0 0 .779-.041 2.829.041 0 0 .492.492.533-.123 0 0 .328-10.742.164-12.997 0 0-.041-.943-.738-.984 0 0-3.157.246-3.444 0l-1.271-.328c.041 0-.451.041-.41.369z" fill="#fff"/><path d="M39.335 9.118s-.123 6.273-.082 6.478l-.082 5.248-.164 1.845s.246.369.451.123c0 0 1.312-.328 2.173-.205 0 0 2.665.246 3.198-.164 0 0 .41.205.533-.451 0 0 .164-11.603.082-11.808 0 0 .164-1.681.082-1.845 0 0-.041-.369-.738-.041 0 0 .082.328-3.854.205 0-.041-1.476-.082-1.599.615zM45.977 8.954l-.041 13.079s.328 1.148.861 1.066c.041-.205.082-.451.123-.656l.164-12.464c0-.041-.41-2.01-1.107-1.025z" fill="#fff"/><path d="M45.977 8.954l-.041 13.08s.328 1.147.861 1.065c.082-.205.123-.45.123-.656l.164-12.464c0-.04-.41-2.05-1.107-1.025z" stroke="#000" stroke-width=".028"/><path d="M40.852 12.849c-.123-.328.697-.369.697-.369l.41.082c.205 0 .41 0 .574.082a.313.313 0 01.082.205v.205c0 .082-.041.123-.082.164-.041.041-.123.082-.164.123l-.164.533c-.041.451 0 4.387 0 4.387.123.205.246.41.41.574 0 .369-.451.287-.451.287l-1.189.041c-.369-.041-.246-.451-.246-.451.41-.205.533-.943.533-.943v-4.1l-.41-.82zM35.276 13.423c.041.902.041 2.173.041 2.173.082.082.205.164.328.164a.569.569 0 00.369 0c.123-.041.246-.082.328-.164.082-.082.164-.164.205-.287 1.025-.984 0-1.886-.164-2.132-.164-.246-.984-.041-.984-.041l-.123.287zm-.041 3.28l-.082 1.271.369.615c.246.328-.164.574-.164.574l-1.312-.123c-.246-.123 0-.533 0-.533a.638.638 0 00.246-.328.791.791 0 00.123-.41l-.041-2.419.041-1.722c0-.205-.328-.574-.328-.574-.287-.041-.205-.41-.205-.41.082-.205.779-.082.779-.082h1.763c1.681.533 1.394 1.722 1.394 1.722.123 1.189-1.148 1.681-1.148 1.681l-.082.656 1.189 1.886c.041.041.082.082.123.164.041.041.041.123.041.205-.164.451-.82 0-.82 0l-1.517-2.337c-.123-.123-.369.164-.369.164zM26.584 32.775c.164-.082.287-.164.369-.328 0 0 .861-.082.984-.205l2.747.205s2.706.205 3.854-.615c.246 0 .492.041.697.123 0 0 .574.123.738.369l1.599-.041s.902.287.82.861v.738s-.164 1.476.246 1.558h1.23s.984.451.861 1.025c0 .246-.082.451-.246.656a1.128 1.128 0 01-.615.328c-.369.123-.779.164-1.148.205a2.033 2.033 0 00-.328.82l-.123 5.412s-.082.574.779.492c0 0 1.271-.123 1.681.574 0 0 .328 1.189-.328 1.394l-.492.246-1.107.164s-.451.041-.492.82v1.435s.041.984-.738.984l-1.148.082c-.123.082-.287.123-.41.164-.164 0-.287 0-.451-.082 0 0-7.093.123-7.339.041l-.82.164s-.902.82-1.681.205l-.574-.451c-.205.041-.369.041-.574.041-.164-.041-7.831.082-7.831.082s-1.64.164-1.763-.369c0 0-.205-2.091-.123-2.378 0 0 0-.615-.369-.656 0 0-1.64-.082-1.681-.246 0 0-.861-.615-.615-1.23a1.34 1.34 0 01.451-.615c.205-.164.451-.246.697-.287 0 0 1.312.205 1.312-.164.082-.205.082-.451.082-.656 0 0 .082-4.92.041-5.248 0 0 .123-.615-.41-.615a1.476 1.476 0 01-.943-.082s-.984.041-1.23-.738c-.082-.287-.082-.615.082-.902 0 0 .451-.902 1.804-.615 0 0 .738.205.82-.328l-.041-2.009s-.164-.533.861-.82c0 0 1.353.369 1.763-.287 0 0 .451-.902.82-.287 0 0 .779.738 2.952.656 0 0 3.731-.287 3.813-.123 0 0 .902.123 1.148.41l.369.123z" fill="#000"/><path d="M26.584 32.734c.164-.082.287-.164.369-.328 0 0 .861-.082.984-.205l2.747.205s2.706.205 3.854-.615c.246 0 .492.041.697.123 0 0 .574.123.738.369l1.599-.041s.902.287.82.861v.738s-.164 1.476.246 1.558h1.189s.984.451.861 1.025c0 .246-.082.451-.246.656a1.128 1.128 0 01-.615.328c-.369.123-.779.164-1.148.205a2.033 2.033 0 00-.328.82l-.123 5.412s-.082.574.779.492c0 0 1.271-.123 1.681.574 0 0 .328 1.189-.328 1.394l-.492.246-1.107.164s-.451.041-.492.82v1.435s.041.984-.738.984l-1.148.082c-.123.082-.287.123-.41.164-.164 0-.287 0-.451-.082 0 0-7.093.123-7.339.041l-.82.164s-.902.82-1.681.205l-.574-.451c-.205.041-.369.041-.574.041-.164-.041-7.831.082-7.831.082s-1.64.164-1.763-.369c0 0-.205-2.132-.123-2.378 0 0 0-.615-.369-.656 0 0-1.64-.082-1.681-.246 0 0-.861-.615-.615-1.23a1.34 1.34 0 01.451-.615c.205-.164.451-.246.697-.287 0 0 1.312.205 1.312-.164.082-.205.082-.451.082-.656 0 0 .082-4.92.041-5.248 0 0 .123-.615-.41-.615a1.476 1.476 0 01-.943-.082s-.984.041-1.189-.738c-.082-.287-.082-.615.082-.902 0 0 .451-.902 1.804-.615 0 0 .738.205.82-.328l-.041-2.009s-.164-.533.861-.82c0 0 1.312.369 1.763-.287 0 0 .451-.902.82-.287 0 0 .779.738 2.952.656 0 0 3.731-.287 3.813-.123 0 0 .902.123 1.148.41l.369.123z" stroke="#000" stroke-width=".028"/><path d="M27.65 49.052c.246-.123.533-.205.82-.164.328.082 5.207-.041 5.207-.041s2.132.164 2.46-.123l.492-.164a.98.98 0 00.205-.574c0-.328.041-1.435.041-1.435l.123-.41s-.041-.41 0-11.48c0 0 .164-.861-.369-1.394 0 0 0-.328.164-.287.164.04.082.04.082.04s.738-.204.861.083c0 0 .328.984.041 1.558 0 0-.082 1.23.533 1.23.123.082.246.123.369.164.123.04.246 0 .41-.041 0 0 1.066.123 1.066.45 0 .083 0 .206-.041.288-.041.082-.082.164-.164.205l-.246.123a.35.35 0 01-.287 0l-.984.082a.816.816 0 00-.492.328.712.712 0 00-.123.574c.082.779-.041 6.437-.041 6.437s0 .656 1.025.615c0 0 1.271-.041 1.271.328 0 0 .328.82-.574.86 0 0-1.763-.04-1.64.452-.041.45-.123.902-.205 1.353 0 0 .164.943-.041 1.107 0 0-.123.533-1.23.45 0 0-7.175-.04-8.282.042.041 0-.615-.082-.451-.656zM26.379 48.273c.205.04.369.123.492.287.123.164.205.328.205.533 0 .656.041 1.025-.369 1.107-.123.04-.205.04-.328.04a.593.593 0 01-.287-.081c-.082-.041-.164-.123-.246-.205a.443.443 0 01-.123-.287c-.164-.615.041-1.271.656-1.394z" fill="#fff"/><path d="M27.199 47.945s.738-.492 1.025-.41c0 0 3.772.246 4.961.041 1.189-.205.451-.041.451-.041s.984 0 1.271-.369c.082 0 .164 0 .287.041.082.041.164.082.205.164l.615.656s.041.41-.656.369c0 0-6.806 0-7.011.041 0 0-1.271.205-1.148-.492z" fill="#fff"/><path d="M27.199 47.945s.738-.492 1.025-.41c0 0 3.813.246 4.961.041 1.148-.205.451-.041.451-.041s.984 0 1.312-.369c.082 0 .164 0 .246.041.082.041.164.082.205.164l.615.656s.041.41-.656.369c0 0-6.806 0-7.011.041 0 0-1.271.205-1.148-.492z" stroke="#000" stroke-width=".028"/><path d="M17.318 33.267s.287 0 .246.492l-.082 12.505c.041.246 0 .533-.123.738a1.34 1.34 0 01-.451.615s-.369.451-.369-.246l.164-12.75s.041-.944.615-1.354z" fill="#fff"/><path d="M17.318 33.267s.287 0 .246.492l-.082 12.505c.041.246 0 .533-.123.78a1.34 1.34 0 01-.451.614s-.369.451-.369-.246l.164-12.75c0-.042.041-.985.615-1.395z" stroke="#000" stroke-width=".028"/><path d="M16.662 33.349s-.492.902-.451 1.107l-.041 2.788s-.041 1.763 0 1.968c.041.205-.041 5.412-.041 5.412s-.041.984 0 1.312v2.214s-.082.984.656.738c0 0 7.339-.164 7.79-.041 0 0 .656.123.41.451 0 0 0 .287-.451.205-2.173.205-4.387.246-6.56.205 0 0-2.091.123-2.214-.123 0 0-.328-.041-.328-1.23 0-.451 0-.902-.082-1.312 0 0 .082-.574-.943-.697 0 0-1.476.246-1.517-.615 0 0 .205-.615 1.64-.533 0 0 1.025.164.82-.656l.123-6.109s.123-1.066-.574-1.107c-.287 0-.574 0-.861.041 0 0-1.189 0-1.107-.697 0 0 .41-.738 1.64-.574 0 0 .902.164.943-.861 0 0-.041-2.132.451-2.214-.041 0 .984.041.697.328z" fill="#fff"/><path d="M17.892 47.043c.205.205.451.328.697.451.246.082.533.164.82.123l5.658.082s.615.041.574.369c0 0-.082.492-.82.328l-6.806-.082-.738.041s-.492-.082.287-1.025l.328-.287z" fill="#fff"/><path d="M17.892 47.043c.205.205.451.328.697.451.246.082.533.164.82.123l5.658.082s.615.041.574.369c0 0-.082.492-.82.328l-6.847-.082-.738.041s-.492-.082.287-1.025l.369-.287z" stroke="#000" stroke-width=".028"/><path d="M35.399 46.51s.492.943.738 1.066c0 0 .451.533.328-.41l.082-11.931a2.339 2.339 0 010-1.066l-.492-.902s-.533-.41-.533.246l-.082 12.71-.041.287z" fill="#fff"/><path d="M35.399 46.51s.492.943.738 1.066c0 0 .451.533.328-.41l.082-11.931a2.339 2.339 0 010-1.066l-.492-.902s-.533-.41-.533.246l-.082 12.71-.041.287z" stroke="#000" stroke-width=".028"/><path d="M26.174 40.811c0 .656 0 1.312-.082 1.927-.082.533.164 2.952-.041 4.182 0 0-.041.41-.902.041 0 0-5.33.123-5.494-.041 0 0-1.476.041-1.599-.697 0 0 .205-5.658.082-5.863 0 0-.082-3.116 0-3.403 0 0 .123-2.87.041-3.198.041-.328 0-.656-.082-.984 0 0 0-.41.697-.164 0 0 .246.451 1.64.246.656.082 1.312.123 1.968.041 0 0 2.132-.164 2.665 0a.857.857 0 01.697.164c.205.123.328.369.369.615l-.041 2.583.246.82.287-.205.123-.615.041-2.747c.082-.164.205-.287.328-.41a.788.788 0 01.492-.164s1.025-.123 1.23-.041c1.025.123 2.009.164 3.034.082.615-.123.738.41 2.624-.533 0 0 .492.041.492.369 0 0-.164 3.526 0 4.182 0 0 0 6.478-.123 6.929l.082 2.05s.082.902-1.353.984c0 0 .902.123-4.838-.041-.656 0-1.312.123-1.927.41 0 0-.205-.041-.205-.574a30.22 30.22 0 000-3.854l-.082-2.132-.369.041z" fill="#fff"/><path d="M22.402 37.9s.123 3.075 0 3.485l-.041.656c.082.246.246.451.41.615 0 0 .205.574-.287.533-.41-.041-.861-.041-1.271-.041 0 0-.574 0 0-.738.164-.328.205-.697.164-1.025 0 0 0-3.485.082-3.69 0 0 .082-.451-.205-.574l-.492.041-.615.574s-.123.615-.41-.041v-.328l.369-.984.246-.041c.205.164.451.246.697.328h1.968l.697-.328s.287.041.205.41c0 0 .123.943-.41 1.066-.123-.041-.205-.123-.328-.246a.893.893 0 01-.205-.328c0-.041-.533-.328-.574.656zM31.586 36.752c-.205 0-.41 0-.615.082-.205.082-.369.205-.533.328a1.56 1.56 0 00-.369.533c-.082.205-.123.41-.082.615 0 0-.164 1.148 1.599 1.927 0 0 1.312.615 1.189 1.394 0 0-.164 1.394-1.517.697 0 0-.656-.328-.615-.697 0 0-.205-.451-.451-.369 0 0-.287.082-.164 1.435 0 0 0 .533.615 0l.328.082s1.107.902 2.091-.205c0 0 1.025-.943.287-2.091-.369-.533-.902-.943-1.517-1.23 0 0-.902-.41-1.107-1.107 0 0 .287-1.23 1.394-.574.205.246.41.41.656.574 0 0 .328 0 .246-.738l-.082-.615s-.082-.451-.656 0c0 0-.533.205-.697-.041zM25.846 38.638c-.041.205-.328 1.353-.328 1.353l.246.41s.656.041.902.041.287-.205.287-.41a14.678 14.678 0 00-.451-1.435l-.205-.246-.451.287zm.697-2.747c.205.164.287.37.328.615a49.855 49.855 0 011.517 5.371c.164.287.369.533.574.738.697.246 0 .451 0 .451-.287.123-1.23-.04-1.23-.04-.492-.083-.287-.247-.287-.247.205-.205.041-1.025.041-1.025-.082-.328-.246-.615-.41-.86-.164-.083-.451.286-.451.286s-.451.164-.492 0c-.041-.164-.328-.328-.328-.328-.492 0-.697 1.23-.697 1.23.287 1.025 0 .861 0 .861-.246.328-1.025.082-1.025.082-.369-.082-.123-.369-.123-.369.123-.04.287-.123.369-.205.082-.082.164-.246.205-.369.205-.287 1.517-5.658 1.517-5.658.082-.246.164-.738.492-.533zM15.227 25.887s-.451 1.435-2.501-.041l-6.97-.164s-.902.287-1.025-.656c0 0 .164-1.886.082-2.05 0 0 .041-.533-.861-.533 0 0-1.394.164-1.435-1.066 0 0-.246-1.312 1.722-1.271 0 0 .615.287.656-.492 0 0-.082-5.371-.041-5.781 0 0 .164-.492-.779-.574 0 0-1.394.287-1.517-.615 0 0-.082-1.353.82-1.435 0 0 1.107.082 1.312-.205 0 0 .246.164.205-.82l.041-1.722s.123-.451.82-.41c0 0 1.312.082 1.476-.041.123-.164.246-.369.369-.533 0 0 .656-.041.779.123 0 0 .984.656 4.797.41 0 0 .574 0 .697.164 0 0 .697.533 1.107-.041.82-.123 1.681-.123 2.501-.082 0 0 2.05.533 3.444-.615l.451.082s.574.943.984.656c0 0 1.23-.123 1.476.123 0 0 .41.615.205 2.255 0 0-.246.697.943.697 0 0 1.394-.246 1.23 1.025 0 0 .369 1.435-1.927 1.23a1.113 1.113 0 00-.246.697s-.041 4.715-.082 5.248c0 0-.041.738.943.697 0 0 1.312-.082 1.353 1.107 0 0 .164 1.558-1.763 1.271 0 0-.574.082-.656.451l-.082 2.05s.041 1.025-1.107.779c-.164 0-6.478.123-7.052-.041.041 0-.287-.041-.369.123z" fill="#000"/><path d="M15.227 25.887s-.451 1.435-2.501-.041l-6.97-.164s-.902.287-1.025-.656c0 0 .164-1.886.082-2.05 0 0 .041-.533-.861-.533 0 0-1.394.164-1.435-1.066 0 0-.246-1.312 1.722-1.271 0 0 .615.287.656-.492 0 0-.082-5.371-.041-5.781 0 0 .164-.492-.779-.574 0 0-1.394.287-1.517-.615 0 0-.082-1.353.82-1.435 0 0 1.107.082 1.312-.205 0 0 .246.164.205-.82l.041-1.722s.123-.451.82-.41c0 0 1.312.082 1.476-.041.123-.164.246-.369.369-.533 0 0 .656-.041.779.123 0 0 .984.656 4.797.41 0 0 .574 0 .697.164 0 0 .697.533 1.107-.041.82-.123 1.681-.123 2.501-.082 0 0 2.05.533 3.444-.615l.451.082s.574.943.984.656c0 0 1.23-.123 1.476.123 0 0 .41.615.205 2.255 0 0-.246.697.943.697 0 0 1.394-.246 1.23 1.025 0 0 .369 1.435-1.927 1.23a1.113 1.113 0 00-.246.697s-.041 4.715-.082 5.248c0 0-.041.738.943.697 0 0 1.312-.082 1.394 1.107 0 0 .164 1.558-1.763 1.271 0 0-.574.082-.656.451l-.082 2.05s.041 1.025-1.107.779c-.164 0-6.478.123-7.052-.041 0 0-.328-.041-.41.123z" stroke="#000" stroke-width=".028"/><path d="M7.355 8.83s.082.82.082 1.026c0 .205-.123 11.972-.123 11.972.041.287 0 .533-.123.779s-.287.45-.533.574c0 0-.205.082-.246-.492l.082-12.423s.082-1.517.861-1.435z" fill="#fff"/><path d="M7.396 8.83s.082.82.082 1.026c0 .205-.123 11.972-.123 11.972.041.287 0 .533-.123.779s-.287.45-.533.574c0 0-.205.082-.246-.492l.082-12.423c-.041 0 .041-1.517.861-1.435z" stroke="#000" stroke-width=".028"/><path d="M6.002 23.304s.082-11.685.041-11.89c-.041-.205.041.164.041.164s-.123-2.009.41-2.87c0 0-.164-.697-1.107.164l-.041 1.681s0 .943-.861.902c0 0-.984-.041-1.476.41 0 0-.246.902.697.738 0 0 1.517 0 1.599.615l-.082 6.314s.328 1.025-.82 1.025c0 0-1.394-.082-1.394.779 0 0 .287.738 1.517.492 0 0 .861.164.82.984v1.558s-.082.615.738.656h6.478s.328.041.328-.369c0 0-.041-.328-.533-.328l-5.412-.082c0 .041-.861.328-.943-.943z" fill="#fff"/><path d="M7.109 23.386s-.164.574.451.451h4.305l1.148.246s1.23-.287 0-.943c0 0-3.813.041-4.182-.041 0 0-.779-.205-.943-.246.041 0-.41-.164-.779.533z" fill="#fff"/><path d="M7.109 23.386s-.164.574.451.451h4.305l1.189.246s1.23-.287 0-.943c0 0-3.813.041-4.182-.041l-.943-.246s-.451-.164-.82.533z" stroke="#000" stroke-width=".028"/><path d="M14.243 24.001s-.82 0-.738 1.025c.041.205.123.41.287.574.164.164.369.205.615.205a.911.911 0 00.533-.328c.123-.164.164-.41.123-.615 0-.041-.451-1.066-.82-.861zM14.817 23.55s.369-.41.615-.41c0 0 4.182.37 4.879-.123 0 0 .615-.123.779 0 0 0 .615.492.615.78 0 0-.041.368-.779.163l-4.961.041s-1.271.328-1.148-.45z" fill="#fff"/><path d="M14.817 23.55s.369-.41.615-.41c0 0 4.182.37 4.879-.123 0 0 .615-.123.779 0 0 0 .615.492.615.78 0 0-.041.368-.779.163l-4.961.041s-1.271.287-1.148-.45z" stroke="#000" stroke-width=".028"/><path d="M15.514 24.78s0-.328.574-.328l5.822-.041s.533.287.533-.697c0 0 .205-4.51.246-9.471 0-1.476.082-3.034 0-4.469 0 0-.123-.615-.287-.738 0 0 0-.656.697-.41 0 0 .615.041.451.984l.041 1.435s-.123.615.984.451c0 0 1.107.164 1.148.574 0 0 .328.82-.984.738h-.943c-.123.082-.205.205-.287.328-.041.123-.082.287-.041.41l-.123 5.986s-.082 1.025.902.984c0 0 1.025-.041 1.23.287 0 0 .697 1.025-.82.943 0 0-.943-.041-1.148.123 0 0-.164.205-.287 2.173 0 0 .082 1.148-.779 1.025 0 0-5.781.082-6.314-.041 0 .041-.574.246-.615-.246zM8.011 8.421l-.123 13.284s-.041.615.984.738c0 0 1.23.123 1.517 0 0 0 .779-.041 2.829.041 0 0 .492.492.533-.123 0 0 .328-10.783.164-12.997 0 0-.041-.943-.738-.984 0 0-3.157.246-3.444 0l-1.23-.328c-.041 0-.533.041-.492.369z" fill="#fff"/><path d="M21.213 8.954l-.041 13.079s.328 1.148.861 1.025c.082-.205.123-.451.123-.656l.164-12.464s-.41-2.01-1.107-.984z" fill="#fff"/><path d="M21.213 8.954l-.041 13.079s.328 1.148.861 1.025c.082-.205.123-.451.123-.656l.164-12.464s-.41-2.01-1.107-.984z" stroke="#000" stroke-width=".028"/><path d="M21.213 8.954l-.041 13.079s.328 1.148.861 1.025c.082-.205.123-.451.123-.656l.164-12.464s-.41-2.01-1.107-.984z" stroke="#000" stroke-width=".028"/><path d="M14.571 9.036s-.123 6.232-.082 6.478l-.082 5.248-.164 1.845s.246.369.451.123c0 0 1.312-.328 2.173-.205 0 0 2.665.246 3.198-.164 0 0 .41.205.533-.451 0 0 .164-11.603.082-11.808 0 0 .164-1.64.082-1.845 0 0-.041-.37-.738-.041 0 0 .082.328-3.895.205.041 0-1.476-.041-1.558.615z" fill="#fff"/><path d="M13.3 12.89l-.369.779s-.902 4.018-1.394 4.838c0 0-.082.82-.779.164 0 0-1.64-5.084-1.722-5.248l-.533-.369s-.328-.451.246-.492l1.517.041s.492.41-.164.861c0 0 .082.656.943 3.198 0 0 .246.943.533.246l.861-2.952-.246-.861s-.246-.41.123-.451c-.041-.041.861-.123.984.246zM15.719 13.546l-.041 4.387-.123.328s-.41.533-.123.574c0 0-.369.246 2.665.287 0 0 1.189.205.861-1.27 0 0-.123-.534-.533.245 0 0-.123.656-1.599.451a1.128 1.128 0 01-.328-.615v-1.845s-.041-.45.656-.41c0 0 .779.492.902.287 0 0 .287-.656 0-1.066 0 0-.369-.04-.41.123 0 0-.246.492-.943.205-.164-.369-.246-.779-.123-1.189 0 0-.082-1.025.615-.943 0 0 .82.164.902.41 0 0 .205.492.41-.082l-.205-.697s-.123-.287-.328-.205c0 0-1.394.205-1.599.041l-1.107.123c0 .082-.041.123-.041.205 0 .082.041.123.041.164.041.041.082.123.123.164a.31.31 0 00.164.082c.041.041.082.082.082.123.082.041.082.082.082.123z" fill="#000"/></svg>