<svg width="52" height="52" fill="none" xmlns="http://www.w3.org/2000/svg"><circle cx="26" cy="26" r="25" stroke="#F9F9F9" stroke-width="2"/><path d="M11.492 25.258L10 24.907v-.961l3.25-.095h2.016c1.15 0 2.068.26 2.754.781.686.515 1.029 1.28 1.029 2.299 0 1.51-.763 2.459-2.29 2.847.903.212 1.584.564 2.041 1.055.458.487.686 1.087.686 1.802 0 1.206-.377 2.095-1.132 2.667-.755.566-1.87.85-3.345.85H10v-1.056l1.492-.351v-9.487zm3.071 3.869c.823 0 1.47-.166 1.939-.498.468-.337.703-.846.703-1.527 0-.594-.189-1.049-.566-1.364-.372-.32-.858-.48-1.458-.48h-1.93v3.869h1.312zm.532 5.618c.829 0 1.46-.172 1.896-.515.434-.349.651-.85.651-1.501 0-.84-.257-1.432-.772-1.776-.514-.343-1.283-.514-2.307-.514h-1.312v4.306h1.844zM24.224 34.393c.046.023.152.072.318.146.166.068.392.134.677.197.286.063.598.094.935.094.704 0 1.327-.165 1.87-.497.55-.332.824-.792.824-1.381 0-.377-.118-.692-.352-.944a2.676 2.676 0 00-.875-.626c-.343-.16-.818-.351-1.424-.574-.794-.28-1.438-.543-1.93-.79a3.583 3.583 0 01-1.252-1.063c-.343-.463-.515-1.058-.515-1.784 0-1.16.395-2.033 1.184-2.616.795-.583 1.79-.875 2.985-.875.492 0 1.012.054 1.561.163.549.103 1.018.212 1.407.326.389.108.634.18.737.214l-.085 2.985h-1.141l-.6-1.878a13.154 13.154 0 01-.335-.095 4.83 4.83 0 00-.686-.154 5.203 5.203 0 00-.84-.069c-.75 0-1.327.17-1.733.506-.406.332-.61.732-.61 1.201 0 .378.118.695.352.952.235.252.526.46.875.627.355.165.85.36 1.484.583.76.268 1.384.523 1.87.763.486.24.898.58 1.235 1.02.343.435.515.987.515 1.656 0 .84-.206 1.553-.618 2.136a3.672 3.672 0 01-1.664 1.287c-.692.28-1.46.42-2.307.42-.55 0-1.09-.052-1.621-.154a13.223 13.223 0 01-1.33-.318 41.627 41.627 0 01-.669-.223v-3.08h1.407l.351 1.845zM40.68 29.212v1.407h-4.04v4.126l1.758.351v1.055h-5.095v-1.055l1.492-.351v-9.487l-1.492-.351v-.961l3.336-.095H42v2.9h-1.14l-.447-1.493H36.64v3.954h4.04z" fill="#F9F9F9"/><path d="M33.567 17.221c.137-.206.234-.414.29-.623.313-1.187.017-2.541.005-2.598a.44.44 0 00-.258-.303.505.505 0 00-.275-.036c.126-.379.165-.732.114-1.055-.189-1.21-1.01-2.364-1.045-2.413a.479.479 0 00-.362-.192.489.489 0 00-.385.15 6.315 6.315 0 00-.676.901c-.453.733-.638 1.39-.55 1.956l.009.048c-.1-.07-.165-.112-.176-.119a.503.503 0 00-.41-.054.453.453 0 00-.296.265c-.008.019-.182.472-.277 1.056-.135.827-.048 1.498.256 1.995.341.558.839 1.043 1.241 1.383l.012.136c-.165.09-.31.194-.435.31-.75.693-1.212 1.659-1.377 2.047a6.077 6.077 0 01-2.979.769c-1.05 0-2.07-.262-2.961-.759-.162-.381-.623-1.358-1.38-2.057a2.245 2.245 0 00-.436-.31l.012-.136c.403-.34.9-.826 1.241-1.383.304-.497.39-1.168.256-1.995a5.753 5.753 0 00-.277-1.056.454.454 0 00-.297-.265.503.503 0 00-.409.054 4.749 4.749 0 00-.177.12l.007-.042c.089-.565-.096-1.223-.549-1.955a6.332 6.332 0 00-.676-.902.489.489 0 00-.385-.15.478.478 0 00-.361.193c-.035.048-.857 1.202-1.046 2.412-.05.321-.013.671.111 1.047a.504.504 0 00-.27.037.44.44 0 00-.258.303c-.012.057-.308 1.41.006 2.598.055.21.152.417.29.623a.477.477 0 00-.357.194.403.403 0 00-.05.382c.021.055.531 1.353 1.467 2.218.438.404 1.116.66 2.015.763a7.47 7.47 0 001.032.043 7.073 7.073 0 003.452.886 7.075 7.075 0 003.453-.886 7.491 7.491 0 001.045-.043c.899-.102 1.577-.359 2.015-.763.936-.865 1.446-2.163 1.467-2.218a.403.403 0 00-.05-.382.477.477 0 00-.356-.194zm-13.886.047c-.338-.3-.554-.6-.626-.874-.144-.542-.131-1.148-.09-1.59.266.173.558.393.793.638.016.02.033.04.053.057.183.201.326.417.384.638.103.39.121.813.108 1.172a.393.393 0 00-.006.067 5.81 5.81 0 00-.616-.108zm2.062-3.23c.123.549.191 1.276-.09 1.737-.13.211-.29.412-.459.597a3.937 3.937 0 00-.088-.44 2.22 2.22 0 00-.41-.79l.026-.041c.295-.428.699-.801 1.02-1.062zm-2.26-1.302c.086-.551.342-1.108.559-1.504.333.477.684 1.14.602 1.66-.086.552-.345 1.104-.564 1.492-.33-.47-.68-1.124-.597-1.648zm.675 6.669c-.427-.395-.758-.919-.971-1.316.414.027.906.098 1.306.256a1.504 1.504 0 01.495.293c.427.394.75.916.957 1.311-.606-.037-1.384-.172-1.787-.544zm11.541-2.028c-.018-.372-.004-.825.106-1.24.061-.233.218-.462.417-.673l.005-.005c.239-.251.537-.477.808-.654.042.44.054 1.045-.09 1.589-.072.273-.288.574-.627.875-.22.027-.426.063-.619.108zm.257-6.152c.217.395.473.953.56 1.504.081.521-.268 1.177-.599 1.648-.218-.388-.477-.938-.563-1.492-.082-.521.27-1.183.602-1.66zm-1.608 4.55c-.281-.459-.213-1.187-.09-1.736.332.268.75.656 1.047 1.102-.203.261-.34.525-.411.792a3.95 3.95 0 00-.088.44 3.993 3.993 0 01-.459-.598zm1.494 3.63c-.403.372-1.18.507-1.787.544.207-.395.53-.917.957-1.311.336-.31.935-.457 1.48-.52a.505.505 0 00.154-.016 6.19 6.19 0 01.167-.013c-.213.398-.544.921-.971 1.316z" fill="#F8A06F"/></svg>