<svg width="24" height="22" fill="none" xmlns="http://www.w3.org/2000/svg"><path d="M23.297 4.648h-6.358V3.251A2.842 2.842 0 0014.1.412H9.9a2.842 2.842 0 00-2.84 2.84v1.396H.704A.703.703 0 000 5.352v12.773a3.467 3.467 0 003.463 3.463h17.074A3.467 3.467 0 0024 18.125V5.352a.703.703 0 00-.703-.704zm-9.702 9.176c0 .88-.715 1.596-1.595 1.596s-1.595-.716-1.595-1.596V12.23h3.19v1.595zm.704-3.001H9.7a.703.703 0 00-.703.703v1.277c-4.088-.888-7.154-3.54-7.548-6.748h21.1c-.395 3.208-3.46 5.86-7.548 6.748v-1.277a.703.703 0 00-.704-.703zM8.466 3.25c0-.79.643-1.433 1.433-1.433h4.2c.79 0 1.433.643 1.433 1.433v1.397H8.467V3.251zm14.127 14.874a2.059 2.059 0 01-2.057 2.057H3.463a2.059 2.059 0 01-2.057-2.057V9.681a9.869 9.869 0 002.184 2.224c1.532 1.15 3.403 1.947 5.439 2.34A3.006 3.006 0 0012 16.826a3.006 3.006 0 002.972-2.58c2.035-.393 3.906-1.19 5.438-2.34a9.872 9.872 0 002.184-2.224v8.444z" fill="#5f712d"/></svg>