<svg width="18" height="24" fill="none" xmlns="http://www.w3.org/2000/svg"><path d="M9 0C4.037 0 0 4.038 0 9c0 3.547 1.485 7.134 4.294 10.375 2.098 2.42 4.177 3.791 4.264 3.848a.805.805 0 00.883 0c.088-.057 2.167-1.428 4.265-3.848C16.516 16.135 18 12.547 18 9 18 4.038 13.962 0 9 0zm0 21.557c-1.656-1.233-7.386-5.98-7.386-12.556 0-4.074 3.313-7.387 7.386-7.387S16.386 4.927 16.386 9c0 6.576-5.731 11.323-7.386 12.556z" fill="#222"/><path d="M9 5.427a3.576 3.576 0 00-3.572 3.572A3.576 3.576 0 009 12.571a3.576 3.576 0 003.572-3.572A3.576 3.576 0 009 5.427zm0 5.53a1.96 1.96 0 01-1.958-1.958A1.96 1.96 0 019 7.04 1.96 1.96 0 0110.96 9 1.96 1.96 0 019 10.956z" fill="#222"/></svg>