<svg width="18" height="19" fill="none" xmlns="http://www.w3.org/2000/svg"><path fill-rule="evenodd" clip-rule="evenodd" d="M15.377 3.182A8.904 8.904 0 009.037.554c-4.94 0-8.96 4.02-8.962 8.961 0 1.58.412 3.122 1.196 4.481L0 18.64l4.751-1.246a8.953 8.953 0 004.283 1.09h.004c4.94 0 8.96-4.02 8.962-8.961a8.907 8.907 0 00-2.623-6.34zm-6.34 13.79h-.002a7.44 7.44 0 01-3.792-1.04l-.272-.16-2.82.739.753-2.749-.177-.282a7.43 7.43 0 01-1.139-3.964c.002-4.107 3.344-7.449 7.453-7.449 1.99.001 3.86.777 5.266 2.185a7.405 7.405 0 012.18 5.27c-.002 4.107-3.343 7.45-7.45 7.45zm4.087-5.58c-.224-.112-1.325-.654-1.53-.728-.206-.075-.355-.112-.504.112-.15.224-.579.728-.71.878-.13.15-.26.168-.485.056-.224-.112-.945-.349-1.8-1.112-.666-.594-1.116-1.327-1.246-1.551-.13-.224-.001-.334.098-.457.242-.301.485-.617.56-.766.074-.15.037-.28-.019-.392-.056-.112-.504-1.215-.69-1.663-.182-.437-.367-.378-.504-.385a8.954 8.954 0 00-.43-.007.823.823 0 00-.597.28c-.205.224-.783.766-.783 1.868s.802 2.167.914 2.317c.112.15 1.58 2.411 3.826 3.38.534.232.95.37 1.276.473.537.17 1.025.146 1.41.088.431-.064 1.325-.541 1.512-1.064.187-.524.187-.972.13-1.065-.055-.094-.204-.15-.428-.262z" fill="#222"/></svg>