<svg version="1.0" xmlns="http://www.w3.org/2000/svg" width="960" height="960" viewBox="0 0 9600 9600"><path d="M0 4800V0h9600v9600H0V4800z" fill="#b01015"/><g fill="#fffefe"><path d="M3000 6983c0-16-3-38-6-49-5-19 2-24 63-42 143-44 223-162 252-372 20-139 31-443 31-825 0-436-16-1417-26-1580l-6-110h327l-2 1075c-1 700-6 1122-14 1210-35 418-192 643-491 704-113 23-128 22-128-11zM941 5705c-92-21-183-67-242-122-60-56-90-105-118-193-38-121-40-149-56-1091l-5-296h323l-7 101c-15 208-24 835-15 1001 12 232 36 311 116 386 64 61 97 74 193 74 66 0 96-5 132-22 104-48 173-143 206-286 15-63 17-140 17-597 0-289-4-555-8-591l-7-65h233l-7 70c-4 39-9 287-12 551-2 264-9 521-15 570-33 269-143 420-359 497-74 27-277 34-369 13zM2245 5648c13-122 22-598 21-1068l-1-445-122 2-123 1v-138h247l7-37c3-21 6-62 6-92 0-29 7-100 16-158 59-402 253-677 541-769 26-8 97-18 156-21l108-6-6 49c-4 27-12 92-19 144-13 108-5 103-116 75-88-23-207-16-278 15-96 42-152 129-167 260-6 50 7 325 22 478l6 62h447v142l-220-4-220-4v281c1 362 17 1128 26 1228l7 78-44-8c-58-10-203-10-258 0l-43 8 7-73zM4184 5657c3-34 8-392 12-796l6-734-121 6-121 6v-139h247l7-107c30-500 230-844 546-944 64-20 234-37 262-26 13 4 12 25-4 143-11 76-21 140-23 142s-25-4-51-13c-69-23-192-30-265-15-91 20-146 62-189 145-33 64-35 75-39 183-3 103 10 334 26 450l5 42h448v142l-220-3-220-4v455c0 367 8 733 24 1095l1 30-60-5c-85-7-161-6-223 2l-54 7 6-62zM5640 4808v-908h170v1815h-170v-907zM7205 5534c-262-29-458-131-566-297-100-155-121-385-53-593 85-262 301-420 620-455 117-12 271-2 380 27 48 12 194 72 194 79 0 1-8 26-19 56-10 30-21 71-25 91-4 21-12 40-17 44-6 3-31-17-56-45-153-175-451-194-618-40-60 56-97 109-129 188-54 133-73 325-46 456 20 96 72 198 133 259 123 123 268 153 447 93l65-22 3-220 2-221h280v523l-107 26c-60 15-137 31-173 37-77 12-258 20-315 14zM8346 5377c-114-310-354-924-435-1109-11-27-19-48-18-48s75-2 165-3l163-2 31 100c51 166 301 827 309 818 11-11 196-479 253-638 26-71 59-163 74-204l27-74 83-1c45 0 82 2 82 5s-46 113-101 245c-173 408-268 641-344 844l-73 195-83 2-84 1-49-131z"/></g></svg>