<svg width="247" height="59" viewBox="0 0 247 59" fill="none" xmlns="http://www.w3.org/2000/svg"><path d="M6.452 14.712c0 3.013-.158 6.228.062 9.136.29 3.967.369 7.173 1.635 9.993 2.645 5.869 9.264 9.547 15.629 11.79 1.01.35 2.03.648 3.173.955.246.07.615.315.844.341.606.053 3.138-.963 3.797-1.182 6.452-2.208 13.643-6.228 16.192-12.245 1.081-2.575 1.257-5.352 1.52-8.917.194-2.575.062-5.448.062-8.12V.33H6.514c-.044 6.411-.062 11.211-.062 14.382zM51.52 41.961c-2.057 1.13-4.105 2.303-6.4 3.162 0 1.077-.149 1.06.625.727 2.558-1.086 4.72-2.453 7.076-3.661-.15.376-.897 3.161-.791 3.556.087.376 2.039 2.365 2.434 2.645-1.169.306-1.995.876-3.12 1.244-.009.07-.062.245-.053.394.009.201.07.499.343.508.853.017 3.208-1.594 4.184-1.918-.457-.307-2.795-2.707-2.883-3.101-.097-.386.606-2.97.73-3.442.14-.535.395-1.121.457-1.577.008-.07.035-.184-.062-.175-.536.087-1.969 1.322-2.54 1.638zm-49.2.56c.106.5.704 2.917.625 3.224C2.83 46.13.44 48.6 0 48.898c.246.07.387.07.624.175 1.23.517 2.356 1.253 3.736 1.69.167-.683.237-.823-.396-1.077-.817-.324-1.6-.876-2.496-1.068.94-.762 1.565-1.822 2.435-2.654-.281-.955-.378-2.137-.677-3.101-.009-.017-.15-.394-.167-.394 0 0 .097-.079.563.228 1.485.963 3.05 1.786 4.755 2.54.72.315 1.468.613 2.207.954.017-.219.061-.604.061-.902-1.978-.91-3.868-1.743-5.722-2.768-.88-.481-1.723-1.05-2.602-1.576-.15-.088-.334-.36-.51-.394-.14-.035.413 1.515.51 1.97zm42.176 5.08c-3.155 1.14-6.68 2.313-10.53 2.707-10.9 1.121-21.431-.91-28.19-5.019 0 2.348-.678 6.753-1.478 8.461.959.21 1.67.648 2.497.964 1.556.587 3.138 1.19 4.755 1.69 6.76 2.067 16.588 2.96 24.85 1.638 3.473-.56 6.84-1.34 9.854-2.426 1.75-.64 3.376-1.655 5.266-2.032-.37-.745-.449-1.656-.624-2.593-.343-1.84-.791-3.784-.791-5.93-1.6 1.122-3.64 1.831-5.609 2.54z" fill="#fff"/><path d="M48.118 1.346c-9.485-.114-19.48.114-29.149.114h-7.761c-1.178 0-2.54.087-3.622-.053.299 2.024.114 4.599.114 6.823v11.448c0 6.57.08 12.193 2.83 15.915 1.987 2.672 4.624 4.598 7.64 6.254 2.382 1.323 4.922 2.277 7.761 3.223.492.167 1.45.648 1.925.675.308.008.87-.36 1.187-.456a41.15 41.15 0 005.547-2.023c4.518-2.023 8.93-4.633 11.321-8.75.29-.49.502-.99.739-1.524.14-.324.334-.675.448-1.016.07-.193.053-.307.114-.508.08-.237.159-.482.229-.789.062-.236.114-.49.167-.788.062-.289.106-.595.176-.955.07-.402.123-.858.167-1.357.026-.35.079-.736.114-1.183.15-2.006.053-4.274.053-6.376V7.722c0-1.997-.088-4.291.114-6.096-.105-.052.255-.271-.114-.28z" fill="#00356B"/><path d="M36.629 9.246c-4.21.368-8.087-1.524-8.773 2.926-.351-4.415-4.826-2.584-8.781-2.873-1.16-.088-2.145-.5-2.945-.964-.387.701-.958 1.314-1.406 1.98-.537-.061-1.143-.044-1.644-.114.299 2.014.053 4.467.053 6.604v15.626h8.043c1.371 0 3.226.175 4.245-.228-.65 1.743-.035 2.479 2.093 2.479 2.285.009 3.7-.342 2.83-2.479 1.187.298 2.945.228 4.474.228h7.867V10.148c-.544 0-1.125-.017-1.582.053-.466-.648-.967-1.253-1.415-1.918-.905.411-1.846.85-3.059.963zm7.472.727c.123.99.255 2.251.167 3.442-.07.92-.097 1.454-1.125 1.297 0 .131.026.263 0 .394.606.158 1.344.228 2.206.228-.035.175 0 .271-.062.394-.28.64-1.397.42-2.144.341.008.15.052.377.052.447.554.079 1.398.29 1.873.061 1.257-.622.87-4.887 1.24-6.543-.836.526-1.012.797-1.812.114-.096-.087-.193-.324-.343-.341-.087-.009-.061.105-.052.166zm-32.55.342c-.941.736-.853.727-1.987.166.237 1.7-.035 6 1.415 6.324.571.123 1.16-.105 1.644-.175 0-.061.044-.307.061-.447-1.098.114-1.6.202-2.215-.394.027-.018 0-.254 0-.28.8-.07 1.574-.123 2.215-.29 0-.104-.026-.236 0-.332-.263 0-.571 0-.738-.061-.66-.237-.343-3.644-.343-4.564 0 0-.053.044-.053.053zm-.625 12.577c-.466.36-.958-.183-1.3-.446.087 1.095.202 4.94.623 5.58.308.49.994.551 1.75.455 1.002-.132.975-.631-.167-.508-.818.079-1.134-.07-1.363-.736.009-.018.053-.149.062-.166.79 0 1.538-.018 2.153-.176-.202-.884-.545 0-.905-.508-.44-.613-.246-3.407-.114-4.283-.255.237-.475.578-.739.788zm32.981 3.968c-.36.5-.703-.376-.905.508.606.15 1.362.167 2.154.167.008.017.052.149.052.166-.22.666-.545.823-1.353.736-1.143-.114-1.17.377-.176.508.765.096 1.441.035 1.758-.456.413-.639.536-4.484.624-5.579-.343.271-.844.806-1.301.447-.264-.202-.492-.552-.738-.789.132.876.325 3.67-.115 4.292z" fill="#222"/><path d="M35.61 9.921c-1.917-.096-4.686-.526-6.057.333-.633.394-1.117 1.209-1.301 2.032-.088.359-.026.71-.062 1.13-.404 5.456-.052 11.299-.052 16.87 1.617-3.224 6.214-1.28 9.74-2.374.421-.132 1.063-.307 1.3-.622.299-.403.114-2.864.114-3.609V9.133c-.017 0-.175.008-.175 0-.862.499-2.057.858-3.508.788zm-19.075 13.76c0 .727-.22 3.206.052 3.67.554.937 4 1.078 5.661.955 2.707-.202 4.545.201 5.38 1.866V17.594c0-1.726.228-3.828-.114-5.36-.159-.684-.554-1.358-1.02-1.752-1.706-1.428-5.142-.28-7.867-.561-.818-.088-1.46-.42-2.092-.674V23.68zm28.023-8.908c.255.053.483.106.844.053.281-1.104.184-2.671.281-3.889-.607.43-.545.526-1.072-.114.052 1.27.079 2.742-.053 3.95zm-34.484-3.608c.167 1.226.123 2.654.29 3.889.29 0 .641-.044.844-.062 0-.236-.044-.578-.053-.727-.08-1.05.035-2.286 0-3.162-.598.543-.378.605-1.081.062zm33.051 4.896c.747.079 1.872.298 2.154-.342.052-.122.026-.219.052-.394-.852 0-1.6-.07-2.206-.227v.963zm-32.647-.552c0 .026.018.272 0 .28.607.596 1.116.517 2.206.395v-.955c-.94.14-1.679.236-2.206.28zm-.404 7.726c.123 1.077.193 2.26.342 3.328.229.026.625.017.853 0-.053-1.121-.07-2.383-.114-3.442-.554.7-.378.657-1.081.114zm34.343 3.792c.229.018.615.026.853 0 .14-1.069.22-2.251.334-3.328-.695.543-.519.586-1.073-.114-.044 1.06-.07 2.33-.114 3.442zm-33.878.053c-.008.017-.052.157-.061.175.22.657.545.814 1.363.727.342-.035.58-.018.73.035.008-.07.043-.438.113-1.104-.905.114-1.617.167-2.144.167zm32.498 1.427c.123-.07.396-.105.809-.061.809.079 1.134-.079 1.354-.736 0-.017-.053-.157-.053-.166-.8 0-1.547-.027-2.154-.175 0 0 .044 1.024.044 1.138zm-16.886 4.826c.378.596 2.558.622 3.235.22.351-.21.422-.92.562-1.35-.008 0-.316.018-.228.053-1.029.806-2.84.596-3.85-.053.105.342.096.833.281 1.13zM6.452 46.586c.229 1.524-.501 5.491-1.02 6.604.976.21 1.732.753 2.602 1.068 1.512.543 3.086 1.13 4.65 1.577 6.285 1.795 15.225 2.523 22.811 1.41 3.455-.508 6.777-1.244 9.74-2.312 1.08-.394 2.18-.824 3.278-1.235.616-.237 1.029-.596 1.82-.683-.58-1.244-1.02-4.897-1.081-6.543-10.654 6.586-32.067 6.63-42.8.114z" fill="#fff"/><path d="M39.908 14.712v9.477c0 1.2-.229 2.663 0 3.837.114.569.677 1.138.967 1.585.246.377.518.674.79 1.007-.272-2.005-.113-4.458-.113-6.648V11.445c-.783-.368-1.319-1.165-1.75-1.866.22 1.507.106 3.443.106 5.133zM15.963 9.641c-.14.079-.184.464-.281.622a3.293 3.293 0 01-1.415 1.235v12.691c0 1.945.175 4.143-.053 5.983-.027.13-.123.639.053.56.228-.096 1.626-2.338 1.696-2.706.238-1.235 0-2.75 0-4.003v-9.819c0-1.428-.14-3.074.062-4.397.052.035.088-.131.035-.175-.026-.018-.053-.018-.097.009zM36.63 28.928c-2.488.254-5.66-.482-7.252.622-.747.525-1.178 1.497-1.24 2.54.502-.132.95-.22 1.354-.456.159-.087.387-.411.572-.446.58-.114 1.512.227 2.32.166 1.512-.114 3.261.061 4.87-.052 1.108-.088 2.945-.246 3.956.052-.677-1.086-1.468-2.11-2.092-3.267-.712.35-1.486.736-2.488.84zm-22.134 2.706c.721-.332 1.89-.28 2.998-.28 2.408 0 5.283.315 7.638 0 .115-.017.493-.236.572-.228.114.018.395.386.51.456.395.236.914.394 1.415.508-.07-1.227-.545-2.111-1.477-2.654-1.626-.955-4.8-.184-7.129-.447-.94-.114-1.679-.49-2.435-.797-.545 1.34-1.38 2.304-2.092 3.442z" fill="#FABD0A"/><path d="M17.94 13.083c-.79.613-.614 1.63.23 2.023-.23.324-.633.718-.677 1.191-.07.762.255 1.235-.053 1.91-.027-.018-.035.122.105.175.194-.28.563-.657.624-1.016.115-.587-.149-1.095 0-1.577.123-.376.466-.762.686-1.077.782.368 2.171.692 1.75 1.918-.062.193-.124.43-.282.508-.387.184-1.187.08-1.644.114-.132.36-.22.64-.334 1.016.088-.009.396-.061.396-.061 1.6 0 1.661.263 2.092-1.007.184-.552.571-1.34.457-2.032-.185-1.043-1.802-.526-1.705-2.146-.466.42-.748 1.576-1.416.954-.255-.236-.228-.648-.167-.954l-.061.06zm4.475 2.023c-.264.675-.123 1.218-.053 2.032-1.01.263-.87.114-1.133 1.13 2.32 0 1.845-.473 1.415-2.084-.273-1.034.21-1.428 1.3-1.078.52.167.282 2.4.282 3.1.44-.192.563-.463.8-.84-.58-.57-.167-3.074-.686-3.328-1.169-.579-2.118.718-2.487-.955-.185.84-.326 1.743.562 2.023zm14.662-1.296c-.193.92 1.002.674.343 1.638-1.02-.412-2.118-.902-2.04-2.26-.201.175-.368.28-.448.57-.307 1.033.343 1.655.906 2.031-.158.106-.325.21-.457.333-.422.403-.317.964-.229 1.638-.07.018-.299.053-.395.114-.062.044 0 .245-.053.28.668.088 1.652.21 1.468-.735-.044-.22-.352-.456-.396-.675-.07-.368.115-.578.229-.788.923.429 2.241.91 1.644 2.198.307-.035.193.088.395-.166.58-.745.65-1.594-.167-2.146a2.257 2.257 0 01-.29-.228c.492-.298 1.073-1.007.571-1.629-.087-.114-.369-.263-.395-.403-.088-.341.158-.289-.114-.5-.159.202-.51.456-.572.728zM26.16 15.106c-.132.946-.044 2.155-.176 3.048.563-.061.606-.429.905-.902-.105-.061-.167-.061-.228-.166-.15-.29-.264-1.516-.106-1.98.07-.227.475-.262.334-.788-.14-.508-1.213-.131-1.415-.675-.026-.07-.167-.499-.167-.508-.36.964-.466 2.05.853 1.971zm7.357 0c-.14.666-.474 4.3.449 2.602.061-.114.061-.176.114-.29 0 .01-.044-.2-.053-.218-.281-.561-.114-1.393-.176-2.094.387-.14.748-.411.396-.902-.43-.604-1.248.228-1.582-1.016-.326.885-.475 2.12.852 1.918zm-4.36-.622c.3 1.34 1.881.184 2.26.902.316.605.114 1.963.114 2.768.422-.105.457-.297.685-.735.15 0 0-.193 0-.167-.387-.552-.15-2.741-.51-3.048-.905-.744-1.846.63-2.496-.84-.202.323-.176.595-.053 1.12zm6.962 7.34c.106.097.396.324.449.447.166.35-.01 1.147.342.394.783-1.673-.351-1.209-.51-2.032-.052-.28.185-.482-.052-.613-.352.552-.844 1.191-.229 1.804zM24.57 23.06c.193-.14.334-.184.457-.394.694-1.252-.695-1.331-.624-2.479-1.372 1.682.386 1.428.167 2.873zm7.753-.788c-.51.937-.466 1.874-.616 3.214 1.029 0 2.321-.07 3.446.062.044-1.008.37-1.848.229-2.934-.264-2.103-1.503-.894-3.06-1.472-.324-.122-.157-.622-.333-.788-.343.727-.598 1.576.334 1.918zm-11.946.061c-.598.762-.519 1.892-.616 3.215a21.936 21.936 0 013.393 0c.045-1.034.405-1.936.23-3.1-.309-2.05-3.157-.342-3.341-1.98-.396.718-.536 1.506.334 1.865zM7.032 52.428c.185.035.317.026.501.079.431.122.958.481 1.354.569.035 0 .202-.018.123-.044.088-.122.396-.543.475-.657.123-.184-1.758.07-1.627-.368.273-.937.52-2.093.748-2.995-.238-.114-.449-.228-.677-.342-.202 1.288-.572 2.558-.897 3.758zm38.844-2.856c-.65 1.55 1.178 1.288 2.013 1.778.08.053.176.123.22.237.483 1.445-1.52.613-1.916.359.061.184.061.263.114.394.07.15.185.403.281.56.185.29.862.044 1.301-.104.624-.22 1.187-.824.853-1.638-.299-.745-1.24-.622-1.925-.964-.334-.166-.334-.508-.334-.508.413-1.165 2.013.71 1.696-.052-.044-.114-.378-.824-.395-.903-.73.184-1.635.176-1.908.841zM9.96 53.242c.07.307.422.56.686.675 2.048.91 2.417-1.805 2.769-3.153-.229-.07-.378-.106-.624-.176-.132.999-.299 3.539-1.811 2.882-.756-.333.211-2.776.396-3.39-.264-.06-.449-.131-.73-.219-.176.833-.879 2.47-.686 3.381zm33.06-2.82c0 1.533-.298 2.759-.562 4.064.228-.079.475-.158.738-.228 0-.438.062-.946.132-1.34.36-.149 1.204-.368 1.204-.368.203.15.493.675.616.894.15.271.21.184.598.026.14-.061.272-.079.395-.114-.51-.64-1.081-1.226-1.53-1.918-.193-.29-.966-1.244-.966-1.244-.167-.009-.457.175-.624.228zm-4.14 1.121c-.008.193-.105.456-.114.648-.017.263.114.42.114.42.273-.411.537-.612 1.117-.779.378 1.156.562 2.137.764 3.197 1.02-.342.923-.123.765-.447-.158-.341-.8-2.978-.773-2.986.316-.062 1.002.149 1.23.289.027-.027.167.044.194.052-.088-.201-.194-.298-.176-.333-.14-.271-.22-.438-.343-.683a7.764 7.764 0 01-2.778.622zm-24.718-.35c.027.201.185.455.273.692.123.333.246.63.342 1.077-.588.455-1.151.911-1.81 1.296.545.175.756.517 1.134-.052.975-1.524 1.002-.333 1.3.84.378.053.59.097.959.167-.3-.797-.66-1.463-.792-2.417.52-.368 1.02-.745 1.583-1.078-.519-.105-.668-.341-1.02.062-.923 1.06-.773.832-1.072-.57-.325-.079-.66-.184-.958-.271-.018-.07.052.227.061.254zm23.637.543c-.088 0-.352.14-.44.149.29 1.165.361 2.443.554 3.775.01 0 .273-.062.273-.062.176-.035.475-.157.66-.201a30.319 30.319 0 01-.651-3.67c-.123 0-.273.009-.396.009zm-19.54 3.933c.667 0 1.555.096 2.074.21.668.149.598.087.844-.438.035-.079.061-.14.105-.28-.554.227-1.31.332-2.092.227.325-1.48-.061-1.541 1.248-1.016a1.786 1.786 0 00-.061-.227c-.009-.088-.053-.333-.053-.342v-.166a2.622 2.622 0 01-.905 0c.061-.526.158-1.21.263-1.174.238.061.8.262.985.385.202.14.413.316.563.508l-.053-.28a8.314 8.314 0 00-.176-.797c-.765-.097-1.442-.175-2.04-.333-.184 1.2-.457 2.61-.703 3.723zm16.894-3.557c-.545.044-1.072.29-1.635.342.044.333.132.7.167 1.016.088.876.08 1.77.123 2.672.238-.027.58-.097.835-.132-.079-.552-.149-1.165-.167-1.638.22-.035.37-.035.624-.061.51.85 1.372 1.69 2.488 1.585 0 0 .044-.14.062-.175-.765-.473-1.521-1.095-1.987-1.857.422-.534.95-1.708-.246-1.76-.08 0-.167 0-.264.008zm-13.449.806c-.105.245-.017.438-.017.438.386-.306.694-.42 1.3-.394 0 1.217-.14 2.207-.28 3.267 1.063 0 .905.184.86-.175-.043-.377.185-3.083.212-3.075.316.036.905.447 1.072.657.035-.017.15.097.176.114-.026-.219-.097-.35-.07-.376-.044-.298-.07-.482-.106-.754a7.945 7.945 0 01-2.83-.28c-.07.175-.238.394-.317.578zm8.694-.236c.14 1.209.114 2.478.114 3.775a17.972 17.972 0 012.496-.167c.326-.814.598-.876-.228-.621-1.477.446-1.547.473-1.538-1.104 1.547.131 1.213.306 1.072-.674-.334.148-.571.2-1.064.254-.008-.123-.061-1.13-.061-1.13.853 0 1.24.148 1.705.508-.088-.272-.079-.42-.176-.675-.088-.236-.15-.341-.51-.341-.527.008-1.133.175-1.81.175zm-3.798.394c.431.885.739 1.9 1.187 2.864.264.57.37 1.148.8.35.237-.438.334-.928.501-1.383.273-.745.589-1.463.914-2.173-.29 0-.642.035-.844.053-.202.937-.422 1.717-.738 2.487-.466-.753-.818-1.664-1.134-2.592-.36.043-.492.043-.844 0 0 0 .097.271.158.394z" fill="#222"/><path d="M20.323 24.645c.782-.202 1.81-.184 2.55 0-.089-2.322.21-1.989-2.207-2.313-.308.64-.413 1.384-.343 2.313zm11.999-.508c.009.192.009.35 0 .446.72-.227 1.846-.21 2.549 0 0-2.216-.105-2.25-2.32-2.25a5.137 5.137 0 00-.23 1.804zm11.067 28.22c.061-.017.36-.096.905-.254l-.791-1.086a8.47 8.47 0 01-.114 1.34zm-9.063.307s.097 1.349.14 1.349c.81-.123 1.477-1.358.422-1.401a2.272 2.272 0 00-.562.052zM239.027 23.961l-.14.009-.141.009-.132.009-.123.017-.123.018-.114.017-.106.026-.105.027-.097.026-.097.035-.096.026-.088.035-.088.035-.079.035-.088.035-.079.044-.079.035-.079.044-.08.035 3.393 8.698 3.13-8.181-.097-.097-.097-.096-.096-.096-.097-.079-.097-.088-.105-.07-.106-.07-.105-.07-.106-.052-.105-.062-.114-.043-.115-.044-.114-.044-.123-.035-.114-.026-.123-.027-.123-.017-.123-.009-.132-.009h-.132v-.78H247v.78h-.193l-.185.027-.176.026-.167.044-.158.052-.149.062-.15.078-.132.08-.132.087-.123.096-.114.096-.105.105-.097.114-.088.114-.088.114-.07.114-.071.123-.052.114-.053.122-.044.114-3.912 9.223-.096.254-.115.272-.123.297-.123.325-.14.35-.141.359-.149.377-.159.402-.158.403-.158.42-.167.43-.176.43-.176.446-.176.438-.175.447-.176.438-.185.437-.176.43-.175.429-.176.411-.062.132-.061.123-.071.122-.061.105-.07.105-.071.097-.079.087-.079.08-.079.07-.088.07-.088.06-.097.053-.096.044-.106.044-.105.035-.115.026-.114.017-.123.018-.132.009h-.281l-.149-.018-.132-.035-.132-.035-.123-.044-.114-.052-.106-.07-.097-.07-.088-.08-.087-.078-.071-.096-.07-.097-.053-.096-.053-.105-.044-.105-.035-.114-.026-.114-.018-.114-.017-.114v-.236l.017-.114.018-.114.026-.114.035-.114.044-.105.053-.105.053-.105.07-.096.071-.088.087-.087.088-.08.097-.07.106-.06.114-.053.123-.053.132-.035.132-.026.149-.018.149-.008h.044l.044.008h.044l.053.01.053.008.052.009.062.008.062.01.061.017.062.017.061.009.07.017.062.018.07.018.062.017.061.017.071.018.061.026.062.018.053.017 1.96-4.545-4.431-11.43-.043-.115-.044-.114-.053-.105-.053-.105-.061-.096-.071-.096-.07-.088-.079-.079-.088-.087-.088-.07-.105-.07-.115-.07-.114-.062-.132-.052-.132-.053-.149-.044-.158-.035-.167-.035-.176-.026-.194-.027v-.516h6.778v.78h-.15zm-99.576-6.99l-.158.036-.149.035-.15.044-.149.043-.141.044-.149.044-.132.053-.132.052-.132.053-.123.052-.123.061-.123.062-.106.061-.114.061-.097.062-.096.07-.097.061-.079.07-.079.07-.079.07-.062.07-.061.07-.053.07-.053.07-.035.08-.035.07v9.87l-.018.623-.044.595-.07.57-.097.551-.123.517-.149.5-.167.472-.202.447-.22.42-.238.395-.263.376-.29.35-.308.325-.325.306-.343.28-.36.255-.387.236-.396.21-.413.184-.431.167-.439.14-.457.122-.475.097-.483.079-.493.052-.501.035-.518.009-.528-.018-.518-.035-.493-.052-.483-.079-.466-.105-.448-.123-.431-.149-.413-.166-.396-.193-.378-.21-.351-.236-.343-.246-.317-.271-.307-.298-.273-.307-.263-.332-.238-.35-.22-.369-.193-.394-.176-.403-.158-.42-.132-.447-.105-.455-.079-.482-.062-.49-.035-.509-.018-.525v-10.65l-.035-.07-.035-.071-.053-.07-.052-.061-.071-.062-.07-.061-.079-.061-.079-.053-.097-.052-.097-.053-.096-.053-.106-.043-.114-.044-.114-.044-.123-.044-.124-.035-.123-.044-.131-.035-.132-.026-.141-.035-.132-.026-.14-.026-.141-.027-.15-.017-.14-.026-.141-.018-.149-.009v-.78h8.728v.78h-.158l-.158.009-.149.009-.159.009-.149.017-.15.026-.149.027-.141.026-.14.035-.132.035-.141.035-.123.044-.123.043-.123.044-.114.053-.106.052-.105.053-.097.061-.097.053-.079.061-.079.062-.079.07-.061.06-.053.07-.053.071-.044.07-.035.07v10.003l.009.429.026.412.044.394.053.394.07.368.088.359.106.341.123.333.131.316.15.297.167.29.184.271.194.254.22.236.228.22.246.21.255.184.282.175.29.157.298.132.326.122.334.106.351.078.37.07.386.044.396.026.413.018.422-.018.413-.026.396-.043.378-.07.36-.088.343-.105.334-.123.316-.14.29-.166.282-.184.272-.193.246-.22.238-.236.211-.262.202-.272.184-.298.167-.306.159-.333.131-.35.124-.368.105-.386.088-.403.07-.42.062-.447.035-.455.026-.482.009-.49V23.287l-.009-.22v-.428l-.008-.228-.009-.219v-.228l-.009-.219-.009-.227v-.228l-.009-.22-.008-.218-.009-.22-.009-.21v-.21l-.009-.201-.009-.201-.008-.193v-.184l-.009-.175-.009-.175v-.316l-.009-.14v-.254l-.035-.07-.044-.07-.061-.079-.062-.07-.079-.07-.088-.07-.097-.07-.105-.061-.106-.07-.123-.062-.123-.07-.132-.061-.14-.053-.15-.061-.149-.053-.15-.052-.158-.053-.167-.052-.167-.044-.167-.044-.167-.035-.176-.035-.175-.035-.176-.026-.167-.027-.176-.017-.176-.018v-.78h8.078v.78l-.158.027zm92.693 6.21v1.428h-4.298v7.402l.018.411.07.386.123.359.158.333.202.306.238.263.281.236.316.193.352.158.378.114.413.07.448.026.194-.009.211-.026.211-.044.211-.061.211-.061.193-.07.194-.08.175-.07.159-.07.131-.06.115-.053.079-.044v.648l-.255.166-.299.176-.334.175-.369.175-.387.175-.396.158-.395.149-.396.131-.378.105-.36.08-.316.052-.291.017-.676-.026-.598-.096-.519-.158-.457-.21-.387-.272-.325-.324-.264-.377-.211-.42-.149-.473-.105-.517-.062-.552-.026-.604.008-.718v-.683l.018-.649.009-.63.017-.613.036-1.2.008-.613.018-.622.009-.657.008-.683v-.719h-1.696v-.648l3.78-3.643h.659v2.864h4.298zm-22.67-.498l.326.035.307.035.299.052.29.053.282.061.263.07.255.061.246.07.229.07.211.07.193.062.185.061.167.053.123 3.25h-.651l-.184-.334-.194-.324-.202-.315-.211-.298-.211-.289-.219-.263-.211-.254-.22-.227-.211-.202-.211-.175-.202-.158-.194-.114-.184-.087-.176-.061-.167-.018-.466.018-.422.052-.369.07-.334.105-.281.123-.247.14-.211.158-.175.166-.15.175-.114.184-.088.193-.061.184-.044.175-.027.175-.009.158.009.254.027.228.044.219.061.201.088.193.114.175.15.175.175.167.211.166.247.166.281.176.334.166.369.184.422.193.466.201.483.184.457.184.422.193.396.21.36.21.334.22.299.236.264.245.237.263.194.271.167.298.132.315.096.333.053.35.018.377-.027.438-.07.43-.123.402-.176.394-.211.368-.255.342-.299.324-.325.289-.369.263-.405.227-.43.193-.466.158-.484.105-.518.07-.536.026-.458-.009-.43-.017-.413-.026-.387-.044-.361-.044-.342-.061-.317-.062-.308-.06-.272-.071-.264-.07-.237-.061-.22-.07-.202-.07-.185-.062-.167-.052-.386-3.373h.782l.193.333.203.333.219.315.22.316.237.289.238.28.237.263.229.245.228.21.229.193.211.166.193.123.185.096.167.062.14.017.493-.009.448-.043.395-.08.352-.096.316-.113.264-.14.238-.158.193-.175.158-.193.132-.201.105-.21.071-.228.053-.22.026-.236.009-.236-.009-.246-.053-.227-.07-.22-.106-.192-.123-.193-.158-.166-.176-.167-.202-.157-.228-.15-.247-.148-.263-.14-.282-.14-.298-.15-.317-.148-.334-.149-.501-.21-.466-.21-.439-.21-.396-.22-.369-.227-.325-.237-.299-.245-.264-.263-.22-.271-.193-.29-.158-.315-.123-.333-.088-.35-.053-.377-.018-.402.036-.403.079-.403.14-.377.194-.368.228-.35.282-.316.325-.306.351-.272.396-.245.422-.21.457-.175.483-.15.501-.104.519-.061.545-.027.334.009.325.018zm-22.652.227l.598.14.536.202.483.254.431.315.378.36.325.402.264.464.202.5.15.551.087.596.036.64v.525h-8.474v.088l-.009.096-.009.105-.017.105-.009.105-.018.123-.009.114-.017.122-.018.132-.008.131-.009.14-.009.15v.14l.035.709.097.665.167.622.22.587.281.543.334.482.387.438.43.377.466.315.519.254.554.184.589.114.615.035.343-.01.325-.025.308-.044.281-.062.272-.087.264-.105.255-.114.255-.14.255-.158.255-.175.264-.193.281-.21.29-.236.519.78-.387.323-.378.307-.387.289-.378.271-.387.254-.404.228-.413.202-.431.175-.457.149-.475.113-.51.088-.545.053-.58.017-.738-.044-.712-.131-.677-.219-.642-.298-.589-.368-.545-.446-.492-.508-.422-.57-.369-.63-.29-.684-.211-.735-.132-.78-.044-.823.044-.99.141-.937.228-.876.308-.815.396-.753.465-.674.528-.596.598-.525.659-.43.721-.341.764-.254.809-.158.853-.052.694.035.642.087zm-16.394 1.051l-.193.009-.176.018-.158.017-.159.026-.14.035-.132.035-.123.036-.114.043-.115.044-.096.053-.097.043-.088.053-.088.052-.079.053 3.393 8.575 3.129-8.058-.14-.132-.141-.122-.149-.114-.15-.114-.149-.096-.15-.088-.158-.079-.149-.061-.159-.061-.167-.053-.158-.044-.167-.035-.167-.017-.176-.018h-.167v-.78h5.6v.78l-.255.009-.237.035-.229.053-.211.079-.193.087-.185.105-.176.114-.149.131-.15.14-.123.15-.114.148-.105.158-.088.158-.071.157-.061.158-4.554 10.528-1.177.254-4.431-11.036-.079-.158-.088-.14-.105-.14-.106-.131-.114-.123-.123-.114-.141-.105-.149-.096-.167-.088-.176-.079-.185-.07-.202-.061-.22-.053-.237-.043-.255-.027v-.78h7.041v.78h-.202zm-86.654-1.077l.483.114.43.149.379.201.334.228.29.271.237.298.202.333.167.368.123.385.08.42.052.439.018.464-.132 6.499.009.263.026.227.044.202.062.184.079.149.088.131.096.105.115.088.114.07.123.053.132.043.14.018.132.017.141.01.114-.01.115-.009.105-.026.114-.026.115-.035.105-.053.114-.06.115-.062.114-.08.105-.087.115-.105.114-.105.106-.122.114-.132v.911l-.123.193-.141.192-.167.184-.185.184-.193.175-.21.167-.22.149-.23.14-.228.123-.237.105-.237.087-.238.062-.228.043-.229.01-.352-.018-.316-.044-.299-.079-.272-.105-.238-.132-.22-.14-.193-.166-.167-.166-.15-.184-.122-.184-.106-.193-.079-.184-.053-.184-.044-.166-.228.245-.237.228-.247.219-.263.201-.264.193-.273.166-.28.158-.273.14-.29.114-.282.096-.29.079-.281.061-.29.035-.281.01-.352-.018-.352-.044-.334-.079-.316-.105-.308-.14-.281-.167-.255-.192-.228-.228-.203-.245-.175-.28-.132-.298-.106-.333-.061-.35-.018-.377v-.193l.009-.193.026-.192.018-.193.035-.193.044-.184.044-.184.053-.175.052-.175.07-.175.062-.158.08-.157.07-.15.088-.148 6.25-2.208v-2.338l-.01-.298-.026-.298-.052-.289-.07-.28-.097-.263-.115-.245-.132-.228-.158-.201-.176-.175-.21-.158-.22-.123-.247-.087-.272-.062-.299-.017-.167.017-.176.044-.167.079-.167.105-.158.131-.158.158-.15.175-.131.21-.115.228-.105.254-.08.272-.07.289-.035.306-.017.325-2.866.525v-.263l.228-.587.29-.525.335-.482.386-.429.414-.377.44-.332.447-.29.466-.236.466-.201.448-.167.44-.123.413-.078.37-.053.333-.017.59.026.527.07zm22.38.026l.589.14.545.202.483.254.431.315.378.36.316.402.264.464.211.5.141.551.096.596.027.64v.525h-8.474v.088l-.009.096-.009.105-.009.105-.017.105-.009.123-.018.114-.017.122-.009.132-.017.131-.009.14v.15l-.009.14.035.709.106.665.158.622.228.587.282.543.325.482.387.438.43.377.475.315.51.254.554.184.589.114.615.035.352-.01.325-.025.299-.044.281-.062.272-.087.264-.105.255-.114.255-.14.255-.158.255-.175.272-.193.273-.21.29-.236.527.78-.386.323-.387.307-.378.289-.387.271-.387.254-.395.228-.413.202-.44.175-.448.149-.484.113-.51.088-.545.053-.58.017-.738-.044-.712-.131-.677-.219-.633-.298-.598-.368-.545-.446-.483-.508-.43-.57-.361-.63-.29-.684-.22-.735-.132-.78-.044-.823.053-.99.132-.937.228-.876.317-.815.387-.753.465-.674.537-.596.597-.525.66-.43.712-.341.764-.254.809-.158.853-.052.703.035.642.087zm55.607 11.895l.114.166.123.132.15.105.184.087.238.07.298.062.378.043.475.044v.657h-6.909v-.78l.475-.052.386-.061.317-.07.255-.08.193-.096.15-.113.123-.132.096-.149.088-.157v-8.059l-.009-.245-.052-.236-.097-.21-.141-.202-.193-.184-.255-.166-.325-.158-.405-.149-.474-.131v-.526l4.298-1.427h.396v11.824l.123.193zm-16.719-10.09l.228-.158.246-.158.247-.157.255-.158.254-.149.264-.149.264-.149.264-.131.272-.132.255-.122.264-.114.255-.105.246-.097.246-.078.228-.07.22-.053.211-.044.202-.026.185-.009.395.018.37.035.342.061.317.088.299.105.272.131.246.15.22.174.202.193.185.219.158.236.141.246.123.271.105.29.088.306.071.324.044.341.043.35.018.369.009.385v7.664l.097.07.096.07.097.061.105.053.106.044.105.044.106.035.114.035.114.026.115.026.123.027.132.017.14.018.141.017.149.018.159.017.158.018.176.017.184.018.185.017v.911h-7.296v-.78l.228-.026.203-.017.184-.026.167-.027.15-.035.131-.026.124-.035.105-.035.088-.044.088-.044.07-.044.07-.043.053-.053.053-.052.044-.062.044-.061.044-.07.035-.061.035-.08.035-.07v-6.752l-.009-.254-.017-.246-.044-.245-.062-.228-.07-.227-.088-.22-.105-.21-.115-.201-.123-.184-.14-.184-.158-.157-.159-.15-.176-.14-.184-.122-.193-.105-.203-.088-.211-.07-.219-.044-.229-.035-.228-.009h-.124l-.123.018-.14.018-.141.017-.141.035-.149.035-.158.044-.15.044-.167.052-.158.061-.158.062-.167.061-.158.07-.159.07-.158.07-.158.07-.158.08-.15.078-.14.079-.141.07v8.838l.062.087.052.088.053.079.053.078.053.062.052.061.062.053.07.052.07.044.08.044.087.035.097.035.106.026.123.035.132.018.158.026.167.026.184.018.203.017.219.027v.78h-6.777v-.78l.229-.027.202-.017.184-.026.167-.027.15-.035.14-.026.124-.035.105-.035.097-.044.088-.044.079-.044.07-.043.07-.053.053-.052.062-.062.052-.061.053-.07.053-.061.053-.08.061-.07v-8.057l-.009-.097-.008-.096-.027-.096-.026-.097-.035-.096-.053-.097-.053-.087-.07-.097-.071-.087-.087-.088-.106-.087-.105-.088-.123-.079-.132-.079-.141-.078-.158-.07-.167-.07-.185-.07-.193-.062-.211-.061v-.648l4.175-1.437h.387v2.207l.22-.148zm52.135.551l.343-.376.334-.35.325-.325.316-.306.317-.272.307-.245.299-.21.299-.167.299-.122.29-.08.299-.025.193.008.194.018.193.026.194.035.193.044.185.052.193.062.176.061.184.079.176.079.167.096.167.088-1.433 2.733h-.263l-.22-.132-.22-.122-.202-.106-.193-.114-.194-.096-.193-.079-.185-.078-.184-.062-.185-.052-.185-.035-.193-.027-.193-.008-.185.008-.176.035-.158.044-.158.07-.141.088-.141.096-.14.114-.132.123-.141.131-.14.149-.15.149-.158.157v8.059l.114.149.141.131.176.114.193.096.22.088.246.07.264.061.272.053.299.035.299.044.316.035.326.035v.78h-7.428v-.78l.36-.035.308-.044.255-.053.22-.052.175-.062.15-.07.114-.07.097-.087.079-.097.07-.105.062-.114.061-.122V26.3l-.008-.166-.027-.15-.053-.148-.07-.15-.097-.13-.131-.14-.167-.123-.203-.123-.228-.114-.281-.114-.326-.105-.36-.096v-.648l4.166-1.437h.264v2.987l.352-.377zm23.101 9.539l.114.166.123.132.149.105.185.087.237.07.299.062.378.043.475.044v.657h-6.909v-.78l.474-.052.387-.061.317-.07.255-.08.193-.096.149-.113.123-.132.097-.149.088-.157v-8.059l-.009-.245-.053-.236-.096-.21-.141-.202-.193-.184-.255-.166-.325-.158-.405-.149-.474-.131v-.526l4.298-1.427h.396v11.824l.123.193zM67.846 17.348l-.202.027-.194.017-.176.026-.167.018-.15.026-.148.026-.132.027-.132.035-.115.026-.114.035-.097.035-.096.035-.088.035-.08.035-.078.044-.07.044-.07.044-.063.043-.061.044-.053.044-.053.053-.052.043 4.817 8.444 4.826-8.444-.07-.043-.07-.053-.071-.052-.08-.053-.079-.044-.079-.052-.088-.044-.096-.044-.097-.044-.097-.044-.114-.043-.114-.036-.123-.035-.123-.035-.14-.026-.142-.026-.158-.026-.158-.027-.176-.017-.184-.009-.194-.017h-.202l-.21-.01v-.779h7.559v.78l-.22-.009-.211-.009h-.202l-.194.018-.193.017-.185.027-.175.026-.176.044-.167.052-.158.061-.159.062-.158.079-.15.087-.14.088-.14.105-.141.114-.132.122-.132.132-.132.14-.123.149-.123.166-.123.167-.114.184-5.213 8.706v5.842l.088.175.097.167.105.149.114.14.124.131.123.114.131.105.141.088.15.087.149.08.158.06.167.062.158.052.176.044.167.044.176.035.185.026.175.026.185.027.185.017.184.027.194.017.184.018v.78H64.41v-.78l.193-.01h.185l.193-.008.194-.009.193-.017.193-.018.194-.026.184-.026.194-.035.175-.035.185-.044.176-.044.167-.052.158-.053.158-.07.15-.061.14-.08.123-.078.124-.088.114-.096.096-.096.088-.114.07-.114v-5.974l-5.212-8.829-.114-.201-.123-.184-.114-.166-.124-.167-.123-.14-.123-.14-.132-.132-.131-.113-.132-.105-.132-.097-.14-.087-.15-.088-.15-.07-.15-.061-.157-.062-.167-.052-.176-.044-.176-.044-.184-.035-.194-.026-.202-.026-.202-.018-.22-.026v-.78h8.729v.78l-.211.017zm26.537-1.05V34.48l.07.14.08.122.097.105.114.097.132.079.15.07.166.061.176.053.211.044.22.043.246.026.264.036.29.035v.78h-6.9v-.78l.307-.035.281-.035.246-.044.211-.053.194-.052.167-.062.14-.07.123-.07.106-.079.097-.096.079-.096.07-.106.062-.113V18.373l-.01-.228-.008-.219-.026-.192-.053-.176-.07-.157-.115-.149-.14-.123-.185-.114-.228-.096-.29-.079-.343-.07-.405-.043-.474-.044v-.648l5.73-1.428.133.517-.915 1.173zM82.052 30.512l-1.029.473-.844.377-.096.367-.08.36-.06.385-.018.447.096.665.29.587.493.412.676.149.624-.044.554-.166.545-.28.624-.412v-4.16l-.764.376-1.011.464zm101.105-5.921l-.65 1.025-.413 1.331h5.476l-.185-1.226-.518-1.034-.782-.718-.994-.271-1.072.236-.862.657zm-80.677 0l-.641 1.025-.413 1.331h5.476l-.185-1.226-.518-1.034-.783-.718-.993-.271-1.072.236-.871.657zm58.834-8.391l.334.543.123.587-.123.648-.334.543-.537.368-.703.131-.729-.149-.572-.402-.387-.544-.14-.595.14-.587.387-.543.572-.403.729-.149.703.149.537.403zm58.516 0l.334.543.123.587-.123.648-.334.543-.536.368-.703.131-.73-.149-.571-.402-.387-.544-.14-.595.14-.587.387-.543.571-.403.73-.149.703.149.536.403z" fill="#fff"/></svg>