<svg width="247" height="59" viewBox="0 0 247 59" fill="none" xmlns="http://www.w3.org/2000/svg"><path d="M6.452 14.712c0 3.013-.158 6.228.062 9.136.29 3.967.369 7.173 1.635 9.994 2.645 5.868 9.264 9.547 15.629 11.789 1.01.35 2.03.648 3.173.955.246.07.615.315.844.341.606.053 3.138-.963 3.797-1.182 6.452-2.207 13.643-6.228 16.192-12.245 1.081-2.575 1.257-5.352 1.52-8.917.194-2.575.062-5.448.062-8.12V.33H6.514c-.044 6.412-.062 11.211-.062 14.382zM51.52 41.961c-2.057 1.13-4.105 2.303-6.4 3.162 0 1.077-.149 1.06.625.727 2.558-1.086 4.72-2.453 7.076-3.661-.15.376-.897 3.162-.791 3.556.087.376 2.039 2.365 2.434 2.645-1.169.306-1.995.876-3.12 1.244-.009.07-.062.245-.053.394.009.201.07.5.343.508.853.017 3.208-1.594 4.184-1.918-.457-.307-2.795-2.707-2.883-3.1-.097-.386.606-2.97.73-3.443.14-.535.395-1.121.457-1.577.008-.07.035-.184-.062-.175-.536.088-1.969 1.323-2.54 1.638zm-49.2.56c.106.5.704 2.917.625 3.224C2.83 46.13.44 48.6 0 48.898c.246.07.387.07.624.175 1.23.517 2.356 1.253 3.736 1.69.167-.683.237-.823-.396-1.077-.817-.324-1.6-.876-2.496-1.068.94-.762 1.565-1.822 2.435-2.654-.281-.955-.378-2.137-.677-3.1-.009-.018-.15-.395-.167-.395 0 0 .097-.079.563.228 1.485.963 3.05 1.786 4.755 2.54.72.315 1.468.613 2.207.954.017-.219.061-.604.061-.902-1.978-.91-3.868-1.743-5.722-2.767-.88-.482-1.723-1.051-2.602-1.577-.15-.088-.334-.36-.51-.394-.14-.035.413 1.515.51 1.97zm42.176 5.08c-3.155 1.14-6.68 2.313-10.53 2.707-10.9 1.121-21.431-.91-28.19-5.019 0 2.348-.678 6.753-1.478 8.461.959.21 1.67.649 2.497.964 1.556.587 3.138 1.191 4.755 1.69 6.76 2.067 16.588 2.96 24.85 1.638 3.473-.56 6.84-1.34 9.854-2.426 1.75-.64 3.376-1.655 5.266-2.032-.37-.745-.449-1.655-.624-2.593-.343-1.839-.791-3.783-.791-5.93-1.6 1.122-3.64 1.831-5.609 2.54z" fill="#222"/><path d="M48.118 1.346c-9.485-.114-19.48.114-29.149.114h-7.761c-1.178 0-2.54.087-3.622-.053.299 2.023.114 4.599.114 6.823v11.448c0 6.57.08 12.192 2.83 15.915 1.987 2.671 4.624 4.598 7.64 6.254 2.382 1.322 4.922 2.277 7.761 3.223.492.166 1.45.648 1.925.675.308.008.87-.36 1.187-.456a41.15 41.15 0 005.547-2.023c4.518-2.023 8.93-4.634 11.321-8.75.29-.49.502-.99.739-1.524.14-.324.334-.675.448-1.016.07-.193.053-.307.114-.508.08-.237.159-.482.229-.789.062-.236.114-.49.167-.788.062-.29.106-.596.176-.955.07-.403.123-.858.167-1.357.026-.35.079-.736.114-1.183.15-2.006.053-4.274.053-6.376V7.722c0-1.997-.088-4.292.114-6.096-.105-.052.255-.271-.114-.28z" fill="#00356B"/><path d="M36.629 9.246c-4.21.368-8.087-1.524-8.773 2.926-.351-4.415-4.826-2.584-8.781-2.873-1.16-.088-2.145-.5-2.945-.964-.387.701-.958 1.314-1.406 1.98-.537-.061-1.143-.044-1.644-.114.299 2.014.053 4.467.053 6.604v15.626h8.043c1.371 0 3.226.175 4.245-.228-.65 1.743-.035 2.479 2.093 2.479 2.285.009 3.7-.342 2.83-2.479 1.187.298 2.945.228 4.474.228h7.867V10.148c-.544 0-1.125-.017-1.582.053-.466-.648-.967-1.253-1.415-1.918-.905.411-1.846.85-3.059.963zm7.472.727c.123.99.255 2.251.167 3.442-.07.92-.097 1.454-1.125 1.297 0 .131.026.263 0 .394.606.158 1.344.228 2.206.228-.035.175 0 .271-.062.394-.28.64-1.397.42-2.144.341.008.15.052.377.052.447.554.079 1.398.29 1.873.061 1.257-.622.87-4.887 1.24-6.543-.836.526-1.012.797-1.812.114-.096-.087-.193-.324-.343-.341-.087-.009-.061.105-.052.166zm-32.55.342c-.941.736-.853.727-1.987.166.237 1.7-.035 6 1.415 6.324.571.123 1.16-.105 1.644-.175 0-.061.044-.307.061-.447-1.098.114-1.6.202-2.215-.394.027-.018 0-.254 0-.28.8-.07 1.574-.123 2.215-.29 0-.104-.026-.236 0-.332-.263 0-.571 0-.738-.061-.66-.237-.343-3.644-.343-4.564 0 0-.053.044-.053.053zm-.625 12.577c-.466.36-.958-.183-1.3-.446.087 1.095.202 4.94.623 5.58.308.49.994.551 1.75.455 1.002-.132.975-.631-.167-.508-.818.079-1.134-.07-1.363-.736.009-.018.053-.149.062-.166.79 0 1.538-.018 2.153-.176-.202-.884-.545 0-.905-.508-.44-.613-.246-3.407-.114-4.283-.255.237-.475.578-.739.788zm32.981 3.968c-.36.5-.703-.376-.905.508.606.15 1.362.167 2.154.167.008.017.052.149.052.166-.22.666-.545.823-1.353.736-1.143-.114-1.17.377-.176.508.765.096 1.441.035 1.758-.456.413-.639.536-4.484.624-5.579-.343.271-.844.806-1.301.447-.264-.202-.492-.552-.738-.789.132.876.325 3.67-.115 4.292z" fill="#222"/><path d="M35.61 9.921c-1.917-.096-4.686-.525-6.057.333-.633.394-1.117 1.209-1.301 2.032-.088.36-.026.71-.062 1.13-.404 5.457-.052 11.299-.052 16.87 1.617-3.224 6.214-1.28 9.74-2.374.421-.132 1.063-.307 1.3-.622.299-.403.114-2.864.114-3.609V9.133c-.017 0-.175.009-.175 0-.862.5-2.057.858-3.508.788zm-19.075 13.76c0 .727-.22 3.206.052 3.67.554.938 4 1.078 5.661.955 2.707-.201 4.545.201 5.38 1.866V17.594c0-1.726.228-3.828-.114-5.36-.159-.684-.554-1.358-1.02-1.752-1.706-1.428-5.142-.28-7.867-.56-.818-.088-1.46-.421-2.092-.675V23.68zm28.023-8.908c.255.053.483.106.844.053.281-1.104.184-2.671.281-3.889-.607.43-.545.526-1.072-.114.052 1.27.079 2.742-.053 3.95zm-34.484-3.608c.167 1.226.123 2.654.29 3.889.29 0 .641-.044.844-.062 0-.236-.044-.578-.053-.727-.08-1.05.035-2.286 0-3.161-.598.543-.378.604-1.081.06zm33.051 4.896c.747.079 1.872.298 2.154-.341.052-.123.026-.22.052-.395-.852 0-1.6-.07-2.206-.227v.963zm-32.647-.552c0 .027.018.272 0 .28.607.596 1.116.517 2.206.395v-.955c-.94.14-1.679.237-2.206.28zm-.404 7.726c.123 1.077.193 2.26.342 3.328.229.026.625.018.853 0-.053-1.121-.07-2.383-.114-3.442-.554.7-.378.657-1.081.114zm34.343 3.792c.229.018.615.026.853 0 .14-1.068.22-2.25.334-3.328-.695.543-.519.587-1.073-.114-.044 1.06-.07 2.33-.114 3.442zm-33.878.053c-.008.017-.052.157-.061.175.22.657.545.815 1.363.727.342-.035.58-.018.73.035.008-.07.043-.438.113-1.104-.905.114-1.617.167-2.144.167zm32.498 1.427c.123-.07.396-.105.809-.06.809.078 1.134-.08 1.354-.737 0-.017-.053-.157-.053-.166-.8 0-1.547-.026-2.154-.175 0 0 .044 1.025.044 1.138zm-16.886 4.827c.378.595 2.558.621 3.235.218.351-.21.422-.92.562-1.348-.008 0-.316.017-.228.052-1.029.806-2.84.596-3.85-.052.105.341.096.832.281 1.13zM6.452 46.586c.229 1.524-.501 5.492-1.02 6.604.976.21 1.732.753 2.602 1.069 1.512.542 3.086 1.13 4.65 1.576 6.285 1.796 15.225 2.523 22.811 1.41 3.455-.508 6.777-1.243 9.74-2.312 1.08-.394 2.18-.823 3.278-1.235.616-.237 1.029-.596 1.82-.683-.58-1.244-1.02-4.897-1.081-6.543-10.654 6.587-32.067 6.63-42.8.114z" fill="#fff"/><path d="M39.908 14.712v9.477c0 1.2-.229 2.663 0 3.837.114.57.677 1.138.967 1.585.246.377.518.674.79 1.007-.272-2.005-.113-4.458-.113-6.648V11.445c-.783-.368-1.319-1.165-1.75-1.865.22 1.506.106 3.442.106 5.132zM15.963 9.641c-.14.079-.184.464-.281.622a3.292 3.292 0 01-1.415 1.235v12.691c0 1.945.175 4.143-.053 5.983-.027.131-.123.64.053.56.228-.096 1.626-2.338 1.696-2.706.238-1.235 0-2.75 0-4.003v-9.819c0-1.427-.14-3.074.062-4.397.052.035.088-.131.035-.175-.026-.017-.053-.017-.097.009zM36.63 28.928c-2.488.254-5.66-.482-7.252.622-.747.525-1.178 1.498-1.24 2.54.502-.132.95-.22 1.354-.456.159-.087.387-.411.572-.446.58-.114 1.512.227 2.32.166 1.512-.114 3.261.061 4.87-.052 1.108-.088 2.945-.246 3.956.052-.677-1.086-1.468-2.11-2.092-3.267-.712.35-1.486.736-2.488.84zm-22.134 2.706c.721-.332 1.89-.28 2.998-.28 2.408 0 5.283.315 7.638 0 .115-.017.493-.236.572-.228.114.018.395.386.51.456.395.236.914.394 1.415.508-.07-1.226-.545-2.111-1.477-2.654-1.626-.955-4.8-.184-7.129-.447-.94-.114-1.679-.49-2.435-.797-.545 1.34-1.38 2.304-2.092 3.442z" fill="#FABD0A"/><path d="M17.94 13.083c-.79.613-.614 1.629.23 2.023-.23.324-.633.718-.677 1.191-.07.762.255 1.235-.053 1.91-.027-.018-.035.122.105.175.194-.28.563-.657.624-1.016.115-.587-.149-1.095 0-1.577.123-.376.466-.762.686-1.077.782.368 2.171.692 1.75 1.918-.062.193-.124.43-.282.508-.387.184-1.187.079-1.644.114-.132.36-.22.64-.334 1.016.088-.009.396-.061.396-.061 1.6 0 1.661.262 2.092-1.008.184-.551.571-1.34.457-2.032-.185-1.042-1.802-.525-1.705-2.146-.466.42-.748 1.577-1.416.955-.255-.236-.228-.648-.167-.955l-.061.062zm4.475 2.023c-.264.675-.123 1.218-.053 2.032-1.01.263-.87.114-1.133 1.13 2.32 0 1.845-.473 1.415-2.085-.273-1.033.21-1.427 1.3-1.077.52.167.282 2.4.282 3.1.44-.192.563-.463.8-.84-.58-.57-.167-3.075-.686-3.329-1.169-.578-2.118.719-2.487-.954-.185.84-.326 1.743.562 2.023zm14.662-1.296c-.193.92 1.002.674.343 1.638-1.02-.412-2.118-.902-2.04-2.26-.201.175-.368.28-.448.57-.307 1.033.343 1.655.906 2.031-.158.105-.325.21-.457.333-.422.403-.317.964-.229 1.638-.07.017-.299.053-.395.114-.062.044 0 .245-.053.28.668.088 1.652.21 1.468-.736-.044-.218-.352-.455-.396-.674-.07-.368.115-.578.229-.788.923.429 2.241.91 1.644 2.198.307-.035.193.088.395-.166.58-.745.65-1.594-.167-2.146a2.251 2.251 0 01-.29-.228c.492-.298 1.073-1.007.571-1.629-.087-.114-.369-.263-.395-.403-.088-.341.158-.289-.114-.5-.159.202-.51.456-.572.728zM26.16 15.106c-.132.946-.044 2.155-.176 3.048.563-.061.606-.429.905-.902-.105-.061-.167-.061-.228-.166-.15-.29-.264-1.516-.106-1.98.07-.228.475-.263.334-.788-.14-.508-1.213-.132-1.415-.675-.026-.07-.167-.499-.167-.508-.36.964-.466 2.05.853 1.971zm7.357 0c-.14.666-.474 4.3.449 2.601.061-.113.061-.175.114-.289 0 .01-.044-.201-.053-.218-.281-.561-.114-1.393-.176-2.094.387-.14.748-.412.396-.902-.43-.604-1.248.228-1.582-1.016-.326.884-.475 2.12.852 1.918zm-4.36-.622c.3 1.34 1.881.184 2.26.902.316.605.114 1.962.114 2.768.422-.105.457-.298.685-.736.15 0 0-.192 0-.166-.387-.552-.15-2.741-.51-3.048-.905-.745-1.846.63-2.496-.84-.202.323-.176.595-.053 1.12zm6.962 7.34c.106.096.396.324.449.447.166.35-.01 1.147.342.394.783-1.673-.351-1.209-.51-2.032-.052-.28.185-.482-.052-.613-.352.552-.844 1.191-.229 1.804zM24.57 23.06c.193-.14.334-.184.457-.394.694-1.252-.695-1.331-.624-2.479-1.372 1.682.386 1.428.167 2.873zm7.753-.788c-.51.937-.466 1.874-.616 3.214 1.029 0 2.321-.07 3.446.062.044-1.008.37-1.849.229-2.935-.264-2.102-1.503-.893-3.06-1.471-.324-.123-.157-.622-.333-.788-.343.727-.598 1.576.334 1.918zm-11.946.061c-.598.762-.519 1.892-.616 3.215a21.936 21.936 0 013.393 0c.045-1.034.405-1.936.23-3.101-.309-2.05-3.157-.342-3.341-1.98-.396.719-.536 1.507.334 1.866zM7.032 52.428c.185.035.317.026.501.079.431.122.958.481 1.354.569.035 0 .202-.018.123-.044.088-.123.396-.543.475-.657.123-.184-1.758.07-1.627-.368.273-.937.52-2.093.748-2.995-.238-.114-.449-.228-.677-.342-.202 1.288-.572 2.558-.897 3.758zm38.844-2.856c-.65 1.55 1.178 1.288 2.013 1.778.08.053.176.123.22.237.483 1.445-1.52.613-1.916.359.061.184.061.263.114.394.07.149.185.403.281.56.185.29.862.044 1.301-.105.624-.218 1.187-.823.853-1.637-.299-.745-1.24-.622-1.925-.964-.334-.166-.334-.508-.334-.508.413-1.165 2.013.71 1.696-.053-.044-.113-.378-.823-.395-.902-.73.184-1.635.176-1.908.841zM9.96 53.242c.07.307.422.56.686.675 2.048.91 2.417-1.805 2.769-3.154-.229-.07-.378-.105-.624-.175-.132.999-.299 3.539-1.811 2.882-.756-.333.211-2.777.396-3.39-.264-.061-.449-.131-.73-.219-.176.832-.879 2.47-.686 3.381zm33.06-2.82c0 1.533-.298 2.759-.562 4.064.228-.079.475-.158.738-.228 0-.438.062-.946.132-1.34.36-.149 1.204-.368 1.204-.368.203.15.493.675.616.894.15.271.21.184.598.026.14-.061.272-.079.395-.114-.51-.64-1.081-1.226-1.53-1.918-.193-.29-.966-1.244-.966-1.244-.167-.009-.457.175-.624.228zm-4.14 1.121c-.008.193-.105.455-.114.648a.625.625 0 00.114.42c.273-.411.537-.613 1.117-.779.378 1.156.562 2.137.764 3.197 1.02-.342.923-.123.765-.447-.158-.341-.8-2.978-.773-2.986.316-.062 1.002.148 1.23.289.027-.027.167.043.194.052-.088-.201-.194-.298-.176-.333-.14-.271-.22-.438-.343-.683a7.764 7.764 0 01-2.778.622zm-24.718-.35c.027.201.185.455.273.692.123.332.246.63.342 1.077-.588.455-1.151.91-1.81 1.296.545.175.756.517 1.134-.052.975-1.524 1.002-.333 1.3.84.378.053.59.097.959.167-.3-.797-.66-1.463-.792-2.418.52-.367 1.02-.744 1.583-1.077-.519-.105-.668-.341-1.02.061-.923 1.06-.773.833-1.072-.569-.325-.079-.66-.184-.958-.271-.018-.07.052.227.061.254zm23.637.543c-.088 0-.352.14-.44.149.29 1.165.361 2.443.554 3.775.01 0 .273-.062.273-.062.176-.035.475-.157.66-.201a30.319 30.319 0 01-.651-3.67c-.123 0-.273.009-.396.009zm-19.54 3.932c.667 0 1.555.097 2.074.21.668.15.598.088.844-.437a2.18 2.18 0 00.105-.28c-.554.227-1.31.332-2.092.227.325-1.48-.061-1.541 1.248-1.016-.008-.07-.061-.228-.061-.228-.009-.087-.053-.332-.053-.341v-.167a2.617 2.617 0 01-.905 0c.061-.525.158-1.208.263-1.173.238.061.8.262.985.385.202.14.413.315.563.508l-.053-.28a8.307 8.307 0 00-.176-.797c-.765-.097-1.442-.176-2.04-.333-.184 1.2-.457 2.61-.703 3.722zm16.894-3.556c-.545.044-1.072.29-1.635.342.044.333.132.7.167 1.016.088.876.08 1.77.123 2.671.238-.026.58-.096.835-.131-.079-.552-.149-1.165-.167-1.638.22-.035.37-.035.624-.061.51.85 1.372 1.69 2.488 1.585 0 0 .044-.14.062-.175-.765-.473-1.521-1.095-1.987-1.857.422-.534.95-1.708-.246-1.76-.08 0-.167 0-.264.008zm-13.449.806c-.105.245-.017.438-.017.438.386-.306.694-.42 1.3-.394 0 1.217-.14 2.207-.28 3.267 1.063 0 .905.184.86-.175-.043-.377.185-3.083.212-3.075.316.035.905.447 1.072.657.035-.017.15.097.176.114-.026-.219-.097-.35-.07-.376-.044-.298-.07-.482-.106-.754a7.945 7.945 0 01-2.83-.28c-.07.175-.238.394-.317.578zm8.694-.236c.14 1.208.114 2.478.114 3.775a17.972 17.972 0 012.496-.167c.326-.814.598-.876-.228-.622-1.477.447-1.547.473-1.538-1.103 1.547.131 1.213.306 1.072-.675-.334.15-.571.202-1.064.254-.008-.122-.061-1.13-.061-1.13.853 0 1.24.15 1.705.508-.088-.271-.079-.42-.176-.674-.088-.236-.15-.341-.51-.341-.527.008-1.133.175-1.81.175zm-3.798.394c.431.884.739 1.9 1.187 2.864.264.57.37 1.147.8.35.237-.438.334-.928.501-1.384.273-.744.589-1.462.914-2.172-.29 0-.642.035-.844.053-.202.937-.422 1.717-.738 2.487-.466-.753-.818-1.664-1.134-2.592-.36.043-.492.043-.844 0 0 0 .097.271.158.394z" fill="#222"/><path d="M20.323 24.644c.782-.201 1.81-.184 2.55 0-.089-2.32.21-1.988-2.207-2.312-.308.64-.413 1.384-.343 2.312zm11.999-.508c.009.193.009.35 0 .447.72-.228 1.846-.21 2.549 0 0-2.216-.105-2.251-2.32-2.251a5.138 5.138 0 00-.23 1.804zm11.067 28.221c.061-.017.36-.096.905-.254l-.791-1.086a8.47 8.47 0 01-.114 1.34zm-9.063.307s.097 1.349.14 1.349c.81-.123 1.477-1.358.422-1.402a2.277 2.277 0 00-.562.053z" fill="#fff"/><path d="M239.027 23.961l-.14.01-.141.008-.132.009-.123.017-.123.018-.114.017-.106.027-.105.026-.097.026-.097.035-.096.026-.088.035-.088.035-.079.035-.088.035-.079.044-.079.035-.079.044-.08.035 3.393 8.698 3.13-8.181-.097-.096-.097-.097-.096-.096-.097-.079-.097-.087-.105-.07-.106-.07-.105-.07-.106-.053-.105-.062-.114-.043-.115-.044-.114-.044-.123-.035-.114-.026-.123-.027-.123-.017-.123-.009-.132-.009h-.132v-.78H247v.78h-.193l-.185.027-.176.026-.167.044-.158.052-.149.062-.15.078-.132.08-.132.087-.123.096-.114.097-.105.105-.097.113-.088.114-.088.114-.07.114-.071.123-.052.114-.053.122-.044.114-3.912 9.223-.096.254-.115.272-.123.297-.123.325-.14.35-.141.36-.149.376-.159.403-.158.403-.158.42-.167.43-.176.428-.176.447-.176.438-.175.447-.176.438-.185.438-.176.429-.175.429-.176.412-.062.131-.061.123-.071.122-.061.105-.07.105-.071.097-.079.087-.079.08-.079.07-.088.07-.088.06-.097.053-.096.044-.106.044-.105.035-.115.026-.114.018-.123.017-.132.009h-.281l-.149-.018-.132-.035-.132-.035-.123-.043-.114-.053-.106-.07-.097-.07-.088-.079-.087-.079-.071-.096-.07-.097-.053-.096-.053-.105-.044-.105-.035-.114-.026-.114-.018-.114-.017-.114v-.236l.017-.114.018-.114.026-.114.035-.113.044-.106.053-.105.053-.105.07-.096.071-.088.087-.087.088-.08.097-.07.106-.06.114-.053.123-.053.132-.035.132-.026.149-.017.149-.01h.044l.044.01h.044l.053.008.053.009.052.009.062.008.062.01.061.017.062.017.061.01.07.017.062.017.07.018.062.017.061.018.071.017.061.027.062.017.053.017 1.96-4.545-4.431-11.43-.043-.114-.044-.114-.053-.105-.053-.106-.061-.096-.071-.096-.07-.088-.079-.079-.088-.087-.088-.07-.105-.07-.115-.07-.114-.062-.132-.052-.132-.053-.149-.044-.158-.035-.167-.035-.176-.026-.194-.026v-.517h6.778v.78h-.15zm-99.576-6.99l-.158.036-.149.035-.15.044-.149.044-.141.043-.149.044-.132.053-.132.052-.132.053-.123.052-.123.062-.123.06-.106.062-.114.061-.097.062-.096.07-.097.061-.079.07-.079.07-.079.07-.062.07-.061.07-.053.07-.053.07-.035.08-.035.07v9.87l-.018.623-.044.595-.07.57-.097.552-.123.516-.149.5-.167.472-.202.447-.22.42-.238.395-.263.376-.29.35-.308.325-.325.306-.343.28-.36.255-.387.236-.396.21-.413.184-.431.167-.439.14-.457.123-.475.096-.483.079-.493.052-.501.035-.518.009-.528-.018-.518-.035-.493-.052-.483-.079-.466-.105-.448-.123-.431-.149-.413-.166-.396-.193-.378-.21-.351-.236-.343-.246-.317-.271-.307-.298-.273-.306-.263-.333-.238-.35-.22-.369-.193-.394-.176-.403-.158-.42-.132-.447-.105-.455-.079-.482-.062-.49-.035-.508-.018-.526v-10.65l-.035-.07-.035-.07-.053-.071-.052-.061-.071-.062-.07-.06-.079-.062-.079-.053-.097-.052-.097-.053-.096-.052-.106-.044-.114-.044-.114-.044-.123-.044-.124-.035-.123-.043-.131-.035-.132-.027-.141-.035-.132-.026-.14-.026-.141-.027-.15-.017-.14-.026-.141-.018-.149-.009v-.78h8.728v.78h-.158l-.158.01-.149.008-.159.009-.149.017-.15.026-.149.027-.141.026-.14.035-.132.035-.141.035-.123.044-.123.044-.123.043-.114.053-.106.052-.105.053-.097.061-.097.053-.079.061-.079.062-.079.07-.061.061-.053.07-.053.07-.044.07-.035.07v10.003l.009.43.026.41.044.395.053.394.07.368.088.359.106.342.123.332.131.316.15.298.167.289.184.271.194.254.22.237.228.219.246.21.255.184.282.175.29.158.298.131.326.123.334.105.351.079.37.07.386.043.396.027.413.017.422-.017.413-.027.396-.043.378-.07.36-.088.343-.105.334-.123.316-.14.29-.166.282-.184.272-.193.246-.219.238-.236.211-.263.202-.272.184-.297.167-.307.159-.333.131-.35.124-.368.105-.386.088-.402.07-.42.062-.448.035-.455.026-.482.009-.49V23.287l-.009-.219v-.43l-.008-.227-.009-.219v-.228l-.009-.219-.009-.227v-.228l-.009-.219-.008-.219-.009-.219-.009-.21v-.21l-.009-.202-.009-.201-.008-.193v-.184l-.009-.175-.009-.175v-.316l-.009-.14v-.254l-.035-.07-.044-.07-.061-.079-.062-.07-.079-.07-.088-.07-.097-.07-.105-.061-.106-.07-.123-.062-.123-.07-.132-.061-.14-.053-.15-.061-.149-.052-.15-.053-.158-.053-.167-.052-.167-.044-.167-.044-.167-.035-.176-.035-.175-.035-.176-.026-.167-.026-.176-.018-.176-.017v-.78h8.078v.78l-.158.026zm92.693 6.21v1.429h-4.298v7.4l.018.413.07.385.123.359.158.333.202.306.238.263.281.237.316.192.352.158.378.114.413.07.448.026.194-.009.211-.026.211-.044.211-.061.211-.061.193-.07.194-.08.175-.07.159-.07.131-.06.115-.053.079-.044v.648l-.255.167-.299.175-.334.175-.369.175-.387.175-.396.158-.395.149-.396.131-.378.105-.36.08-.316.052-.291.017-.676-.026-.598-.096-.519-.158-.457-.21-.387-.272-.325-.324-.264-.377-.211-.42-.149-.473-.105-.517-.062-.551-.026-.605.008-.718v-.683l.018-.648.009-.631.017-.613.036-1.2.008-.613.018-.622.009-.657.008-.683v-.718h-1.696v-.649l3.78-3.643h.659v2.864h4.298zm-22.67-.498l.326.035.307.035.299.052.29.053.282.061.263.07.255.061.246.07.229.07.211.07.193.062.185.061.167.053.123 3.25h-.651l-.184-.333-.194-.325-.202-.315-.211-.298-.211-.289-.219-.262-.211-.254-.22-.228-.211-.202-.211-.175-.202-.157-.194-.114-.184-.088-.176-.061-.167-.018-.466.018-.422.052-.369.07-.334.105-.281.123-.247.14-.211.158-.175.166-.15.175-.114.184-.088.193-.061.184-.044.175-.027.175-.009.158.009.254.027.228.044.219.061.201.088.193.114.175.15.175.175.167.211.166.247.167.281.175.334.166.369.184.422.193.466.201.483.184.457.184.422.193.396.21.36.21.334.22.299.236.264.245.237.263.194.271.167.298.132.315.096.333.053.35.018.377-.027.438-.07.43-.123.402-.176.394-.211.368-.255.342-.299.324-.325.289-.369.263-.405.227-.43.193-.466.158-.484.105-.518.07-.536.026-.458-.008-.43-.018-.413-.026-.387-.044-.361-.044-.342-.061-.317-.061-.308-.062-.272-.07-.264-.07-.237-.061-.22-.07-.202-.07-.185-.062-.167-.052-.386-3.372h.782l.193.332.203.333.219.316.22.315.237.289.238.28.237.263.229.245.228.21.229.193.211.167.193.122.185.096.167.062.14.017.493-.008.448-.044.395-.079.352-.096.316-.114.264-.14.238-.158.193-.175.158-.193.132-.201.105-.21.071-.228.053-.22.026-.236.009-.236-.009-.245-.053-.228-.07-.22-.106-.192-.123-.193-.158-.166-.176-.166-.202-.158-.228-.149-.247-.149-.263-.14-.282-.14-.298-.15-.317-.148-.334-.149-.501-.21-.466-.21-.439-.21-.396-.22-.369-.227-.325-.237-.299-.245-.264-.263-.22-.271-.193-.29-.158-.315-.123-.333-.088-.35-.053-.376-.018-.403.036-.403.079-.403.14-.377.194-.368.228-.35.282-.315.325-.307.351-.271.396-.246.422-.21.457-.175.483-.149.501-.105.519-.061.545-.027.334.01.325.017zm-22.652.227l.598.14.536.202.483.254.431.315.378.36.325.402.264.465.202.499.15.552.087.595.036.64v.525h-8.474v.088l-.009.096-.009.105-.017.105-.009.105-.018.123-.009.114-.017.123-.018.13-.008.132-.009.14-.009.15v.14l.035.709.097.666.167.621.22.587.281.543.334.482.387.438.43.377.466.315.519.254.554.184.589.114.615.035.343-.009.325-.026.308-.044.281-.061.272-.088.264-.105.255-.114.255-.14.255-.158.255-.175.264-.193.281-.21.29-.236.519.78-.387.323-.378.307-.387.289-.378.272-.387.254-.404.227-.413.202-.431.175-.457.149-.475.114-.51.087-.545.053-.58.017-.738-.043-.712-.132-.677-.219-.642-.298-.589-.368-.545-.446-.492-.508-.422-.57-.369-.63-.29-.683-.211-.736-.132-.78-.044-.823.044-.99.141-.937.228-.876.308-.814.396-.754.465-.674.528-.596.598-.525.659-.43.721-.341.764-.254.809-.158.853-.052.694.035.642.087zm-16.394 1.051l-.193.01-.176.017-.158.017-.159.027-.14.035-.132.035-.123.035-.114.043-.115.044-.096.053-.097.043-.088.053-.088.053-.079.052 3.393 8.575 3.129-8.058-.14-.131-.141-.123-.149-.114-.15-.114-.149-.096-.15-.088-.158-.079-.149-.06-.159-.062-.167-.053-.158-.043-.167-.036-.167-.017-.176-.018h-.167v-.78h5.6v.78l-.255.01-.237.034-.229.053-.211.079-.193.087-.185.105-.176.114-.149.131-.15.14-.123.15-.114.148-.105.158-.088.158-.071.157-.061.158-4.554 10.528-1.177.254-4.431-11.036-.079-.158-.088-.14-.105-.14-.106-.131-.114-.123-.123-.114-.141-.105-.149-.096-.167-.088-.176-.079-.185-.07-.202-.061-.22-.052-.237-.044-.255-.027v-.78h7.041v.78h-.202zm-86.654-1.077l.483.114.43.149.379.201.334.228.29.271.237.298.202.333.167.368.123.385.08.42.052.439.018.464-.132 6.5.009.262.026.228.044.201.062.184.079.149.088.131.096.105.115.088.114.07.123.053.132.043.14.018.132.017.141.01.114-.01.115-.008.105-.027.114-.026.115-.035.105-.052.114-.062.115-.061.114-.079.105-.087.115-.106.114-.105.106-.122.114-.132v.911l-.123.193-.141.193-.167.184-.185.183-.193.176-.21.166-.22.149-.23.14-.228.123-.237.105-.237.087-.238.062-.228.044-.229.008-.352-.017-.316-.044-.299-.079-.272-.105-.238-.131-.22-.14-.193-.167-.167-.166-.15-.184-.122-.184-.106-.193-.079-.184-.053-.184-.044-.166-.228.245-.237.228-.247.219-.263.201-.264.193-.273.166-.28.158-.273.14-.29.114-.282.096-.29.08-.281.06-.29.035-.281.01-.352-.018-.352-.044-.334-.079-.316-.105-.308-.14-.281-.166-.255-.193-.228-.228-.203-.245-.175-.28-.132-.298-.106-.333-.061-.35-.018-.377v-.193l.009-.193.026-.192.018-.193.035-.193.044-.184.044-.183.053-.176.052-.175.07-.175.062-.158.08-.157.07-.15.088-.148 6.25-2.207v-2.339l-.01-.298-.026-.298-.052-.289-.07-.28-.097-.263-.115-.245-.132-.228-.158-.201-.176-.175-.21-.158-.22-.123-.247-.087-.272-.061-.299-.018-.167.018-.176.043-.167.08-.167.104-.158.132-.158.157-.15.175-.131.21-.115.228-.105.254-.08.272-.07.289-.035.307-.017.324-2.866.525v-.263l.228-.586.29-.526.335-.482.386-.429.414-.377.44-.332.447-.29.466-.236.466-.201.448-.167.44-.122.413-.08.37-.052.333-.017.59.026.527.07zm22.38.026l.589.14.545.202.483.254.431.315.378.36.316.402.264.465.211.499.141.552.096.595.027.64v.525h-8.474v.088l-.009.096-.009.105-.009.105-.017.105-.009.123-.018.114-.017.123-.009.13-.017.132-.009.14v.15l-.009.14.035.709.106.666.158.621.228.587.282.543.325.482.387.438.43.377.475.315.51.254.554.184.589.114.615.035.352-.009.325-.026.299-.044.281-.061.272-.088.264-.105.255-.114.255-.14.255-.158.255-.175.272-.193.273-.21.29-.236.527.78-.386.323-.387.307-.378.289-.387.272-.387.254-.395.227-.413.202-.44.175-.448.149-.484.114-.51.087-.545.053-.58.017-.738-.043-.712-.132-.677-.219-.633-.298-.598-.368-.545-.446-.483-.508-.43-.57-.361-.63-.29-.683-.22-.736-.132-.78-.044-.823.053-.99.132-.937.228-.876.317-.814.387-.754.465-.674.537-.596.597-.525.66-.43.712-.341.764-.254.809-.158.853-.052.703.035.642.087zm55.607 11.895l.114.166.123.132.15.105.184.087.238.07.298.062.378.044.475.043v.657h-6.909v-.78l.475-.052.386-.061.317-.07.255-.079.193-.096.15-.114.123-.132.096-.148.088-.158v-8.058l-.009-.246-.052-.236-.097-.21-.141-.202-.193-.184-.255-.166-.325-.158-.405-.149-.474-.131v-.526l4.298-1.427h.396v11.824l.123.193zm-16.719-10.09l.228-.158.246-.158.247-.157.255-.158.254-.149.264-.149.264-.149.264-.131.272-.131.255-.123.264-.114.255-.105.246-.096.246-.08.228-.07.22-.052.211-.044.202-.026.185-.009.395.018.37.035.342.061.317.088.299.105.272.131.246.15.22.174.202.193.185.219.158.237.141.245.123.271.105.29.088.306.071.324.044.342.043.35.018.368.009.385v7.664l.097.07.096.07.097.062.105.052.106.044.105.044.106.035.114.035.114.026.115.026.123.027.132.017.14.018.141.017.149.018.159.017.158.018.176.017.184.018.185.017v.911h-7.296v-.78l.228-.026.203-.017.184-.026.167-.027.15-.035.131-.026.124-.035.105-.035.088-.044.088-.044.07-.043.07-.044.053-.053.053-.052.044-.062.044-.06.044-.071.035-.061.035-.08.035-.07v-6.752l-.009-.254-.017-.245-.044-.246-.062-.227-.07-.228-.088-.22-.105-.21-.115-.2-.123-.185-.14-.184-.158-.157-.159-.15-.176-.14-.184-.122-.193-.105-.203-.088-.211-.07-.219-.044-.229-.035-.228-.008h-.124l-.123.017-.14.018-.141.017-.141.035-.149.035-.158.044-.15.044-.167.052-.158.062-.158.06-.167.062-.158.07-.159.07-.158.07-.158.07-.158.08-.15.078-.14.079-.141.07v8.838l.062.087.052.088.053.079.053.079.053.06.052.062.062.053.07.052.07.044.08.044.087.035.097.035.106.026.123.035.132.018.158.026.167.026.184.018.203.017.219.027v.78h-6.777v-.78l.229-.027.202-.017.184-.026.167-.027.15-.035.14-.026.124-.035.105-.035.097-.044.088-.044.079-.043.07-.044.07-.053.053-.052.062-.062.052-.06.053-.071.053-.061.053-.08.061-.07v-8.057l-.009-.097-.008-.096-.027-.096-.026-.097-.035-.096-.053-.096-.053-.088-.07-.096-.071-.088-.087-.088-.106-.087-.105-.088-.123-.079-.132-.078-.141-.08-.158-.07-.167-.07-.185-.07-.193-.06-.211-.062v-.648l4.175-1.437h.387v2.208l.22-.15zm52.135.552l.343-.377.334-.35.325-.325.316-.306.317-.272.307-.245.299-.21.299-.167.299-.122.29-.079.299-.026.193.009.194.017.193.026.194.035.193.044.185.053.193.061.176.061.184.08.176.078.167.096.167.088-1.433 2.733h-.263l-.22-.132-.22-.122-.202-.105-.193-.114-.194-.097-.193-.079-.185-.078-.184-.062-.185-.052-.185-.035-.193-.026-.193-.01-.185.01-.176.035-.158.043-.158.07-.141.088-.141.096-.14.114-.132.123-.141.131-.14.15-.15.148-.158.158v8.058l.114.149.141.131.176.114.193.096.22.088.246.07.264.061.272.053.299.035.299.044.316.035.326.035v.78h-7.428v-.78l.36-.035.308-.044.255-.053.22-.052.175-.061.15-.07.114-.07.097-.088.079-.097.07-.105.062-.114.061-.122V26.3l-.008-.166-.027-.15-.053-.148-.07-.15-.097-.13-.131-.14-.167-.123-.203-.123-.228-.114-.281-.114-.326-.105-.36-.096v-.648l4.166-1.437h.264v2.987l.352-.377zm23.101 9.538l.114.166.123.132.149.105.185.087.237.07.299.062.378.044.475.043v.657h-6.909v-.78l.474-.052.387-.061.317-.07.255-.079.193-.096.149-.114.123-.132.097-.148.088-.158v-8.058l-.009-.246-.053-.236-.096-.21-.141-.202-.193-.184-.255-.166-.325-.158-.405-.149-.474-.131v-.526l4.298-1.427h.396v11.824l.123.193zM67.846 17.349l-.202.026-.194.017-.176.027-.167.017-.15.026-.148.027-.132.026-.132.035-.115.026-.114.035-.097.035-.096.035-.088.035-.08.035-.078.044-.07.044-.07.044-.063.044-.061.043-.053.044-.053.053-.052.043 4.817 8.444 4.826-8.444-.07-.043-.07-.053-.071-.052-.08-.053-.079-.044-.079-.052-.088-.044-.096-.044-.097-.044-.097-.044-.114-.043-.114-.035-.123-.035-.123-.035-.14-.027-.142-.026-.158-.026-.158-.026-.176-.018-.184-.009-.194-.017h-.202l-.21-.01v-.779h7.559v.78l-.22-.009-.211-.009h-.202l-.194.018-.193.018-.185.026-.175.026-.176.044-.167.052-.158.062-.159.061-.158.079-.15.087-.14.088-.14.105-.141.114-.132.123-.132.131-.132.14-.123.149-.123.166-.123.167-.114.184-5.213 8.706v5.842l.088.175.097.167.105.149.114.14.124.131.123.114.131.105.141.088.15.087.149.08.158.06.167.062.158.052.176.044.167.044.176.035.185.026.175.027.185.026.185.017.184.027.194.017.184.018v.78H64.41v-.78l.193-.009h.185l.193-.009.194-.009.193-.017.193-.018.194-.026.184-.026.194-.035.175-.035.185-.044.176-.044.167-.052.158-.053.158-.07.15-.061.14-.08.123-.078.124-.087.114-.097.096-.096.088-.114.07-.114v-5.974l-5.212-8.828-.114-.202-.123-.184-.114-.166-.124-.167-.123-.14-.123-.14-.132-.131-.131-.114-.132-.105-.132-.097-.14-.087-.15-.088-.15-.07-.15-.061-.157-.062-.167-.052-.176-.044-.176-.044-.184-.035-.194-.026-.202-.026-.202-.018-.22-.026v-.78h8.729v.78l-.211.018zm26.537-1.052v18.184l.07.14.08.123.097.105.114.096.132.079.15.07.166.061.176.053.211.044.22.043.246.027.264.035.29.035v.78h-6.9v-.78l.307-.035.281-.035.246-.044.211-.053.194-.052.167-.062.14-.07.123-.07.106-.078.097-.097.079-.096.07-.105.062-.114V18.373l-.01-.228-.008-.218-.026-.193-.053-.175-.07-.158-.115-.149-.14-.122-.185-.114-.228-.097-.29-.079-.343-.07-.405-.043-.474-.044v-.648l5.73-1.428.133.517-.915 1.173zM82.052 30.513l-1.029.473-.844.377-.096.367-.08.36-.06.385-.018.447.096.665.29.587.493.412.676.149.624-.044.554-.166.545-.28.624-.412v-4.16l-.764.376-1.011.464zm101.105-5.921l-.65 1.025-.413 1.331h5.476l-.185-1.226-.518-1.034-.782-.718-.994-.271-1.072.236-.862.657zm-80.677 0l-.641 1.025-.413 1.331h5.476l-.185-1.226-.518-1.034-.783-.718-.993-.271-1.072.236-.871.657zm58.834-8.391l.334.543.123.587-.123.648-.334.543-.537.368-.703.131-.729-.149-.572-.402-.387-.543-.14-.596.14-.587.387-.543.572-.403.729-.149.703.15.537.402zm58.516 0l.334.543.123.587-.123.648-.334.543-.536.368-.703.131-.73-.149-.571-.402-.387-.543-.14-.596.14-.587.387-.543.571-.403.73-.149.703.15.536.402z" fill="#00356B"/></svg>