<svg width="247" height="59" viewBox="0 0 247 59" fill="none" xmlns="http://www.w3.org/2000/svg">
<path d="M6.45205 14.7121C6.45205 17.7252 6.29383 20.9397 6.51358 23.8476C6.80366 27.8154 6.88277 31.0211 8.14857 33.8415C10.7944 39.7099 17.4135 43.3887 23.7777 45.6309C24.7885 45.9813 25.8082 46.2791 26.9509 46.5856C27.1971 46.6557 27.5663 46.901 27.7948 46.9272C28.4013 46.9798 30.9329 45.9638 31.5922 45.7448C38.0442 43.5376 45.2347 39.5172 47.7839 33.4999C48.8651 30.9248 49.0409 28.1482 49.3046 24.5834C49.498 22.0083 49.3661 19.1354 49.3661 16.4639C49.3661 15.3866 49.3661 10.0086 49.3661 0.330078H6.51358C6.46963 6.74157 6.45205 11.5414 6.45205 14.7121ZM51.5197 41.961C49.4628 43.0909 47.4147 44.2645 45.1204 45.1229C45.1204 46.2003 44.971 46.1827 45.7445 45.8499C48.3025 44.7638 50.4649 43.3974 52.8207 42.1887C52.6712 42.5653 51.9241 45.3506 52.0295 45.7448C52.1174 46.1214 54.0689 48.1097 54.4644 48.39C53.2953 48.6965 52.4691 49.2659 51.3439 49.6337C51.3351 49.7038 51.2824 49.879 51.2912 50.0279C51.3 50.2293 51.3615 50.5271 51.634 50.5359C52.4866 50.5534 54.8424 48.9418 55.8181 48.6177C55.3611 48.3111 53.0228 45.9112 52.9349 45.5171C52.8382 45.1317 53.5415 42.5478 53.6645 42.0748C53.8052 41.5405 54.0601 40.9537 54.1216 40.4982C54.1304 40.4282 54.1568 40.3143 54.0601 40.3231C53.5239 40.4106 52.0911 41.6456 51.5197 41.961ZM2.32063 42.5215C2.42611 43.0208 3.02385 45.4382 2.94474 45.7448C2.83046 46.1302 0.439513 48.6002 0 48.898C0.246127 48.9681 0.386771 48.9681 0.624108 49.0732C1.85474 49.5899 2.9799 50.3257 4.35997 50.7636C4.52698 50.0804 4.59731 49.9403 3.96441 49.6863C3.14691 49.3622 2.36458 48.8104 1.46797 48.6177C2.40853 47.8557 3.03264 46.7959 3.90288 45.9638C3.62159 45.009 3.52489 43.8266 3.22603 42.8631C3.21724 42.8456 3.07659 42.469 3.05901 42.469C3.05901 42.469 3.1557 42.3901 3.62159 42.6967C5.10714 43.6602 6.67181 44.4835 8.37712 45.2368C9.09792 45.5521 9.84509 45.8499 10.5835 46.1915C10.6011 45.9725 10.645 45.5871 10.645 45.2893C8.6672 44.3784 6.77729 43.5463 4.92254 42.5215C4.04352 42.0398 3.19965 41.4705 2.32063 40.9449C2.17119 40.8573 1.9866 40.5858 1.81079 40.5508C1.67015 40.5158 2.22394 42.0661 2.32063 42.5215ZM44.4963 47.6017C41.3406 48.7403 37.8157 49.914 33.9656 50.3082C23.0656 51.4293 12.5349 49.3972 5.7752 45.2893C5.7752 47.6367 5.09835 52.0424 4.29844 53.7504C5.25658 53.9606 5.96859 54.3986 6.79487 54.7139C8.35075 55.3007 9.93299 55.9051 11.5504 56.4043C18.3101 58.4714 28.1376 59.3648 36.4005 58.0422C39.8726 57.4817 43.2393 56.7021 46.2543 55.616C48.0036 54.9766 49.6298 53.9606 51.5197 53.584C51.1505 52.8395 51.0714 51.9286 50.8956 50.9914C50.5528 49.152 50.1045 47.2075 50.1045 45.0616C48.5047 46.1827 46.4653 46.8922 44.4963 47.6017Z" fill="#222222"/>
<path d="M48.1179 1.34585C38.6332 1.23198 28.6387 1.45971 18.9694 1.45971C18.187 1.45971 11.9811 1.45971 11.2076 1.45971C10.0297 1.45971 8.66719 1.5473 7.58599 1.40716C7.88486 3.43046 7.70026 6.00556 7.70026 8.23032C7.70026 9.37773 7.70026 18.5395 7.70026 19.6782C7.70026 26.2473 7.77938 31.8705 10.5307 35.593C12.5173 38.2645 15.1544 40.1914 18.1695 41.8468C20.5516 43.1694 23.092 44.1241 25.9313 45.0701C26.4235 45.2365 27.3817 45.7183 27.8563 45.7445C28.164 45.7533 28.7266 45.3854 29.043 45.2891C31.0736 44.711 32.8316 44.0453 34.5897 43.2658C39.1079 41.2425 43.5206 38.6323 45.9115 34.5157C46.2016 34.0252 46.4126 33.5259 46.6499 32.9916C46.7906 32.6676 46.9839 32.3172 47.0982 31.9756C47.1685 31.7829 47.151 31.669 47.2125 31.4676C47.2916 31.2311 47.3707 30.9858 47.441 30.6793C47.5026 30.4428 47.5553 30.1888 47.608 29.891C47.6696 29.6019 47.7135 29.2954 47.7839 28.9363C47.8542 28.5334 47.9069 28.0779 47.9509 27.5786C47.9772 27.2283 48.03 26.8429 48.0651 26.3962C48.2146 24.3904 48.1179 22.1219 48.1179 20.0197C48.1179 18.7935 48.1179 8.94854 48.1179 7.7223C48.1179 5.72528 48.03 3.43046 48.2322 1.62613C48.1267 1.57358 48.4871 1.35461 48.1179 1.34585Z" fill="#00356B"/>
<path d="M36.629 9.24619C32.4185 9.61406 28.542 7.72215 27.8563 12.1717C27.5047 7.75718 23.0305 9.58779 19.0749 9.29874C17.9146 9.21115 16.9301 8.79949 16.1301 8.33527C15.7434 9.03598 15.172 9.6491 14.7237 10.3148C14.1875 10.2535 13.581 10.271 13.0799 10.2009C13.3788 12.2154 13.1327 14.6679 13.1327 16.8051C13.1327 17.8474 13.1327 23.0502 13.1327 32.4309C17.9585 32.4309 20.6395 32.4309 21.1757 32.4309C22.547 32.4309 24.4018 32.6061 25.4214 32.2032C24.771 33.9462 25.3863 34.6819 27.5135 34.6819C29.799 34.6907 31.2142 34.3403 30.344 32.2032C31.5307 32.501 33.2887 32.4309 34.8182 32.4309C35.3456 32.4309 37.9651 32.4309 42.6855 32.4309C42.6855 19.0561 42.6855 11.6286 42.6855 10.1484C42.1405 10.1484 41.5604 10.1308 41.1033 10.2009C40.6374 9.55275 40.1363 8.94839 39.688 8.28271C38.7826 8.69438 37.8421 9.13233 36.629 9.24619ZM44.1007 9.97318C44.2238 10.9629 44.3557 12.2242 44.2678 13.4154C44.1974 14.3351 44.1711 14.8694 43.1426 14.7117C43.1426 14.8431 43.169 14.9745 43.1426 15.1059C43.7491 15.2635 44.4875 15.3336 45.349 15.3336C45.3138 15.5088 45.349 15.6051 45.2874 15.7278C45.0061 16.3671 43.8898 16.1482 43.1426 16.0693C43.1514 16.2182 43.1953 16.446 43.1953 16.516C43.7491 16.5949 44.593 16.8051 45.0677 16.5774C46.3247 15.9555 45.9379 11.6899 46.3071 10.0345C45.472 10.56 45.2962 10.8315 44.4963 10.1484C44.3996 10.0608 44.3029 9.82427 44.1535 9.80676C44.0656 9.798 44.0919 9.91186 44.1007 9.97318ZM11.5504 10.3148C10.6099 11.0505 10.6978 11.0418 9.56381 10.4812C9.80115 12.1804 9.52865 16.481 10.979 16.8051C11.5504 16.9277 12.1394 16.7 12.6228 16.6299C12.6228 16.5686 12.6668 16.3234 12.6844 16.1832C11.5856 16.2971 11.0845 16.3847 10.4692 15.7891C10.4956 15.7715 10.4692 15.5351 10.4692 15.5088C11.2691 15.4387 12.0427 15.3862 12.6844 15.2197C12.6844 15.1146 12.658 14.9832 12.6844 14.8869C12.4206 14.8869 12.113 14.8869 11.946 14.8256C11.2867 14.5891 11.6032 11.1819 11.6032 10.2622C11.6032 10.2622 11.5504 10.306 11.5504 10.3148ZM10.9263 22.8925C10.4604 23.2516 9.96816 22.7086 9.62534 22.4458C9.71325 23.5407 9.82752 27.3858 10.2495 28.0252C10.5571 28.5157 11.2428 28.577 11.9987 28.4807C13.0008 28.3493 12.9744 27.85 11.8317 27.9726C11.0142 28.0515 10.6978 27.9026 10.4692 27.2369C10.478 27.2194 10.522 27.088 10.5307 27.0705C11.3219 27.0705 12.069 27.053 12.6844 26.8953C12.4822 26.0107 12.1394 26.8953 11.779 26.3873C11.3394 25.7742 11.5328 22.9801 11.6647 22.1042C11.4098 22.3407 11.19 22.6823 10.9263 22.8925ZM43.9074 26.8603C43.547 27.3595 43.2041 26.4836 43.002 27.3683C43.6085 27.5172 44.3644 27.5347 45.1556 27.5347C45.1644 27.5522 45.2083 27.6836 45.2083 27.7011C44.9886 28.3668 44.6633 28.5245 43.8546 28.4369C42.7119 28.323 42.6855 28.8135 43.6788 28.9449C44.4436 29.0412 45.1204 28.9799 45.4369 28.4894C45.85 27.85 45.9731 24.0049 46.061 22.91C45.7182 23.1815 45.2171 23.7158 44.76 23.3567C44.4963 23.1553 44.2678 22.8049 44.0216 22.5684C44.1535 23.4443 44.3469 26.2384 43.9074 26.8603Z" fill="#222222"/>
<path d="M35.6093 9.92111C33.6931 9.82476 30.9241 9.39558 29.5528 10.2539C28.9199 10.6481 28.4365 11.4627 28.2519 12.286C28.164 12.6451 28.2255 12.9955 28.1904 13.4159C27.786 18.8727 28.1376 24.7148 28.1376 30.2855C29.755 27.0622 34.3523 29.0067 37.8772 27.9118C38.2992 27.7804 38.9408 27.6053 39.1782 27.2899C39.477 26.887 39.2925 24.4258 39.2925 23.6813C39.2925 22.2273 39.2925 10.5868 39.2925 9.13281C39.2749 9.13281 39.1166 9.14157 39.1166 9.13281C38.2552 9.63207 37.0597 9.99118 35.6093 9.92111ZM16.5345 23.6813C16.5345 24.4083 16.3147 26.887 16.5872 27.3513C17.141 28.2885 20.5868 28.4286 22.2481 28.306C24.9555 28.1045 26.7927 28.5074 27.6278 30.1716C27.6278 28.9103 27.6278 18.8464 27.6278 17.5939C27.6278 15.8684 27.8563 13.7663 27.5135 12.2335C27.3553 11.5503 26.9597 10.8758 26.4938 10.4817C24.7885 9.05398 21.3515 10.2014 18.6266 9.92111C17.8091 9.83352 17.1674 9.50068 16.5345 9.24668C16.5345 9.24668 16.5345 22.2361 16.5345 23.6813ZM44.5578 14.7735C44.8127 14.8261 45.0413 14.8786 45.4017 14.8261C45.683 13.7225 45.5863 12.1546 45.683 10.9371C45.0764 11.3663 45.138 11.4627 44.6106 10.8233C44.6633 12.0933 44.6897 13.5648 44.5578 14.7735ZM10.0736 11.1649C10.2406 12.3911 10.1967 13.8188 10.3637 15.0538C10.6538 15.0538 11.0054 15.01 11.2076 14.9925C11.2076 14.756 11.1636 14.4144 11.1548 14.2655C11.0757 13.2144 11.19 11.9794 11.1548 11.1036C10.5571 11.6466 10.7769 11.7079 10.0736 11.1649ZM43.125 16.0611C43.8722 16.1399 44.9973 16.3589 45.2786 15.7195C45.3314 15.5969 45.305 15.5005 45.3314 15.3253C44.4787 15.3253 43.7315 15.2553 43.125 15.0976C43.125 15.0976 43.125 15.9647 43.125 16.0611ZM10.478 15.5093C10.478 15.5355 10.4956 15.7808 10.478 15.7895C11.0845 16.3852 11.5943 16.3063 12.6843 16.1837C12.6843 16.1224 12.6843 15.8071 12.6843 15.229C11.7438 15.3691 11.0054 15.4655 10.478 15.5093ZM10.0736 23.2346C10.1967 24.3119 10.267 25.4944 10.4165 26.563C10.645 26.5892 11.0406 26.5805 11.2691 26.563C11.2164 25.4418 11.1988 24.1805 11.1548 23.1207C10.601 23.8214 10.7769 23.7776 10.0736 23.2346ZM44.4172 27.0272C44.6457 27.0447 45.0325 27.0535 45.2698 27.0272C45.4105 25.9586 45.4896 24.7761 45.6039 23.6988C44.9094 24.2419 45.0852 24.2857 44.5314 23.5849C44.4875 24.6448 44.4611 25.9148 44.4172 27.0272ZM10.5395 27.0797C10.5307 27.0972 10.4868 27.2374 10.478 27.2549C10.6977 27.9118 11.023 28.0695 11.8405 27.9819C12.1833 27.9469 12.4206 27.9644 12.5701 28.0169C12.5789 27.9469 12.614 27.579 12.6843 26.9133C11.7789 27.0272 11.0669 27.0797 10.5395 27.0797ZM43.0371 28.5074C43.1602 28.4374 43.4327 28.4023 43.8458 28.4461C44.6545 28.5249 44.9797 28.3673 45.1995 27.7104C45.1995 27.6928 45.1468 27.5527 45.1468 27.5439C44.3469 27.5439 43.5997 27.5177 42.9932 27.3688C42.9932 27.3688 43.0371 28.3936 43.0371 28.5074ZM26.151 33.3336C26.529 33.9292 28.709 33.9554 29.3858 33.5525C29.7374 33.3423 29.8078 32.6328 29.9484 32.2037C29.9396 32.2037 29.632 32.2212 29.7199 32.2562C28.6914 33.062 26.8806 32.8518 25.8697 32.2037C25.9752 32.5453 25.9664 33.0358 26.151 33.3336ZM6.45204 46.5857C6.68059 48.1098 5.951 52.0775 5.43237 53.1899C6.40809 53.4001 7.16405 53.9432 8.03429 54.2585C9.54622 54.8015 11.1197 55.3884 12.6843 55.8351C18.9694 57.6306 27.9091 58.3576 35.4951 57.2453C38.9496 56.7373 42.2724 56.0015 45.2347 54.9329C46.3159 54.5388 47.4146 54.1096 48.5134 53.6979C49.1287 53.4614 49.5419 53.1023 50.333 53.0147C49.7529 51.771 49.3133 48.1185 49.2518 46.4719C38.598 53.0585 17.1849 53.1023 6.45204 46.5857Z" fill="white"/>
<path d="M39.9078 14.7123C39.9078 15.6582 39.9078 23.2434 39.9078 24.1894C39.9078 25.3893 39.6793 26.8521 39.9078 28.0258C40.0221 28.5951 40.5846 29.1644 40.8747 29.6111C41.1209 29.9877 41.3934 30.2855 41.6658 30.6184C41.3934 28.6126 41.5516 26.1601 41.5516 23.9704C41.5516 22.7179 41.5516 12.6977 41.5516 11.4452C40.7692 11.0774 40.233 10.2803 39.8023 9.57959C40.0221 11.0861 39.9078 13.0218 39.9078 14.7123ZM15.9631 9.6409C15.8225 9.71973 15.7785 10.1051 15.6818 10.2628C15.3478 10.7883 14.8643 11.2263 14.2666 11.4978C14.2666 12.7678 14.2666 22.9193 14.2666 24.1894C14.2666 26.1338 14.4424 28.3323 14.2139 30.1717C14.1875 30.3031 14.0908 30.8111 14.2666 30.7322C14.4952 30.6359 15.8928 28.3936 15.9631 28.0258C16.2005 26.7908 15.9631 25.2755 15.9631 24.023C15.9631 23.042 15.9631 15.1853 15.9631 14.2043C15.9631 12.7766 15.8225 11.1299 16.0247 9.80732C16.0774 9.84236 16.1126 9.67594 16.0598 9.63214C16.0335 9.61462 16.0071 9.61463 15.9631 9.6409ZM36.629 28.9279C34.1414 29.1819 30.9681 28.4462 29.3771 29.5498C28.6299 30.0753 28.1992 31.0476 28.1376 32.0899C28.6387 31.9585 29.087 31.8709 29.4913 31.6344C29.6496 31.5468 29.8781 31.2227 30.0627 31.1877C30.6429 31.0738 31.5746 31.4154 32.3833 31.3541C33.8953 31.2403 35.6445 31.4154 37.2531 31.3016C38.3607 31.214 40.1979 31.0563 41.2088 31.3541C40.5319 30.268 39.7408 29.2432 39.1167 28.0871C38.4047 28.4374 37.6311 28.8228 36.629 28.9279ZM14.4952 31.6344C15.216 31.3016 16.3851 31.3541 17.4926 31.3541C19.9012 31.3541 22.7756 31.6694 25.1314 31.3541C25.2456 31.3366 25.6236 31.1176 25.7027 31.1264C25.817 31.1439 26.0983 31.5118 26.2126 31.5819C26.6081 31.8183 27.1268 31.976 27.6278 32.0899C27.5575 30.8636 27.0828 29.979 26.151 29.4359C24.5248 28.4812 21.3516 29.252 19.0221 28.9892C18.0816 28.8754 17.3432 28.4987 16.5872 28.1922C16.0422 29.5323 15.2072 30.4958 14.4952 31.6344Z" fill="#FABD0A"/>
<path d="M17.9409 13.0828C17.1498 13.6959 17.3256 14.7119 18.1695 15.1061C17.9409 15.4302 17.5366 15.8243 17.4926 16.2973C17.4223 17.0593 17.7475 17.5323 17.4399 18.2067C17.4135 18.1892 17.4047 18.3294 17.5454 18.3819C17.7387 18.1016 18.1079 17.725 18.1695 17.3659C18.2837 16.779 18.02 16.271 18.1695 15.7893C18.2925 15.4127 18.6353 15.0273 18.8551 14.7119C19.6374 15.0798 21.0263 15.4039 20.6044 16.6301C20.5428 16.8228 20.4813 17.0593 20.3231 17.1382C19.9363 17.3221 19.1364 17.217 18.6793 17.252C18.5474 17.6111 18.4595 17.8914 18.3453 18.268C18.4332 18.2593 18.7408 18.2067 18.7408 18.2067C20.3407 18.2067 20.4022 18.4695 20.8329 17.1995C21.0175 16.6477 21.4043 15.8594 21.29 15.1674C21.1054 14.1251 19.488 14.6419 19.5847 13.0215C19.1188 13.4419 18.8375 14.5981 18.1695 13.9762C17.9145 13.7397 17.9409 13.328 18.0024 13.0215C18.0024 13.0215 17.9497 13.074 17.9409 13.0828ZM22.4152 15.1061C22.1515 15.7805 22.2921 16.3236 22.3624 17.1382C21.3515 17.4009 21.4922 17.252 21.2285 18.268C23.5491 18.268 23.0744 17.7951 22.6437 16.1834C22.3712 15.1499 22.8547 14.7557 23.9447 15.1061C24.4633 15.2725 24.226 17.506 24.226 18.2067C24.6655 18.014 24.7885 17.7425 25.0259 17.3659C24.4457 16.7966 24.8589 14.2915 24.3402 14.0375C23.1711 13.4594 22.2218 14.7557 21.8526 13.0828C21.668 13.9236 21.5273 14.8258 22.4152 15.1061ZM37.0773 13.8098C36.8839 14.7295 38.0794 14.4842 37.4201 15.4477C36.4005 15.036 35.3017 14.5455 35.3808 13.1879C35.1786 13.3631 35.0116 13.4682 34.9325 13.7572C34.6248 14.7908 35.2753 15.4127 35.8379 15.7893C35.6797 15.8944 35.5126 15.9995 35.3808 16.1221C34.9589 16.525 35.0643 17.0856 35.1522 17.76C35.0819 17.7775 34.8534 17.8126 34.7567 17.8739C34.6952 17.9177 34.7567 18.1191 34.7039 18.1542C35.372 18.2418 36.3565 18.3644 36.1719 17.4184C36.128 17.1995 35.8203 16.963 35.7764 16.744C35.706 16.3761 35.8906 16.1659 36.0049 15.9557C36.9279 16.3849 38.2464 16.8666 37.6487 18.1542C37.9563 18.1191 37.8421 18.2418 38.0442 17.9878C38.6244 17.2433 38.6947 16.3936 37.8772 15.8418C37.763 15.7718 37.5608 15.5966 37.5871 15.6141C38.0794 15.3163 38.6596 14.6068 38.1585 13.985C38.0706 13.8711 37.7893 13.7222 37.7629 13.5821C37.675 13.2405 37.9212 13.293 37.6487 13.0828C37.4905 13.2843 37.1388 13.5383 37.0773 13.8098ZM26.1598 15.1061C26.028 16.0521 26.1159 17.2608 25.984 18.1542C26.5466 18.0929 26.5905 17.725 26.8894 17.252C26.7839 17.1907 26.7224 17.1907 26.6609 17.0856C26.5114 16.7966 26.3971 15.5703 26.5554 15.1061C26.6257 14.8784 27.03 14.8433 26.8894 14.3178C26.7488 13.8098 25.6763 14.1864 25.4742 13.6434C25.4478 13.5733 25.3072 13.1441 25.3072 13.1353C24.9468 14.0988 24.8413 15.1849 26.1598 15.1061ZM33.5173 15.1061C33.3766 15.7718 33.0426 19.4067 33.9656 17.7075C34.0271 17.5936 34.0271 17.5323 34.0798 17.4184C34.0798 17.4272 34.0359 17.217 34.0271 17.1995C33.7458 16.6389 33.9128 15.8068 33.8513 15.1061C34.2381 14.966 34.5985 14.6944 34.2468 14.2039C33.8161 13.5996 32.9986 14.4317 32.6646 13.1879C32.3394 14.0725 32.1899 15.3075 33.5173 15.1061ZM29.1573 14.4842C29.4562 15.8243 31.0384 14.6682 31.4164 15.3864C31.7328 15.9907 31.5307 17.3484 31.5307 18.1542C31.9526 18.0491 31.9878 17.8564 32.2163 17.4184C32.3657 17.4184 32.2163 17.2257 32.2163 17.252C31.8295 16.7002 32.0669 14.5105 31.7065 14.2039C30.8011 13.4594 29.8605 14.8346 29.21 13.3631C29.0079 13.6872 29.0342 13.9587 29.1573 14.4842ZM36.1192 21.8241C36.2247 21.9205 36.5147 22.1482 36.5675 22.2708C36.7345 22.6212 36.5587 23.4183 36.9103 22.665C37.6926 20.9921 36.5587 21.4563 36.4005 20.6329C36.3477 20.3527 36.5851 20.1512 36.3477 20.0198C35.9961 20.5716 35.5039 21.211 36.1192 21.8241ZM24.5688 23.0591C24.7622 22.919 24.9028 22.8752 25.0259 22.665C25.7203 21.4125 24.3314 21.3336 24.4018 20.1862C23.0305 21.8679 24.7885 21.6139 24.5688 23.0591ZM32.3218 22.2708C31.8119 23.208 31.8559 24.1452 31.7065 25.4853C32.7349 25.4853 34.0271 25.4153 35.1522 25.5467C35.1962 24.5394 35.5214 23.6985 35.3808 22.6124C35.1171 20.5103 33.8777 21.719 32.3218 21.141C31.9965 21.0183 32.1636 20.5191 31.9877 20.3527C31.6449 21.0796 31.39 21.9292 32.3218 22.2708ZM20.3758 22.3322C19.7781 23.0942 19.8572 24.2241 19.7605 25.5467C20.8065 25.4591 22.0987 25.4591 23.1535 25.5467C23.1975 24.5131 23.5579 23.611 23.3821 22.446C23.0744 20.3964 20.2264 22.1044 20.0418 20.4665C19.6462 21.1847 19.5056 21.973 20.3758 22.3322ZM7.0322 52.4276C7.2168 52.4627 7.34865 52.4539 7.53325 52.5065C7.96397 52.6291 8.49139 52.9882 8.88695 53.0758C8.92211 53.0758 9.08912 53.0583 9.01001 53.032C9.09791 52.9094 9.40557 52.4889 9.48469 52.3751C9.60775 52.1911 7.72663 52.4451 7.85849 52.0072C8.13099 51.07 8.37711 49.9138 8.60566 49.0117C8.36832 48.8978 8.15736 48.7839 7.92881 48.6701C7.72663 49.9576 7.35744 51.2277 7.0322 52.4276ZM45.8764 49.5722C45.2259 51.1226 47.0543 50.8598 47.8893 51.3503C47.9684 51.4028 48.0651 51.4729 48.1091 51.5868C48.5925 53.032 46.5884 52.1999 46.1928 51.9459C46.2543 52.1298 46.2543 52.2086 46.3071 52.34C46.3774 52.4889 46.4917 52.7429 46.5884 52.9006C46.773 53.1896 47.4498 52.9444 47.8893 52.7955C48.5134 52.5765 49.076 51.9722 48.742 51.1576C48.4431 50.4131 47.5026 50.5357 46.8169 50.1941C46.4829 50.0277 46.4829 49.6861 46.4829 49.6861C46.896 48.5212 48.4959 50.3956 48.1794 49.6335C48.1355 49.5197 47.8014 48.8102 47.7838 48.7314C47.0543 48.9153 46.1489 48.9066 45.8764 49.5722ZM9.95936 53.2422C10.0297 53.5488 10.3813 53.8028 10.645 53.9166C12.6931 54.8275 13.0623 52.1123 13.4139 50.7634C13.1854 50.6934 13.036 50.6583 12.7898 50.5883C12.658 51.5868 12.491 54.1268 10.979 53.4699C10.2231 53.1371 11.19 50.6934 11.3746 50.0802C11.1109 50.0189 10.9263 49.9489 10.645 49.8613C10.4692 50.6934 9.76597 52.3313 9.95936 53.2422ZM43.0195 50.4218C43.0195 51.9546 42.7207 53.1809 42.4569 54.486C42.6855 54.4071 42.9316 54.3283 43.1953 54.2582C43.1953 53.8203 43.2569 53.3123 43.3272 52.9181C43.6876 52.7692 44.5314 52.5502 44.5314 52.5502C44.7336 52.6991 45.0237 53.2247 45.1468 53.4436C45.2962 53.7152 45.3577 53.6276 45.7445 53.4699C45.8852 53.4086 46.017 53.3911 46.1401 53.3561C45.6302 52.7167 45.0589 52.1298 44.6106 51.4379C44.4172 51.1488 43.6436 50.1941 43.6436 50.1941C43.4766 50.1854 43.1865 50.3693 43.0195 50.4218ZM38.8793 51.543C38.8705 51.7357 38.7738 51.9984 38.765 52.1911C38.7475 52.4539 38.8793 52.6116 38.8793 52.6116C39.1518 52.1999 39.4155 51.9984 39.9957 51.832C40.3737 52.9882 40.5583 53.9692 40.7604 55.029C41.7801 54.6874 41.6834 54.9064 41.5252 54.5823C41.367 54.2407 40.7253 51.6043 40.7516 51.5955C41.0681 51.5342 41.7537 51.7444 41.9823 51.8846C42.0086 51.8583 42.1493 51.9284 42.1757 51.9371C42.0878 51.7357 41.9823 51.6393 41.9999 51.6043C41.8592 51.3328 41.7801 51.1663 41.657 50.9211C40.7077 51.324 39.7495 51.5167 38.8793 51.543ZM14.1611 51.1926C14.1875 51.3941 14.3457 51.6481 14.4336 51.8846C14.5567 52.2174 14.6797 52.5152 14.7764 52.9619C14.1875 53.4174 13.6249 53.8728 12.9656 54.2582C13.5106 54.4334 13.7216 54.775 14.0996 54.2057C15.0753 52.6816 15.1017 53.8728 15.4005 55.0465C15.7785 55.0991 15.9895 55.1429 16.3587 55.2129C16.0598 54.4159 15.6994 53.7502 15.5675 52.7955C16.0862 52.4276 16.5872 52.051 17.1498 51.7182C16.6312 51.613 16.4817 51.3766 16.1301 51.7795C15.2071 52.8393 15.3566 52.6116 15.0577 51.2101C14.7325 51.1313 14.3984 51.0262 14.0996 50.9386C14.082 50.8685 14.1523 51.1663 14.1611 51.1926ZM37.7981 51.7357C37.7102 51.7357 37.4465 51.8758 37.3586 51.8846C37.6487 53.0495 37.719 54.3283 37.9124 55.6596C37.9212 55.6596 38.1849 55.5983 38.1849 55.5983C38.3607 55.5633 38.6596 55.4407 38.8442 55.3969C38.5717 54.2933 38.3343 52.9619 38.1937 51.7269C38.0706 51.7269 37.9212 51.7357 37.7981 51.7357ZM18.2574 55.6684C18.9254 55.6684 19.8132 55.7647 20.3319 55.8786C20.9999 56.0275 20.9296 55.9662 21.1757 55.4407C21.2109 55.3618 21.2373 55.3005 21.2812 55.1604C20.7274 55.3881 19.9715 55.4932 19.1891 55.3881C19.5144 53.9079 19.1276 53.8466 20.4373 54.3721C20.4286 54.302 20.3758 54.1444 20.3758 54.1444C20.367 54.0568 20.3231 53.8115 20.3231 53.8028C20.3231 53.8028 20.3231 53.6451 20.3231 53.6363C19.9715 53.6889 19.7517 53.6889 19.4177 53.6363C19.4792 53.1108 19.5759 52.4276 19.6814 52.4627C19.9187 52.524 20.4813 52.7254 20.6659 52.848C20.8681 52.9882 21.079 53.1634 21.2285 53.3561C21.2197 53.3035 21.1757 53.0758 21.1757 53.0758C21.1318 52.8043 21.0615 52.5064 20.9999 52.2787C20.2352 52.1824 19.5583 52.1035 18.9606 51.9459C18.776 53.1458 18.5035 54.556 18.2574 55.6684ZM35.1522 52.1123C34.6072 52.1561 34.0798 52.4013 33.5173 52.4539C33.5612 52.7867 33.6491 53.1546 33.6843 53.4699C33.7722 54.3458 33.7634 55.2392 33.8073 56.1414C34.0447 56.1151 34.3875 56.045 34.6424 56.01C34.5633 55.4582 34.493 54.8451 34.4754 54.3721C34.6952 54.3371 34.8446 54.3371 35.0995 54.3108C35.6093 55.1604 36.4708 56.0012 37.5871 55.8961C37.5871 55.8961 37.6311 55.756 37.6487 55.721C36.8839 55.248 36.128 54.6261 35.6621 53.8641C36.084 53.3298 36.6114 52.1561 35.416 52.1035C35.3368 52.1035 35.2489 52.1035 35.1522 52.1123ZM21.7031 52.9181C21.5977 53.1634 21.6856 53.3561 21.6856 53.3561C22.0723 53.0495 22.38 52.9356 22.9865 52.9619C22.9865 54.1794 22.8459 55.1691 22.7052 56.229C23.7689 56.229 23.6106 56.4129 23.5667 56.0538C23.5227 55.6772 23.7513 52.9707 23.7776 52.9794C24.0941 53.0145 24.683 53.4261 24.8501 53.6363C24.8852 53.6188 24.9995 53.7327 25.0259 53.7502C24.9995 53.5312 24.9292 53.3999 24.9555 53.3736C24.9116 53.0758 24.8852 52.8918 24.8501 52.6203C23.8216 52.6991 22.8547 52.5853 22.0196 52.34C21.9493 52.5152 21.7823 52.7342 21.7031 52.9181ZM30.3967 52.6816C30.5374 53.8903 30.511 55.1604 30.511 56.4567C31.2845 56.3516 32.0669 56.2903 33.0074 56.2903C33.3327 55.4757 33.6052 55.4144 32.7789 55.6684C31.3021 56.1151 31.2318 56.1414 31.2406 54.5648C32.7877 54.6962 32.4536 54.8713 32.313 53.8904C31.979 54.0393 31.7416 54.0918 31.2494 54.1444C31.2406 54.0217 31.1878 53.0145 31.1878 53.0145C32.0405 53.0145 32.4273 53.1634 32.8931 53.5225C32.8052 53.2509 32.814 53.1021 32.7173 52.848C32.6294 52.6116 32.5679 52.5065 32.2075 52.5065C31.6801 52.5152 31.0736 52.6816 30.3967 52.6816ZM26.5993 53.0758C27.03 53.9604 27.3377 54.9764 27.786 55.9399C28.0497 56.5093 28.1552 57.0873 28.5859 56.2903C28.8233 55.8523 28.92 55.3618 29.087 54.9064C29.3595 54.1619 29.6759 53.4436 30.0012 52.7342C29.7111 52.7342 29.3595 52.7692 29.1573 52.7867C28.9551 53.7239 28.7354 54.5035 28.4189 55.2742C27.953 54.521 27.6014 53.6101 27.285 52.6816C26.9246 52.7254 26.7927 52.7254 26.4411 52.6816C26.4411 52.6816 26.5378 52.9532 26.5993 53.0758Z" fill="#222222"/>
<path d="M20.3231 24.6444C21.1054 24.4429 22.1339 24.4604 22.8723 24.6444C22.7843 22.3233 23.0832 22.6561 20.6659 22.332C20.3582 22.9714 20.2528 23.7159 20.3231 24.6444ZM32.3218 24.1364C32.3306 24.3291 32.3306 24.4867 32.3218 24.5831C33.0426 24.3553 34.1677 24.3728 34.871 24.5831C34.871 22.3671 34.7655 22.332 32.5503 22.332C32.3833 22.8926 32.2866 23.4532 32.3218 24.1364ZM43.3887 52.3574C43.4502 52.3399 43.7491 52.2611 44.2941 52.1034L43.503 51.0173C43.4942 51.5691 43.4502 52.0158 43.3887 52.3574ZM34.326 52.664C34.326 52.664 34.4226 54.0128 34.4666 54.0128C35.2753 53.8902 35.9434 52.6552 34.8885 52.6114C34.7303 52.6027 34.5457 52.6202 34.326 52.664Z" fill="white"/>
<path d="M239.027 23.9614L238.887 23.9702L238.746 23.9789L238.614 23.9877L238.491 24.0052L238.368 24.0227L238.254 24.0402L238.148 24.0665L238.043 24.0928L237.946 24.1191L237.849 24.1541L237.753 24.1804L237.665 24.2154L237.577 24.2504L237.498 24.2855L237.41 24.3205L237.331 24.3643L237.252 24.3993L237.173 24.4431L237.093 24.4782L240.486 33.1757L243.616 24.9949L243.519 24.8986L243.422 24.8023L243.326 24.7059L243.229 24.6271L243.132 24.5395L243.027 24.4694L242.921 24.3993L242.816 24.3293L242.71 24.2767L242.605 24.2154L242.491 24.1716L242.376 24.1278L242.262 24.084L242.139 24.049L242.025 24.0227L241.902 23.9964L241.779 23.9789L241.656 23.9702L241.524 23.9614H241.392V23.1819H247V23.9614H246.807L246.622 23.9877L246.446 24.014L246.279 24.0577L246.121 24.1103L245.972 24.1716L245.822 24.2504L245.69 24.3293L245.558 24.4169L245.435 24.5132L245.321 24.6096L245.216 24.7147L245.119 24.8285L245.031 24.9424L244.943 25.0563L244.873 25.1701L244.802 25.2927L244.75 25.4066L244.697 25.5292L244.653 25.6431L240.741 34.8662L240.645 35.1202L240.53 35.3917L240.407 35.6895L240.284 36.0136L240.144 36.364L240.003 36.7231L239.854 37.0997L239.695 37.5026L239.537 37.9055L239.379 38.3259L239.212 38.7551L239.036 39.1843L238.86 39.631L238.684 40.069L238.509 40.5157L238.333 40.9536L238.148 41.3915L237.972 41.8207L237.797 42.2499L237.621 42.6616L237.559 42.793L237.498 42.9156L237.427 43.0382L237.366 43.1433L237.296 43.2484L237.225 43.3448L237.146 43.4324L237.067 43.5112L236.988 43.5813L236.9 43.6513L236.812 43.7126L236.715 43.7652L236.619 43.809L236.513 43.8528L236.408 43.8878L236.293 43.9141L236.179 43.9316L236.056 43.9491L235.924 43.9579H235.792H235.643L235.494 43.9404L235.362 43.9053L235.23 43.8703L235.107 43.8265L234.993 43.774L234.887 43.7039L234.79 43.6338L234.702 43.555L234.615 43.4762L234.544 43.3798L234.474 43.2835L234.421 43.1871L234.368 43.082L234.324 42.9769L234.289 42.863L234.263 42.7492L234.245 42.6353L234.228 42.5214V42.3988V42.2849L234.245 42.1711L234.263 42.0572L234.289 41.9433L234.324 41.8295L234.368 41.7244L234.421 41.6193L234.474 41.5142L234.544 41.4178L234.615 41.3302L234.702 41.2426L234.79 41.1638L234.887 41.0937L234.993 41.0324L235.107 40.9799L235.23 40.9273L235.362 40.8923L235.494 40.866L235.643 40.8485L235.792 40.8397H235.836L235.88 40.8485H235.924L235.977 40.8573L236.03 40.866L236.082 40.8748L236.144 40.8835L236.206 40.8923L236.267 40.9098L236.329 40.9273L236.39 40.9361L236.46 40.9536L236.522 40.9711L236.592 40.9886L236.654 41.0062L236.715 41.0237L236.786 41.0412L236.847 41.0675L236.909 41.085L236.962 41.1025L238.922 36.5566L234.491 25.1263L234.448 25.0125L234.404 24.8986L234.351 24.7935L234.298 24.6884L234.237 24.592L234.166 24.4957L234.096 24.4081L234.017 24.3293L233.929 24.2417L233.841 24.1716L233.736 24.1015L233.621 24.0315L233.507 23.9702L233.375 23.9176L233.243 23.8651L233.094 23.8213L232.936 23.7862L232.769 23.7512L232.593 23.7249L232.399 23.6986V23.1819H239.177V23.9614H239.027ZM139.451 16.9718L139.293 17.0069L139.144 17.0419L138.994 17.0857L138.845 17.1295L138.704 17.1733L138.555 17.2171L138.423 17.2696L138.291 17.3222L138.159 17.3747L138.036 17.4273L137.913 17.4886L137.79 17.5499L137.684 17.6112L137.57 17.6725L137.473 17.7338L137.377 17.8039L137.28 17.8652L137.201 17.9353L137.122 18.0054L137.043 18.0754L136.981 18.1455L136.92 18.2156L136.867 18.2857L136.814 18.3557L136.779 18.4346L136.744 18.5046V28.3759L136.726 28.9977L136.682 29.5934L136.612 30.1627L136.515 30.7145L136.392 31.2313L136.243 31.7305L136.076 32.2035L135.874 32.6502L135.654 33.0706L135.416 33.4648L135.153 33.8414L134.863 34.1918L134.555 34.5158L134.23 34.8224L133.887 35.1027L133.527 35.3567L133.14 35.5932L132.744 35.8034L132.331 35.9873L131.9 36.1537L131.461 36.2939L131.004 36.4165L130.529 36.5129L130.046 36.5917L129.553 36.6442L129.052 36.6793L128.534 36.688L128.006 36.6705L127.488 36.6355L126.995 36.5829L126.512 36.5041L126.046 36.399L125.598 36.2764L125.167 36.1275L124.754 35.961L124.358 35.7684L123.98 35.5581L123.629 35.3216L123.286 35.0764L122.969 34.8049L122.662 34.5071L122.389 34.2005L122.126 33.8677L121.888 33.5173L121.668 33.1494L121.475 32.7553L121.299 32.3524L121.141 31.932L121.009 31.4853L120.904 31.0298L120.825 30.5481L120.763 30.0576L120.728 29.5496L120.71 29.024V18.3732L120.675 18.3032L120.64 18.2331L120.587 18.163L120.535 18.1017L120.464 18.0404L120.394 17.9791L120.315 17.9178L120.236 17.8652L120.139 17.8127L120.042 17.7601L119.946 17.7076L119.84 17.6638L119.726 17.62L119.612 17.5762L119.489 17.5324L119.365 17.4974L119.242 17.4536L119.111 17.4185L118.979 17.3923L118.838 17.3572L118.706 17.3309L118.566 17.3047L118.425 17.2784L118.275 17.2609L118.135 17.2346L117.994 17.2171L117.845 17.2083V16.4288H126.573V17.2083H126.415L126.257 17.2171L126.108 17.2258L125.949 17.2346L125.8 17.2521L125.65 17.2784L125.501 17.3047L125.36 17.3309L125.22 17.366L125.088 17.401L124.947 17.436L124.824 17.4798L124.701 17.5236L124.578 17.5674L124.464 17.62L124.358 17.6725L124.253 17.7251L124.156 17.7864L124.059 17.839L123.98 17.9003L123.901 17.9616L123.822 18.0316L123.761 18.093L123.708 18.163L123.655 18.2331L123.611 18.3032L123.576 18.3732V28.3759L123.585 28.8051L123.611 29.2167L123.655 29.6109L123.708 30.005L123.778 30.3729L123.866 30.732L123.972 31.0736L124.095 31.4064L124.226 31.7218L124.376 32.0196L124.543 32.3086L124.727 32.5801L124.921 32.8341L125.141 33.0706L125.369 33.2896L125.615 33.4998L125.87 33.6837L126.152 33.8589L126.442 34.0166L126.74 34.148L127.066 34.2706L127.4 34.3757L127.751 34.4545L128.121 34.5246L128.507 34.5684L128.903 34.5947L129.316 34.6122L129.738 34.5947L130.151 34.5684L130.547 34.5246L130.925 34.4545L131.285 34.3669L131.628 34.2618L131.962 34.1392L132.278 33.9991L132.568 33.8326L132.85 33.6487L133.122 33.456L133.368 33.237L133.606 33.0005L133.817 32.7378L134.019 32.4663L134.203 32.1685L134.37 31.8619L134.529 31.5291L134.66 31.1787L134.784 30.8108L134.889 30.4254L134.977 30.0225L135.047 29.6021L135.109 29.1554L135.144 28.6999L135.17 28.2182L135.179 27.7277V23.6986V23.4972V23.287L135.17 23.068V22.8578V22.6388L135.162 22.4111L135.153 22.1921V21.9644L135.144 21.7454L135.135 21.5177V21.2899L135.126 21.071L135.118 20.852L135.109 20.633L135.1 20.4228V20.2126L135.091 20.0112L135.082 19.8097L135.074 19.617V19.4331L135.065 19.2579L135.056 19.0827V18.9251V18.7674L135.047 18.6273V18.4959V18.3732L135.012 18.3032L134.968 18.2331L134.907 18.1543L134.845 18.0842L134.766 18.0141L134.678 17.9441L134.581 17.874L134.476 17.8127L134.37 17.7426L134.247 17.6813L134.124 17.6112L133.992 17.5499L133.852 17.4974L133.702 17.436L133.553 17.3835L133.403 17.3309L133.245 17.2784L133.078 17.2258L132.911 17.182L132.744 17.1382L132.577 17.1032L132.401 17.0682L132.226 17.0331L132.05 17.0069L131.883 16.9806L131.707 16.9631L131.531 16.9456V16.166H139.609V16.9456L139.451 16.9718ZM232.144 23.1819V24.6096H227.846V32.0108L227.864 32.4225L227.934 32.8079L228.057 33.167L228.215 33.4998L228.417 33.8064L228.655 34.0691L228.936 34.3056L229.252 34.4983L229.604 34.656L229.982 34.7698L230.395 34.8399L230.843 34.8662L231.037 34.8574L231.248 34.8312L231.459 34.7874L231.67 34.726L231.881 34.6647L232.074 34.5947L232.268 34.5158L232.443 34.4458L232.602 34.3757L232.733 34.3144L232.848 34.2618L232.927 34.218V34.8662L232.672 35.0326L232.373 35.2078L232.039 35.383L231.67 35.5581L231.283 35.7333L230.887 35.891L230.492 36.0399L230.096 36.1713L229.718 36.2764L229.358 36.3552L229.042 36.4077L228.751 36.4253L228.075 36.399L227.477 36.3026L226.958 36.145L226.501 35.9348L226.114 35.6632L225.789 35.3392L225.525 34.9625L225.314 34.5421L225.165 34.0691L225.06 33.5524L224.998 33.0005L224.972 32.3962L224.98 31.678V30.9948L224.998 30.3466L225.007 29.716L225.024 29.1029L225.06 27.9029L225.068 27.2898L225.086 26.6679L225.095 26.011L225.103 25.3278V24.6096H223.407V23.9614L227.187 20.3177H227.846V23.1819H232.144ZM209.474 22.6826L209.8 22.7176L210.107 22.7527L210.406 22.8052L210.696 22.8578L210.978 22.9191L211.241 22.9892L211.496 23.0505L211.742 23.1205L211.971 23.1906L212.182 23.2607L212.375 23.322L212.56 23.3833L212.727 23.4359L212.85 26.6854H212.199L212.015 26.3526L211.821 26.0285L211.619 25.7132L211.408 25.4154L211.197 25.1263L210.978 24.8636L210.767 24.6096L210.547 24.3818L210.336 24.1804L210.125 24.0052L209.923 23.8475L209.729 23.7337L209.545 23.6461L209.369 23.5848L209.202 23.5673L208.736 23.5848L208.314 23.6373L207.945 23.7074L207.611 23.8125L207.33 23.9351L207.083 24.0753L206.872 24.2329L206.697 24.3993L206.547 24.5745L206.433 24.7585L206.345 24.9512L206.284 25.1351L206.24 25.3103L206.213 25.4854L206.204 25.6431L206.213 25.8971L206.24 26.1248L206.284 26.3438L206.345 26.5453L206.433 26.738L206.547 26.9131L206.697 27.0883L206.872 27.2547L207.083 27.4212L207.33 27.5876L207.611 27.7627L207.945 27.9292L208.314 28.1131L208.736 28.3058L209.202 28.5073L209.685 28.6912L210.142 28.8751L210.564 29.0678L210.96 29.278L211.32 29.4882L211.654 29.7072L211.953 29.9437L212.217 30.189L212.454 30.4517L212.648 30.7232L212.815 31.021L212.947 31.3364L213.043 31.6692L213.096 32.0196L213.114 32.3962L213.087 32.8341L213.017 33.2633L212.894 33.6662L212.718 34.0604L212.507 34.4282L212.252 34.7698L211.953 35.0939L211.628 35.383L211.259 35.6457L210.854 35.8735L210.424 36.0662L209.958 36.2238L209.474 36.3289L208.956 36.399L208.42 36.4253L207.962 36.4165L207.532 36.399L207.119 36.3727L206.732 36.3289L206.371 36.2851L206.029 36.2238L205.712 36.1625L205.404 36.1012L205.132 36.0311L204.868 35.961L204.631 35.8997L204.411 35.8297L204.209 35.7596L204.024 35.6983L203.857 35.6457L203.471 32.2736H204.253L204.446 32.6064L204.649 32.9392L204.868 33.2546L205.088 33.5699L205.325 33.8589L205.563 34.1392L205.8 34.402L206.029 34.6472L206.257 34.8574L206.486 35.0501L206.697 35.2165L206.89 35.3392L207.075 35.4355L207.242 35.4968L207.382 35.5143L207.875 35.5056L208.323 35.4618L208.718 35.383L209.07 35.2866L209.386 35.1727L209.65 35.0326L209.888 34.8749L210.081 34.6998L210.239 34.5071L210.371 34.3056L210.476 34.0954L210.547 33.8677L210.6 33.6487L210.626 33.4122L210.635 33.1757L210.626 32.9305L210.573 32.7027L210.503 32.4838L210.397 32.2911L210.274 32.0984L210.116 31.932L209.94 31.7655L209.738 31.6079L209.51 31.459L209.263 31.3101L209 31.1699L208.718 31.0298L208.42 30.8809L208.103 30.732L207.769 30.5831L207.268 30.3729L206.802 30.1627L206.363 29.9525L205.967 29.7335L205.598 29.5058L205.273 29.2693L204.974 29.024L204.71 28.7613L204.49 28.4897L204.297 28.2007L204.139 27.8854L204.016 27.5525L203.928 27.2022L203.875 26.8256L203.857 26.4226L203.893 26.0197L203.972 25.6168L204.112 25.2402L204.306 24.8723L204.534 24.522L204.816 24.2066L205.141 23.9001L205.492 23.6286L205.888 23.3833L206.31 23.1731L206.767 22.9979L207.25 22.849L207.751 22.7439L208.27 22.6826L208.815 22.6563L209.149 22.6651L209.474 22.6826ZM186.822 22.9103L187.42 23.0505L187.956 23.2519L188.439 23.5059L188.87 23.8213L189.248 24.1804L189.573 24.5833L189.837 25.0475L190.039 25.5468L190.189 26.0986L190.276 26.6942L190.312 27.3336V27.8591H181.838V27.9467L181.829 28.043L181.82 28.1481L181.803 28.2532L181.794 28.3584L181.776 28.481L181.767 28.5948L181.75 28.7175L181.732 28.8488L181.724 28.9802L181.715 29.1204L181.706 29.2693V29.4094L181.741 30.1189L181.838 30.7846L182.005 31.4064L182.225 31.9933L182.506 32.5363L182.84 33.0181L183.227 33.456L183.657 33.8326L184.123 34.148L184.642 34.402L185.196 34.5859L185.785 34.6998L186.4 34.7348L186.743 34.726L187.068 34.6998L187.376 34.656L187.657 34.5947L187.929 34.5071L188.193 34.402L188.448 34.2881L188.703 34.148L188.958 33.9903L189.213 33.8151L189.477 33.6224L189.758 33.4122L190.048 33.1757L190.567 33.9553L190.18 34.2793L189.802 34.5859L189.415 34.8749L189.037 35.1465L188.65 35.4005L188.246 35.6282L187.833 35.8297L187.402 36.0048L186.945 36.1537L186.47 36.2676L185.96 36.3552L185.415 36.4077L184.835 36.4253L184.097 36.3815L183.385 36.2501L182.708 36.0311L182.066 35.7333L181.477 35.3654L180.932 34.9187L180.44 34.4107L180.018 33.8414L179.649 33.2108L179.359 32.5276L179.148 31.7918L179.016 31.0123L178.972 30.189L179.016 29.1992L179.157 28.262L179.385 27.3861L179.693 26.5715L180.089 25.8183L180.554 25.1438L181.082 24.5482L181.68 24.0227L182.339 23.5935L183.06 23.2519L183.824 22.9979L184.633 22.8403L185.486 22.7877L186.18 22.8227L186.822 22.9103ZM170.428 23.9614L170.235 23.9702L170.059 23.9877L169.901 24.0052L169.742 24.0315L169.602 24.0665L169.47 24.1015L169.347 24.1366L169.233 24.1804L169.118 24.2242L169.022 24.2767L168.925 24.3205L168.837 24.3731L168.749 24.4256L168.67 24.4782L172.063 33.0531L175.192 24.9949L175.052 24.8636L174.911 24.7409L174.762 24.6271L174.612 24.5132L174.463 24.4169L174.313 24.3293L174.155 24.2504L174.006 24.1891L173.847 24.1278L173.68 24.0753L173.522 24.0315L173.355 23.9964L173.188 23.9789L173.012 23.9614H172.845V23.1819H178.445V23.9614L178.19 23.9702L177.953 24.0052L177.724 24.0577L177.513 24.1366L177.32 24.2242L177.135 24.3293L176.959 24.4431L176.81 24.5745L176.66 24.7147L176.537 24.8636L176.423 25.0125L176.318 25.1701L176.23 25.3278L176.159 25.4854L176.098 25.6431L171.544 36.1713L170.367 36.4253L165.936 25.3891L165.857 25.2314L165.769 25.0913L165.664 24.9512L165.558 24.8198L165.444 24.6971L165.321 24.5833L165.18 24.4782L165.031 24.3818L164.864 24.2942L164.688 24.2154L164.503 24.1453L164.301 24.084L164.081 24.0315L163.844 23.9877L163.589 23.9614V23.1819H170.63V23.9614H170.428ZM83.7737 22.8841L84.2571 22.9979L84.6879 23.1468L85.0658 23.3483L85.3999 23.576L85.69 23.8475L85.9273 24.1453L86.1295 24.4782L86.2965 24.846L86.4195 25.2314L86.4987 25.6519L86.5514 26.0898L86.569 26.554L86.4371 33.0531L86.4459 33.3159L86.4723 33.5436L86.5162 33.7451L86.5778 33.929L86.6569 34.0779L86.7448 34.2093L86.8415 34.3144L86.9558 34.402L87.07 34.472L87.1931 34.5246L87.3249 34.5684L87.4656 34.5859L87.5974 34.6034L87.7381 34.6122L87.8524 34.6034L87.9666 34.5947L88.0721 34.5684L88.1864 34.5421L88.3007 34.5071L88.4062 34.4545L88.5204 34.3932L88.6347 34.3319L88.749 34.2531L88.8544 34.1655L88.9687 34.0604L89.083 33.9553L89.1885 33.8326L89.3028 33.7013V34.6122L89.1797 34.8049L89.039 34.9976L88.872 35.1815L88.6874 35.3654L88.4941 35.5406L88.2831 35.707L88.0633 35.8559L87.8348 35.9961L87.6062 36.1187L87.3689 36.2238L87.1316 36.3114L86.8942 36.3727L86.6657 36.4165L86.4371 36.4253L86.0855 36.4077L85.7691 36.364L85.4702 36.2851L85.1977 36.18L84.9604 36.0486L84.7406 35.9085L84.5472 35.7421L84.3802 35.5757L84.2308 35.3917L84.1077 35.2078L84.0022 35.0151L83.9231 34.8312L83.8704 34.6472L83.8264 34.4808L83.5979 34.726L83.3605 34.9538L83.1144 35.1727L82.8507 35.3742L82.587 35.5669L82.3145 35.7333L82.0332 35.891L81.7607 36.0311L81.4706 36.145L81.1893 36.2413L80.8993 36.3202L80.618 36.3815L80.3279 36.4165L80.0466 36.4253L79.695 36.4077L79.3434 36.364L79.0094 36.2851L78.6929 36.18L78.3853 36.0399L78.104 35.8735L77.849 35.6808L77.6205 35.453L77.4183 35.2078L77.2425 34.9275L77.1107 34.6297L77.0052 34.2969L76.9437 33.9465L76.9261 33.5699V33.3772L76.9349 33.1845L76.9612 32.9918L76.9788 32.7991L77.014 32.6064L77.0579 32.4225L77.1019 32.2385L77.1546 32.0634L77.2074 31.8882L77.2777 31.713L77.3392 31.5553L77.4183 31.3977L77.4886 31.2488L77.5766 31.0999L83.8264 28.8926V26.554L83.8176 26.2562L83.7913 25.9584L83.7385 25.6694L83.6682 25.3891L83.5715 25.1263L83.4572 24.8811L83.3254 24.6534L83.1672 24.4519L82.9913 24.2767L82.7804 24.1191L82.5606 23.9964L82.3145 23.9088L82.042 23.8475L81.7431 23.83L81.5761 23.8475L81.4003 23.8913L81.2333 23.9702L81.0663 24.0753L80.9081 24.2066L80.7498 24.3643L80.6004 24.5395L80.4685 24.7497L80.3543 24.9774L80.2488 25.2314L80.1697 25.503L80.0994 25.792L80.0642 26.0986L80.0466 26.4226L77.181 26.9482V26.6854L77.4095 26.0986L77.6996 25.573L78.0336 25.0913L78.4204 24.6621L78.8336 24.2855L79.2731 23.9526L79.7214 23.6636L80.1873 23.4271L80.6531 23.2257L81.1014 23.0592L81.541 22.9366L81.9541 22.8578L82.3233 22.8052L82.6573 22.7877L83.2463 22.814L83.7737 22.8841ZM106.154 22.9103L106.743 23.0505L107.288 23.2519L107.771 23.5059L108.202 23.8213L108.58 24.1804L108.896 24.5833L109.16 25.0475L109.371 25.5468L109.512 26.0986L109.608 26.6942L109.635 27.3336V27.8591H101.161V27.9467L101.152 28.043L101.143 28.1481L101.134 28.2532L101.117 28.3584L101.108 28.481L101.09 28.5948L101.073 28.7175L101.064 28.8488L101.047 28.9802L101.038 29.1204V29.2693L101.029 29.4094L101.064 30.1189L101.17 30.7846L101.328 31.4064L101.556 31.9933L101.838 32.5363L102.163 33.0181L102.55 33.456L102.98 33.8326L103.455 34.148L103.965 34.402L104.519 34.5859L105.108 34.6998L105.723 34.7348L106.075 34.726L106.4 34.6998L106.699 34.656L106.98 34.5947L107.252 34.5071L107.516 34.402L107.771 34.2881L108.026 34.148L108.281 33.9903L108.536 33.8151L108.808 33.6224L109.081 33.4122L109.371 33.1757L109.898 33.9553L109.512 34.2793L109.125 34.5859L108.747 34.8749L108.36 35.1465L107.973 35.4005L107.578 35.6282L107.165 35.8297L106.725 36.0048L106.277 36.1537L105.793 36.2676L105.283 36.3552L104.738 36.4077L104.158 36.4253L103.42 36.3815L102.708 36.2501L102.031 36.0311L101.398 35.7333L100.8 35.3654L100.255 34.9187L99.772 34.4107L99.3412 33.8414L98.9808 33.2108L98.6908 32.5276L98.471 31.7918L98.3391 31.0123L98.2952 30.189L98.3479 29.1992L98.4798 28.262L98.7083 27.3861L99.0248 26.5715L99.4116 25.8183L99.8774 25.1438L100.414 24.5482L101.011 24.0227L101.671 23.5935L102.383 23.2519L103.147 22.9979L103.956 22.8403L104.809 22.7877L105.512 22.8227L106.154 22.9103ZM161.761 34.8049L161.875 34.9713L161.998 35.1027L162.148 35.2078L162.332 35.2954L162.57 35.3654L162.868 35.4268L163.246 35.4705L163.721 35.5143V36.1713H156.812V35.3917L157.287 35.3392L157.673 35.2779L157.99 35.2078L158.245 35.129L158.438 35.0326L158.588 34.9187L158.711 34.7874L158.807 34.6385L158.895 34.4808V26.4226L158.886 26.1774L158.834 25.9409L158.737 25.7307L158.596 25.5292L158.403 25.3453L158.148 25.1789L157.823 25.0212L157.418 24.8723L156.944 24.7409V24.2154L161.242 22.7877H161.638V34.6122L161.761 34.8049ZM145.042 24.7147L145.27 24.557L145.516 24.3993L145.763 24.2417L146.018 24.084L146.272 23.9351L146.536 23.7862L146.8 23.6373L147.064 23.5059L147.336 23.3746L147.591 23.2519L147.855 23.1381L148.11 23.033L148.356 22.9366L148.602 22.8578L148.83 22.7877L149.05 22.7352L149.261 22.6914L149.463 22.6651L149.648 22.6563L150.043 22.6738L150.413 22.7089L150.755 22.7702L151.072 22.8578L151.371 22.9629L151.643 23.0943L151.889 23.2432L152.109 23.4184L152.311 23.611L152.496 23.83L152.654 24.0665L152.795 24.3118L152.918 24.5833L153.023 24.8723L153.111 25.1789L153.182 25.503L153.226 25.8446L153.269 26.1949L153.287 26.5628L153.296 26.9482V34.6122L153.393 34.6822L153.489 34.7523L153.586 34.8136L153.691 34.8662L153.797 34.91L153.902 34.9538L154.008 34.9888L154.122 35.0238L154.236 35.0501L154.351 35.0764L154.474 35.1027L154.606 35.1202L154.746 35.1377L154.887 35.1552L155.036 35.1727L155.195 35.1903L155.353 35.2078L155.529 35.2253L155.713 35.2428L155.898 35.2603V36.1713H148.602V35.3917L148.83 35.3654L149.033 35.3479L149.217 35.3216L149.384 35.2954L149.534 35.2603L149.665 35.2341L149.789 35.199L149.894 35.164L149.982 35.1202L150.07 35.0764L150.14 35.0326L150.21 34.9888L150.263 34.9363L150.316 34.8837L150.36 34.8224L150.404 34.7611L150.448 34.691L150.483 34.6297L150.518 34.5509L150.553 34.4808V27.7277L150.544 27.4737L150.527 27.2285L150.483 26.9832L150.421 26.7555L150.351 26.5277L150.263 26.3088L150.158 26.0986L150.043 25.8971L149.92 25.7132L149.78 25.5292L149.622 25.3716L149.463 25.2227L149.287 25.0825L149.103 24.9599L148.91 24.8548L148.707 24.7672L148.496 24.6971L148.277 24.6534L148.048 24.6183L147.82 24.6096H147.696L147.573 24.6271L147.433 24.6446L147.292 24.6621L147.151 24.6971L147.002 24.7322L146.844 24.776L146.694 24.8198L146.527 24.8723L146.369 24.9336L146.211 24.9949L146.044 25.0563L145.886 25.1263L145.727 25.1964L145.569 25.2665L145.411 25.3365L145.253 25.4154L145.103 25.4942L144.963 25.573L144.822 25.6431V34.4808L144.884 34.5684L144.936 34.656L144.989 34.7348L145.042 34.8136L145.095 34.8749L145.147 34.9363L145.209 34.9888L145.279 35.0414L145.349 35.0852L145.429 35.129L145.516 35.164L145.613 35.199L145.719 35.2253L145.842 35.2603L145.974 35.2779L146.132 35.3041L146.299 35.3304L146.483 35.3479L146.686 35.3654L146.905 35.3917V36.1713H140.128V35.3917L140.357 35.3654L140.559 35.3479L140.743 35.3216L140.91 35.2954L141.06 35.2603L141.2 35.2341L141.324 35.199L141.429 35.164L141.526 35.1202L141.614 35.0764L141.693 35.0326L141.763 34.9888L141.833 34.9363L141.886 34.8837L141.948 34.8224L142 34.7611L142.053 34.691L142.106 34.6297L142.159 34.5509L142.22 34.4808V26.4226L142.211 26.3263L142.203 26.2299L142.176 26.1336L142.15 26.0373L142.115 25.9409L142.062 25.8446L142.009 25.757L141.939 25.6606L141.868 25.573L141.781 25.4854L141.675 25.3979L141.57 25.3103L141.447 25.2314L141.315 25.1526L141.174 25.0738L141.016 25.0037L140.849 24.9336L140.664 24.8636L140.471 24.8023L140.26 24.7409V24.0928L144.435 22.6563H144.822V24.8636L145.042 24.7147ZM197.177 25.2665L197.52 24.8898L197.854 24.5395L198.179 24.2154L198.495 23.9088L198.812 23.6373L199.119 23.3921L199.418 23.1819L199.717 23.0154L200.016 22.8928L200.306 22.814L200.605 22.7877L200.798 22.7965L200.992 22.814L201.185 22.8403L201.379 22.8753L201.572 22.9191L201.757 22.9716L201.95 23.033L202.126 23.0943L202.31 23.1731L202.486 23.2519L202.653 23.3483L202.82 23.4359L201.387 26.1686H201.124L200.904 26.0373L200.684 25.9146L200.482 25.8095L200.289 25.6957L200.095 25.5993L199.902 25.5205L199.717 25.4416L199.533 25.3803L199.348 25.3278L199.163 25.2927L198.97 25.2665L198.777 25.2577L198.592 25.2665L198.416 25.3015L198.258 25.3453L198.1 25.4154L197.959 25.503L197.818 25.5993L197.678 25.7132L197.546 25.8358L197.405 25.9672L197.265 26.1161L197.115 26.265L196.957 26.4226V34.4808L197.071 34.6297L197.212 34.7611L197.388 34.8749L197.581 34.9713L197.801 35.0589L198.047 35.129L198.311 35.1903L198.583 35.2428L198.882 35.2779L199.181 35.3216L199.497 35.3567L199.823 35.3917V36.1713H192.395V35.3917L192.755 35.3567L193.063 35.3129L193.318 35.2603L193.538 35.2078L193.713 35.1465L193.863 35.0764L193.977 35.0063L194.074 34.9187L194.153 34.8224L194.223 34.7173L194.285 34.6034L194.346 34.4808V26.3L194.338 26.1336L194.311 25.9847L194.258 25.8358L194.188 25.6869L194.091 25.5555L193.96 25.4154L193.793 25.2927L193.59 25.1701L193.362 25.0563L193.081 24.9424L192.755 24.8373L192.395 24.7409V24.0928L196.561 22.6563H196.825V25.6431L197.177 25.2665ZM220.278 34.8049L220.392 34.9713L220.515 35.1027L220.664 35.2078L220.849 35.2954L221.086 35.3654L221.385 35.4268L221.763 35.4705L222.238 35.5143V36.1713H215.329V35.3917L215.803 35.3392L216.19 35.2779L216.507 35.2078L216.762 35.129L216.955 35.0326L217.104 34.9187L217.227 34.7874L217.324 34.6385L217.412 34.4808V26.4226L217.403 26.1774L217.35 25.9409L217.254 25.7307L217.113 25.5292L216.92 25.3453L216.665 25.1789L216.34 25.0212L215.935 24.8723L215.461 24.7409V24.2154L219.759 22.7877H220.155V34.6122L220.278 34.8049ZM67.8457 17.3485L67.6436 17.3747L67.4502 17.3923L67.2744 17.4185L67.1073 17.436L66.9579 17.4623L66.8085 17.4886L66.6766 17.5149L66.5448 17.5499L66.4305 17.5762L66.3162 17.6112L66.2195 17.6463L66.1228 17.6813L66.0349 17.7163L65.9558 17.7514L65.8767 17.7952L65.8064 17.839L65.7361 17.8827L65.6745 17.9265L65.613 17.9703L65.5603 18.0141L65.5075 18.0667L65.4548 18.1105L70.2718 26.554L75.0977 18.1105L75.0274 18.0667L74.9571 18.0141L74.8867 17.9616L74.8076 17.909L74.7285 17.8652L74.6494 17.8127L74.5615 17.7689L74.4648 17.7251L74.3681 17.6813L74.2714 17.6375L74.1571 17.5937L74.0429 17.5587L73.9198 17.5236L73.7967 17.4886L73.6561 17.4623L73.5154 17.436L73.3572 17.4098L73.199 17.3835L73.0232 17.366L72.8386 17.3572L72.6452 17.3397H72.443L72.2321 17.3309V16.5514H79.7917V17.3309L79.5719 17.3222L79.361 17.3134H79.1588L78.9654 17.3309L78.772 17.3485L78.5874 17.3747L78.4116 17.401L78.2358 17.4448L78.0688 17.4974L77.9106 17.5587L77.7524 17.62L77.5941 17.6988L77.4447 17.7864L77.304 17.874L77.1634 17.9791L77.0228 18.093L76.8909 18.2156L76.7591 18.347L76.6272 18.4871L76.5041 18.636L76.3811 18.8024L76.258 18.9688L76.1437 19.1528L70.9311 27.8591V33.7013L71.019 33.8764L71.1157 34.0429L71.2212 34.1918L71.3355 34.3319L71.4585 34.4633L71.5816 34.5771L71.7134 34.6822L71.8541 34.7698L72.0035 34.8574L72.153 34.9363L72.3112 34.9976L72.4782 35.0589L72.6364 35.1114L72.8122 35.1552L72.9792 35.199L73.1551 35.2341L73.3396 35.2603L73.5154 35.2866L73.7 35.3129L73.8846 35.3304L74.0692 35.3567L74.2626 35.3742L74.4472 35.3917V36.1713H64.4087V35.3917L64.6021 35.383H64.7867L64.9801 35.3742L65.1735 35.3654L65.3669 35.3479L65.5603 35.3304L65.7536 35.3041L65.9382 35.2779L66.1316 35.2428L66.3074 35.2078L66.492 35.164L66.6678 35.1202L66.8349 35.0676L66.9931 35.0151L67.1513 34.945L67.3007 34.8837L67.4414 34.8049L67.5644 34.726L67.6875 34.6385L67.8018 34.5421L67.8985 34.4458L67.9864 34.3319L68.0567 34.218V28.2445L62.8441 19.4155L62.7298 19.2141L62.6067 19.0302L62.4925 18.8637L62.3694 18.6973L62.2463 18.5572L62.1233 18.417L61.9914 18.2857L61.8596 18.1718L61.7277 18.0667L61.5959 17.9703L61.4552 17.8827L61.3058 17.7952L61.1563 17.7251L61.0069 17.6638L60.8487 17.6025L60.6817 17.5499L60.5059 17.5061L60.3301 17.4623L60.1455 17.4273L59.9521 17.401L59.7499 17.3747L59.5477 17.3572L59.328 17.3309V16.5514H68.0567V17.3309L67.8457 17.3485ZM94.3835 16.2974V34.4808L94.4538 34.6209L94.533 34.7436L94.6297 34.8487L94.7439 34.945L94.8758 35.0238L95.0252 35.0939L95.1922 35.1552L95.368 35.2078L95.579 35.2516L95.7988 35.2954L96.0449 35.3216L96.3086 35.3567L96.5987 35.3917V36.1713H89.6983V35.3917L90.006 35.3567L90.2873 35.3216L90.5334 35.2779L90.7444 35.2253L90.9377 35.1727L91.1048 35.1114L91.2454 35.0414L91.3685 34.9713L91.4739 34.8925L91.5706 34.7961L91.6497 34.6998L91.7201 34.5947L91.7816 34.4808V18.3732L91.7728 18.1455L91.764 17.9265L91.7377 17.7338L91.6849 17.5587L91.6146 17.401L91.5003 17.2521L91.3597 17.1295L91.1751 17.0156L90.9465 16.9193L90.6565 16.8404L90.3136 16.7704L89.9093 16.7266L89.4346 16.6828V16.0346L95.1659 14.6069L95.2977 15.1237L94.3835 16.2974ZM82.0508 30.513L81.0223 30.986L80.1785 31.3626L80.0818 31.7305L80.0027 32.0896L79.9411 32.475L79.9235 32.9217L80.0202 33.5874L80.3103 34.1742L80.8026 34.5859L81.4794 34.7348L82.1035 34.691L82.6573 34.5246L83.2023 34.2443L83.8264 33.8326V29.6722L83.0617 30.0488L82.0508 30.513ZM183.156 24.592L182.506 25.6168L182.093 26.9482H187.569L187.384 25.7219L186.866 24.6884L186.084 23.9702L185.09 23.6986L184.018 23.9351L183.156 24.592ZM102.479 24.592L101.838 25.6168L101.425 26.9482H106.901L106.716 25.7219L106.198 24.6884L105.415 23.9702L104.422 23.6986L103.35 23.9351L102.479 24.592ZM161.313 16.201L161.647 16.7441L161.77 17.3309L161.647 17.9791L161.313 18.5221L160.776 18.89L160.073 19.0214L159.344 18.8725L158.772 18.4696L158.385 17.9265L158.245 17.3309L158.385 16.7441L158.772 16.201L159.344 15.7981L160.073 15.6492L160.776 15.7981L161.313 16.201ZM219.829 16.201L220.163 16.7441L220.286 17.3309L220.163 17.9791L219.829 18.5221L219.293 18.89L218.59 19.0214L217.86 18.8725L217.289 18.4696L216.902 17.9265L216.762 17.3309L216.902 16.7441L217.289 16.201L217.86 15.7981L218.59 15.6492L219.293 15.7981L219.829 16.201Z" fill="#00356B"/>
</svg>
