<svg width="247" height="41" viewBox="0 0 247 41" fill="none" xmlns="http://www.w3.org/2000/svg">
<path d="M47.7119 22.6686C42.1187 22.6686 38.6337 18.9133 38.6337 14.7256C38.6337 10.7072 42.4358 6.15552 47.8092 6.15552C50.0869 6.15552 52.4835 7.07453 52.988 7.46373C53.161 7.60783 53.3989 9.35217 53.4493 10.8514C53.4493 10.974 53.0637 10.9487 53.0385 10.8776C52.6277 8.98912 50.8365 6.88084 47.2254 6.88084C43.5963 6.88084 40.8609 9.4468 40.8609 13.8291C40.8609 19.1809 44.4684 21.8947 47.9318 21.8947C50.4473 21.8947 52.9412 20.3918 53.1358 17.9232C53.1358 17.851 53.5971 17.8259 53.5971 17.97C53.5214 19.4728 53.28 21.2135 53.0889 21.3612C52.2132 22.0136 50.6888 22.6695 47.7119 22.6695" fill="#00284F"/>
<path d="M57.9038 17.0716H61.2698L59.767 13.0064L57.9038 17.0716ZM61.2698 22.2793C61.1256 22.3297 61.1977 21.8215 61.2698 21.8215C62.0951 21.7206 62.6032 21.8425 62.6032 21.3603C62.6032 20.8017 62.2861 20.0052 61.9725 19.0826L61.5365 17.7996H57.6154L57.0568 19.0826C56.5991 20.1494 56.3325 20.8521 56.3325 21.335C56.3325 21.7459 56.7902 21.7459 57.565 21.8215C57.6875 21.8215 57.6875 22.3297 57.5399 22.2793C56.9849 22.2071 56.2353 22.182 55.4604 22.182C54.4189 22.182 54.2495 22.182 53.4495 22.2793C53.3053 22.3054 53.3774 21.8215 53.4495 21.8215C54.6604 21.7206 55.2911 21.0684 56.21 19.0358L60.2284 10.2459C60.2789 10.1269 60.5203 10.1018 60.5672 10.2459L64.0557 19.0358C64.9242 20.9891 64.7945 21.6882 66.2469 21.8215C66.3153 21.8294 66.3658 22.3297 66.2218 22.2793C65.6379 22.2071 65.1911 22.182 64.3946 22.182C63.3531 22.182 62.0449 22.182 61.27 22.2793" fill="#00284F"/>
<path d="M66.7333 21.4972C66.6288 21.4324 66.5891 20.0773 66.5567 18.7907C66.546 18.6681 66.9856 18.6827 66.9892 18.7295C67.2847 20.5531 68.3731 21.9189 70.2543 21.764C71.5589 21.656 72.3842 20.809 72.2905 19.6521C72.0382 16.6356 66.7333 17.0753 66.4594 13.7705C66.3188 12.1056 67.6739 10.2676 69.8939 10.0838C70.9535 9.99721 71.6562 10.2567 72.3157 10.5631C72.4671 10.6497 72.741 11.6226 72.8455 12.8516C72.8492 12.9237 72.3662 12.9632 72.3626 12.8947C72.0346 11.5829 71.0904 10.7396 69.7858 10.8477C68.6542 10.9413 67.8541 11.5649 67.9478 12.6749C68.1857 15.5724 73.3897 15.0679 73.6816 18.542C73.8438 20.5206 72.4419 22.3585 70.1498 22.5496C68.82 22.6612 67.7388 22.2144 66.7333 21.4972Z" fill="#00284F"/>
<path d="M82.4643 22.2791C81.7903 22.2791 80.6479 22.1818 79.2928 22.1818C77.4549 22.1818 75.2493 22.1819 73.8942 22.2791C73.7501 22.2791 73.8222 21.8214 73.8942 21.8214C75.7358 21.6015 75.9052 21.3602 75.9052 19.0573V13.5865C75.9052 11.2872 75.7358 10.9989 73.8942 10.8043C73.8222 10.8043 73.7501 10.2926 73.8942 10.3178C75.2493 10.4405 77.3828 10.4656 79.2208 10.4656C80.529 10.4656 81.7904 10.4151 82.9004 10.3178C82.7814 10.707 82.7814 11.2152 82.7814 11.5792C82.7814 11.7737 82.7563 12.3036 82.7814 12.4261C82.7814 12.4729 82.3201 12.4982 82.3201 12.4522C82.176 11.6522 81.884 11.2665 79.5379 11.2665H77.963C77.8874 11.6774 77.8657 12.3513 77.8657 13.4938V15.7174H79.0766C81.1092 15.7174 81.2533 15.6705 81.448 14.8957C81.448 14.8488 81.9093 14.8237 81.884 14.9425C81.812 15.2127 81.7903 15.9624 81.7903 16.3732V17.4148C81.8372 17.4357 81.329 17.4616 81.329 17.4357C81.1597 16.495 81.0119 16.423 79.0766 16.423H77.8657V18.816C77.8657 21.1441 77.9882 21.3603 78.8099 21.3603H79.7541C82.5364 21.3603 82.612 20.9711 82.8787 19.7854C82.8787 19.7645 83.3616 19.7645 83.3616 19.8359C83.2896 20.2972 83.095 21.4792 82.9724 21.8432C82.9004 22.2072 82.7814 22.2793 82.4643 22.2793" fill="#00284F"/>
<path d="M151.382 16.3437C151.064 16.3437 150.92 16.3176 150.704 16.3176V13.4128C150.704 12.1046 150.751 11.4054 150.848 11.0631C151.115 11.0422 151.187 11.0163 151.454 11.0163C153.562 11.0163 154.722 11.7407 154.722 13.7769C154.722 15.4239 153.778 16.3429 151.382 16.3429V16.3437ZM171.772 10.3388C171.239 10.4107 170.417 10.4614 169.642 10.4614C168.576 10.4614 167.97 10.4615 167.246 10.3388C167.098 10.2883 167.098 10.7749 167.221 10.8001C168.792 10.9659 169.037 11.4992 169.037 13.5823V19.2224L160.586 10.4829C159.544 10.4829 158.139 10.462 157.389 10.3388C157.245 10.2884 157.292 10.8001 157.364 10.8001C158.19 10.8937 159.714 12.011 159.714 12.8327V19.0566C159.714 21.0316 159.404 21.6154 158.114 21.738C158.085 21.7458 157.916 21.751 157.793 21.6658C155.032 19.3989 155.065 17.9501 154.416 16.2959C155.843 15.6905 156.716 14.5012 156.716 13.2939C156.716 11.355 154.971 10.4613 151.702 10.3135C149.85 10.2306 147.872 10.155 146.79 10.3566C146.643 10.3828 146.765 10.8396 146.862 10.7927C147.129 10.7423 147.356 10.777 147.547 10.777C148.394 10.777 148.773 11.4726 148.773 13.5809V19.0552C148.773 21.3545 148.484 21.6428 146.909 21.8122C146.837 21.8122 146.765 22.3239 146.909 22.2735C147.684 22.1762 148.87 22.1762 149.937 22.1762C150.711 22.1762 151.948 22.2023 152.503 22.2735C152.65 22.324 152.6 21.8122 152.528 21.8122C150.881 21.6681 150.711 21.2319 150.711 19.0552V17.019C150.928 17.0451 151.05 17.0452 151.414 17.0452C151.778 17.0452 152.333 16.9733 152.769 16.9011C153.522 19.5968 156.182 21.8744 157.375 22.26C157.397 22.2679 157.533 22.281 157.533 22.281L157.861 22.2705C157.865 22.2705 159.426 22.1769 160.489 22.1769C161.238 22.1769 161.894 22.203 162.449 22.2742C162.593 22.3246 162.546 21.8129 162.5 21.8129C160.827 21.6688 160.658 20.9912 160.658 19.0559V13.2176L169.689 22.3967C169.837 22.5408 170.125 22.4435 170.125 22.3706C170.028 21.5957 170.003 19.9487 170.003 19.055V13.5807C170.003 11.6454 170.151 10.9174 171.845 10.7985C171.895 10.7985 172.014 10.3119 171.772 10.3372" fill="#00284F"/>
<path d="M118.442 21.5945C118.341 21.5226 118.363 21.0575 118.402 19.7745C118.399 19.6521 118.813 19.6953 118.838 19.7384C119.61 21.3349 120.078 21.8467 121.873 21.7638C122.929 21.7169 124.01 20.9313 123.981 19.7708C123.905 16.7436 118.579 16.8805 118.496 13.5613C118.453 11.8927 119.912 10.1376 122.139 10.08C123.203 10.0538 123.887 10.3539 124.525 10.6998C124.677 10.7935 124.893 11.781 124.922 13.0135C124.925 13.0891 124.442 13.1001 124.439 13.0292C124.19 11.703 123.296 10.8056 121.988 10.8381C120.849 10.8668 120.017 11.4435 120.046 12.5571C120.118 15.4619 125.343 15.2601 125.43 18.7414C125.484 20.7272 124.024 22.4859 121.725 22.5435C120.392 22.5759 119.404 22.3706 118.442 21.5957" fill="#00284F"/>
<path d="M102.005 22.4918C101.958 22.6145 101.669 22.665 101.594 22.4709L97.9394 12.2034L93.4129 22.4925C93.3624 22.6151 93.0489 22.6656 92.9768 22.4716L88.3026 10.8022C87.1385 7.89383 86.7529 7.07214 84.8393 6.90275C84.7203 6.90275 84.623 6.46668 84.8644 6.49189C85.5419 6.58917 86.5113 6.63598 87.4556 6.63598C88.7602 6.63598 90.3855 6.60983 91.3297 6.49189C91.5712 6.46573 91.4234 6.90275 91.3548 6.90275C90.2412 7.00004 89.6322 7.14414 89.6322 7.79651C89.6322 8.30826 90.1908 9.97688 90.5043 10.7517L93.9677 19.3722L97.5499 11.0905L97.431 10.8022C96.2453 7.96951 95.9787 7.07214 94.1371 6.90275C94.065 6.90275 93.9677 6.46668 94.1622 6.49189C94.8649 6.58917 95.8092 6.63598 96.7534 6.63598C98.058 6.63598 99.8996 6.60983 100.844 6.49189C101.038 6.44507 100.966 6.90275 100.894 6.90275C99.3915 7.02541 98.9049 7.19106 98.9049 7.91906C98.9049 8.45244 99.15 9.32457 99.6329 10.7517L102.563 19.3722L106.026 10.6328C106.581 9.20204 106.895 8.45242 106.895 7.82173C106.895 7.21628 106.509 7.02528 105.323 6.90275C105.251 6.90275 105.104 6.46668 105.349 6.49189C106.048 6.58917 106.776 6.63598 107.745 6.63598C109.075 6.63598 109.05 6.60983 110.019 6.49189C110.214 6.44507 110.117 6.90275 110.044 6.90275C108.52 7.04685 108.033 8.08843 106.895 10.8022L102.005 22.4918Z" fill="#00284F"/>
<path d="M116.532 22.2757C115.854 22.2757 114.716 22.1784 113.36 22.1784C111.519 22.1784 109.317 22.1784 107.962 22.2757C107.814 22.2757 107.89 21.8144 107.962 21.8144C109.8 21.5981 109.969 21.3567 109.969 19.0574V13.5831C109.969 11.2838 109.8 10.9919 107.962 10.8009C107.89 10.8009 107.814 10.2891 107.962 10.3144C109.317 10.437 111.447 10.4621 113.288 10.4621C114.597 10.4621 115.854 10.4117 116.968 10.3144C116.849 10.7036 116.849 11.2081 116.849 11.5722C116.849 11.7667 116.824 12.3001 116.849 12.4227C116.849 12.4695 116.388 12.4948 116.388 12.4436C116.24 11.6471 115.952 11.2579 113.602 11.2579H112.031C111.959 11.6687 111.933 12.3463 111.933 13.4851V15.7123H113.144C115.177 15.7123 115.321 15.6655 115.516 14.8906C115.516 14.8438 115.977 14.8184 115.952 14.9374C115.88 15.2041 115.854 15.9573 115.854 16.3682V17.4097C115.901 17.4306 115.393 17.4565 115.393 17.4306C115.227 16.4864 115.079 16.4143 113.144 16.4143H111.933V18.8109C111.933 21.1354 112.052 21.3552 112.878 21.3552H113.822C116.604 21.3552 116.68 20.966 116.943 19.7804C116.943 19.7542 117.426 19.7542 117.426 19.8272C117.354 20.2885 117.163 21.4741 117.04 21.8381C116.968 22.2021 116.849 22.2742 116.532 22.2742" fill="#00284F"/>
<path d="M136.267 12.736C136.267 12.8079 135.831 12.7828 135.831 12.736C135.661 11.9396 135.33 11.3809 133.394 11.3809H132.093V19.0573C132.093 21.2088 132.238 21.6701 133.931 21.8142C134.007 21.8142 134.054 22.2971 133.859 22.2755C133.304 22.2033 132.068 22.1782 131.293 22.1782C130.252 22.1782 129.066 22.1782 128.317 22.2755C128.122 22.326 128.219 21.8142 128.292 21.8142C129.888 21.6448 130.133 21.3313 130.133 19.0573V11.3809H128.735C126.872 11.3809 126.439 11.9143 126.201 12.7576C126.104 12.7838 125.74 12.7838 125.765 12.7108C125.837 12.3252 125.902 11.4062 125.884 10.8945C125.88 10.7864 125.837 10.5845 125.787 10.3719C125.772 10.2963 126.165 10.2963 126.223 10.3457C126.598 10.6485 127.203 10.5296 128.735 10.5332H133.395C134.861 10.5306 135.755 10.6486 135.953 10.3457C135.993 10.2809 136.436 10.2952 136.389 10.3925C136.292 10.7818 136.242 10.9908 136.242 11.5963C136.242 11.8882 136.242 12.4936 136.267 12.7351" fill="#00284F"/>
<path d="M145.421 22.2757C144.743 22.2757 143.604 22.1784 142.246 22.1784C140.408 22.1784 138.206 22.1784 136.847 22.2757C136.703 22.2757 136.775 21.8144 136.847 21.8144C138.689 21.5981 138.858 21.3567 138.858 19.0574V13.5831C138.858 11.2838 138.689 10.9919 136.847 10.8009C136.775 10.8009 136.703 10.2891 136.847 10.3144C138.206 10.437 140.336 10.4621 142.174 10.4621C143.482 10.4621 144.743 10.4117 145.857 10.3144C145.734 10.7036 145.734 11.2081 145.734 11.5722C145.734 11.7667 145.709 12.3001 145.734 12.4227C145.734 12.4695 145.273 12.4948 145.273 12.4436C145.129 11.6471 144.837 11.2579 142.491 11.2579H140.916C140.844 11.6687 140.818 12.3463 140.818 13.4851V15.7123H142.029C144.066 15.7123 144.21 15.6655 144.401 14.8906C144.401 14.8438 144.862 14.8184 144.837 14.9374C144.765 15.2041 144.743 15.9573 144.743 16.3682V17.4097C144.79 17.4306 144.282 17.4565 144.282 17.4306C144.112 16.4864 143.968 16.4143 142.029 16.4143H140.818V18.8109C140.818 21.1354 140.941 21.3552 141.763 21.3552H142.707C145.493 21.3552 145.565 20.966 145.832 19.7804C145.832 19.7542 146.314 19.7542 146.314 19.8272C146.242 20.2885 146.048 21.4741 145.929 21.8381C145.857 22.2021 145.734 22.2742 145.421 22.2742" fill="#00284F"/>
<path d="M198.726 21.5982C198.629 21.5297 198.647 21.0648 198.686 19.7782C198.683 19.6592 199.101 19.699 199.122 19.7458C199.897 21.3387 200.362 21.8541 202.16 21.7712C203.213 21.7207 204.294 20.9387 204.265 19.7783C204.189 16.751 198.863 16.8843 198.78 13.5687C198.74 11.9001 200.196 10.1414 202.423 10.0874C203.487 10.0586 204.175 10.3576 204.809 10.7036C204.961 10.7973 205.18 11.7848 205.209 13.0209C205.209 13.0931 204.726 13.1038 204.726 13.0314C204.474 11.7051 203.58 10.8078 202.272 10.8402C201.133 10.8689 200.301 11.4457 200.33 12.5593C200.402 15.464 205.627 15.2622 205.717 18.7471C205.764 20.7329 204.308 22.488 202.009 22.5493C200.679 22.5817 199.692 22.3728 198.726 21.5979" fill="#00284F"/>
<path d="M179.265 7.14653C179.142 7.63304 179.095 8.74664 179.095 10.5378V14.5561C179.409 14.5823 179.604 14.5561 179.993 14.5561C183.647 14.5561 184.905 13.2263 184.905 11.2405C184.905 7.94656 182.753 7.07446 180.332 7.07446C179.968 7.07446 179.676 7.10058 179.265 7.1466V7.14653ZM181.517 15.1112C181.103 15.2122 180.548 15.2339 180.014 15.2339C179.557 15.2339 179.409 15.2129 179.095 15.187V18.0449C179.095 21.5047 179.07 21.6777 181.323 21.8687C181.445 21.8687 181.492 22.3768 181.298 22.33C180.523 22.2327 179.312 22.1822 178.296 22.1822C176.868 22.1822 175.755 22.1822 174.738 22.33C174.497 22.3561 174.594 21.8939 174.713 21.8687C176.843 21.6273 176.987 21.6778 176.987 18.0449V10.7542C176.987 8.01889 176.915 7.17198 175.535 7.17198C175.294 7.17198 174.955 7.19814 174.616 7.26927C174.544 7.29543 174.349 6.9053 174.594 6.83323C175.585 6.51969 178.004 6.42236 180.645 6.42236C184.181 6.42236 187.085 7.48913 187.085 10.1992C187.085 11.5543 185.997 13.6121 183.478 14.6284C185.828 17.9224 185.957 25.0292 191.846 25.4149C192.715 25.4727 192.834 25.4122 193.717 25.1735C193.864 25.1337 194.066 25.5123 193.886 25.5843C192.581 26.0961 191.745 26.1934 190.491 26.0925C184.087 25.5735 183.525 18.1639 181.517 15.1114" fill="#00284F"/>
<path d="M196.69 22.2792C196.012 22.2792 194.873 22.1855 193.518 22.1855C191.677 22.1855 189.77 22.1855 188.415 22.2792C188.271 22.2792 188.343 21.8214 188.415 21.8214C190.257 21.6015 190.131 21.3602 190.131 19.0609V13.5902C190.131 11.2873 189.958 10.999 188.12 10.8043C188.048 10.8043 187.972 10.2962 188.12 10.3178C189.475 10.4405 191.605 10.4656 193.446 10.4656C194.754 10.4656 196.012 10.4151 197.126 10.3178C197.003 10.707 197.003 11.2152 197.003 11.5792C197.003 11.7738 196.982 12.3072 197.003 12.4261C197.003 12.4766 196.546 12.4983 196.546 12.4522C196.401 11.6522 196.109 11.2666 193.76 11.2666H192.185C192.113 11.6774 192.091 12.355 192.091 13.4938V15.721H193.302C195.335 15.721 195.479 15.6705 195.673 14.8957C195.673 14.8489 196.131 14.8238 196.109 14.9461C196.037 15.2129 196.012 15.9625 196.012 16.3733V17.4149C196.059 17.441 195.551 17.4653 195.551 17.441C195.381 16.4968 195.237 16.4247 193.302 16.4247H192.091V18.8213C192.091 21.1458 192.21 21.362 193.032 21.362H193.98C196.762 21.362 196.834 20.9764 197.101 19.7871C197.101 19.7662 197.587 19.7662 197.587 19.8376C197.515 20.2989 197.32 21.4846 197.198 21.845C197.126 22.209 197.003 22.281 196.69 22.281" fill="#00284F"/>
<path d="M214.763 22.2792C214.086 22.2792 212.95 22.1855 211.592 22.1855C209.754 22.1855 207.548 22.1855 206.193 22.2792C206.049 22.2792 206.121 21.8214 206.193 21.8214C208.035 21.6015 208.204 21.3602 208.204 19.0609V13.5902C208.204 11.2873 208.035 10.999 206.193 10.8043C206.121 10.8043 206.049 10.2962 206.193 10.3178C207.548 10.4405 209.678 10.4656 211.52 10.4656C212.828 10.4656 214.086 10.4151 215.199 10.3178C215.077 10.707 215.077 11.2152 215.077 11.5792C215.077 11.7738 215.056 12.3072 215.077 12.4261C215.077 12.4766 214.619 12.4983 214.619 12.4522C214.475 11.6522 214.183 11.2666 211.837 11.2666H210.262C210.19 11.6774 210.165 12.355 210.165 13.4938V15.721H211.376C213.408 15.721 213.552 15.6705 213.751 14.8957C213.751 14.8489 214.208 14.8238 214.183 14.9461C214.111 15.2129 214.086 15.9625 214.086 16.3733V17.4149C214.136 17.441 213.628 17.4653 213.628 17.441C213.455 16.4968 213.315 16.4247 211.376 16.4247H210.165V18.8213C210.165 21.1458 210.284 21.362 211.109 21.362H212.053C214.839 21.362 214.911 20.9764 215.178 19.7871C215.178 19.7662 215.661 19.7662 215.661 19.8376C215.589 20.2989 215.394 21.4846 215.271 21.845C215.199 22.209 215.077 22.281 214.763 22.281" fill="#00284F"/>
<path d="M219.913 11.0712C219.816 11.41 219.769 12.1127 219.769 13.421V16.3257C219.989 16.3257 220.133 16.3518 220.447 16.3518C222.843 16.3518 223.787 15.4293 223.787 13.7823C223.787 11.7497 222.627 11.0217 220.519 11.0217C220.256 11.0217 220.18 11.0478 219.913 11.0722L219.913 11.0712ZM220.472 17.051C220.108 17.051 219.989 17.051 219.769 17.0301V19.0627C219.769 21.2431 219.939 21.6791 221.585 21.8233C221.658 21.8233 221.708 22.3314 221.559 22.281C221.004 22.2124 219.768 22.1873 218.993 22.1873C217.927 22.1873 216.741 22.1873 215.966 22.281C215.822 22.3314 215.894 21.8233 215.966 21.8233C217.541 21.6538 217.833 21.362 217.833 19.0627V13.592C217.833 11.4837 217.447 10.7629 216.6 10.7629C216.406 10.7629 216.413 10.7708 216.146 10.817C216.049 10.8639 215.93 10.4207 216.074 10.381C216.907 10.1503 218.903 10.3342 220.763 10.3198C224.028 10.3015 225.772 11.3613 225.772 13.3002C225.772 14.5111 224.9 15.6968 223.473 16.3023C224.442 18.7709 227.037 22.1154 229.145 22.1154C229.218 22.1154 229.289 22.573 229.145 22.573C225.174 22.573 222.626 19.7656 221.826 16.9078C221.39 16.9799 220.835 17.0519 220.471 17.0519" fill="#00284F"/>
<path d="M232.105 22.4018C232.079 22.4738 231.788 22.5209 231.716 22.3757L227.892 13.611C227.02 11.6253 226.461 10.9261 225.009 10.8036C224.937 10.8036 224.865 10.2954 225.009 10.3423C225.589 10.4142 226.681 10.465 227.431 10.465C228.494 10.465 229.827 10.465 230.555 10.3423C230.7 10.2955 230.7 10.7784 230.576 10.8036C229.776 10.9009 229.319 10.9477 229.319 11.4307C229.319 11.7731 229.416 12.4001 229.924 13.5642L232.562 19.543L235.179 13.5642C235.759 12.2091 235.834 11.8668 235.834 11.4307C235.834 11.0199 235.445 10.8757 234.645 10.8036C234.573 10.8036 234.497 10.2954 234.645 10.3423C235.204 10.4142 235.953 10.465 236.725 10.465C237.817 10.465 237.878 10.4388 238.71 10.4493C238.865 10.4519 238.833 10.8025 238.761 10.8025C237.622 10.9251 236.97 11.48 236.025 13.6099L232.105 22.4018Z" fill="#00284F"/>
<path d="M245.757 22.2792C245.079 22.2792 243.94 22.1855 242.585 22.1855C240.744 22.1855 238.542 22.1855 237.187 22.2792C237.042 22.2792 237.115 21.8215 237.187 21.8215C239.028 21.6017 239.194 21.3602 239.194 19.0609V13.5902C239.194 11.2873 239.028 10.999 237.187 10.8044C237.115 10.8044 237.053 10.4512 237.201 10.4512C238.524 10.4297 240.672 10.4656 242.513 10.4656C243.821 10.4656 245.079 10.4152 246.193 10.3179C246.07 10.7071 246.07 11.2152 246.07 11.5792C246.07 11.7738 246.049 12.3072 246.07 12.4261C246.07 12.4766 245.612 12.4982 245.612 12.4513C245.465 11.6513 245.176 11.2657 242.827 11.2657H241.255C241.183 11.6765 241.158 12.354 241.158 13.4929V15.7201H242.369C244.402 15.7201 244.546 15.6696 244.74 14.8948C244.74 14.8479 245.198 14.8227 245.176 14.9452C245.104 15.2119 245.079 15.9615 245.079 16.3724V17.4139C245.13 17.4391 244.618 17.4644 244.618 17.4391C244.448 16.4949 244.304 16.4228 242.369 16.4228H241.158V18.8194C241.158 21.1439 241.277 21.3601 242.102 21.3601H243.047C245.829 21.3601 245.904 20.9745 246.167 19.7852C246.167 19.7637 246.654 19.7636 246.654 19.8357C246.582 20.297 246.387 21.4827 246.265 21.8431C246.193 22.2071 246.07 22.2791 245.757 22.2791" fill="#00284F"/>
<path d="M47.9642 32.2585C47.9642 34.1433 46.5443 35.7327 44.072 35.7327C41.9277 35.7327 40.1005 34.3812 40.1005 32.1648V28.9177C40.1005 27.1626 39.8987 26.9247 38.6986 26.777C38.6409 26.777 38.6049 26.4058 38.7167 26.4418C39.2897 26.5354 40.1726 26.5174 41.0051 26.5174C41.5962 26.5174 42.5188 26.4991 42.962 26.4418C43.0738 26.4057 43.0738 26.777 42.9837 26.777C41.726 26.885 41.6143 27.2563 41.6143 28.9177V31.8512C41.6143 34.0136 43.0198 34.9722 44.4397 34.9722C46.3029 34.9722 47.2832 33.9776 47.2832 32.0747V28.7879C47.2832 27.1986 47.0814 26.9247 45.8813 26.777C45.7912 26.7586 45.7912 26.4058 45.8957 26.4418C46.4723 26.5354 46.8939 26.5174 47.7084 26.5174C48.2814 26.5174 48.8905 26.4991 49.3122 26.4418C49.4635 26.4235 49.3878 26.777 49.3518 26.777C48.076 26.885 47.9643 27.2923 47.9643 28.7879V32.2585" fill="#00284F"/>
<path d="M64.8376 33.0728C64.8376 33.7539 64.8557 35.0117 64.9278 35.5992C64.9278 35.6567 64.7043 35.7325 64.5962 35.6201L57.7092 28.6213V33.0721C57.7092 34.5461 57.8389 35.0651 59.1111 35.1768C59.1507 35.1768 59.1868 35.5624 59.0751 35.5264C58.6498 35.4722 58.1525 35.4545 57.5794 35.4545C56.7686 35.4545 56.1775 35.4545 55.5865 35.5264C55.4928 35.5447 55.5288 35.1768 55.5865 35.1768C56.8046 35.0471 56.9884 34.6398 56.9884 33.0721V28.3258C56.9884 27.6987 55.8244 26.8482 55.1973 26.7761C55.1432 26.7761 55.1036 26.3869 55.2153 26.4229C55.7883 26.5166 56.8587 26.5346 57.6552 26.5346L64.0989 33.2018V28.8988C64.0989 27.3095 63.9115 26.9022 62.7114 26.7761C62.6213 26.7551 62.6213 26.3869 62.7295 26.4229C63.2845 26.5165 63.7457 26.5165 64.5602 26.5165C65.1513 26.5165 65.7784 26.4768 66.1856 26.4229C66.3694 26.4046 66.2757 26.7761 66.2396 26.7761C64.9494 26.8663 64.8377 27.4212 64.8377 28.8988V33.0721" fill="#00284F"/>
<path d="M75.4691 35.455C74.6366 35.455 73.7501 35.455 73.159 35.5272C73.0113 35.5633 73.105 35.1776 73.141 35.1776C74.3591 35.0479 74.5429 34.8064 74.5429 33.0729V28.8997C74.5429 27.1446 74.3591 26.9031 73.141 26.777C73.1049 26.777 73.0329 26.4057 73.177 26.4238C73.7501 26.5174 74.6366 26.5174 75.4691 26.5174C76.0205 26.5174 76.9828 26.4776 77.408 26.4238C77.5558 26.4054 77.4801 26.777 77.4441 26.777C76.1683 26.8672 76.0385 27.2563 76.0385 28.8997V33.0729C76.0385 34.7127 76.1683 35.0659 77.4441 35.1776C77.4801 35.1776 77.5558 35.5452 77.408 35.5272C76.9828 35.4731 76.0205 35.455 75.4691 35.455Z" fill="#00284F"/>
<path d="M89.099 35.6208C89.081 35.6749 88.8576 35.711 88.8035 35.5999L85.888 28.9182C85.2213 27.4046 84.796 26.8676 83.6896 26.7775C83.6355 26.7775 83.5779 26.3883 83.6896 26.4244C84.1329 26.4785 84.9654 26.518 85.5384 26.518C86.3493 26.518 87.3656 26.518 87.9206 26.4244C88.0287 26.3883 88.0287 26.7559 87.935 26.7775C87.3295 26.8531 86.9763 26.8856 86.9763 27.2569C86.9763 27.5126 87.052 27.992 87.4376 28.8822L89.4522 33.4412L91.4452 28.8822C91.8884 27.8479 91.9425 27.5884 91.9425 27.2569C91.9425 26.9433 91.647 26.8316 91.0379 26.7775C90.9839 26.7775 90.9262 26.3883 91.0379 26.4244C91.4632 26.4785 92.0362 26.518 92.6272 26.518C93.4561 26.518 93.5859 26.518 94.1589 26.4244C94.2706 26.3883 94.2345 26.7775 94.1769 26.7775C93.3084 26.8678 92.8111 27.2929 92.0903 28.9182L89.099 35.6215" fill="#00284F"/>
<path d="M106.409 35.5271C105.89 35.5271 105.021 35.4549 103.99 35.4549C102.585 35.4549 100.905 35.4549 99.8711 35.5271C99.7594 35.5271 99.817 35.1775 99.8711 35.1775C101.273 35.0117 101.406 34.8243 101.406 33.0728V28.8996C101.406 27.1444 101.273 26.9246 99.8711 26.7768C99.817 26.7768 99.7594 26.3876 99.8711 26.4056C100.905 26.4993 102.531 26.5173 103.933 26.5173C104.931 26.5173 105.89 26.4776 106.74 26.4056C106.65 26.7012 106.65 27.0868 106.65 27.3643C106.65 27.512 106.628 27.9193 106.65 28.013C106.65 28.0491 106.297 28.0671 106.297 28.0313C106.185 27.4222 105.965 27.1267 104.174 27.1267H102.974C102.916 27.4402 102.898 27.9592 102.898 28.8241V30.5216H103.821C105.374 30.5216 105.482 30.4891 105.63 29.8945C105.63 29.8584 105.983 29.8403 105.965 29.9342C105.908 30.1361 105.89 30.7091 105.89 31.0226V31.8155C105.929 31.8364 105.54 31.8516 105.54 31.8364C105.41 31.112 105.299 31.058 103.821 31.058H102.898V32.8851C102.898 34.6582 102.988 34.824 103.619 34.824H104.34C106.463 34.824 106.517 34.5321 106.722 33.624C106.722 33.6056 107.09 33.6056 107.09 33.6637C107.032 34.0097 106.888 34.9178 106.794 35.1953C106.74 35.4728 106.65 35.5269 106.409 35.5269" fill="#00284F"/>
<path d="M117.433 26.9788C117.357 27.2382 117.321 27.7717 117.321 28.77V30.9864C117.487 30.9864 117.595 31.0047 117.836 31.0047C119.667 31.0047 120.388 30.3019 120.388 29.0477C120.388 27.4945 119.501 26.9431 117.894 26.9431C117.689 26.9431 117.635 26.9613 117.433 26.9791L117.433 26.9788ZM117.858 31.5381C117.581 31.5381 117.487 31.5381 117.321 31.5198V33.073C117.321 34.7344 117.451 35.066 118.705 35.1777C118.759 35.1777 118.799 35.5633 118.687 35.5273C118.262 35.4731 117.321 35.4551 116.73 35.4551C115.919 35.4551 115.015 35.4551 114.424 35.5273C114.312 35.5634 114.366 35.1777 114.424 35.1777C115.62 35.048 115.844 34.8245 115.844 33.073V28.8997C115.844 27.2924 115.548 26.9428 114.899 26.9428C114.755 26.9428 114.586 26.9611 114.388 26.997C114.312 27.0331 114.218 26.6834 114.33 26.6618C114.921 26.4779 116.564 26.406 118.078 26.406C120.572 26.406 121.898 27.1989 121.898 28.6765C121.898 29.5991 121.235 30.5073 120.147 30.9649C120.885 32.8498 122.637 35.3977 124.244 35.3977C124.298 35.3977 124.356 35.7509 124.244 35.7509C121.217 35.7509 119.501 33.6066 118.889 31.4298C118.557 31.484 118.132 31.5379 117.858 31.5379" fill="#00284F"/>
<path d="M130.735 34.882C130.656 34.8316 130.648 33.7972 130.638 32.817C130.63 32.7233 130.969 32.7377 130.969 32.7738C131.171 34.1685 131.978 35.2281 133.416 35.1344C134.411 35.0732 135.052 34.4353 134.998 33.5523C134.85 31.2494 130.796 31.5089 130.63 28.9861C130.551 27.714 131.611 26.3337 133.304 26.2219C134.115 26.1715 134.645 26.3804 135.142 26.622C135.258 26.6905 135.456 27.4364 135.514 28.3771C135.521 28.4312 135.15 28.4563 135.146 28.398C134.915 27.3961 134.209 26.7402 133.211 26.8015C132.346 26.859 131.73 27.324 131.784 28.171C131.928 30.3837 135.903 30.0702 136.072 32.7226C136.17 34.2363 135.078 35.6202 133.326 35.7319C132.31 35.7968 131.492 35.4436 130.735 34.8814" fill="#00284F"/>
<path d="M145.932 35.455C145.1 35.455 144.213 35.455 143.622 35.5272C143.475 35.5633 143.568 35.1776 143.604 35.1776C144.822 35.0479 145.01 34.8064 145.01 33.0729V28.8997C145.01 27.1446 144.822 26.9031 143.604 26.777C143.568 26.777 143.493 26.4057 143.644 26.4238C144.213 26.5174 145.1 26.5174 145.932 26.5174C146.487 26.5174 147.446 26.4776 147.871 26.4238C148.019 26.4054 147.943 26.777 147.907 26.777C146.635 26.8672 146.505 27.2563 146.505 28.8997V33.0729C146.505 34.7127 146.635 35.0659 147.907 35.1776C147.943 35.1776 148.019 35.5452 147.871 35.5272C147.446 35.4731 146.487 35.455 145.932 35.455Z" fill="#00284F"/>
<path d="M163.584 28.2509C163.584 28.3087 163.249 28.2906 163.249 28.2509C163.119 27.6454 162.64 27.2166 161.166 27.2166H160.276V33.0729C160.276 34.7126 160.388 35.0658 161.678 35.174C161.732 35.174 161.772 35.5452 161.624 35.5272C161.195 35.473 160.254 35.455 159.667 35.455C158.87 35.455 157.966 35.455 157.393 35.5272C157.245 35.5633 157.321 35.174 157.375 35.174C158.597 35.0479 158.78 34.8064 158.78 33.0729V27.2166H157.814C156.395 27.2166 155.84 27.6238 155.659 28.2725C155.58 28.2908 155.303 28.2908 155.324 28.2328C155.378 27.9372 155.393 27.2165 155.393 26.8272C155.393 26.7697 155.357 26.6758 155.339 26.5929C155.331 26.5317 155.638 26.528 155.674 26.572C155.811 26.7341 155.821 26.572 157.814 26.572H161.166C163.141 26.572 163.231 26.7414 163.343 26.572C163.375 26.5252 163.714 26.5359 163.674 26.6117C163.602 26.9036 163.563 26.9253 163.563 27.3866C163.563 27.6065 163.563 28.0677 163.584 28.2515" fill="#00284F"/>
<path d="M179.755 26.8489C177.503 26.8489 175.856 29.6167 175.856 32.7196V33.0728C175.856 34.7342 175.971 35.0658 177.243 35.1775C177.301 35.1775 177.337 35.5631 177.225 35.5271C176.782 35.473 175.841 35.4549 175.268 35.4549C174.457 35.4549 173.549 35.4549 172.958 35.5271C172.81 35.5632 172.904 35.1775 172.94 35.1775C174.158 35.0478 174.363 34.8063 174.363 33.0728V32.7196C174.363 29.3428 172.515 26.8669 170.356 26.8669C170.172 26.8669 170.006 26.8852 169.841 26.921C169.801 26.921 169.711 26.6075 169.819 26.5895C170.284 26.4237 170.781 26.312 171.224 26.312C173.275 26.312 174.972 27.9013 175.527 29.9664C176.356 27.6635 177.834 26.4057 179.495 26.4057C179.794 26.4057 180.432 26.4777 180.728 26.5896C180.836 26.6079 180.728 26.9608 180.652 26.9211C180.432 26.867 179.996 26.8492 179.755 26.8492" fill="#00284F"/>
<path d="M203.973 39.6247L203.908 39.5491C203.858 39.4662 203.887 39.3365 203.923 39.2788L203.951 39.221L204.106 39.2001C205.022 39.0992 205.022 39.0992 205.022 37.6288V34.4322C205.022 32.951 205.022 32.951 204.103 32.8465L204.02 32.836H204.016C203.912 32.836 203.876 32.6809 203.876 32.6053C203.876 32.5622 203.886 32.5261 203.905 32.4973C203.933 32.4542 203.98 32.4288 204.034 32.4288C204.755 32.4793 205.761 32.5043 206.95 32.5043C207.8 32.5043 208.496 32.4782 209.087 32.4288L209.246 32.4131L209.195 32.5682C209.137 32.752 209.127 32.9285 209.127 33.1556C209.127 33.2566 209.127 33.4655 209.137 33.5448L209.141 33.5916L209.108 33.6421C209.08 33.6782 209.029 33.6999 208.961 33.6999C208.903 33.6999 208.77 33.6894 208.737 33.5953C208.669 33.2169 208.579 33.0583 207.134 33.0583H206.204C206.168 33.361 206.164 33.8692 206.164 34.3773V35.6351H207.155C208.146 35.6351 208.153 35.5809 208.186 35.4225L208.2 35.3576C208.215 35.3145 208.251 35.2603 208.352 35.2603C208.352 35.2603 208.525 35.2629 208.586 35.3288L208.626 35.372L208.611 35.4298C208.575 35.5702 208.55 35.8118 208.55 36.0641C208.55 36.1757 208.55 36.3812 208.561 36.4677L208.564 36.5038L208.539 36.5543C208.514 36.6011 208.456 36.6228 208.37 36.6228C208.291 36.6228 208.19 36.6045 208.161 36.5219C208.107 36.248 208.085 36.1362 207.155 36.1362H206.164V37.5886C206.164 38.9941 206.348 38.9941 206.716 38.9941H207.281C208.892 38.9941 208.921 38.8644 209.062 38.2373C209.062 38.2111 209.083 38.1363 209.235 38.1363C209.332 38.1363 209.4 38.1625 209.437 38.2049L209.473 38.2446L209.465 38.3131C209.426 38.5689 209.328 39.0772 209.26 39.3114C209.191 39.5672 209.069 39.6142 208.86 39.6142C208.698 39.6142 208.481 39.6037 208.229 39.5932C207.876 39.5802 207.454 39.5608 206.993 39.5608C206.056 39.5608 204.874 39.5687 204.049 39.6257L203.973 39.6247Z" fill="#00284F"/>
<path d="M212.489 39.7725C211.725 39.7725 211.087 39.5382 210.482 39.0337C210.41 38.976 210.41 38.8787 210.457 38.2228C210.475 38.021 210.493 37.7867 210.503 37.538C210.503 37.52 210.514 37.4011 210.709 37.4011C210.9 37.4011 210.911 37.502 210.911 37.5344C210.99 38.6228 211.581 39.2283 212.587 39.2283C213.188 39.2283 213.895 38.9291 213.895 38.0894C213.895 37.2858 213.17 36.8641 212.403 36.4172C211.559 35.9271 210.687 35.4226 210.687 34.3666C210.687 33.3647 211.574 32.2908 212.893 32.2908C213.596 32.2908 214.021 32.4674 214.342 32.644C214.486 32.716 214.558 33.1377 214.558 33.8981C214.558 33.9342 214.543 34.0459 214.345 34.0459L214.161 34.0134L214.129 33.9089C214.017 33.2061 213.556 32.8241 212.81 32.8241C212.241 32.8241 211.639 33.1665 211.639 33.8044C211.639 34.5504 212.323 34.9468 213.048 35.3685C213.862 35.8406 214.785 36.3776 214.785 37.502C214.785 38.7741 213.776 39.7724 212.489 39.7724" fill="#00284F"/>
<path d="M216.839 39.6247C216.774 39.6247 216.702 39.578 216.691 39.4733C216.683 39.3797 216.72 39.232 216.828 39.2102C217.726 39.1166 217.726 39.1166 217.726 37.6317V33.1341H217.517C216.306 33.1341 216.263 33.3035 216.158 33.7143L216.126 33.8403L216.064 33.856C216.028 33.8665 215.982 33.8665 215.963 33.8665C215.859 33.8665 215.805 33.8456 215.773 33.8016L215.74 33.7585L215.753 33.6973C215.782 33.5425 215.8 33.2396 215.8 32.8468C215.8 32.6917 215.787 32.6235 215.764 32.508L215.743 32.4107L215.769 32.3602C215.809 32.2991 215.895 32.2847 215.964 32.2847C216.043 32.2847 216.097 32.303 216.13 32.3388C216.328 32.5588 216.407 32.5622 217.103 32.5514L219.031 32.5488C219.247 32.5488 219.427 32.5514 219.582 32.5593C220.242 32.5749 220.368 32.5593 220.497 32.3537C220.508 32.3354 220.541 32.2889 220.681 32.2889C220.768 32.2889 220.822 32.3098 220.854 32.3537L220.887 32.4005L220.869 32.469C220.818 32.7034 220.789 32.833 220.789 33.1754C220.789 33.3339 220.789 33.5935 220.808 33.7124L220.815 33.7592L220.789 33.799C220.768 33.8314 220.724 33.8638 220.598 33.8638C220.548 33.8638 220.404 33.8638 220.404 33.7412L220.393 33.7051C220.318 33.3123 220.282 33.1357 219.031 33.1357H218.88V37.6333C218.88 39.1398 218.88 39.1398 219.77 39.2083C219.863 39.2083 219.918 39.3199 219.918 39.4245C219.918 39.5435 219.845 39.6264 219.748 39.6264C219.427 39.5867 218.919 39.5615 218.429 39.5615C217.798 39.5615 217.316 39.572 216.861 39.6227L216.839 39.6247Z" fill="#00284F"/>
<path d="M220.533 38.9365C220.533 38.6193 220.782 38.313 221.157 38.313C221.502 38.313 221.762 38.6049 221.762 38.9076C221.762 39.2283 221.488 39.5311 221.124 39.5311C220.782 39.5311 220.533 39.2428 220.533 38.9365Z" fill="#00284F"/>
<path d="M229.258 39.6861L229.245 39.6835C228.931 39.6438 228.445 39.6438 228.02 39.6438C227.576 39.6438 227.075 39.6438 226.751 39.6869C226.69 39.6896 226.632 39.6608 226.611 39.5897C226.6 39.5635 226.598 39.5355 226.598 39.4997C226.598 39.3556 226.652 39.269 226.742 39.269C227.459 39.1824 227.473 39.1825 227.473 38.4149V36.4976C227.473 35.9246 227.38 35.8814 227.25 35.8814C227.171 35.8814 227.059 35.9023 226.911 35.9533C226.792 35.9611 226.727 35.8848 226.706 35.8162C226.673 35.7297 226.695 35.6468 226.752 35.5963L226.878 35.5278C227.325 35.2754 227.942 34.9331 228.277 34.6196L228.309 34.5908L228.36 34.583C228.428 34.583 228.529 34.6371 228.58 34.691L228.608 34.7342L228.611 34.8171C228.561 35.026 228.546 35.9775 228.546 36.4532V38.4137C228.546 39.1814 228.546 39.1814 229.278 39.2679H229.28C229.353 39.2679 229.406 39.3544 229.406 39.4985C229.406 39.6787 229.291 39.6861 229.269 39.6861L229.258 39.6861Z" fill="#00284F"/>
<path d="M232.559 32.4241C231.918 32.4241 231.503 32.8458 231.503 33.4945C231.503 34.2189 232.094 34.6513 232.876 35.1271C233.424 34.7667 233.712 34.2693 233.712 33.6891C233.712 32.9575 233.23 32.4241 232.559 32.4241ZM232.275 36.1542C231.496 36.5542 231.161 37.0588 231.161 37.8336C231.161 38.7598 231.842 39.2463 232.516 39.2463C233.338 39.2463 233.893 38.7454 233.893 38.003C233.893 37.1236 233.125 36.6659 232.311 36.1794L232.275 36.1542ZM232.379 39.8121C231.089 39.8121 230.076 38.9436 230.076 37.8336C230.076 37.0119 230.66 36.2803 231.691 35.801C231.074 35.3866 230.473 34.8604 230.473 33.9954C230.473 32.7809 231.456 31.8691 232.765 31.8691C233.849 31.8691 234.729 32.6584 234.729 33.6314C234.729 34.3847 234.34 34.936 233.428 35.4622C234.163 35.9307 234.887 36.5218 234.887 37.5164C234.887 38.8247 233.81 39.8121 232.379 39.8121Z" fill="#00284F"/>
<path d="M239.89 39.686C239.738 39.686 239.515 39.6782 239.259 39.6677C238.895 39.6573 238.459 39.6389 238.044 39.6389C237.086 39.6389 236.394 39.6389 235.684 39.6858C235.554 39.6858 235.496 39.5199 235.475 39.4514C235.435 39.2963 235.483 39.2315 235.532 39.2027C237.597 38.1215 238.48 37.1881 238.48 36.0889C238.48 35.3357 238.066 34.8492 237.421 34.8492C236.949 34.8492 236.588 35.0221 236.17 35.451L236.141 35.4835L236.073 35.4913C235.976 35.4913 235.896 35.3977 235.864 35.3362C235.835 35.2677 235.838 35.1992 235.88 35.1524C236.446 34.374 237.094 33.9775 237.797 33.9775C238.842 33.9775 239.603 34.7127 239.603 35.7254C239.603 36.7525 238.586 37.8661 237.487 38.5977H238.712C239.783 38.5977 239.862 38.5148 239.92 37.9238C239.92 37.8482 239.995 37.8084 240.136 37.8084C240.302 37.8084 240.327 37.8877 240.327 37.9345C240.363 38.2156 240.269 39.2391 240.222 39.4121C240.19 39.5311 240.121 39.686 239.891 39.686" fill="#00284F"/>
<path d="M243.832 39.8122C242.077 39.8122 241.277 38.4283 241.277 37.1417C241.277 35.2677 242.863 32.9144 246.409 31.8728L246.452 31.8691C246.56 31.8691 246.625 31.9737 246.64 32.0674C246.658 32.1647 246.618 32.2475 246.542 32.2728C242.895 33.6314 242.502 36.1217 242.502 37.1308C242.502 38.3886 243.137 39.3004 244.012 39.3004C244.704 39.3004 245.155 38.7021 245.155 37.7759C245.155 36.8713 244.704 36.3091 243.98 36.3091C243.796 36.3091 243.544 36.4064 243.436 36.4749L243.371 36.4929C243.263 36.4929 243.14 36.3307 243.126 36.2695L243.108 36.1865L243.184 36.1396C243.493 35.8117 244.027 35.5738 244.477 35.5738C245.688 35.5738 246.341 36.5757 246.341 37.5163C246.341 38.7597 245.191 39.812 243.832 39.812" fill="#00284F"/>
<path d="M200.333 39.6573H38.8175V38.9077H200.333V39.6573Z" fill="#00284F"/>
<path d="M32.7378 39.6356H0.345985V0.345947H32.7378V39.6356Z" fill="#00284F"/>
<path d="M4.98419 35.1307L4.804 24.1784C11.1937 26.5318 14.4624 31.4006 16.0986 35.2316L4.98419 35.1307ZM29.3934 16.2679C29.1483 16.2574 29.1483 16.5634 29.1483 16.5634L28.6437 35.3361L17.0284 35.2388C16.6536 34.0459 15.904 32.3305 15.5364 31.5124L25.5732 34.0748C25.5913 34.0774 25.6056 34.0774 25.6237 34.0774C25.7534 34.0774 25.8579 33.9727 25.8579 33.836C25.8579 33.735 25.7966 33.6485 25.7065 33.6161V33.6082C25.6201 33.5758 18.6213 31.053 15.8175 30.0403L26.4742 29.5358V29.5332C26.5967 29.5253 26.694 29.4215 26.694 29.2955C26.694 29.1657 26.5967 29.0611 26.4742 29.0541V29.0514L15.4066 28.5685L26.3733 24.4385V24.4358C26.4561 24.3997 26.5174 24.3132 26.5174 24.2125C26.5174 24.0828 26.4093 23.9748 26.2832 23.9748C26.2651 23.9748 26.2471 23.9748 26.2291 23.9826L26.2255 23.9748L14.6642 27.2399L26.5174 17.3328C26.5714 17.2897 26.6075 17.2211 26.6075 17.1453C26.6075 17.0119 26.4993 16.9039 26.3732 16.9039C26.3084 16.9039 26.2723 16.9327 26.211 16.9758L13.9146 25.9243L25.2993 9.02205C25.3281 8.98229 25.3425 8.93575 25.3425 8.88162C25.3425 8.7519 25.238 8.64362 25.1082 8.64362C25.0218 8.64362 24.9713 8.67606 24.91 8.76262L12.6568 24.9657L17.104 9.72482C17.1113 9.69867 17.1147 9.67802 17.1147 9.65291C17.1147 9.51953 17.0102 9.41152 16.8805 9.41152C16.776 9.41152 16.6895 9.48371 16.6606 9.581L11.2764 24.2813L11.1323 10.8027C11.1323 10.6694 11.0278 10.5614 10.898 10.5614C10.7683 10.5614 10.6638 10.6694 10.6638 10.8027V10.8106C10.635 11.2683 9.97904 20.8582 9.75921 24.0513L6.55535 14.4181C6.50851 14.263 6.41839 14.137 6.23821 14.1801C6.01115 14.2306 6.09045 14.5261 6.09045 14.5261L8.29242 24.3683C7.19324 23.8313 6.02197 23.4097 4.78584 23.1069L4.4795 4.57213L17.7382 3.95224C17.7382 3.95224 18.0518 3.96794 18.0518 3.71452C18.0518 3.44784 17.7274 3.46583 17.7274 3.46583H3.49203L3.59653 36.4595L29.6202 36.3514V16.5733C29.6202 16.5733 29.6276 16.2778 29.3932 16.2706" fill="white"/>
</svg>
