<svg width="247" height="63" viewBox="0 0 247 63" fill="none" xmlns="http://www.w3.org/2000/svg">
<path d="M100.22 43.1889C100.22 42.6559 99.892 42.2869 99.195 42.1229V41.7949C99.564 41.7949 100.876 41.8359 101.204 41.8359C101.491 41.8359 102.762 41.7949 103.131 41.7949V42.1229C102.475 42.2459 102.147 42.6149 102.147 43.1889V49.7489C102.147 51.8399 103.295 52.9879 105.714 52.9879C107.764 52.9879 109.404 52.0859 109.404 49.8719V43.1069C109.404 42.6149 109.117 42.2459 108.338 42.0819V41.7539C108.625 41.7539 109.691 41.7949 110.019 41.7949C110.306 41.7949 111.454 41.7539 111.741 41.7539V42.0819C111.003 42.2459 110.675 42.5739 110.675 43.1069V49.5029C110.675 52.3729 108.994 54.0129 105.386 54.0129C102.024 54.0129 100.261 52.4959 100.261 49.7899L100.22 43.1889Z" fill="white"/>
<path d="M114.652 53.5619C115.431 53.3979 115.759 53.0289 115.759 52.5369V43.4759C115.759 42.6969 115.349 42.3689 114.652 42.1639V41.8359C115.062 41.8769 115.718 41.8769 116.046 41.8769C116.415 41.8769 116.784 41.8769 117.153 41.8359L125.066 51.1019V43.1889C125.066 42.6969 124.779 42.3279 124 42.1639V41.8359C124.287 41.8359 125.312 41.8769 125.681 41.8769C125.968 41.8769 127.075 41.8359 127.362 41.8359V42.1639C126.624 42.3279 126.255 42.6559 126.255 43.1889V54.0949H125.763C125.476 54.0129 124.902 53.6849 124.041 52.7419L116.948 44.5419V52.5369C116.948 53.0289 117.235 53.3979 118.014 53.5619V53.8899C117.727 53.8899 116.702 53.8489 116.333 53.8489C116.046 53.8489 114.939 53.8899 114.652 53.8899V53.5619Z" fill="white"/>
<path d="M177.136 51.1021H177.464C177.628 51.7581 178.038 52.3731 178.571 52.7421C179.227 53.1521 179.965 53.3571 180.744 53.3161C182.343 53.3161 183.368 52.5371 183.368 51.3071C183.368 50.0361 182.056 49.3391 180.539 48.5601C179.391 47.9861 177.136 47.0431 177.136 44.8701C177.136 42.8201 178.694 41.5901 181.195 41.5901C182.835 41.5901 183.614 42.0001 184.721 41.9181L184.68 44.3781H184.352C183.901 42.9431 182.589 42.4101 181.154 42.4101C179.514 42.4101 178.94 43.3121 178.94 44.2551C178.94 45.6081 180.252 46.2641 181.769 46.9201C183.45 47.6581 185.295 48.6011 185.295 50.6921C185.295 52.6601 183.737 54.1361 180.867 54.1361C179.186 54.1361 178.161 53.6441 177.259 53.5211L177.136 51.1021Z" fill="white"/>
<path d="M213.052 48.3959V52.4959C213.052 52.7419 213.175 53.0289 213.38 53.1929C213.585 53.3979 213.831 53.5209 214.077 53.5209V53.8489C213.667 53.8489 212.396 53.8079 212.027 53.8079C211.74 53.8079 210.51 53.8489 210.018 53.8489V53.5619C210.305 53.5209 210.551 53.3979 210.715 53.2339C210.92 53.0289 211.043 52.7829 211.043 52.5369V48.6009L213.052 48.3959ZM211.207 48.8879L207.968 43.7629C207.435 42.8609 206.984 42.3689 206.369 42.1639V41.8359C206.82 41.8359 208.009 41.8769 208.337 41.8769C208.665 41.8769 209.936 41.8359 210.387 41.8359V42.1639C209.977 42.2459 209.772 42.4509 209.772 42.7379C209.813 43.0659 209.936 43.3939 210.141 43.6809L212.519 47.6169L214.815 43.6809C215.02 43.3529 215.143 43.0249 215.225 42.6559C215.225 42.4099 215.061 42.2459 214.651 42.1639V41.8359C215.02 41.8359 215.84 41.8769 216.127 41.8769C216.373 41.8769 217.316 41.8359 217.726 41.8359V42.1229C216.824 42.4919 216.291 43.2709 215.758 44.1319L212.806 49.0109" fill="white"/>
<path d="M151.265 41.8361H158.809C159.096 41.8361 159.383 41.7951 159.67 41.7131H159.998L159.957 44.1321H159.629C159.342 43.3531 159.055 42.7381 157.579 42.7381H154.299V47.0021H156.841C157.169 47.0021 157.497 46.9611 157.866 46.9201C158.112 46.8791 158.317 46.7561 158.481 46.5921C158.645 46.4281 158.768 46.2231 158.809 45.9771H159.137C159.096 46.3461 159.096 47.2071 159.096 47.4531C159.096 47.6991 159.137 48.6011 159.137 48.9701H158.809C158.645 48.4781 158.44 48.1091 157.907 47.9861C157.579 47.9041 157.251 47.9041 156.882 47.9041H154.34V52.9061H157.907C159.465 52.9061 159.916 52.2501 160.326 51.3481L160.654 51.4301L160.326 53.9311C159.26 53.8491 158.194 53.8081 157.169 53.8491H153.397C153.028 53.8491 151.716 53.8901 151.306 53.8901V53.5621C152.003 53.4391 152.372 53.1111 152.372 52.4551V43.2301C152.372 42.6561 152.085 42.2871 151.306 42.1641L151.265 41.8361Z" fill="white"/>
<path d="M131.954 43.2709C131.954 42.6559 131.585 42.3279 130.847 42.1639V41.8359C131.257 41.8359 132.569 41.8769 132.938 41.8769C133.266 41.8769 134.619 41.8359 135.029 41.8359V42.1639C134.291 42.3279 133.922 42.6149 133.922 43.2709V52.4549C133.922 53.0699 134.291 53.3979 135.029 53.5619V53.8899C134.619 53.8899 133.307 53.8489 132.938 53.8489C132.61 53.8489 131.257 53.8899 130.847 53.8899V53.5619C131.585 53.4389 131.954 53.1109 131.954 52.4549V43.2709Z" fill="white"/>
<path d="M189.313 43.2709C189.313 42.6559 188.944 42.3279 188.206 42.1639V41.8359C188.616 41.8359 189.928 41.8769 190.297 41.8769C190.584 41.8769 191.978 41.8359 192.388 41.8359V42.1639C191.65 42.3279 191.281 42.6149 191.281 43.2709V52.4549C191.281 53.0699 191.65 53.3979 192.388 53.5619V53.8899C191.978 53.8899 190.707 53.8489 190.297 53.8489C190.01 53.8489 188.616 53.8899 188.206 53.8899V53.5619C188.944 53.4389 189.313 53.1109 189.313 52.4549V43.2709Z" fill="white"/>
<path d="M199.809 41.8771C195.668 41.8771 195.012 41.7951 194.151 41.7541V44.2551H194.479C194.766 43.1481 195.381 42.9021 196.201 42.9021H198.784V52.4961C198.784 53.1521 198.415 53.4801 197.677 53.6031V53.9311C198.087 53.9311 199.481 53.8901 199.768 53.8901C200.137 53.8901 201.449 53.9311 201.859 53.9311V53.5621C201.121 53.3981 200.752 53.0701 200.752 52.4551V42.8611H203.335C204.155 42.8611 204.77 43.1481 205.057 44.2141H205.385V41.7131C204.606 41.7951 203.95 41.8771 199.809 41.8771Z" fill="white"/>
<path d="M166.763 47.5349C167.255 47.5759 167.788 47.6169 168.28 47.6169C170.535 47.6169 171.273 46.3049 171.273 45.1569C171.273 43.5169 170.166 42.5329 168.198 42.5329C167.706 42.5329 167.255 42.5739 166.763 42.6559V47.5349ZM166.763 52.4549C166.763 53.0699 167.173 53.3979 167.87 53.5619V53.8899C167.46 53.8899 166.148 53.8489 165.779 53.8489C165.451 53.8489 164.18 53.8899 163.77 53.8899V53.5619C164.467 53.4389 164.836 53.1109 164.836 52.4549V43.1889C164.836 42.6149 164.549 42.2869 163.77 42.1229V41.7949C164.18 41.7949 165.451 41.8359 165.82 41.8359C166.394 41.8359 168.116 41.7539 168.772 41.7539C171.683 41.7539 173.282 42.9429 173.282 44.9929C173.282 46.5919 172.093 47.6989 170.207 48.1499C170.535 48.3549 170.822 48.6009 171.068 48.8879C171.56 49.5029 172.954 51.4709 173.528 52.1679C174.102 52.8649 174.84 53.6439 175.619 53.6849V53.9719C175.127 54.0539 174.676 54.1359 174.184 54.1359C173.2 54.1359 172.421 53.8079 171.642 52.8649C170.986 52.0449 169.838 50.4049 169.182 49.5439C168.977 49.2569 168.69 48.9699 168.362 48.8059C168.034 48.6009 167.665 48.4779 167.296 48.4369C167.132 48.3959 166.927 48.3959 166.722 48.3549L166.763 52.4549Z" fill="white"/>
<path d="M137.94 43.3119C137.817 43.0249 137.653 42.7789 137.407 42.5739C137.161 42.3689 136.874 42.2459 136.587 42.1639V41.8359C137.038 41.8359 138.514 41.8769 138.842 41.8769C139.17 41.8769 140.441 41.8359 140.892 41.8359V42.1639C140.482 42.2459 140.031 42.4509 140.031 42.8609C140.031 43.1479 140.195 43.5169 140.523 44.2549L143.639 51.3479L146.591 44.2549C146.796 43.8449 146.919 43.3529 147.001 42.9019C147.001 42.5329 146.673 42.2869 146.181 42.1639V41.8359C146.591 41.8359 147.534 41.8769 147.821 41.8769C148.108 41.8769 149.215 41.8359 149.666 41.8359V42.1639C148.928 42.3689 148.477 42.7789 148.067 43.7219L143.721 53.9309H142.737L137.94 43.3119Z" fill="white"/>
<path d="M149.133 11.0861C148.641 9.97905 147.862 9.15905 146.55 8.87205V8.21605C147.37 8.21605 150.076 8.29806 150.691 8.29806C151.265 8.29806 153.889 8.21605 154.709 8.21605V8.83105C153.971 8.99505 153.11 9.40506 153.11 10.1431C153.11 10.6761 153.438 11.4141 154.053 12.8081L159.998 26.215L165.615 12.7671C166.066 11.6601 166.394 10.8401 166.394 10.1841C166.394 9.48706 165.738 8.99505 164.795 8.79005V8.17505C165.533 8.17505 167.337 8.25705 167.911 8.25705C168.444 8.25705 170.576 8.17505 171.396 8.17505V8.79005C170.002 9.15905 169.141 9.97906 168.362 11.7831L160.08 31.1761H158.235L149.133 11.0861Z" fill="white"/>
<path d="M69.183 30.4788C70.249 30.2328 71.028 29.7408 71.028 28.5108V10.7578C71.028 9.56883 70.331 9.11782 69.183 8.83082V8.21582C69.757 8.21582 72.176 8.29783 72.791 8.29783C73.488 8.29783 76.03 8.21582 76.604 8.21582V8.83082C75.538 9.07682 74.718 9.56883 74.718 10.7578V18.1788H88.002V10.7578C88.002 9.52783 87.305 9.07682 86.157 8.83082V8.21582C86.731 8.21582 89.232 8.29783 89.929 8.29783C90.503 8.29783 93.004 8.21582 93.578 8.21582V8.83082C92.512 9.07682 91.692 9.56883 91.692 10.7578V28.5518C91.692 29.6998 92.43 30.1918 93.578 30.5198V31.0938C93.004 31.0938 90.503 31.0528 89.929 31.0528C89.232 31.0528 86.731 31.0938 86.157 31.0938V30.5198C87.223 30.2738 88.002 29.7818 88.002 28.5518V20.1468H74.677V28.5518C74.677 29.7818 75.415 30.1918 76.563 30.5198V31.0938C75.989 31.0938 73.447 31.0528 72.75 31.0528C72.176 31.0528 69.716 31.0938 69.142 31.0938V30.4788H69.183Z" fill="white"/>
<path d="M228.96 29.29C230.149 29.454 231.338 29.536 232.568 29.536C239.456 29.536 243.023 25.436 243.023 19.696C243.023 13.751 239.251 9.56899 232.814 9.56899C231.543 9.56899 230.231 9.65098 228.96 9.81498V29.29ZM223.138 30.479C224.532 30.233 225.27 29.7 225.27 28.429V10.758C225.27 9.52799 224.532 9.07699 223.179 8.83099V8.17498C223.958 8.17498 226.459 8.25699 227.156 8.25699C228.263 8.25699 231.379 8.01099 233.839 8.01099C242.039 8.01099 247 12.562 247 19.45C247 26.174 241.834 31.135 233.388 31.135C230.969 31.135 228.058 30.93 226.951 30.93C226.254 30.93 223.917 31.012 223.179 31.012L223.138 30.479Z" fill="white"/>
<path d="M130.437 19.04C131.38 19.163 132.364 19.204 133.307 19.163C137.612 19.163 138.965 16.703 138.965 14.53C138.965 11.455 136.874 9.52802 133.102 9.52802C132.2 9.52802 131.298 9.61002 130.396 9.77402V19.04H130.437ZM130.437 28.388C130.437 29.577 131.175 30.233 132.569 30.479V31.094C131.79 31.094 129.289 31.012 128.592 31.012C127.977 31.012 125.517 31.094 124.738 31.094V30.479C126.009 30.233 126.788 29.618 126.788 28.388V10.84C126.788 9.77401 126.214 9.07701 124.738 8.83101V8.21601C125.517 8.21601 127.936 8.29802 128.633 8.29802C129.74 8.29802 132.938 8.09302 134.209 8.09302C139.703 8.09302 142.778 10.348 142.778 14.243C142.778 17.277 140.482 19.368 136.997 20.188C137.612 20.557 138.145 21.049 138.596 21.582C139.58 22.73 142.245 26.543 143.352 27.855C144.418 29.167 145.812 30.643 147.329 30.684V31.217C146.427 31.381 145.525 31.504 144.623 31.504C142.737 31.504 141.261 30.848 139.785 29.085C138.514 27.568 136.341 24.329 135.111 22.771C134.701 22.197 134.168 21.705 133.553 21.377C132.938 21.008 132.282 20.803 131.585 20.68C131.216 20.639 130.888 20.557 130.519 20.516L130.437 28.388Z" fill="white"/>
<path d="M203.007 19.04C203.95 19.163 204.934 19.204 205.877 19.163C210.182 19.163 211.535 16.703 211.535 14.53C211.535 11.455 209.444 9.52802 205.713 9.52802C204.811 9.52802 203.909 9.61002 203.007 9.77402V19.04V19.04ZM203.007 28.388C203.007 29.577 203.745 30.233 205.139 30.479V31.094C204.36 31.094 201.859 31.012 201.162 31.012C200.547 31.012 198.087 31.094 197.308 31.094V30.479C198.579 30.233 199.358 29.618 199.358 28.388V10.84C199.358 9.77401 198.784 9.07701 197.349 8.83101V8.21601C198.128 8.21601 200.547 8.29802 201.244 8.29802C202.392 8.29802 205.549 8.09302 206.82 8.09302C212.314 8.09302 215.389 10.348 215.389 14.243C215.389 17.277 213.093 19.368 209.608 20.188C210.223 20.557 210.756 21.049 211.207 21.582C212.191 22.73 214.897 26.543 215.963 27.855C217.029 29.167 218.423 30.643 219.899 30.684V31.217C218.997 31.381 218.095 31.504 217.193 31.504C215.307 31.504 213.831 30.848 212.355 29.085C211.125 27.568 208.911 24.329 207.681 22.771C207.271 22.197 206.738 21.705 206.123 21.377C205.508 21.008 204.852 20.803 204.155 20.68C203.786 20.639 203.458 20.557 203.089 20.516L203.007 28.388Z" fill="white"/>
<path d="M111.741 21.91L108.051 13.423L104.648 21.91H111.741ZM97.063 30.479C98.539 30.151 99.318 29.208 99.851 27.937L107.231 10.307C107.518 9.56902 107.723 8.83102 107.928 8.09302H109.978C110.142 8.83102 110.388 9.61002 110.634 10.307L118.424 27.978C118.998 29.208 119.572 30.069 121.13 30.479V31.053C120.269 31.053 117.645 31.012 117.071 31.012C116.456 31.012 113.996 31.053 113.135 31.053V30.479C114.283 30.192 114.611 29.618 114.611 29.085C114.57 28.552 114.406 28.019 114.16 27.527L112.479 23.714H103.91L102.393 27.527C102.188 27.978 102.065 28.47 102.024 29.003C102.024 29.659 102.352 30.151 103.664 30.479V31.053C102.885 31.053 100.876 31.012 100.425 31.012L97.104 31.053L97.063 30.479Z" fill="white"/>
<path d="M184.762 21.91L181.072 13.423L177.669 21.91H184.762ZM170.125 30.479C171.56 30.151 172.38 29.208 172.913 27.937L180.293 10.307C180.58 9.56902 180.785 8.83102 180.99 8.09302H183.04C183.204 8.83102 183.45 9.61002 183.696 10.307L191.486 27.978C192.019 29.208 192.634 30.069 194.192 30.479V31.053C193.331 31.053 190.707 31.012 190.133 31.012C189.518 31.012 187.058 31.053 186.197 31.053V30.479C187.345 30.192 187.673 29.618 187.673 29.085C187.632 28.552 187.468 28.019 187.263 27.527L185.582 23.714H177.013L175.496 27.527C175.291 27.978 175.168 28.47 175.127 29.003C175.127 29.659 175.455 30.151 176.767 30.479V31.053C175.988 31.053 173.979 31.012 173.528 31.012L170.207 31.053L170.125 30.479Z" fill="white"/>
<path d="M1.123 1.08203H52.537V20.352C52.537 29.208 49.216 47.945 27.035 61.926C27.035 61.926 2.968 51.922 1.164 20.352V1.08203H1.123Z" fill="#A62131"/>
<path d="M1 1H52.455V20.352C52.455 29.208 49.134 47.945 26.912 61.926C26.912 61.926 2.845 51.922 1 20.352V1V1Z" stroke="black" stroke-width="0.6483"/>
<path d="M40.032 25.887C40.032 25.887 39.581 27.322 37.531 25.846L30.52 25.682C30.52 25.682 29.618 25.969 29.495 25.026C29.495 25.026 29.659 23.14 29.577 22.976C29.577 22.976 29.618 22.443 28.716 22.443C28.716 22.443 27.322 22.607 27.24 21.377C27.24 21.377 26.994 20.065 28.962 20.106C28.962 20.106 29.577 20.393 29.618 19.614C29.618 19.614 29.536 14.243 29.577 13.833C29.577 13.833 29.741 13.341 28.798 13.259C28.798 13.259 27.404 13.546 27.281 12.644C27.281 12.644 27.199 11.291 28.101 11.209C28.101 11.209 29.208 11.291 29.413 11.004C29.413 11.004 29.659 11.168 29.618 10.184L29.659 8.50301C29.659 8.50301 29.782 8.05201 30.479 8.09301C30.479 8.09301 31.791 8.17501 31.955 8.05201C32.078 7.88801 32.201 7.68302 32.324 7.51902C32.324 7.51902 32.98 7.47801 33.103 7.64201C33.103 7.64201 34.087 8.29801 37.9 8.05201C37.9 8.05201 38.474 8.05201 38.597 8.21601C38.597 8.21601 39.294 8.74901 39.704 8.17501C40.524 8.05201 41.344 8.01101 42.164 8.05201C42.164 8.05201 44.214 8.58501 45.608 7.43701L46.059 7.51902C46.059 7.51902 46.633 8.46201 47.043 8.17501C47.043 8.17501 48.273 8.05201 48.519 8.29801C48.519 8.29801 48.929 8.91301 48.724 10.553C48.724 10.553 48.478 11.25 49.667 11.25C49.667 11.25 51.061 11.004 50.856 12.275C50.856 12.275 51.225 13.71 48.929 13.505C48.765 13.71 48.683 13.956 48.683 14.202C48.683 14.202 48.642 18.917 48.601 19.45C48.601 19.45 48.56 20.188 49.544 20.147C49.544 20.147 50.897 20.065 50.938 21.254C50.938 21.254 51.102 22.812 49.175 22.525C49.175 22.525 48.601 22.607 48.519 22.976L48.437 25.026C48.437 25.026 48.478 26.051 47.33 25.805C47.166 25.805 40.852 25.928 40.278 25.764C40.401 25.764 40.073 25.723 40.032 25.887Z" fill="white"/>
<path d="M26.584 32.775C26.748 32.693 26.871 32.611 26.953 32.447C26.953 32.447 27.814 32.365 27.937 32.242L30.684 32.447C30.684 32.447 33.39 32.652 34.538 31.832C34.784 31.832 35.03 31.873 35.235 31.955C35.235 31.955 35.809 32.078 35.973 32.324L37.572 32.283C37.572 32.283 38.474 32.57 38.392 33.144V33.882C38.392 33.882 38.228 35.358 38.638 35.44H39.868C39.868 35.44 40.852 35.891 40.729 36.465C40.729 36.711 40.647 36.916 40.483 37.121C40.319 37.285 40.114 37.408 39.868 37.449C39.499 37.572 39.089 37.613 38.72 37.654C38.556 37.9 38.433 38.187 38.392 38.474L38.269 43.886C38.269 43.886 38.187 44.46 39.048 44.378C39.048 44.378 40.319 44.255 40.729 44.952C40.729 44.952 41.057 46.141 40.401 46.346L39.909 46.592L38.802 46.756C38.802 46.756 38.351 46.797 38.31 47.576V49.011C38.31 49.011 38.351 49.995 37.572 49.995L36.424 50.077C36.301 50.159 36.137 50.2 36.014 50.241C35.85 50.241 35.727 50.241 35.563 50.159C35.563 50.159 28.47 50.282 28.224 50.2L27.404 50.364C27.404 50.364 26.502 51.184 25.723 50.569L25.149 50.118C24.944 50.159 24.78 50.159 24.575 50.159C24.411 50.118 16.744 50.241 16.744 50.241C16.744 50.241 15.104 50.405 14.981 49.872C14.981 49.872 14.776 47.781 14.858 47.494C14.858 47.494 14.858 46.879 14.489 46.838C14.489 46.838 12.849 46.756 12.808 46.592C12.808 46.592 11.947 45.977 12.193 45.362C12.275 45.116 12.439 44.911 12.644 44.747C12.849 44.583 13.095 44.501 13.341 44.46C13.341 44.46 14.653 44.665 14.653 44.296C14.735 44.091 14.735 43.845 14.735 43.64C14.735 43.64 14.817 38.72 14.776 38.392C14.776 38.392 14.899 37.777 14.366 37.777C14.038 37.859 13.71 37.818 13.423 37.695C13.423 37.695 12.439 37.736 12.193 36.957C12.111 36.67 12.111 36.342 12.275 36.055C12.275 36.055 12.726 35.153 14.079 35.44C14.079 35.44 14.817 35.645 14.899 35.112L14.858 33.103C14.858 33.103 14.694 32.57 15.719 32.283C15.719 32.283 17.072 32.652 17.482 31.996C17.482 31.996 17.933 31.094 18.302 31.709C18.302 31.709 19.081 32.447 21.254 32.365C21.254 32.365 24.985 32.078 25.067 32.242C25.067 32.242 25.969 32.365 26.215 32.652L26.584 32.775Z" fill="white"/>
<path d="M15.227 25.887C15.227 25.887 14.776 27.322 12.726 25.846L5.756 25.682C5.756 25.682 4.854 25.969 4.731 25.026C4.731 25.026 4.895 23.14 4.813 22.976C4.813 22.976 4.854 22.443 3.952 22.443C3.952 22.443 2.558 22.607 2.517 21.377C2.517 21.377 2.271 20.065 4.239 20.106C4.239 20.106 4.854 20.393 4.895 19.614C4.895 19.614 4.813 14.243 4.854 13.833C4.854 13.833 5.018 13.341 4.075 13.259C4.075 13.259 2.681 13.546 2.558 12.644C2.558 12.644 2.476 11.291 3.378 11.209C3.378 11.209 4.485 11.291 4.69 11.004C4.69 11.004 4.936 11.168 4.895 10.184L4.936 8.46201C4.936 8.46201 5.059 8.01101 5.756 8.05201C5.756 8.05201 7.068 8.13401 7.232 8.01101C7.355 7.84701 7.478 7.64201 7.601 7.47801C7.601 7.47801 8.257 7.43701 8.38 7.60101C8.38 7.60101 9.364 8.25701 13.177 8.01101C13.177 8.01101 13.751 8.01101 13.874 8.17501C13.874 8.17501 14.571 8.70802 14.981 8.13402C15.801 8.01102 16.662 8.01101 17.482 8.05201C17.482 8.05201 19.532 8.58501 20.926 7.43701L21.377 7.51902C21.377 7.51902 21.951 8.46201 22.361 8.17501C22.361 8.17501 23.591 8.05201 23.837 8.29801C23.837 8.29801 24.247 8.91301 24.042 10.553C24.042 10.553 23.796 11.25 24.985 11.25C24.985 11.25 26.379 11.004 26.215 12.275C26.215 12.275 26.584 13.71 24.288 13.505C24.124 13.71 24.042 13.956 24.042 14.202C24.042 14.202 24.001 18.917 23.96 19.45C23.96 19.45 23.919 20.188 24.903 20.147C24.903 20.147 26.215 20.065 26.256 21.254C26.256 21.254 26.42 22.812 24.493 22.525C24.493 22.525 23.919 22.607 23.837 22.976L23.755 25.026C23.755 25.026 23.796 26.051 22.648 25.805C22.484 25.805 16.17 25.928 15.596 25.764C15.637 25.764 15.309 25.723 15.227 25.887Z" fill="white"/>
<path d="M40.032 25.887C40.032 25.887 39.581 27.322 37.531 25.846L30.52 25.682C30.52 25.682 29.618 25.969 29.495 25.026C29.495 25.026 29.659 23.14 29.577 22.976C29.577 22.976 29.618 22.443 28.716 22.443C28.716 22.443 27.322 22.607 27.24 21.377C27.24 21.377 26.994 20.065 28.962 20.106C28.962 20.106 29.577 20.393 29.618 19.614C29.618 19.614 29.536 14.243 29.577 13.833C29.577 13.833 29.741 13.341 28.798 13.259C28.798 13.259 27.404 13.546 27.281 12.644C27.281 12.644 27.199 11.291 28.101 11.209C28.101 11.209 29.208 11.291 29.413 11.004C29.413 11.004 29.659 11.168 29.618 10.184L29.659 8.50301C29.659 8.50301 29.782 8.05201 30.479 8.09301C30.479 8.09301 31.791 8.17501 31.955 8.05201C32.078 7.88801 32.201 7.68302 32.324 7.51902C32.324 7.51902 32.98 7.47801 33.103 7.64201C33.103 7.64201 34.087 8.29801 37.9 8.05201C37.9 8.05201 38.474 8.05201 38.597 8.21601C38.597 8.21601 39.294 8.74901 39.704 8.17501C40.524 8.05201 41.344 8.01101 42.164 8.05201C42.164 8.05201 44.214 8.58501 45.608 7.43701L46.059 7.51902C46.059 7.51902 46.633 8.46201 47.043 8.17501C47.043 8.17501 48.273 8.05201 48.519 8.29801C48.519 8.29801 48.929 8.91301 48.724 10.553C48.724 10.553 48.478 11.25 49.667 11.25C49.667 11.25 51.061 11.004 50.856 12.275C50.856 12.275 51.225 13.71 48.929 13.505C48.765 13.71 48.683 13.956 48.683 14.202C48.683 14.202 48.642 18.917 48.601 19.45C48.601 19.45 48.56 20.188 49.544 20.147C49.544 20.147 50.897 20.065 50.938 21.254C50.938 21.254 51.102 22.812 49.175 22.525C49.175 22.525 48.601 22.607 48.519 22.976L48.437 25.026C48.437 25.026 48.478 26.051 47.33 25.805C47.166 25.805 40.852 25.928 40.278 25.764C40.401 25.764 40.073 25.723 40.032 25.887Z" fill="black"/>
<path d="M40.032 25.887C40.032 25.887 39.581 27.322 37.531 25.846L30.52 25.682C30.52 25.682 29.618 25.969 29.495 25.026C29.495 25.026 29.659 23.14 29.577 22.976C29.577 22.976 29.618 22.443 28.716 22.443C28.716 22.443 27.322 22.607 27.24 21.377C27.24 21.377 26.994 20.065 28.962 20.106C28.962 20.106 29.577 20.393 29.618 19.614C29.618 19.614 29.536 14.243 29.577 13.833C29.577 13.833 29.741 13.341 28.798 13.259C28.798 13.259 27.404 13.546 27.281 12.644C27.281 12.644 27.199 11.291 28.101 11.209C28.101 11.209 29.208 11.291 29.413 11.004C29.413 11.004 29.659 11.168 29.618 10.184L29.659 8.50301C29.659 8.50301 29.782 8.05201 30.479 8.09301C30.479 8.09301 31.75 8.17501 31.955 8.05201C32.078 7.88801 32.201 7.68302 32.324 7.51902C32.324 7.51902 32.98 7.47801 33.103 7.64201C33.103 7.64201 34.087 8.29801 37.9 8.05201C37.9 8.05201 38.474 8.05201 38.597 8.21601C38.597 8.21601 39.294 8.74901 39.704 8.17501C40.524 8.05201 41.344 8.01101 42.164 8.05201C42.164 8.05201 44.214 8.58501 45.608 7.43701L46.059 7.51902C46.059 7.51902 46.633 8.46201 47.043 8.17501C47.043 8.17501 48.273 8.05201 48.519 8.29801C48.519 8.29801 48.929 8.91301 48.724 10.553C48.724 10.553 48.478 11.25 49.667 11.25C49.667 11.25 51.061 11.004 50.856 12.275C50.856 12.275 51.225 13.71 48.929 13.505C48.765 13.71 48.683 13.956 48.683 14.202C48.683 14.202 48.642 18.917 48.601 19.45C48.601 19.45 48.56 20.188 49.544 20.147C49.544 20.147 50.897 20.065 50.938 21.254C50.938 21.254 51.102 22.812 49.175 22.525C49.175 22.525 48.601 22.607 48.519 22.976L48.437 25.026C48.437 25.026 48.478 26.051 47.33 25.805C47.166 25.805 40.852 25.928 40.278 25.764C40.401 25.764 40.114 25.723 40.032 25.887Z" stroke="black" stroke-width="0.0281882"/>
<path d="M32.16 8.83085C32.16 8.83085 32.242 9.65085 32.242 9.85585C32.242 10.0608 32.119 21.8279 32.119 21.8279C32.16 22.1149 32.119 22.3608 31.996 22.6068C31.873 22.8528 31.709 23.0578 31.463 23.1808C31.463 23.1808 31.258 23.2629 31.217 22.6889L31.299 10.2658C31.258 10.2658 31.34 8.74885 32.16 8.83085Z" fill="white"/>
<path d="M32.16 8.83085C32.16 8.83085 32.242 9.65085 32.242 9.85585C32.242 10.0608 32.119 21.8279 32.119 21.8279C32.16 22.1149 32.119 22.3608 31.996 22.6068C31.873 22.8528 31.709 23.0578 31.463 23.1808C31.463 23.1808 31.258 23.2629 31.217 22.6889L31.299 10.2658C31.258 10.2658 31.34 8.74885 32.16 8.83085Z" stroke="black" stroke-width="0.0281882"/>
<path d="M30.766 23.304C30.766 23.304 30.848 11.619 30.807 11.455C30.766 11.25 30.848 11.619 30.848 11.619C30.848 11.619 30.725 9.56903 31.258 8.74903C31.258 8.74903 31.094 8.05202 30.151 8.91302L30.11 10.594C30.11 10.594 30.11 11.537 29.249 11.496C29.249 11.496 28.265 11.455 27.773 11.906C27.773 11.906 27.527 12.808 28.47 12.644C28.47 12.644 29.987 12.644 30.069 13.259L29.987 19.532C29.987 19.532 30.315 20.557 29.167 20.557C29.167 20.557 27.732 20.475 27.773 21.336C27.773 21.336 28.06 22.074 29.29 21.828C29.29 21.828 30.151 21.992 30.11 22.812V24.37C30.11 24.37 30.028 24.985 30.848 25.026H37.326C37.326 25.026 37.654 25.067 37.654 24.657C37.654 24.657 37.613 24.329 37.121 24.329L31.709 24.247C31.75 24.288 30.848 24.575 30.766 23.304Z" fill="white"/>
<path d="M32.037 23.3041C32.037 23.3041 31.873 23.8781 32.488 23.7551H36.752L37.9 24.0011C37.9 24.0011 39.089 23.7141 37.9 23.0581C37.9 23.0581 34.087 23.0991 33.718 23.0171L32.775 22.7711C32.816 22.7301 32.406 22.5661 32.037 23.3041Z" fill="white"/>
<path d="M32.037 23.304C32.037 23.304 31.873 23.878 32.488 23.755H36.752L37.9 24.001C37.9 24.001 39.13 23.714 37.9 23.058C37.9 23.058 34.087 23.099 33.718 23.017C33.718 23.017 32.939 22.812 32.775 22.771C32.816 22.771 32.406 22.566 32.037 23.304Z" stroke="black" stroke-width="0.0281882"/>
<path d="M39.171 23.8779C39.171 23.8779 38.392 23.8779 38.433 24.9029C38.474 25.1079 38.556 25.3129 38.72 25.4769C38.884 25.6409 39.089 25.6819 39.335 25.6819C39.54 25.6409 39.745 25.5179 39.868 25.3539C39.991 25.1899 40.032 24.9439 39.991 24.7389C39.991 24.7389 39.54 23.7139 39.171 23.8779Z" fill="white"/>
<path d="M39.745 23.468C39.745 23.468 40.114 23.058 40.36 23.058C40.36 23.058 44.542 23.427 45.239 22.935C45.239 22.935 45.854 22.812 46.018 22.935C46.018 22.935 46.633 23.427 46.633 23.714C46.633 23.714 46.592 24.083 45.854 23.878L40.893 23.919C40.852 23.919 39.581 24.206 39.745 23.468Z" fill="white"/>
<path d="M39.745 23.468C39.745 23.468 40.114 23.058 40.36 23.058C40.36 23.058 44.542 23.427 45.239 22.935C45.239 22.935 45.854 22.812 46.018 22.935C46.018 22.935 46.633 23.427 46.633 23.714C46.633 23.714 46.592 24.083 45.854 23.878L40.893 23.919C40.852 23.919 39.581 24.206 39.745 23.468Z" stroke="black" stroke-width="0.0281882"/>
<path d="M40.278 24.78C40.278 24.78 40.278 24.452 40.852 24.452L46.674 24.411C46.674 24.411 47.207 24.698 47.207 23.714C47.207 23.714 47.412 19.204 47.453 14.243C47.453 12.767 47.535 11.209 47.494 9.77401C47.494 9.77401 47.371 9.159 47.207 9.036C47.207 9.036 47.207 8.38 47.904 8.626C47.904 8.626 48.519 8.667 48.355 9.61L48.396 11.045C48.396 11.045 48.273 11.66 49.38 11.496C49.38 11.496 50.487 11.66 50.528 12.07C50.528 12.07 50.856 12.89 49.544 12.808H48.56C48.437 12.89 48.355 13.013 48.273 13.136C48.232 13.259 48.191 13.423 48.232 13.546L48.109 19.573C48.109 19.573 48.027 20.598 49.011 20.557C49.011 20.557 50.036 20.516 50.241 20.844C50.241 20.844 50.938 21.869 49.421 21.787C49.421 21.787 48.478 21.746 48.273 21.91C48.273 21.91 48.109 22.115 47.986 24.083C47.986 24.083 48.068 25.231 47.207 25.108C47.207 25.108 41.426 25.19 40.893 25.067C40.893 25.067 40.319 25.231 40.237 24.78" fill="white"/>
<path d="M32.775 8.421L32.652 21.705C32.652 21.705 32.611 22.32 33.636 22.443C33.636 22.443 34.825 22.566 35.112 22.443C35.112 22.443 35.891 22.402 37.941 22.484C37.941 22.484 38.433 22.976 38.474 22.361C38.474 22.361 38.802 11.619 38.638 9.36401C38.638 9.36401 38.597 8.421 37.9 8.38C37.9 8.38 34.743 8.626 34.456 8.38L33.185 8.052C33.226 8.052 32.734 8.093 32.775 8.421Z" fill="white"/>
<path d="M39.335 9.11797C39.335 9.11797 39.212 15.391 39.253 15.596L39.171 20.844L39.007 22.689C39.007 22.689 39.253 23.058 39.458 22.812C39.458 22.812 40.77 22.484 41.631 22.607C41.631 22.607 44.296 22.853 44.829 22.443C44.829 22.443 45.239 22.648 45.362 21.992C45.362 21.992 45.526 10.389 45.444 10.184C45.444 10.184 45.608 8.50297 45.526 8.33897C45.526 8.33897 45.485 7.96997 44.788 8.29797C44.788 8.29797 44.87 8.62597 40.934 8.50297C40.934 8.46197 39.458 8.42097 39.335 9.11797Z" fill="white"/>
<path d="M45.977 8.9539L45.936 22.0329C45.936 22.0329 46.264 23.1809 46.797 23.0989C46.838 22.8939 46.879 22.6479 46.92 22.4429L47.084 9.9789C47.084 9.9379 46.674 7.9699 45.977 8.9539Z" fill="white"/>
<path d="M45.977 8.95407L45.936 22.0331C45.936 22.0331 46.264 23.1811 46.797 23.0991C46.879 22.8941 46.92 22.6481 46.92 22.4431L47.084 9.97907C47.084 9.93807 46.674 7.92907 45.977 8.95407Z" stroke="black" stroke-width="0.0281882"/>
<path d="M40.852 12.849C40.729 12.521 41.549 12.48 41.549 12.48L41.959 12.562C42.164 12.562 42.369 12.562 42.533 12.644C42.574 12.685 42.615 12.767 42.615 12.849C42.615 12.931 42.615 12.972 42.615 13.054C42.615 13.136 42.574 13.177 42.533 13.218C42.492 13.259 42.41 13.3 42.369 13.341L42.205 13.874C42.164 14.325 42.205 18.261 42.205 18.261C42.328 18.466 42.451 18.671 42.615 18.835C42.615 19.204 42.164 19.122 42.164 19.122L40.975 19.163C40.606 19.122 40.729 18.712 40.729 18.712C41.139 18.507 41.262 17.769 41.262 17.769V13.669L40.852 12.849Z" fill="black"/>
<path d="M35.276 13.423C35.317 14.325 35.317 15.596 35.317 15.596C35.399 15.678 35.522 15.76 35.645 15.76C35.768 15.801 35.891 15.801 36.014 15.76C36.137 15.719 36.26 15.678 36.342 15.596C36.424 15.514 36.506 15.432 36.547 15.309C37.572 14.325 36.547 13.423 36.383 13.177C36.219 12.931 35.399 13.136 35.399 13.136L35.276 13.423ZM35.235 16.703L35.153 17.974L35.522 18.589C35.768 18.917 35.358 19.163 35.358 19.163L34.046 19.04C33.8 18.917 34.046 18.507 34.046 18.507C34.169 18.425 34.251 18.302 34.292 18.179C34.374 18.056 34.415 17.892 34.415 17.769L34.374 15.35L34.415 13.628C34.415 13.423 34.087 13.054 34.087 13.054C33.8 13.013 33.882 12.644 33.882 12.644C33.964 12.439 34.661 12.562 34.661 12.562H36.424C38.105 13.095 37.818 14.284 37.818 14.284C37.941 15.473 36.67 15.965 36.67 15.965L36.588 16.621L37.777 18.507C37.818 18.548 37.859 18.589 37.9 18.671C37.941 18.712 37.941 18.794 37.941 18.876C37.777 19.327 37.121 18.876 37.121 18.876L35.604 16.539C35.481 16.416 35.235 16.703 35.235 16.703Z" fill="black"/>
<path d="M26.584 32.775C26.748 32.693 26.871 32.611 26.953 32.447C26.953 32.447 27.814 32.365 27.937 32.242L30.684 32.447C30.684 32.447 33.39 32.652 34.538 31.832C34.784 31.832 35.03 31.873 35.235 31.955C35.235 31.955 35.809 32.078 35.973 32.324L37.572 32.283C37.572 32.283 38.474 32.57 38.392 33.144V33.882C38.392 33.882 38.228 35.358 38.638 35.44H39.868C39.868 35.44 40.852 35.891 40.729 36.465C40.729 36.711 40.647 36.916 40.483 37.121C40.319 37.285 40.114 37.408 39.868 37.449C39.499 37.572 39.089 37.613 38.72 37.654C38.556 37.9 38.433 38.187 38.392 38.474L38.269 43.886C38.269 43.886 38.187 44.46 39.048 44.378C39.048 44.378 40.319 44.255 40.729 44.952C40.729 44.952 41.057 46.141 40.401 46.346L39.909 46.592L38.802 46.756C38.802 46.756 38.351 46.797 38.31 47.576V49.011C38.31 49.011 38.351 49.995 37.572 49.995L36.424 50.077C36.301 50.159 36.137 50.2 36.014 50.241C35.85 50.241 35.727 50.241 35.563 50.159C35.563 50.159 28.47 50.282 28.224 50.2L27.404 50.364C27.404 50.364 26.502 51.184 25.723 50.569L25.149 50.118C24.944 50.159 24.78 50.159 24.575 50.159C24.411 50.118 16.744 50.241 16.744 50.241C16.744 50.241 15.104 50.405 14.981 49.872C14.981 49.872 14.776 47.781 14.858 47.494C14.858 47.494 14.858 46.879 14.489 46.838C14.489 46.838 12.849 46.756 12.808 46.592C12.808 46.592 11.947 45.977 12.193 45.362C12.275 45.116 12.439 44.911 12.644 44.747C12.849 44.583 13.095 44.501 13.341 44.46C13.341 44.46 14.653 44.665 14.653 44.296C14.735 44.091 14.735 43.845 14.735 43.64C14.735 43.64 14.817 38.72 14.776 38.392C14.776 38.392 14.899 37.777 14.366 37.777C14.038 37.859 13.71 37.818 13.423 37.695C13.423 37.695 12.439 37.736 12.193 36.957C12.111 36.67 12.111 36.342 12.275 36.055C12.275 36.055 12.726 35.153 14.079 35.44C14.079 35.44 14.817 35.645 14.899 35.112L14.858 33.103C14.858 33.103 14.694 32.57 15.719 32.283C15.719 32.283 17.072 32.652 17.482 31.996C17.482 31.996 17.933 31.094 18.302 31.709C18.302 31.709 19.081 32.447 21.254 32.365C21.254 32.365 24.985 32.078 25.067 32.242C25.067 32.242 25.969 32.365 26.215 32.652L26.584 32.775Z" fill="black"/>
<path d="M26.584 32.734C26.748 32.652 26.871 32.57 26.953 32.406C26.953 32.406 27.814 32.324 27.937 32.201L30.684 32.406C30.684 32.406 33.39 32.611 34.538 31.791C34.784 31.791 35.03 31.832 35.235 31.914C35.235 31.914 35.809 32.037 35.973 32.283L37.572 32.242C37.572 32.242 38.474 32.529 38.392 33.103V33.841C38.392 33.841 38.228 35.317 38.638 35.399H39.827C39.827 35.399 40.811 35.85 40.688 36.424C40.688 36.67 40.606 36.875 40.442 37.08C40.278 37.244 40.073 37.367 39.827 37.408C39.458 37.531 39.048 37.572 38.679 37.613C38.515 37.859 38.392 38.146 38.351 38.433L38.228 43.845C38.228 43.845 38.146 44.419 39.007 44.337C39.007 44.337 40.278 44.214 40.688 44.911C40.688 44.911 41.016 46.1 40.36 46.305L39.868 46.551L38.761 46.715C38.761 46.715 38.31 46.756 38.269 47.535V48.97C38.269 48.97 38.31 49.954 37.531 49.954L36.383 50.036C36.26 50.118 36.096 50.159 35.973 50.2C35.809 50.2 35.686 50.2 35.522 50.118C35.522 50.118 28.429 50.241 28.183 50.159L27.363 50.323C27.363 50.323 26.461 51.143 25.682 50.528L25.108 50.077C24.903 50.118 24.739 50.118 24.534 50.118C24.37 50.077 16.703 50.2 16.703 50.2C16.703 50.2 15.063 50.364 14.94 49.831C14.94 49.831 14.735 47.699 14.817 47.453C14.817 47.453 14.817 46.838 14.448 46.797C14.448 46.797 12.808 46.715 12.767 46.551C12.767 46.551 11.906 45.936 12.152 45.321C12.234 45.075 12.398 44.87 12.603 44.706C12.808 44.542 13.054 44.46 13.3 44.419C13.3 44.419 14.612 44.624 14.612 44.255C14.694 44.05 14.694 43.804 14.694 43.599C14.694 43.599 14.776 38.679 14.735 38.351C14.735 38.351 14.858 37.736 14.325 37.736C13.997 37.818 13.669 37.777 13.382 37.654C13.382 37.654 12.398 37.695 12.193 36.916C12.111 36.629 12.111 36.301 12.275 36.014C12.275 36.014 12.726 35.112 14.079 35.399C14.079 35.399 14.817 35.604 14.899 35.071L14.858 33.062C14.858 33.062 14.694 32.529 15.719 32.242C15.719 32.242 17.031 32.611 17.482 31.955C17.482 31.955 17.933 31.053 18.302 31.668C18.302 31.668 19.081 32.406 21.254 32.324C21.254 32.324 24.985 32.037 25.067 32.201C25.067 32.201 25.969 32.324 26.215 32.611L26.584 32.734Z" stroke="black" stroke-width="0.0281882"/>
<path d="M27.65 49.0519C27.896 48.9289 28.183 48.8469 28.47 48.8879C28.798 48.9699 33.677 48.8469 33.677 48.8469C33.677 48.8469 35.809 49.0109 36.137 48.7239L36.629 48.5599C36.752 48.3959 36.834 48.1909 36.834 47.9859C36.834 47.6579 36.875 46.5509 36.875 46.5509L36.998 46.1409C36.998 46.1409 36.957 45.7309 36.998 34.6609C36.998 34.6609 37.162 33.7999 36.629 33.2669C36.629 33.2669 36.629 32.9389 36.793 32.9799C36.957 33.0209 36.875 33.0209 36.875 33.0209C36.875 33.0209 37.613 32.8159 37.736 33.1029C37.736 33.1029 38.064 34.0869 37.777 34.6609C37.777 34.6609 37.695 35.8909 38.31 35.8909C38.433 35.9729 38.556 36.0139 38.679 36.0549C38.802 36.0959 38.925 36.0549 39.089 36.0139C39.089 36.0139 40.155 36.1369 40.155 36.4649C40.155 36.5469 40.155 36.6699 40.114 36.7519C40.073 36.8339 40.032 36.9159 39.95 36.9569C39.868 36.9979 39.786 37.0389 39.704 37.0799C39.622 37.1209 39.499 37.1209 39.417 37.0799L38.433 37.1619C38.228 37.2029 38.064 37.3259 37.941 37.4899C37.818 37.6539 37.777 37.8589 37.818 38.0639C37.9 38.8429 37.777 44.5009 37.777 44.5009C37.777 44.5009 37.777 45.1569 38.802 45.1159C38.802 45.1159 40.073 45.0749 40.073 45.4439C40.073 45.4439 40.401 46.2639 39.499 46.3049C39.499 46.3049 37.736 46.2639 37.859 46.7559C37.818 47.2069 37.736 47.6579 37.654 48.1089C37.654 48.1089 37.818 49.0519 37.613 49.2159C37.613 49.2159 37.49 49.7489 36.383 49.6669C36.383 49.6669 29.208 49.6259 28.101 49.7079C28.142 49.7079 27.486 49.6259 27.65 49.0519Z" fill="white"/>
<path d="M26.379 48.2729C26.584 48.3139 26.748 48.3959 26.871 48.5599C26.994 48.7239 27.076 48.8879 27.076 49.0929C27.076 49.7489 27.117 50.1179 26.707 50.1999C26.584 50.2409 26.502 50.2409 26.379 50.2409C26.256 50.2409 26.174 50.2 26.092 50.159C26.01 50.118 25.928 50.036 25.846 49.954C25.764 49.872 25.723 49.7489 25.723 49.6669C25.559 49.0519 25.764 48.3959 26.379 48.2729Z" fill="white"/>
<path d="M27.199 47.945C27.199 47.945 27.937 47.453 28.224 47.535C28.224 47.535 31.996 47.781 33.185 47.576C34.374 47.371 33.636 47.535 33.636 47.535C33.636 47.535 34.62 47.535 34.907 47.166C34.989 47.166 35.071 47.166 35.194 47.207C35.276 47.248 35.358 47.289 35.399 47.371L36.014 48.027C36.014 48.027 36.055 48.437 35.358 48.396C35.358 48.396 28.552 48.396 28.347 48.437C28.347 48.437 27.076 48.642 27.199 47.945Z" fill="white"/>
<path d="M27.199 47.945C27.199 47.945 27.937 47.453 28.224 47.535C28.224 47.535 32.037 47.781 33.185 47.576C34.333 47.371 33.636 47.535 33.636 47.535C33.636 47.535 34.62 47.535 34.948 47.166C35.03 47.166 35.112 47.166 35.194 47.207C35.276 47.248 35.358 47.289 35.399 47.371L36.014 48.027C36.014 48.027 36.055 48.437 35.358 48.396C35.358 48.396 28.552 48.396 28.347 48.437C28.347 48.437 27.076 48.642 27.199 47.945Z" stroke="black" stroke-width="0.0281882"/>
<path d="M17.318 33.2671C17.318 33.2671 17.605 33.2671 17.564 33.7591L17.482 46.2641C17.523 46.5101 17.482 46.7971 17.359 47.0021C17.277 47.2481 17.113 47.4531 16.908 47.6171C16.908 47.6171 16.539 48.0681 16.539 47.3711L16.703 34.6201C16.703 34.6201 16.744 33.6771 17.318 33.2671Z" fill="white"/>
<path d="M17.318 33.2671C17.318 33.2671 17.605 33.2671 17.564 33.7591L17.482 46.2641C17.523 46.5101 17.482 46.7971 17.359 47.0431C17.277 47.2891 17.113 47.4941 16.908 47.6581C16.908 47.6581 16.539 48.1091 16.539 47.4121L16.703 34.6611C16.703 34.6201 16.744 33.6771 17.318 33.2671Z" stroke="black" stroke-width="0.0281882"/>
<path d="M16.662 33.349C16.662 33.349 16.17 34.251 16.211 34.456L16.17 37.244C16.17 37.244 16.129 39.007 16.17 39.212C16.211 39.417 16.129 44.624 16.129 44.624C16.129 44.624 16.088 45.608 16.129 45.936V48.15C16.129 48.15 16.047 49.134 16.785 48.888C16.785 48.888 24.124 48.724 24.575 48.847C24.575 48.847 25.231 48.97 24.985 49.298C24.985 49.298 24.985 49.585 24.534 49.503C22.361 49.708 20.147 49.749 17.974 49.708C17.974 49.708 15.883 49.831 15.76 49.585C15.76 49.585 15.432 49.544 15.432 48.355C15.432 47.904 15.432 47.453 15.35 47.043C15.35 47.043 15.432 46.469 14.407 46.346C14.407 46.346 12.931 46.592 12.89 45.731C12.89 45.731 13.095 45.116 14.53 45.198C14.53 45.198 15.555 45.362 15.35 44.542L15.473 38.433C15.473 38.433 15.596 37.367 14.899 37.326C14.612 37.326 14.325 37.326 14.038 37.367C14.038 37.367 12.849 37.367 12.931 36.67C12.931 36.67 13.341 35.932 14.571 36.096C14.571 36.096 15.473 36.26 15.514 35.235C15.514 35.235 15.473 33.103 15.965 33.021C15.924 33.021 16.949 33.062 16.662 33.349Z" fill="white"/>
<path d="M17.892 47.043C18.097 47.248 18.343 47.371 18.589 47.494C18.835 47.576 19.122 47.658 19.409 47.617L25.067 47.699C25.067 47.699 25.682 47.74 25.641 48.068C25.641 48.068 25.559 48.56 24.821 48.396L18.015 48.314L17.277 48.355C17.277 48.355 16.785 48.273 17.564 47.33L17.892 47.043Z" fill="white"/>
<path d="M17.892 47.043C18.097 47.248 18.343 47.371 18.589 47.494C18.835 47.576 19.122 47.658 19.409 47.617L25.067 47.699C25.067 47.699 25.682 47.74 25.641 48.068C25.641 48.068 25.559 48.56 24.821 48.396L17.974 48.314L17.236 48.355C17.236 48.355 16.744 48.273 17.523 47.33L17.892 47.043Z" stroke="black" stroke-width="0.0281882"/>
<path d="M35.399 46.5099C35.399 46.5099 35.891 47.4529 36.137 47.5759C36.137 47.5759 36.588 48.1089 36.465 47.1659L36.547 35.2349C36.465 34.8659 36.465 34.4969 36.547 34.1689L36.055 33.2669C36.055 33.2669 35.522 32.8569 35.522 33.5129L35.44 46.2229L35.399 46.5099Z" fill="white"/>
<path d="M35.399 46.5099C35.399 46.5099 35.891 47.4529 36.137 47.5759C36.137 47.5759 36.588 48.1089 36.465 47.1659L36.547 35.2349C36.465 34.8659 36.465 34.4969 36.547 34.1689L36.055 33.2669C36.055 33.2669 35.522 32.8569 35.522 33.5129L35.44 46.2229L35.399 46.5099Z" stroke="black" stroke-width="0.0281882"/>
<path d="M26.174 40.811C26.174 41.467 26.174 42.123 26.092 42.738C26.01 43.271 26.256 45.69 26.051 46.92C26.051 46.92 26.01 47.33 25.149 46.961C25.149 46.961 19.819 47.084 19.655 46.92C19.655 46.92 18.179 46.961 18.056 46.223C18.056 46.223 18.261 40.565 18.138 40.36C18.138 40.36 18.056 37.244 18.138 36.957C18.138 36.957 18.261 34.087 18.179 33.759C18.22 33.431 18.179 33.103 18.097 32.775C18.097 32.775 18.097 32.365 18.794 32.611C18.794 32.611 19.04 33.062 20.434 32.857C21.09 32.939 21.746 32.98 22.402 32.898C22.402 32.898 24.534 32.734 25.067 32.898C25.313 32.857 25.559 32.898 25.764 33.062C25.969 33.185 26.092 33.431 26.133 33.677L26.092 36.26L26.338 37.08L26.625 36.875L26.748 36.26L26.789 33.513C26.871 33.349 26.994 33.226 27.117 33.103C27.281 32.98 27.445 32.939 27.609 32.939C27.609 32.939 28.634 32.816 28.839 32.898C29.864 33.021 30.848 33.062 31.873 32.98C32.488 32.857 32.611 33.39 34.497 32.447C34.497 32.447 34.989 32.488 34.989 32.816C34.989 32.816 34.825 36.342 34.989 36.998C34.989 36.998 34.989 43.476 34.866 43.927L34.948 45.977C34.948 45.977 35.03 46.879 33.595 46.961C33.595 46.961 34.497 47.084 28.757 46.92C28.101 46.92 27.445 47.043 26.83 47.33C26.83 47.33 26.625 47.289 26.625 46.756C26.707 45.485 26.707 44.173 26.625 42.902L26.543 40.77L26.174 40.811Z" fill="white"/>
<path d="M22.402 37.9C22.402 37.9 22.525 40.975 22.402 41.385L22.361 42.041C22.443 42.287 22.607 42.492 22.771 42.656C22.771 42.656 22.976 43.23 22.484 43.189C22.074 43.148 21.623 43.148 21.213 43.148C21.213 43.148 20.639 43.148 21.213 42.41C21.377 42.082 21.418 41.713 21.377 41.385C21.377 41.385 21.377 37.9 21.459 37.695C21.459 37.695 21.541 37.244 21.254 37.121L20.762 37.162L20.147 37.736C20.147 37.736 20.024 38.351 19.737 37.695V37.367L20.106 36.383L20.352 36.342C20.557 36.506 20.803 36.588 21.049 36.67H23.017L23.714 36.342C23.714 36.342 24.001 36.383 23.919 36.752C23.919 36.752 24.042 37.695 23.509 37.818C23.386 37.777 23.304 37.695 23.181 37.572C23.099 37.49 23.017 37.367 22.976 37.244C22.976 37.203 22.443 36.916 22.402 37.9Z" fill="black"/>
<path d="M31.586 36.752C31.381 36.752 31.176 36.752 30.971 36.834C30.766 36.916 30.602 37.039 30.438 37.162C30.274 37.326 30.151 37.49 30.069 37.695C29.987 37.9 29.946 38.105 29.987 38.31C29.987 38.31 29.823 39.458 31.586 40.237C31.586 40.237 32.898 40.852 32.775 41.631C32.775 41.631 32.611 43.025 31.258 42.328C31.258 42.328 30.602 42 30.643 41.631C30.643 41.631 30.438 41.18 30.192 41.262C30.192 41.262 29.905 41.344 30.028 42.697C30.028 42.697 30.028 43.23 30.643 42.697L30.971 42.779C30.971 42.779 32.078 43.681 33.062 42.574C33.062 42.574 34.087 41.631 33.349 40.483C32.98 39.95 32.447 39.54 31.832 39.253C31.832 39.253 30.93 38.843 30.725 38.146C30.725 38.146 31.012 36.916 32.119 37.572C32.324 37.818 32.529 37.982 32.775 38.146C32.775 38.146 33.103 38.146 33.021 37.408L32.939 36.793C32.939 36.793 32.857 36.342 32.283 36.793C32.283 36.793 31.75 36.998 31.586 36.752Z" fill="black"/>
<path d="M25.846 38.6381C25.805 38.8431 25.518 39.9911 25.518 39.9911L25.764 40.4011C25.764 40.4011 26.42 40.4421 26.666 40.4421C26.912 40.4421 26.953 40.2371 26.953 40.0321C26.83 39.5401 26.666 39.0481 26.502 38.5971L26.297 38.3511L25.846 38.6381ZM26.543 35.8911C26.748 36.0551 26.83 36.2601 26.871 36.5061C27.486 38.2691 27.978 40.0731 28.388 41.8771C28.552 42.1641 28.757 42.4101 28.962 42.6151C29.659 42.8611 28.962 43.0661 28.962 43.0661C28.675 43.1891 27.732 43.0251 27.732 43.0251C27.24 42.9431 27.445 42.7791 27.445 42.7791C27.65 42.5741 27.486 41.7541 27.486 41.7541C27.404 41.4261 27.24 41.1391 27.076 40.8931C26.912 40.8111 26.625 41.1801 26.625 41.1801C26.625 41.1801 26.174 41.3441 26.133 41.1801C26.092 41.0161 25.805 40.8521 25.805 40.8521C25.313 40.8521 25.108 42.0821 25.108 42.0821C25.395 43.1071 25.108 42.9431 25.108 42.9431C24.862 43.2711 24.083 43.0251 24.083 43.0251C23.714 42.9431 23.96 42.6561 23.96 42.6561C24.083 42.6151 24.247 42.5331 24.329 42.4511C24.411 42.3691 24.493 42.2051 24.534 42.0821C24.739 41.7951 26.051 36.4241 26.051 36.4241C26.133 36.1781 26.215 35.6861 26.543 35.8911Z" fill="black"/>
<path d="M15.227 25.887C15.227 25.887 14.776 27.322 12.726 25.846L5.756 25.682C5.756 25.682 4.854 25.969 4.731 25.026C4.731 25.026 4.895 23.14 4.813 22.976C4.813 22.976 4.854 22.443 3.952 22.443C3.952 22.443 2.558 22.607 2.517 21.377C2.517 21.377 2.271 20.065 4.239 20.106C4.239 20.106 4.854 20.393 4.895 19.614C4.895 19.614 4.813 14.243 4.854 13.833C4.854 13.833 5.018 13.341 4.075 13.259C4.075 13.259 2.681 13.546 2.558 12.644C2.558 12.644 2.476 11.291 3.378 11.209C3.378 11.209 4.485 11.291 4.69 11.004C4.69 11.004 4.936 11.168 4.895 10.184L4.936 8.46201C4.936 8.46201 5.059 8.01101 5.756 8.05201C5.756 8.05201 7.068 8.13401 7.232 8.01101C7.355 7.84701 7.478 7.64201 7.601 7.47801C7.601 7.47801 8.257 7.43701 8.38 7.60101C8.38 7.60101 9.364 8.25701 13.177 8.01101C13.177 8.01101 13.751 8.01101 13.874 8.17501C13.874 8.17501 14.571 8.70802 14.981 8.13402C15.801 8.01102 16.662 8.01101 17.482 8.05201C17.482 8.05201 19.532 8.58501 20.926 7.43701L21.377 7.51902C21.377 7.51902 21.951 8.46201 22.361 8.17501C22.361 8.17501 23.591 8.05201 23.837 8.29801C23.837 8.29801 24.247 8.91301 24.042 10.553C24.042 10.553 23.796 11.25 24.985 11.25C24.985 11.25 26.379 11.004 26.215 12.275C26.215 12.275 26.584 13.71 24.288 13.505C24.124 13.71 24.042 13.956 24.042 14.202C24.042 14.202 24.001 18.917 23.96 19.45C23.96 19.45 23.919 20.188 24.903 20.147C24.903 20.147 26.215 20.065 26.256 21.254C26.256 21.254 26.42 22.812 24.493 22.525C24.493 22.525 23.919 22.607 23.837 22.976L23.755 25.026C23.755 25.026 23.796 26.051 22.648 25.805C22.484 25.805 16.17 25.928 15.596 25.764C15.637 25.764 15.309 25.723 15.227 25.887Z" fill="black"/>
<path d="M15.227 25.887C15.227 25.887 14.776 27.322 12.726 25.846L5.756 25.682C5.756 25.682 4.854 25.969 4.731 25.026C4.731 25.026 4.895 23.14 4.813 22.976C4.813 22.976 4.854 22.443 3.952 22.443C3.952 22.443 2.558 22.607 2.517 21.377C2.517 21.377 2.271 20.065 4.239 20.106C4.239 20.106 4.854 20.393 4.895 19.614C4.895 19.614 4.813 14.243 4.854 13.833C4.854 13.833 5.018 13.341 4.075 13.259C4.075 13.259 2.681 13.546 2.558 12.644C2.558 12.644 2.476 11.291 3.378 11.209C3.378 11.209 4.485 11.291 4.69 11.004C4.69 11.004 4.936 11.168 4.895 10.184L4.936 8.46201C4.936 8.46201 5.059 8.01101 5.756 8.05201C5.756 8.05201 7.068 8.13401 7.232 8.01101C7.355 7.84701 7.478 7.64201 7.601 7.47801C7.601 7.47801 8.257 7.43701 8.38 7.60101C8.38 7.60101 9.364 8.25701 13.177 8.01101C13.177 8.01101 13.751 8.01101 13.874 8.17501C13.874 8.17501 14.571 8.70802 14.981 8.13402C15.801 8.01102 16.662 8.01101 17.482 8.05201C17.482 8.05201 19.532 8.58501 20.926 7.43701L21.377 7.51902C21.377 7.51902 21.951 8.46201 22.361 8.17501C22.361 8.17501 23.591 8.05201 23.837 8.29801C23.837 8.29801 24.247 8.91301 24.042 10.553C24.042 10.553 23.796 11.25 24.985 11.25C24.985 11.25 26.379 11.004 26.215 12.275C26.215 12.275 26.584 13.71 24.288 13.505C24.124 13.71 24.042 13.956 24.042 14.202C24.042 14.202 24.001 18.917 23.96 19.45C23.96 19.45 23.919 20.188 24.903 20.147C24.903 20.147 26.215 20.065 26.297 21.254C26.297 21.254 26.461 22.812 24.534 22.525C24.534 22.525 23.96 22.607 23.878 22.976L23.796 25.026C23.796 25.026 23.837 26.051 22.689 25.805C22.525 25.805 16.211 25.928 15.637 25.764C15.637 25.764 15.309 25.723 15.227 25.887Z" stroke="black" stroke-width="0.0281882"/>
<path d="M7.355 8.83085C7.355 8.83085 7.437 9.65085 7.437 9.85585C7.437 10.0608 7.314 21.8279 7.314 21.8279C7.355 22.1149 7.314 22.3608 7.191 22.6068C7.068 22.8528 6.904 23.0578 6.658 23.1808C6.658 23.1808 6.453 23.2629 6.412 22.6889L6.494 10.2658C6.494 10.2658 6.576 8.74885 7.355 8.83085Z" fill="white"/>
<path d="M7.396 8.83085C7.396 8.83085 7.478 9.65085 7.478 9.85585C7.478 10.0608 7.355 21.8279 7.355 21.8279C7.396 22.1149 7.355 22.3608 7.232 22.6068C7.109 22.8528 6.945 23.0578 6.699 23.1808C6.699 23.1808 6.494 23.2629 6.453 22.6889L6.535 10.2658C6.494 10.2658 6.576 8.74885 7.396 8.83085Z" stroke="black" stroke-width="0.0281882"/>
<path d="M6.002 23.304C6.002 23.304 6.084 11.619 6.043 11.414C6.002 11.209 6.084 11.578 6.084 11.578C6.084 11.578 5.961 9.56901 6.494 8.70801C6.494 8.70801 6.33 8.01101 5.387 8.87201L5.346 10.553C5.346 10.553 5.346 11.496 4.485 11.455C4.485 11.455 3.501 11.414 3.009 11.865C3.009 11.865 2.763 12.767 3.706 12.603C3.706 12.603 5.223 12.603 5.305 13.218L5.223 19.532C5.223 19.532 5.551 20.557 4.403 20.557C4.403 20.557 3.009 20.475 3.009 21.336C3.009 21.336 3.296 22.074 4.526 21.828C4.526 21.828 5.387 21.992 5.346 22.812V24.37C5.346 24.37 5.264 24.985 6.084 25.026H12.562C12.562 25.026 12.89 25.067 12.89 24.657C12.89 24.657 12.849 24.329 12.357 24.329L6.945 24.247C6.945 24.288 6.084 24.575 6.002 23.304Z" fill="white"/>
<path d="M7.109 23.386C7.109 23.386 6.945 23.96 7.56 23.837H11.865L13.013 24.083C13.013 24.083 14.243 23.796 13.013 23.14C13.013 23.14 9.2 23.181 8.831 23.099C8.831 23.099 8.052 22.894 7.888 22.853C7.929 22.853 7.478 22.689 7.109 23.386Z" fill="white"/>
<path d="M7.109 23.386C7.109 23.386 6.945 23.96 7.56 23.837H11.865L13.054 24.083C13.054 24.083 14.284 23.796 13.054 23.14C13.054 23.14 9.241 23.181 8.872 23.099L7.929 22.853C7.929 22.853 7.478 22.689 7.109 23.386Z" stroke="black" stroke-width="0.0281882"/>
<path d="M14.243 24.001C14.243 24.001 13.423 24.001 13.505 25.026C13.546 25.231 13.628 25.436 13.792 25.6C13.956 25.764 14.161 25.805 14.407 25.805C14.612 25.764 14.817 25.641 14.94 25.477C15.063 25.313 15.104 25.067 15.063 24.862C15.063 24.821 14.612 23.796 14.243 24.001Z" fill="white"/>
<path d="M14.817 23.5501C14.817 23.5501 15.186 23.1401 15.432 23.1401C15.432 23.1401 19.614 23.5091 20.311 23.0171C20.311 23.0171 20.926 22.8941 21.09 23.0171C21.09 23.0171 21.705 23.5091 21.705 23.7961C21.705 23.7961 21.664 24.1651 20.926 23.9601L15.965 24.0011C15.965 24.0011 14.694 24.3291 14.817 23.5501Z" fill="white"/>
<path d="M14.817 23.5501C14.817 23.5501 15.186 23.1401 15.432 23.1401C15.432 23.1401 19.614 23.5091 20.311 23.0171C20.311 23.0171 20.926 22.8941 21.09 23.0171C21.09 23.0171 21.705 23.5091 21.705 23.7961C21.705 23.7961 21.664 24.1651 20.926 23.9601L15.965 24.0011C15.965 24.0011 14.694 24.2881 14.817 23.5501Z" stroke="black" stroke-width="0.0281882"/>
<path d="M15.514 24.78C15.514 24.78 15.514 24.452 16.088 24.452L21.91 24.411C21.91 24.411 22.443 24.698 22.443 23.714C22.443 23.714 22.648 19.204 22.689 14.243C22.689 12.767 22.771 11.209 22.689 9.77401C22.689 9.77401 22.566 9.159 22.402 9.036C22.402 9.036 22.402 8.38 23.099 8.626C23.099 8.626 23.714 8.667 23.55 9.61L23.591 11.045C23.591 11.045 23.468 11.66 24.575 11.496C24.575 11.496 25.682 11.66 25.723 12.07C25.723 12.07 26.051 12.89 24.739 12.808H23.796C23.673 12.89 23.591 13.013 23.509 13.136C23.468 13.259 23.427 13.423 23.468 13.546L23.345 19.532C23.345 19.532 23.263 20.557 24.247 20.516C24.247 20.516 25.272 20.475 25.477 20.803C25.477 20.803 26.174 21.828 24.657 21.746C24.657 21.746 23.714 21.705 23.509 21.869C23.509 21.869 23.345 22.074 23.222 24.042C23.222 24.042 23.304 25.19 22.443 25.067C22.443 25.067 16.662 25.149 16.129 25.026C16.129 25.067 15.555 25.272 15.514 24.78Z" fill="white"/>
<path d="M8.011 8.421L7.888 21.705C7.888 21.705 7.847 22.32 8.872 22.443C8.872 22.443 10.102 22.566 10.389 22.443C10.389 22.443 11.168 22.402 13.218 22.484C13.218 22.484 13.71 22.976 13.751 22.361C13.751 22.361 14.079 11.578 13.915 9.36401C13.915 9.36401 13.874 8.421 13.177 8.38C13.177 8.38 10.02 8.626 9.733 8.38L8.503 8.052C8.462 8.052 7.97 8.093 8.011 8.421Z" fill="white"/>
<path d="M21.213 8.95393L21.172 22.0329C21.172 22.0329 21.5 23.1809 22.033 23.0579C22.115 22.8529 22.156 22.6069 22.156 22.4019L22.32 9.93792C22.32 9.93792 21.91 7.92893 21.213 8.95393Z" fill="white"/>
<path d="M21.213 8.95393L21.172 22.0329C21.172 22.0329 21.5 23.1809 22.033 23.0579C22.115 22.8529 22.156 22.6069 22.156 22.4019L22.32 9.93792C22.32 9.93792 21.91 7.92893 21.213 8.95393Z" stroke="black" stroke-width="0.0281882"/>
<path d="M21.213 8.95393L21.172 22.0329C21.172 22.0329 21.5 23.1809 22.033 23.0579C22.115 22.8529 22.156 22.6069 22.156 22.4019L22.32 9.93792C22.32 9.93792 21.91 7.92893 21.213 8.95393Z" stroke="black" stroke-width="0.0281882"/>
<path d="M14.571 9.03594C14.571 9.03594 14.448 15.2679 14.489 15.5139L14.407 20.7619L14.243 22.6069C14.243 22.6069 14.489 22.9759 14.694 22.7299C14.694 22.7299 16.006 22.4019 16.867 22.5249C16.867 22.5249 19.532 22.7709 20.065 22.3609C20.065 22.3609 20.475 22.5659 20.598 21.9099C20.598 21.9099 20.762 10.3069 20.68 10.1019C20.68 10.1019 20.844 8.46194 20.762 8.25694C20.762 8.25694 20.721 7.88794 20.024 8.21594C20.024 8.21594 20.106 8.54394 16.129 8.42094C16.17 8.42094 14.653 8.37994 14.571 9.03594Z" fill="white"/>
<path d="M13.3 12.89L12.931 13.669C12.931 13.669 12.029 17.687 11.537 18.507C11.537 18.507 11.455 19.327 10.758 18.671C10.758 18.671 9.118 13.587 9.036 13.423L8.503 13.054C8.503 13.054 8.175 12.603 8.749 12.562L10.266 12.603C10.266 12.603 10.758 13.013 10.102 13.464C10.102 13.464 10.184 14.12 11.045 16.662C11.045 16.662 11.291 17.605 11.578 16.908L12.439 13.956L12.193 13.095C12.193 13.095 11.947 12.685 12.316 12.644C12.275 12.603 13.177 12.521 13.3 12.89Z" fill="black"/>
<path d="M15.719 13.5461L15.678 17.9331L15.555 18.2611C15.555 18.2611 15.145 18.7941 15.432 18.8351C15.432 18.8351 15.063 19.0811 18.097 19.1221C18.097 19.1221 19.286 19.3271 18.958 17.8511C18.958 17.8511 18.835 17.3181 18.425 18.0971C18.425 18.0971 18.302 18.7531 16.826 18.5481C16.662 18.3841 16.539 18.1791 16.498 17.9331V16.0881C16.498 16.0881 16.457 15.6371 17.154 15.6781C17.154 15.6781 17.933 16.1701 18.056 15.9651C18.056 15.9651 18.343 15.3091 18.056 14.8991C18.056 14.8991 17.687 14.8581 17.646 15.0221C17.646 15.0221 17.4 15.5141 16.703 15.2271C16.539 14.8581 16.457 14.4481 16.58 14.0381C16.58 14.0381 16.498 13.0131 17.195 13.0951C17.195 13.0951 18.015 13.2591 18.097 13.5051C18.097 13.5051 18.302 13.9971 18.507 13.4231L18.302 12.7261C18.302 12.7261 18.179 12.4391 17.974 12.5211C17.974 12.5211 16.58 12.7261 16.375 12.5621L15.268 12.6851C15.268 12.7671 15.227 12.8081 15.227 12.8901C15.227 12.9721 15.268 13.0131 15.268 13.0541C15.309 13.0951 15.35 13.1771 15.391 13.2181C15.432 13.2591 15.514 13.3001 15.555 13.3001C15.596 13.3411 15.637 13.3821 15.637 13.4231C15.719 13.4641 15.719 13.5051 15.719 13.5461Z" fill="black"/>
</svg>
