<svg width="247" height="59" viewBox="0 0 247 59" fill="none" xmlns="http://www.w3.org/2000/svg">
<path d="M6.45205 14.712C6.45205 17.7251 6.29383 20.9396 6.51358 23.8475C6.80366 27.8153 6.88277 31.021 8.14857 33.8414C10.7944 39.7098 17.4135 43.3885 23.7777 45.6308C24.7885 45.9812 25.8082 46.279 26.9509 46.5855C27.1971 46.6556 27.5663 46.9008 27.7948 46.9271C28.4013 46.9797 30.9329 45.9636 31.5922 45.7447C38.0442 43.5374 45.2347 39.5171 47.7839 33.4998C48.8651 30.9247 49.0409 28.1481 49.3046 24.5833C49.498 22.0081 49.3661 19.1352 49.3661 16.4638C49.3661 15.3864 49.3661 10.0085 49.3661 0.329956H6.51358C6.46963 6.74145 6.45205 11.5413 6.45205 14.712ZM51.5197 41.9608C49.4628 43.0907 47.4147 44.2644 45.1204 45.1228C45.1204 46.2001 44.971 46.1826 45.7445 45.8498C48.3025 44.7637 50.4649 43.3973 52.8207 42.1886C52.6712 42.5652 51.9241 45.3505 52.0295 45.7447C52.1174 46.1213 54.0689 48.1096 54.4644 48.3898C53.2953 48.6964 52.4691 49.2657 51.3439 49.6336C51.3351 49.7037 51.2824 49.8789 51.2912 50.0278C51.2999 50.2292 51.3615 50.527 51.634 50.5358C52.4866 50.5533 54.8424 48.9417 55.8181 48.6176C55.3611 48.311 53.0228 45.9111 52.9349 45.5169C52.8383 45.1315 53.5415 42.5477 53.6645 42.0747C53.8052 41.5404 54.0601 40.9536 54.1216 40.4981C54.1304 40.428 54.1568 40.3142 54.0601 40.3229C53.5239 40.4105 52.0911 41.6455 51.5197 41.9608ZM2.32063 42.5214C2.42611 43.0207 3.02385 45.4381 2.94474 45.7447C2.83046 46.1301 0.439513 48.6001 0 48.8979C0.246127 48.9679 0.386771 48.9679 0.624108 49.073C1.85474 49.5898 2.9799 50.3256 4.35997 50.7635C4.52698 50.0803 4.59731 49.9402 3.96441 49.6862C3.14691 49.3621 2.36458 48.8103 1.46797 48.6176C2.40853 47.8556 3.03264 46.7957 3.90288 45.9636C3.62159 45.0089 3.52489 43.8265 3.22603 42.863C3.21724 42.8455 3.07659 42.4689 3.05901 42.4689C3.05901 42.4689 3.1557 42.39 3.62159 42.6966C5.10714 43.6601 6.67181 44.4834 8.37712 45.2367C9.09792 45.552 9.84509 45.8498 10.5835 46.1914C10.6011 45.9724 10.645 45.587 10.645 45.2892C8.6672 44.3783 6.77729 43.5462 4.92254 42.5214C4.04352 42.0397 3.19965 41.4703 2.32063 40.9448C2.17119 40.8572 1.9866 40.5857 1.81079 40.5507C1.67015 40.5156 2.22394 42.0659 2.32063 42.5214ZM44.4963 47.6016C41.3406 48.7402 37.8157 49.9139 33.9656 50.308C23.0656 51.4292 12.5349 49.3971 5.7752 45.2892C5.7752 47.6366 5.09835 52.0423 4.29844 53.7503C5.25658 53.9605 5.96859 54.3984 6.79487 54.7137C8.35075 55.3006 9.93299 55.9049 11.5504 56.4042C18.3101 58.4713 28.1376 59.3647 36.4005 58.0421C39.8726 57.4816 43.2393 56.702 46.2543 55.6159C48.0036 54.9765 49.6298 53.9605 51.5197 53.5839C51.1505 52.8394 51.0714 51.9284 50.8956 50.9912C50.5528 49.1519 50.1045 47.2074 50.1045 45.0615C48.5047 46.1826 46.4653 46.8921 44.4963 47.6016Z" fill="white"/>
<path d="M48.1179 1.34597C38.6332 1.2321 28.6387 1.45983 18.9694 1.45983C18.187 1.45983 11.9811 1.45983 11.2076 1.45983C10.0297 1.45983 8.66719 1.54742 7.58599 1.40728C7.88486 3.43058 7.70026 6.00569 7.70026 8.23044C7.70026 9.37785 7.70026 18.5396 7.70026 19.6783C7.70026 26.2474 7.77938 31.8706 10.5307 35.5931C12.5173 38.2646 15.1544 40.1915 18.1695 41.847C20.5516 43.1696 23.092 44.1243 25.9313 45.0702C26.4235 45.2366 27.3817 45.7184 27.8563 45.7447C28.164 45.7534 28.7266 45.3855 29.043 45.2892C31.0736 44.7111 32.8316 44.0454 34.5897 43.2659C39.1079 41.2426 43.5206 38.6325 45.9115 34.5158C46.2016 34.0253 46.4126 33.526 46.6499 32.9918C46.7906 32.6677 46.9839 32.3173 47.0982 31.9757C47.1685 31.783 47.151 31.6692 47.2125 31.4677C47.2916 31.2312 47.3707 30.986 47.441 30.6794C47.5026 30.4429 47.5553 30.1889 47.608 29.8911C47.6696 29.6021 47.7135 29.2955 47.7839 28.9364C47.8542 28.5335 47.9069 28.078 47.9509 27.5788C47.9772 27.2284 48.03 26.843 48.0651 26.3963C48.2146 24.3905 48.1179 22.122 48.1179 20.0199C48.1179 18.7936 48.1179 8.94866 48.1179 7.72242C48.1179 5.7254 48.03 3.43058 48.2322 1.62625C48.1267 1.5737 48.4871 1.35473 48.1179 1.34597Z" fill="#00356B"/>
<path d="M36.629 9.24619C32.4185 9.61406 28.542 7.72215 27.8563 12.1717C27.5047 7.75718 23.0305 9.58779 19.0749 9.29874C17.9146 9.21115 16.9301 8.79949 16.1301 8.33527C15.7434 9.03598 15.172 9.6491 14.7237 10.3148C14.1875 10.2535 13.581 10.271 13.0799 10.2009C13.3788 12.2154 13.1327 14.6679 13.1327 16.8051C13.1327 17.8474 13.1327 23.0502 13.1327 32.4309C17.9585 32.4309 20.6395 32.4309 21.1757 32.4309C22.547 32.4309 24.4018 32.6061 25.4214 32.2032C24.771 33.9462 25.3863 34.6819 27.5135 34.6819C29.799 34.6907 31.2142 34.3403 30.344 32.2032C31.5307 32.501 33.2887 32.4309 34.8182 32.4309C35.3456 32.4309 37.9651 32.4309 42.6855 32.4309C42.6855 19.0561 42.6855 11.6286 42.6855 10.1484C42.1405 10.1484 41.5604 10.1308 41.1033 10.2009C40.6374 9.55275 40.1363 8.94839 39.688 8.28271C38.7826 8.69438 37.8421 9.13233 36.629 9.24619ZM44.1007 9.97318C44.2238 10.9629 44.3557 12.2242 44.2678 13.4154C44.1974 14.3351 44.1711 14.8694 43.1426 14.7117C43.1426 14.8431 43.169 14.9745 43.1426 15.1059C43.7491 15.2635 44.4875 15.3336 45.349 15.3336C45.3138 15.5088 45.349 15.6051 45.2874 15.7278C45.0061 16.3671 43.8898 16.1482 43.1426 16.0693C43.1514 16.2182 43.1953 16.446 43.1953 16.516C43.7491 16.5949 44.593 16.8051 45.0677 16.5774C46.3247 15.9555 45.9379 11.6899 46.3071 10.0345C45.472 10.56 45.2962 10.8315 44.4963 10.1484C44.3996 10.0608 44.3029 9.82427 44.1535 9.80676C44.0656 9.798 44.0919 9.91186 44.1007 9.97318ZM11.5504 10.3148C10.6099 11.0505 10.6978 11.0418 9.56381 10.4812C9.80115 12.1804 9.52865 16.481 10.979 16.8051C11.5504 16.9277 12.1394 16.7 12.6228 16.6299C12.6228 16.5686 12.6668 16.3234 12.6844 16.1832C11.5856 16.2971 11.0845 16.3847 10.4692 15.7891C10.4956 15.7715 10.4692 15.5351 10.4692 15.5088C11.2691 15.4387 12.0427 15.3862 12.6844 15.2197C12.6844 15.1146 12.658 14.9832 12.6844 14.8869C12.4206 14.8869 12.113 14.8869 11.946 14.8256C11.2867 14.5891 11.6032 11.1819 11.6032 10.2622C11.6032 10.2622 11.5504 10.306 11.5504 10.3148ZM10.9263 22.8925C10.4604 23.2516 9.96816 22.7086 9.62534 22.4458C9.71325 23.5407 9.82752 27.3858 10.2495 28.0252C10.5571 28.5157 11.2428 28.577 11.9987 28.4807C13.0008 28.3493 12.9744 27.85 11.8317 27.9726C11.0142 28.0515 10.6978 27.9026 10.4692 27.2369C10.478 27.2194 10.522 27.088 10.5307 27.0705C11.3219 27.0705 12.069 27.053 12.6844 26.8953C12.4822 26.0107 12.1394 26.8953 11.779 26.3873C11.3394 25.7742 11.5328 22.9801 11.6647 22.1042C11.4098 22.3407 11.19 22.6823 10.9263 22.8925ZM43.9074 26.8603C43.547 27.3595 43.2041 26.4836 43.002 27.3683C43.6085 27.5172 44.3644 27.5347 45.1556 27.5347C45.1644 27.5522 45.2083 27.6836 45.2083 27.7011C44.9886 28.3668 44.6633 28.5245 43.8546 28.4369C42.7119 28.323 42.6855 28.8135 43.6788 28.9449C44.4436 29.0412 45.1204 28.9799 45.4369 28.4894C45.85 27.85 45.9731 24.0049 46.061 22.91C45.7182 23.1815 45.2171 23.7158 44.76 23.3567C44.4963 23.1553 44.2678 22.8049 44.0216 22.5684C44.1535 23.4443 44.3469 26.2384 43.9074 26.8603Z" fill="#222222"/>
<path d="M35.6093 9.92099C33.6931 9.82464 30.9241 9.39546 29.5528 10.2538C28.9199 10.648 28.4365 11.4625 28.2519 12.2859C28.164 12.645 28.2255 12.9953 28.1904 13.4158C27.786 18.8725 28.1376 24.7147 28.1376 30.2854C29.755 27.0621 34.3523 29.0066 37.8772 27.9117C38.2992 27.7803 38.9408 27.6051 39.1782 27.2898C39.477 26.8869 39.2925 24.4257 39.2925 23.6812C39.2925 22.2272 39.2925 10.5867 39.2925 9.13269C39.2749 9.13269 39.1166 9.14145 39.1166 9.13269C38.2552 9.63195 37.0597 9.99106 35.6093 9.92099ZM16.5345 23.6812C16.5345 24.4082 16.3147 26.8869 16.5872 27.3511C17.141 28.2883 20.5868 28.4285 22.2481 28.3058C24.9555 28.1044 26.7927 28.5073 27.6278 30.1715C27.6278 28.9102 27.6278 18.8463 27.6278 17.5938C27.6278 15.8683 27.8563 13.7661 27.5135 12.2333C27.3553 11.5501 26.9597 10.8757 26.4938 10.4816C24.7885 9.05386 21.3515 10.2013 18.6266 9.92099C17.8091 9.8334 17.1674 9.50056 16.5345 9.24656C16.5345 9.24656 16.5345 22.236 16.5345 23.6812ZM44.5578 14.7734C44.8127 14.826 45.0413 14.8785 45.4017 14.826C45.683 13.7223 45.5863 12.1545 45.683 10.937C45.0764 11.3662 45.138 11.4625 44.6106 10.8232C44.6633 12.0932 44.6897 13.5647 44.5578 14.7734ZM10.0736 11.1647C10.2406 12.391 10.1967 13.8187 10.3637 15.0537C10.6538 15.0537 11.0054 15.0099 11.2076 14.9924C11.2076 14.7559 11.1636 14.4143 11.1548 14.2654C11.0757 13.2143 11.19 11.9793 11.1548 11.1034C10.5571 11.6465 10.7769 11.7078 10.0736 11.1647ZM43.125 16.061C43.8722 16.1398 44.9973 16.3588 45.2786 15.7194C45.3314 15.5967 45.305 15.5004 45.3314 15.3252C44.4787 15.3252 43.7315 15.2551 43.125 15.0975C43.125 15.0975 43.125 15.9646 43.125 16.061ZM10.478 15.5091C10.478 15.5354 10.4956 15.7807 10.478 15.7894C11.0845 16.385 11.5943 16.3062 12.6843 16.1836C12.6843 16.1223 12.6843 15.8069 12.6843 15.2289C11.7438 15.369 11.0054 15.4654 10.478 15.5091ZM10.0736 23.2345C10.1967 24.3118 10.267 25.4943 10.4165 26.5628C10.645 26.5891 11.0406 26.5804 11.2691 26.5628C11.2164 25.4417 11.1988 24.1804 11.1548 23.1206C10.601 23.8213 10.7769 23.7775 10.0736 23.2345ZM44.4172 27.0271C44.6457 27.0446 45.0325 27.0533 45.2698 27.0271C45.4105 25.9585 45.4896 24.776 45.6039 23.6987C44.9094 24.2417 45.0852 24.2855 44.5314 23.5848C44.4875 24.6446 44.4611 25.9147 44.4172 27.0271ZM10.5395 27.0796C10.5307 27.0971 10.4868 27.2373 10.478 27.2548C10.6977 27.9117 11.023 28.0694 11.8405 27.9818C12.1833 27.9467 12.4206 27.9643 12.5701 28.0168C12.5789 27.9467 12.614 27.5789 12.6843 26.9132C11.7789 27.0271 11.0669 27.0796 10.5395 27.0796ZM43.0371 28.5073C43.1602 28.4372 43.4327 28.4022 43.8458 28.446C44.6545 28.5248 44.9797 28.3672 45.1995 27.7102C45.1995 27.6927 45.1468 27.5526 45.1468 27.5438C44.3469 27.5438 43.5997 27.5175 42.9932 27.3686C42.9932 27.3686 43.0371 28.3934 43.0371 28.5073ZM26.151 33.3334C26.529 33.929 28.709 33.9553 29.3858 33.5524C29.7374 33.3422 29.8078 32.6327 29.9484 32.2035C29.9396 32.2035 29.632 32.2211 29.7199 32.2561C28.6914 33.0619 26.8806 32.8517 25.8697 32.2035C25.9752 32.5451 25.9664 33.0356 26.151 33.3334ZM6.45204 46.5856C6.68059 48.1096 5.951 52.0774 5.43237 53.1898C6.40809 53.4 7.16405 53.943 8.03429 54.2584C9.54622 54.8014 11.1197 55.3883 12.6843 55.835C18.9694 57.6305 27.9091 58.3575 35.4951 57.2451C38.9496 56.7371 42.2724 56.0014 45.2347 54.9328C46.3159 54.5387 47.4146 54.1095 48.5134 53.6978C49.1287 53.4613 49.5419 53.1022 50.333 53.0146C49.7529 51.7709 49.3133 48.1184 49.2518 46.4717C38.598 53.0584 17.1849 53.1022 6.45204 46.5856Z" fill="white"/>
<path d="M39.9078 14.7122C39.9078 15.6581 39.9078 23.2433 39.9078 24.1893C39.9078 25.3892 39.6793 26.852 39.9078 28.0256C40.0221 28.595 40.5846 29.1643 40.8747 29.611C41.1209 29.9876 41.3934 30.2854 41.6658 30.6183C41.3934 28.6125 41.5516 26.16 41.5516 23.9703C41.5516 22.7178 41.5516 12.6976 41.5516 11.4451C40.7692 11.0772 40.233 10.2802 39.8023 9.57947C40.0221 11.086 39.9078 13.0217 39.9078 14.7122ZM15.9631 9.64078C15.8225 9.71961 15.7785 10.105 15.6818 10.2627C15.3478 10.7882 14.8643 11.2261 14.2666 11.4977C14.2666 12.7677 14.2666 22.9192 14.2666 24.1893C14.2666 26.1337 14.4424 28.3322 14.2139 30.1716C14.1875 30.3029 14.0908 30.811 14.2666 30.7321C14.4952 30.6358 15.8928 28.3935 15.9631 28.0256C16.2005 26.7906 15.9631 25.2754 15.9631 24.0228C15.9631 23.0418 15.9631 15.1851 15.9631 14.2041C15.9631 12.7765 15.8225 11.1298 16.0247 9.8072C16.0774 9.84223 16.1126 9.67581 16.0598 9.63202C16.0335 9.6145 16.0071 9.6145 15.9631 9.64078ZM36.629 28.9278C34.1414 29.1818 30.9681 28.4461 29.3771 29.5497C28.6299 30.0752 28.1992 31.0474 28.1376 32.0898C28.6387 31.9584 29.087 31.8708 29.4913 31.6343C29.6496 31.5467 29.8781 31.2226 30.0627 31.1876C30.6429 31.0737 31.5746 31.4153 32.3833 31.354C33.8953 31.2401 35.6445 31.4153 37.2531 31.3015C38.3607 31.2139 40.1979 31.0562 41.2088 31.354C40.5319 30.2679 39.7408 29.2431 39.1167 28.087C38.4047 28.4373 37.6311 28.8227 36.629 28.9278ZM14.4952 31.6343C15.216 31.3015 16.3851 31.354 17.4926 31.354C19.9012 31.354 22.7756 31.6693 25.1314 31.354C25.2456 31.3365 25.6236 31.1175 25.7027 31.1263C25.817 31.1438 26.0983 31.5117 26.2126 31.5817C26.6081 31.8182 27.1268 31.9759 27.6278 32.0898C27.5575 30.8635 27.0828 29.9789 26.151 29.4358C24.5248 28.4811 21.3516 29.2519 19.0221 28.9891C18.0816 28.8752 17.3432 28.4986 16.5872 28.1921C16.0422 29.5322 15.2072 30.4956 14.4952 31.6343Z" fill="#FABD0A"/>
<path d="M17.9409 13.0829C17.1498 13.696 17.3256 14.7121 18.1695 15.1062C17.9409 15.4303 17.5366 15.8244 17.4926 16.2974C17.4223 17.0594 17.7475 17.5324 17.4399 18.2069C17.4135 18.1893 17.4047 18.3295 17.5454 18.382C17.7387 18.1017 18.1079 17.7251 18.1695 17.366C18.2837 16.7792 18.02 16.2711 18.1695 15.7894C18.2925 15.4128 18.6353 15.0274 18.8551 14.7121C19.6374 15.0799 21.0263 15.404 20.6044 16.6303C20.5428 16.823 20.4813 17.0594 20.3231 17.1383C19.9363 17.3222 19.1364 17.2171 18.6793 17.2521C18.5474 17.6113 18.4595 17.8915 18.3453 18.2682C18.4332 18.2594 18.7408 18.2069 18.7408 18.2069C20.3407 18.2069 20.4022 18.4696 20.8329 17.1996C21.0175 16.6478 21.4043 15.8595 21.29 15.1675C21.1054 14.1252 19.488 14.642 19.5847 13.0216C19.1188 13.442 18.8375 14.5982 18.1695 13.9763C17.9145 13.7398 17.9409 13.3282 18.0024 13.0216C18.0024 13.0216 17.9497 13.0742 17.9409 13.0829ZM22.4152 15.1062C22.1515 15.7806 22.2921 16.3237 22.3624 17.1383C21.3515 17.401 21.4922 17.2521 21.2285 18.2682C23.5491 18.2682 23.0744 17.7952 22.6437 16.1836C22.3712 15.15 22.8547 14.7559 23.9447 15.1062C24.4633 15.2726 24.226 17.5061 24.226 18.2069C24.6655 18.0142 24.7885 17.7426 25.0259 17.366C24.4457 16.7967 24.8589 14.2916 24.3402 14.0376C23.1711 13.4595 22.2218 14.7559 21.8526 13.0829C21.668 13.9238 21.5273 14.8259 22.4152 15.1062ZM37.0773 13.8099C36.8839 14.7296 38.0794 14.4843 37.4201 15.4478C36.4005 15.0361 35.3017 14.5456 35.3808 13.188C35.1786 13.3632 35.0116 13.4683 34.9325 13.7574C34.6248 14.7909 35.2753 15.4128 35.8379 15.7894C35.6797 15.8945 35.5126 15.9996 35.3808 16.1222C34.9589 16.5252 35.0643 17.0857 35.1522 17.7602C35.0819 17.7777 34.8534 17.8127 34.7567 17.874C34.6952 17.9178 34.7567 18.1193 34.7039 18.1543C35.372 18.2419 36.3565 18.3645 36.1719 17.4186C36.128 17.1996 35.8203 16.9631 35.7764 16.7441C35.706 16.3763 35.8906 16.166 36.0049 15.9558C36.9279 16.385 38.2464 16.8667 37.6487 18.1543C37.9563 18.1193 37.8421 18.2419 38.0442 17.9879C38.6244 17.2434 38.6947 16.3938 37.8772 15.842C37.763 15.7719 37.5608 15.5967 37.5871 15.6142C38.0794 15.3164 38.6596 14.607 38.1585 13.9851C38.0706 13.8712 37.7893 13.7223 37.7629 13.5822C37.675 13.2406 37.9212 13.2931 37.6487 13.0829C37.4905 13.2844 37.1388 13.5384 37.0773 13.8099ZM26.1598 15.1062C26.028 16.0522 26.1159 17.2609 25.984 18.1543C26.5466 18.093 26.5905 17.7251 26.8894 17.2521C26.7839 17.1908 26.7224 17.1908 26.6609 17.0857C26.5114 16.7967 26.3971 15.5704 26.5554 15.1062C26.6257 14.8785 27.03 14.8435 26.8894 14.3179C26.7488 13.8099 25.6763 14.1865 25.4742 13.6435C25.4478 13.5734 25.3072 13.1442 25.3072 13.1355C24.9468 14.0989 24.8413 15.185 26.1598 15.1062ZM33.5173 15.1062C33.3766 15.7719 33.0426 19.4068 33.9656 17.7076C34.0271 17.5937 34.0271 17.5324 34.0798 17.4186C34.0798 17.4273 34.0359 17.2171 34.0271 17.1996C33.7458 16.639 33.9128 15.8069 33.8513 15.1062C34.2381 14.9661 34.5985 14.6946 34.2468 14.2041C33.8161 13.5997 32.9986 14.4318 32.6646 13.188C32.3394 14.0727 32.1899 15.3077 33.5173 15.1062ZM29.1573 14.4843C29.4562 15.8244 31.0384 14.6683 31.4164 15.3865C31.7328 15.9909 31.5307 17.3485 31.5307 18.1543C31.9526 18.0492 31.9878 17.8565 32.2163 17.4186C32.3657 17.4186 32.2163 17.2259 32.2163 17.2521C31.8295 16.7003 32.0669 14.5106 31.7065 14.2041C30.8011 13.4596 29.8605 14.8347 29.21 13.3632C29.0079 13.6873 29.0342 13.9588 29.1573 14.4843ZM36.1192 21.8243C36.2247 21.9206 36.5147 22.1483 36.5675 22.271C36.7345 22.6213 36.5587 23.4184 36.9103 22.6651C37.6926 20.9922 36.5587 21.4564 36.4005 20.6331C36.3477 20.3528 36.5851 20.1513 36.3477 20.0199C35.9961 20.5717 35.5039 21.2111 36.1192 21.8243ZM24.5688 23.0593C24.7622 22.9191 24.9028 22.8753 25.0259 22.6651C25.7203 21.4126 24.3314 21.3338 24.4018 20.1864C23.0305 21.8681 24.7885 21.6141 24.5688 23.0593ZM32.3218 22.271C31.8119 23.2082 31.8559 24.1454 31.7065 25.4855C32.7349 25.4855 34.0271 25.4154 35.1522 25.5468C35.1962 24.5395 35.5214 23.6987 35.3808 22.6126C35.1171 20.5104 33.8777 21.7192 32.3218 21.1411C31.9965 21.0185 32.1636 20.5192 31.9877 20.3528C31.6449 21.0798 31.39 21.9294 32.3218 22.271ZM20.3758 22.3323C19.7781 23.0943 19.8572 24.2242 19.7605 25.5468C20.8065 25.4592 22.0987 25.4592 23.1535 25.5468C23.1975 24.5132 23.5579 23.6111 23.3821 22.4461C23.0744 20.3966 20.2264 22.1045 20.0418 20.4666C19.6462 21.1849 19.5056 21.9732 20.3758 22.3323ZM7.0322 52.4277C7.2168 52.4628 7.34865 52.454 7.53325 52.5066C7.96397 52.6292 8.49139 52.9883 8.88695 53.0759C8.92211 53.0759 9.08912 53.0584 9.01001 53.0321C9.09791 52.9095 9.40557 52.4891 9.48469 52.3752C9.60775 52.1912 7.72663 52.4453 7.85849 52.0073C8.13099 51.0701 8.37711 49.9139 8.60566 49.0118C8.36832 48.8979 8.15736 48.784 7.92881 48.6702C7.72663 49.9577 7.35744 51.2278 7.0322 52.4277ZM45.8764 49.5724C45.2259 51.1227 47.0543 50.8599 47.8893 51.3504C47.9684 51.403 48.0651 51.473 48.1091 51.5869C48.5925 53.0321 46.5884 52.2 46.1928 51.946C46.2543 52.1299 46.2543 52.2088 46.3071 52.3402C46.3774 52.4891 46.4917 52.7431 46.5884 52.9007C46.773 53.1898 47.4498 52.9445 47.8893 52.7956C48.5134 52.5766 49.076 51.9723 48.742 51.1577C48.4431 50.4132 47.5026 50.5358 46.8169 50.1942C46.4829 50.0278 46.4829 49.6862 46.4829 49.6862C46.896 48.5213 48.4959 50.3957 48.1794 49.6337C48.1355 49.5198 47.8014 48.8103 47.7838 48.7315C47.0543 48.9154 46.1489 48.9067 45.8764 49.5724ZM9.95936 53.2423C10.0297 53.5489 10.3813 53.8029 10.645 53.9167C12.6931 54.8277 13.0623 52.1124 13.4139 50.7636C13.1854 50.6935 13.036 50.6584 12.7898 50.5884C12.658 51.5869 12.491 54.127 10.979 53.47C10.2231 53.1372 11.19 50.6935 11.3746 50.0804C11.1109 50.0191 10.9263 49.949 10.645 49.8614C10.4692 50.6935 9.76597 52.3314 9.95936 53.2423ZM43.0195 50.422C43.0195 51.9548 42.7207 53.181 42.4569 54.4861C42.6855 54.4072 42.9316 54.3284 43.1953 54.2583C43.1953 53.8204 43.2569 53.3124 43.3272 52.9182C43.6876 52.7693 44.5314 52.5504 44.5314 52.5504C44.7336 52.6993 45.0237 53.2248 45.1468 53.4438C45.2962 53.7153 45.3577 53.6277 45.7445 53.47C45.8852 53.4087 46.017 53.3912 46.1401 53.3562C45.6302 52.7168 45.0589 52.1299 44.6106 51.438C44.4172 51.1489 43.6436 50.1942 43.6436 50.1942C43.4766 50.1855 43.1865 50.3694 43.0195 50.422ZM38.8793 51.5431C38.8705 51.7358 38.7738 51.9986 38.765 52.1913C38.7475 52.454 38.8793 52.6117 38.8793 52.6117C39.1518 52.2 39.4155 51.9986 39.9957 51.8321C40.3737 52.9883 40.5583 53.9693 40.7604 55.0291C41.7801 54.6875 41.6834 54.9065 41.5252 54.5824C41.367 54.2408 40.7253 51.6044 40.7516 51.5956C41.0681 51.5343 41.7537 51.7446 41.9823 51.8847C42.0086 51.8584 42.1493 51.9285 42.1757 51.9372C42.0878 51.7358 41.9823 51.6394 41.9999 51.6044C41.8592 51.3329 41.7801 51.1665 41.657 50.9212C40.7077 51.3241 39.7495 51.5168 38.8793 51.5431ZM14.1611 51.1927C14.1875 51.3942 14.3457 51.6482 14.4336 51.8847C14.5567 52.2175 14.6797 52.5153 14.7764 52.962C14.1875 53.4175 13.6249 53.873 12.9656 54.2583C13.5106 54.4335 13.7216 54.7751 14.0996 54.2058C15.0753 52.6817 15.1017 53.873 15.4005 55.0466C15.7785 55.0992 15.9895 55.143 16.3587 55.2131C16.0598 54.416 15.6994 53.7503 15.5675 52.7956C16.0862 52.4277 16.5872 52.0511 17.1498 51.7183C16.6312 51.6132 16.4817 51.3767 16.1301 51.7796C15.2071 52.8394 15.3566 52.6117 15.0577 51.2103C14.7325 51.1314 14.3984 51.0263 14.0996 50.9387C14.082 50.8687 14.1523 51.1665 14.1611 51.1927ZM37.7981 51.7358C37.7102 51.7358 37.4465 51.8759 37.3586 51.8847C37.6487 53.0496 37.719 54.3284 37.9124 55.6598C37.9212 55.6598 38.1849 55.5984 38.1849 55.5984C38.3607 55.5634 38.6596 55.4408 38.8442 55.397C38.5717 54.2934 38.3343 52.962 38.1937 51.727C38.0706 51.727 37.9212 51.7358 37.7981 51.7358ZM18.2574 55.6685C18.9254 55.6685 19.8132 55.7649 20.3319 55.8787C20.9999 56.0276 20.9296 55.9663 21.1757 55.4408C21.2109 55.362 21.2373 55.3006 21.2812 55.1605C20.7274 55.3882 19.9715 55.4933 19.1891 55.3882C19.5144 53.908 19.1276 53.8467 20.4373 54.3722C20.4286 54.3021 20.3758 54.1445 20.3758 54.1445C20.367 54.0569 20.3231 53.8116 20.3231 53.8029C20.3231 53.8029 20.3231 53.6452 20.3231 53.6365C19.9715 53.689 19.7517 53.689 19.4177 53.6365C19.4792 53.1109 19.5759 52.4277 19.6814 52.4628C19.9187 52.5241 20.4813 52.7255 20.6659 52.8482C20.8681 52.9883 21.079 53.1635 21.2285 53.3562C21.2197 53.3036 21.1757 53.0759 21.1757 53.0759C21.1318 52.8044 21.0615 52.5066 20.9999 52.2788C20.2352 52.1825 19.5583 52.1037 18.9606 51.946C18.776 53.146 18.5035 54.5561 18.2574 55.6685ZM35.1522 52.1124C34.6072 52.1562 34.0798 52.4015 33.5173 52.454C33.5612 52.7868 33.6491 53.1547 33.6843 53.47C33.7722 54.3459 33.7634 55.2393 33.8073 56.1415C34.0447 56.1152 34.3875 56.0452 34.6424 56.0101C34.5633 55.4583 34.493 54.8452 34.4754 54.3722C34.6952 54.3372 34.8446 54.3372 35.0995 54.3109C35.6093 55.1605 36.4708 56.0014 37.5871 55.8962C37.5871 55.8962 37.6311 55.7561 37.6487 55.7211C36.8839 55.2481 36.128 54.6262 35.6621 53.8642C36.084 53.3299 36.6114 52.1562 35.416 52.1037C35.3368 52.1037 35.2489 52.1037 35.1522 52.1124ZM21.7031 52.9182C21.5977 53.1635 21.6856 53.3562 21.6856 53.3562C22.0723 53.0496 22.38 52.9358 22.9865 52.962C22.9865 54.1795 22.8459 55.1693 22.7052 56.2291C23.7689 56.2291 23.6106 56.413 23.5667 56.0539C23.5227 55.6773 23.7513 52.9708 23.7776 52.9795C24.0941 53.0146 24.683 53.4263 24.8501 53.6365C24.8852 53.6189 24.9995 53.7328 25.0259 53.7503C24.9995 53.5314 24.9292 53.4 24.9555 53.3737C24.9116 53.0759 24.8852 52.892 24.8501 52.6204C23.8216 52.6993 22.8547 52.5854 22.0196 52.3402C21.9493 52.5153 21.7823 52.7343 21.7031 52.9182ZM30.3967 52.6817C30.5374 53.8905 30.511 55.1605 30.511 56.4568C31.2845 56.3517 32.0669 56.2904 33.0074 56.2904C33.3327 55.4758 33.6052 55.4145 32.7789 55.6685C31.3021 56.1152 31.2318 56.1415 31.2406 54.5649C32.7877 54.6963 32.4536 54.8715 32.313 53.8905C31.979 54.0394 31.7416 54.0919 31.2494 54.1445C31.2406 54.0219 31.1878 53.0146 31.1878 53.0146C32.0405 53.0146 32.4273 53.1635 32.8931 53.5226C32.8052 53.2511 32.814 53.1022 32.7173 52.8482C32.6294 52.6117 32.5679 52.5066 32.2075 52.5066C31.6801 52.5153 31.0736 52.6817 30.3967 52.6817ZM26.5993 53.0759C27.03 53.9605 27.3377 54.9766 27.786 55.94C28.0497 56.5094 28.1552 57.0875 28.5859 56.2904C28.8233 55.8525 28.92 55.362 29.087 54.9065C29.3595 54.162 29.6759 53.4438 30.0012 52.7343C29.7111 52.7343 29.3595 52.7693 29.1573 52.7869C28.9551 53.7241 28.7354 54.5036 28.4189 55.2744C27.953 54.5211 27.6014 53.6102 27.285 52.6817C26.9246 52.7255 26.7927 52.7255 26.4411 52.6817C26.4411 52.6817 26.5378 52.9533 26.5993 53.0759Z" fill="#222222"/>
<path d="M20.3231 24.6445C21.1054 24.443 22.1339 24.4606 22.8723 24.6445C22.7843 22.3234 23.0832 22.6562 20.6659 22.3322C20.3582 22.9716 20.2528 23.7161 20.3231 24.6445ZM32.3218 24.1365C32.3306 24.3292 32.3306 24.4868 32.3218 24.5832C33.0426 24.3555 34.1677 24.373 34.871 24.5832C34.871 22.3672 34.7655 22.3322 32.5503 22.3322C32.3833 22.8927 32.2866 23.4533 32.3218 24.1365ZM43.3887 52.3575C43.4502 52.34 43.7491 52.2612 44.2941 52.1035L43.503 51.0174C43.4942 51.5692 43.4502 52.0159 43.3887 52.3575ZM34.326 52.6641C34.326 52.6641 34.4226 54.013 34.4666 54.013C35.2753 53.8903 35.9434 52.6553 34.8885 52.6116C34.7303 52.6028 34.5457 52.6203 34.326 52.6641Z" fill="white"/>
<path d="M239.027 23.9613L238.887 23.97L238.746 23.9788L238.614 23.9876L238.491 24.0051L238.368 24.0226L238.254 24.0401L238.148 24.0664L238.043 24.0927L237.946 24.1189L237.849 24.154L237.753 24.1803L237.665 24.2153L237.577 24.2503L237.498 24.2854L237.41 24.3204L237.331 24.3642L237.252 24.3992L237.173 24.443L237.093 24.4781L240.486 33.1756L243.616 24.9948L243.519 24.8985L243.422 24.8021L243.326 24.7058L243.229 24.627L243.132 24.5394L243.027 24.4693L242.921 24.3992L242.816 24.3292L242.71 24.2766L242.605 24.2153L242.491 24.1715L242.376 24.1277L242.262 24.0839L242.139 24.0489L242.025 24.0226L241.902 23.9963L241.779 23.9788L241.656 23.97L241.524 23.9613H241.392V23.1817H247V23.9613H246.807L246.622 23.9876L246.446 24.0138L246.279 24.0576L246.121 24.1102L245.972 24.1715L245.822 24.2503L245.69 24.3292L245.558 24.4167L245.435 24.5131L245.321 24.6094L245.216 24.7145L245.119 24.8284L245.031 24.9423L244.943 25.0561L244.873 25.17L244.802 25.2926L244.75 25.4065L244.697 25.5291L244.653 25.643L240.741 34.8661L240.645 35.1201L240.53 35.3916L240.407 35.6894L240.284 36.0135L240.144 36.3638L240.003 36.7229L239.854 37.0996L239.695 37.5025L239.537 37.9054L239.379 38.3258L239.212 38.755L239.036 39.1842L238.86 39.6309L238.684 40.0688L238.509 40.5155L238.333 40.9535L238.148 41.3914L237.972 41.8206L237.797 42.2498L237.621 42.6615L237.559 42.7928L237.498 42.9155L237.427 43.0381L237.366 43.1432L237.296 43.2483L237.225 43.3446L237.146 43.4322L237.067 43.5111L236.988 43.5811L236.9 43.6512L236.812 43.7125L236.715 43.7651L236.619 43.8089L236.513 43.8527L236.408 43.8877L236.293 43.914L236.179 43.9315L236.056 43.949L235.924 43.9578H235.792H235.643L235.494 43.9403L235.362 43.9052L235.23 43.8702L235.107 43.8264L234.993 43.7738L234.887 43.7038L234.79 43.6337L234.702 43.5549L234.615 43.476L234.544 43.3797L234.474 43.2833L234.421 43.187L234.368 43.0819L234.324 42.9768L234.289 42.8629L234.263 42.749L234.245 42.6352L234.228 42.5213V42.3987V42.2848L234.245 42.171L234.263 42.0571L234.289 41.9432L234.324 41.8294L234.368 41.7243L234.421 41.6192L234.474 41.514L234.544 41.4177L234.615 41.3301L234.702 41.2425L234.79 41.1637L234.887 41.0936L234.993 41.0323L235.107 40.9798L235.23 40.9272L235.362 40.8922L235.494 40.8659L235.643 40.8484L235.792 40.8396H235.836L235.88 40.8484H235.924L235.977 40.8571L236.03 40.8659L236.082 40.8746L236.144 40.8834L236.206 40.8922L236.267 40.9097L236.329 40.9272L236.39 40.936L236.46 40.9535L236.522 40.971L236.592 40.9885L236.654 41.006L236.715 41.0235L236.786 41.0411L236.847 41.0673L236.909 41.0849L236.962 41.1024L238.922 36.5565L234.491 25.1262L234.448 25.0123L234.404 24.8985L234.351 24.7934L234.298 24.6883L234.237 24.5919L234.166 24.4956L234.096 24.408L234.017 24.3292L233.929 24.2416L233.841 24.1715L233.736 24.1014L233.621 24.0314L233.507 23.97L233.375 23.9175L233.243 23.8649L233.094 23.8211L232.936 23.7861L232.769 23.7511L232.593 23.7248L232.399 23.6985V23.1817H239.177V23.9613H239.027ZM139.451 16.9717L139.293 17.0067L139.144 17.0418L138.994 17.0856L138.845 17.1294L138.704 17.1732L138.555 17.217L138.423 17.2695L138.291 17.3221L138.159 17.3746L138.036 17.4272L137.913 17.4885L137.79 17.5498L137.684 17.6111L137.57 17.6724L137.473 17.7337L137.377 17.8038L137.28 17.8651L137.201 17.9352L137.122 18.0053L137.043 18.0753L136.981 18.1454L136.92 18.2155L136.867 18.2855L136.814 18.3556L136.779 18.4344L136.744 18.5045V28.3757L136.726 28.9976L136.682 29.5932L136.612 30.1626L136.515 30.7144L136.392 31.2311L136.243 31.7304L136.076 32.2034L135.874 32.6501L135.654 33.0705L135.416 33.4646L135.153 33.8413L134.863 34.1916L134.555 34.5157L134.23 34.8223L133.887 35.1026L133.527 35.3566L133.14 35.5931L132.744 35.8033L132.331 35.9872L131.9 36.1536L131.461 36.2938L131.004 36.4164L130.529 36.5127L130.046 36.5916L129.553 36.6441L129.052 36.6791L128.534 36.6879L128.006 36.6704L127.488 36.6354L126.995 36.5828L126.512 36.504L126.046 36.3989L125.598 36.2762L125.167 36.1273L124.754 35.9609L124.358 35.7682L123.98 35.558L123.629 35.3215L123.286 35.0763L122.969 34.8048L122.662 34.507L122.389 34.2004L122.126 33.8676L121.888 33.5172L121.668 33.1493L121.475 32.7552L121.299 32.3523L121.141 31.9318L121.009 31.4851L120.904 31.0297L120.825 30.5479L120.763 30.0574L120.728 29.5494L120.71 29.0239V18.3731L120.675 18.3031L120.64 18.233L120.587 18.1629L120.535 18.1016L120.464 18.0403L120.394 17.979L120.315 17.9177L120.236 17.8651L120.139 17.8126L120.042 17.76L119.946 17.7075L119.84 17.6637L119.726 17.6199L119.612 17.5761L119.489 17.5323L119.365 17.4972L119.242 17.4534L119.111 17.4184L118.979 17.3921L118.838 17.3571L118.706 17.3308L118.566 17.3045L118.425 17.2783L118.275 17.2607L118.135 17.2345L117.994 17.217L117.845 17.2082V16.4287H126.573V17.2082H126.415L126.257 17.217L126.108 17.2257L125.949 17.2345L125.8 17.252L125.65 17.2783L125.501 17.3045L125.36 17.3308L125.22 17.3659L125.088 17.4009L124.947 17.4359L124.824 17.4797L124.701 17.5235L124.578 17.5673L124.464 17.6199L124.358 17.6724L124.253 17.725L124.156 17.7863L124.059 17.8388L123.98 17.9001L123.901 17.9615L123.822 18.0315L123.761 18.0928L123.708 18.1629L123.655 18.233L123.611 18.3031L123.576 18.3731V28.3757L123.585 28.8049L123.611 29.2166L123.655 29.6107L123.708 30.0049L123.778 30.3728L123.866 30.7319L123.972 31.0735L124.095 31.4063L124.226 31.7216L124.376 32.0194L124.543 32.3085L124.727 32.58L124.921 32.834L125.141 33.0705L125.369 33.2895L125.615 33.4997L125.87 33.6836L126.152 33.8588L126.442 34.0165L126.74 34.1478L127.066 34.2705L127.4 34.3756L127.751 34.4544L128.121 34.5245L128.507 34.5683L128.903 34.5945L129.316 34.6121L129.738 34.5945L130.151 34.5683L130.547 34.5245L130.925 34.4544L131.285 34.3668L131.628 34.2617L131.962 34.1391L132.278 33.9989L132.568 33.8325L132.85 33.6486L133.122 33.4559L133.368 33.2369L133.606 33.0004L133.817 32.7377L134.019 32.4661L134.203 32.1683L134.37 31.8618L134.529 31.5289L134.66 31.1786L134.784 30.8107L134.889 30.4253L134.977 30.0224L135.047 29.602L135.109 29.1553L135.144 28.6998L135.17 28.2181L135.179 27.7276V23.6985V23.4971V23.2868L135.17 23.0679V22.8577V22.6387L135.162 22.411L135.153 22.192V21.9643L135.144 21.7453L135.135 21.5176V21.2898L135.126 21.0709L135.118 20.8519L135.109 20.6329L135.1 20.4227V20.2125L135.091 20.011L135.082 19.8096L135.074 19.6169V19.4329L135.065 19.2578L135.056 19.0826V18.9249V18.7673L135.047 18.6271V18.4957V18.3731L135.012 18.3031L134.968 18.233L134.907 18.1542L134.845 18.0841L134.766 18.014L134.678 17.9439L134.581 17.8739L134.476 17.8126L134.37 17.7425L134.247 17.6812L134.124 17.6111L133.992 17.5498L133.852 17.4972L133.702 17.4359L133.553 17.3834L133.403 17.3308L133.245 17.2783L133.078 17.2257L132.911 17.1819L132.744 17.1381L132.577 17.1031L132.401 17.0681L132.226 17.033L132.05 17.0067L131.883 16.9805L131.707 16.9629L131.531 16.9454V16.1659H139.609V16.9454L139.451 16.9717ZM232.144 23.1817V24.6094H227.846V32.0107L227.864 32.4223L227.934 32.8077L228.057 33.1668L228.215 33.4997L228.417 33.8062L228.655 34.069L228.936 34.3055L229.252 34.4982L229.604 34.6559L229.982 34.7697L230.395 34.8398L230.843 34.8661L231.037 34.8573L231.248 34.831L231.459 34.7872L231.67 34.7259L231.881 34.6646L232.074 34.5945L232.268 34.5157L232.443 34.4456L232.602 34.3756L232.733 34.3143L232.848 34.2617L232.927 34.2179V34.8661L232.672 35.0325L232.373 35.2077L232.039 35.3828L231.67 35.558L231.283 35.7332L230.887 35.8909L230.492 36.0398L230.096 36.1711L229.718 36.2762L229.358 36.3551L229.042 36.4076L228.751 36.4251L228.075 36.3989L227.477 36.3025L226.958 36.1449L226.501 35.9346L226.114 35.6631L225.789 35.339L225.525 34.9624L225.314 34.542L225.165 34.069L225.06 33.5522L224.998 33.0004L224.972 32.3961L224.98 31.6778V30.9946L224.998 30.3465L225.007 29.7159L225.024 29.1027L225.06 27.9028L225.068 27.2896L225.086 26.6678L225.095 26.0109L225.103 25.3277V24.6094H223.407V23.9613L227.187 20.3176H227.846V23.1817H232.144ZM209.474 22.6825L209.8 22.7175L210.107 22.7526L210.406 22.8051L210.696 22.8577L210.978 22.919L211.241 22.989L211.496 23.0504L211.742 23.1204L211.971 23.1905L212.182 23.2606L212.375 23.3219L212.56 23.3832L212.727 23.4357L212.85 26.6853H212.199L212.015 26.3524L211.821 26.0284L211.619 25.7131L211.408 25.4153L211.197 25.1262L210.978 24.8634L210.767 24.6094L210.547 24.3817L210.336 24.1803L210.125 24.0051L209.923 23.8474L209.729 23.7335L209.545 23.646L209.369 23.5846L209.202 23.5671L208.736 23.5846L208.314 23.6372L207.945 23.7073L207.611 23.8124L207.33 23.935L207.083 24.0751L206.872 24.2328L206.697 24.3992L206.547 24.5744L206.433 24.7583L206.345 24.951L206.284 25.135L206.24 25.3101L206.213 25.4853L206.204 25.643L206.213 25.897L206.24 26.1247L206.284 26.3437L206.345 26.5451L206.433 26.7378L206.547 26.913L206.697 27.0882L206.872 27.2546L207.083 27.421L207.33 27.5874L207.611 27.7626L207.945 27.929L208.314 28.113L208.736 28.3057L209.202 28.5071L209.685 28.6911L210.142 28.875L210.564 29.0677L210.96 29.2779L211.32 29.4881L211.654 29.7071L211.953 29.9436L212.217 30.1888L212.454 30.4516L212.648 30.7231L212.815 31.0209L212.947 31.3362L213.043 31.6691L213.096 32.0194L213.114 32.3961L213.087 32.834L213.017 33.2632L212.894 33.6661L212.718 34.0602L212.507 34.4281L212.252 34.7697L211.953 35.0938L211.628 35.3828L211.259 35.6456L210.854 35.8733L210.424 36.066L209.958 36.2237L209.474 36.3288L208.956 36.3989L208.42 36.4251L207.962 36.4164L207.532 36.3989L207.119 36.3726L206.732 36.3288L206.371 36.285L206.029 36.2237L205.712 36.1624L205.404 36.1011L205.132 36.031L204.868 35.9609L204.631 35.8996L204.411 35.8295L204.209 35.7595L204.024 35.6982L203.857 35.6456L203.471 32.2734H204.253L204.446 32.6063L204.649 32.9391L204.868 33.2544L205.088 33.5698L205.325 33.8588L205.563 34.1391L205.8 34.4018L206.029 34.6471L206.257 34.8573L206.486 35.05L206.697 35.2164L206.89 35.339L207.075 35.4354L207.242 35.4967L207.382 35.5142L207.875 35.5055L208.323 35.4617L208.718 35.3828L209.07 35.2865L209.386 35.1726L209.65 35.0325L209.888 34.8748L210.081 34.6996L210.239 34.507L210.371 34.3055L210.476 34.0953L210.547 33.8676L210.6 33.6486L210.626 33.4121L210.635 33.1756L210.626 32.9304L210.573 32.7026L210.503 32.4837L210.397 32.291L210.274 32.0983L210.116 31.9318L209.94 31.7654L209.738 31.6078L209.51 31.4589L209.263 31.31L209 31.1698L208.718 31.0297L208.42 30.8808L208.103 30.7319L207.769 30.583L207.268 30.3728L206.802 30.1626L206.363 29.9523L205.967 29.7334L205.598 29.5056L205.273 29.2692L204.974 29.0239L204.71 28.7611L204.49 28.4896L204.297 28.2006L204.139 27.8853L204.016 27.5524L203.928 27.2021L203.875 26.8254L203.857 26.4225L203.893 26.0196L203.972 25.6167L204.112 25.2401L204.306 24.8722L204.534 24.5218L204.816 24.2065L205.141 23.9L205.492 23.6284L205.888 23.3832L206.31 23.173L206.767 22.9978L207.25 22.8489L207.751 22.7438L208.27 22.6825L208.815 22.6562L209.149 22.665L209.474 22.6825ZM186.822 22.9102L187.42 23.0504L187.956 23.2518L188.439 23.5058L188.87 23.8211L189.248 24.1803L189.573 24.5832L189.837 25.0474L190.039 25.5466L190.189 26.0984L190.276 26.694L190.312 27.3334V27.859H181.838V27.9466L181.829 28.0429L181.82 28.148L181.803 28.2531L181.794 28.3582L181.776 28.4809L181.767 28.5947L181.75 28.7173L181.732 28.8487L181.724 28.9801L181.715 29.1202L181.706 29.2692V29.4093L181.741 30.1188L181.838 30.7844L182.005 31.4063L182.225 31.9932L182.506 32.5362L182.84 33.0179L183.227 33.4559L183.657 33.8325L184.123 34.1478L184.642 34.4018L185.196 34.5858L185.785 34.6996L186.4 34.7347L186.743 34.7259L187.068 34.6996L187.376 34.6559L187.657 34.5945L187.929 34.507L188.193 34.4018L188.448 34.288L188.703 34.1478L188.958 33.9902L189.213 33.815L189.477 33.6223L189.758 33.4121L190.048 33.1756L190.567 33.9551L190.18 34.2792L189.802 34.5858L189.415 34.8748L189.037 35.1463L188.65 35.4004L188.246 35.6281L187.833 35.8295L187.402 36.0047L186.945 36.1536L186.47 36.2675L185.96 36.3551L185.415 36.4076L184.835 36.4251L184.097 36.3813L183.385 36.25L182.708 36.031L182.066 35.7332L181.477 35.3653L180.932 34.9186L180.44 34.4106L180.018 33.8413L179.649 33.2106L179.359 32.5274L179.148 31.7917L179.016 31.0122L178.972 30.1888L179.016 29.1991L179.157 28.2619L179.385 27.386L179.693 26.5714L180.089 25.8182L180.554 25.1437L181.082 24.5481L181.68 24.0226L182.339 23.5934L183.06 23.2518L183.824 22.9978L184.633 22.8401L185.486 22.7876L186.18 22.8226L186.822 22.9102ZM170.428 23.9613L170.235 23.97L170.059 23.9876L169.901 24.0051L169.742 24.0314L169.602 24.0664L169.47 24.1014L169.347 24.1365L169.233 24.1803L169.118 24.224L169.022 24.2766L168.925 24.3204L168.837 24.3729L168.749 24.4255L168.67 24.4781L172.063 33.053L175.192 24.9948L175.052 24.8634L174.911 24.7408L174.762 24.627L174.612 24.5131L174.463 24.4167L174.313 24.3292L174.155 24.2503L174.006 24.189L173.847 24.1277L173.68 24.0751L173.522 24.0314L173.355 23.9963L173.188 23.9788L173.012 23.9613H172.845V23.1817H178.445V23.9613L178.19 23.97L177.953 24.0051L177.724 24.0576L177.513 24.1365L177.32 24.224L177.135 24.3292L176.959 24.443L176.81 24.5744L176.66 24.7145L176.537 24.8634L176.423 25.0123L176.318 25.17L176.23 25.3277L176.159 25.4853L176.098 25.643L171.544 36.1711L170.367 36.4251L165.936 25.389L165.857 25.2313L165.769 25.0912L165.664 24.951L165.558 24.8196L165.444 24.697L165.321 24.5832L165.18 24.4781L165.031 24.3817L164.864 24.2941L164.688 24.2153L164.503 24.1452L164.301 24.0839L164.081 24.0314L163.844 23.9876L163.589 23.9613V23.1817H170.63V23.9613H170.428ZM83.7737 22.8839L84.2571 22.9978L84.6879 23.1467L85.0658 23.3482L85.3999 23.5759L85.69 23.8474L85.9273 24.1452L86.1295 24.4781L86.2965 24.8459L86.4195 25.2313L86.4987 25.6517L86.5514 26.0897L86.569 26.5539L86.4371 33.053L86.4459 33.3157L86.4723 33.5435L86.5162 33.7449L86.5778 33.9289L86.6569 34.0778L86.7448 34.2092L86.8415 34.3143L86.9558 34.4018L87.07 34.4719L87.1931 34.5245L87.3249 34.5683L87.4656 34.5858L87.5974 34.6033L87.7381 34.6121L87.8524 34.6033L87.9666 34.5945L88.0721 34.5683L88.1864 34.542L88.3007 34.507L88.4062 34.4544L88.5204 34.3931L88.6347 34.3318L88.749 34.2529L88.8544 34.1654L88.9687 34.0602L89.083 33.9551L89.1885 33.8325L89.3028 33.7011V34.6121L89.1797 34.8048L89.039 34.9974L88.872 35.1814L88.6874 35.3653L88.4941 35.5405L88.2831 35.7069L88.0633 35.8558L87.8348 35.996L87.6062 36.1186L87.3689 36.2237L87.1316 36.3113L86.8942 36.3726L86.6657 36.4164L86.4371 36.4251L86.0855 36.4076L85.7691 36.3638L85.4702 36.285L85.1977 36.1799L84.9604 36.0485L84.7406 35.9084L84.5472 35.742L84.3802 35.5755L84.2308 35.3916L84.1077 35.2077L84.0022 35.015L83.9231 34.831L83.8704 34.6471L83.8264 34.4807L83.5979 34.7259L83.3605 34.9537L83.1144 35.1726L82.8507 35.3741L82.587 35.5668L82.3145 35.7332L82.0332 35.8909L81.7607 36.031L81.4706 36.1449L81.1893 36.2412L80.8993 36.32L80.618 36.3813L80.3279 36.4164L80.0466 36.4251L79.695 36.4076L79.3434 36.3638L79.0094 36.285L78.6929 36.1799L78.3853 36.0398L78.104 35.8733L77.849 35.6806L77.6205 35.4529L77.4183 35.2077L77.2425 34.9274L77.1107 34.6296L77.0052 34.2967L76.9437 33.9464L76.9261 33.5698V33.3771L76.9349 33.1844L76.9612 32.9917L76.9788 32.799L77.014 32.6063L77.0579 32.4223L77.1019 32.2384L77.1546 32.0632L77.2074 31.8881L77.2777 31.7129L77.3392 31.5552L77.4183 31.3976L77.4886 31.2487L77.5766 31.0998L83.8264 28.8925V26.5539L83.8176 26.2561L83.7913 25.9583L83.7385 25.6693L83.6682 25.389L83.5715 25.1262L83.4572 24.881L83.3254 24.6532L83.1672 24.4518L82.9913 24.2766L82.7804 24.1189L82.5606 23.9963L82.3145 23.9087L82.042 23.8474L81.7431 23.8299L81.5761 23.8474L81.4003 23.8912L81.2333 23.97L81.0663 24.0751L80.9081 24.2065L80.7498 24.3642L80.6004 24.5394L80.4685 24.7496L80.3543 24.9773L80.2488 25.2313L80.1697 25.5028L80.0994 25.7919L80.0642 26.0984L80.0466 26.4225L77.181 26.9481V26.6853L77.4095 26.0984L77.6996 25.5729L78.0336 25.0912L78.4204 24.662L78.8336 24.2854L79.2731 23.9525L79.7214 23.6635L80.1873 23.427L80.6531 23.2255L81.1014 23.0591L81.541 22.9365L81.9541 22.8577L82.3233 22.8051L82.6573 22.7876L83.2463 22.8139L83.7737 22.8839ZM106.154 22.9102L106.743 23.0504L107.288 23.2518L107.771 23.5058L108.202 23.8211L108.58 24.1803L108.896 24.5832L109.16 25.0474L109.371 25.5466L109.512 26.0984L109.608 26.694L109.635 27.3334V27.859H101.161V27.9466L101.152 28.0429L101.143 28.148L101.134 28.2531L101.117 28.3582L101.108 28.4809L101.09 28.5947L101.073 28.7173L101.064 28.8487L101.047 28.9801L101.038 29.1202V29.2692L101.029 29.4093L101.064 30.1188L101.17 30.7844L101.328 31.4063L101.556 31.9932L101.838 32.5362L102.163 33.0179L102.55 33.4559L102.98 33.8325L103.455 34.1478L103.965 34.4018L104.519 34.5858L105.108 34.6996L105.723 34.7347L106.075 34.7259L106.4 34.6996L106.699 34.6559L106.98 34.5945L107.252 34.507L107.516 34.4018L107.771 34.288L108.026 34.1478L108.281 33.9902L108.536 33.815L108.808 33.6223L109.081 33.4121L109.371 33.1756L109.898 33.9551L109.512 34.2792L109.125 34.5858L108.747 34.8748L108.36 35.1463L107.973 35.4004L107.578 35.6281L107.165 35.8295L106.725 36.0047L106.277 36.1536L105.793 36.2675L105.283 36.3551L104.738 36.4076L104.158 36.4251L103.42 36.3813L102.708 36.25L102.031 36.031L101.398 35.7332L100.8 35.3653L100.255 34.9186L99.772 34.4106L99.3412 33.8413L98.9808 33.2106L98.6908 32.5274L98.471 31.7917L98.3391 31.0122L98.2952 30.1888L98.3479 29.1991L98.4798 28.2619L98.7083 27.386L99.0248 26.5714L99.4116 25.8182L99.8774 25.1437L100.414 24.5481L101.011 24.0226L101.671 23.5934L102.383 23.2518L103.147 22.9978L103.956 22.8401L104.809 22.7876L105.512 22.8226L106.154 22.9102ZM161.761 34.8048L161.875 34.9712L161.998 35.1026L162.148 35.2077L162.332 35.2952L162.57 35.3653L162.868 35.4266L163.246 35.4704L163.721 35.5142V36.1711H156.812V35.3916L157.287 35.339L157.673 35.2777L157.99 35.2077L158.245 35.1288L158.438 35.0325L158.588 34.9186L158.711 34.7872L158.807 34.6383L158.895 34.4807V26.4225L158.886 26.1773L158.834 25.9408L158.737 25.7306L158.596 25.5291L158.403 25.3452L158.148 25.1788L157.823 25.0211L157.418 24.8722L156.944 24.7408V24.2153L161.242 22.7876H161.638V34.6121L161.761 34.8048ZM145.042 24.7145L145.27 24.5569L145.516 24.3992L145.763 24.2416L146.018 24.0839L146.272 23.935L146.536 23.7861L146.8 23.6372L147.064 23.5058L147.336 23.3744L147.591 23.2518L147.855 23.1379L148.11 23.0328L148.356 22.9365L148.602 22.8577L148.83 22.7876L149.05 22.735L149.261 22.6912L149.463 22.665L149.648 22.6562L150.043 22.6737L150.413 22.7088L150.755 22.7701L151.072 22.8577L151.371 22.9628L151.643 23.0942L151.889 23.2431L152.109 23.4182L152.311 23.6109L152.496 23.8299L152.654 24.0664L152.795 24.3116L152.918 24.5832L153.023 24.8722L153.111 25.1788L153.182 25.5028L153.226 25.8444L153.269 26.1948L153.287 26.5627L153.296 26.9481V34.6121L153.393 34.6821L153.489 34.7522L153.586 34.8135L153.691 34.8661L153.797 34.9099L153.902 34.9537L154.008 34.9887L154.122 35.0237L154.236 35.05L154.351 35.0763L154.474 35.1026L154.606 35.1201L154.746 35.1376L154.887 35.1551L155.036 35.1726L155.195 35.1901L155.353 35.2077L155.529 35.2252L155.713 35.2427L155.898 35.2602V36.1711H148.602V35.3916L148.83 35.3653L149.033 35.3478L149.217 35.3215L149.384 35.2952L149.534 35.2602L149.665 35.2339L149.789 35.1989L149.894 35.1639L149.982 35.1201L150.07 35.0763L150.14 35.0325L150.21 34.9887L150.263 34.9361L150.316 34.8836L150.36 34.8223L150.404 34.761L150.448 34.6909L150.483 34.6296L150.518 34.5507L150.553 34.4807V27.7276L150.544 27.4736L150.527 27.2283L150.483 26.9831L150.421 26.7554L150.351 26.5276L150.263 26.3087L150.158 26.0984L150.043 25.897L149.92 25.7131L149.78 25.5291L149.622 25.3715L149.463 25.2226L149.287 25.0824L149.103 24.9598L148.91 24.8547L148.707 24.7671L148.496 24.697L148.277 24.6532L148.048 24.6182L147.82 24.6094H147.696L147.573 24.627L147.433 24.6445L147.292 24.662L147.151 24.697L147.002 24.7321L146.844 24.7759L146.694 24.8196L146.527 24.8722L146.369 24.9335L146.211 24.9948L146.044 25.0561L145.886 25.1262L145.727 25.1963L145.569 25.2663L145.411 25.3364L145.253 25.4153L145.103 25.4941L144.963 25.5729L144.822 25.643V34.4807L144.884 34.5683L144.936 34.6559L144.989 34.7347L145.042 34.8135L145.095 34.8748L145.147 34.9361L145.209 34.9887L145.279 35.0412L145.349 35.085L145.429 35.1288L145.516 35.1639L145.613 35.1989L145.719 35.2252L145.842 35.2602L145.974 35.2777L146.132 35.304L146.299 35.3303L146.483 35.3478L146.686 35.3653L146.905 35.3916V36.1711H140.128V35.3916L140.357 35.3653L140.559 35.3478L140.743 35.3215L140.91 35.2952L141.06 35.2602L141.2 35.2339L141.324 35.1989L141.429 35.1639L141.526 35.1201L141.614 35.0763L141.693 35.0325L141.763 34.9887L141.833 34.9361L141.886 34.8836L141.948 34.8223L142 34.761L142.053 34.6909L142.106 34.6296L142.159 34.5507L142.22 34.4807V26.4225L142.211 26.3262L142.203 26.2298L142.176 26.1335L142.15 26.0371L142.115 25.9408L142.062 25.8444L142.009 25.7568L141.939 25.6605L141.868 25.5729L141.781 25.4853L141.675 25.3977L141.57 25.3101L141.447 25.2313L141.315 25.1525L141.174 25.0737L141.016 25.0036L140.849 24.9335L140.664 24.8634L140.471 24.8021L140.26 24.7408V24.0927L144.435 22.6562H144.822V24.8634L145.042 24.7145ZM197.177 25.2663L197.52 24.8897L197.854 24.5394L198.179 24.2153L198.495 23.9087L198.812 23.6372L199.119 23.392L199.418 23.1817L199.717 23.0153L200.016 22.8927L200.306 22.8139L200.605 22.7876L200.798 22.7964L200.992 22.8139L201.185 22.8401L201.379 22.8752L201.572 22.919L201.757 22.9715L201.95 23.0328L202.126 23.0942L202.31 23.173L202.486 23.2518L202.653 23.3482L202.82 23.4357L201.387 26.1685H201.124L200.904 26.0371L200.684 25.9145L200.482 25.8094L200.289 25.6955L200.095 25.5992L199.902 25.5204L199.717 25.4415L199.533 25.3802L199.348 25.3277L199.163 25.2926L198.97 25.2663L198.777 25.2576L198.592 25.2663L198.416 25.3014L198.258 25.3452L198.1 25.4153L197.959 25.5028L197.818 25.5992L197.678 25.7131L197.546 25.8357L197.405 25.9671L197.265 26.116L197.115 26.2649L196.957 26.4225V34.4807L197.071 34.6296L197.212 34.761L197.388 34.8748L197.581 34.9712L197.801 35.0588L198.047 35.1288L198.311 35.1901L198.583 35.2427L198.882 35.2777L199.181 35.3215L199.497 35.3566L199.823 35.3916V36.1711H192.395V35.3916L192.755 35.3566L193.063 35.3128L193.318 35.2602L193.538 35.2077L193.713 35.1463L193.863 35.0763L193.977 35.0062L194.074 34.9186L194.153 34.8223L194.223 34.7172L194.285 34.6033L194.346 34.4807V26.2999L194.338 26.1335L194.311 25.9846L194.258 25.8357L194.188 25.6868L194.091 25.5554L193.96 25.4153L193.793 25.2926L193.59 25.17L193.362 25.0561L193.081 24.9423L192.755 24.8372L192.395 24.7408V24.0927L196.561 22.6562H196.825V25.643L197.177 25.2663ZM220.278 34.8048L220.392 34.9712L220.515 35.1026L220.664 35.2077L220.849 35.2952L221.086 35.3653L221.385 35.4266L221.763 35.4704L222.238 35.5142V36.1711H215.329V35.3916L215.803 35.339L216.19 35.2777L216.507 35.2077L216.762 35.1288L216.955 35.0325L217.104 34.9186L217.227 34.7872L217.324 34.6383L217.412 34.4807V26.4225L217.403 26.1773L217.35 25.9408L217.254 25.7306L217.113 25.5291L216.92 25.3452L216.665 25.1788L216.34 25.0211L215.935 24.8722L215.461 24.7408V24.2153L219.759 22.7876H220.155V34.6121L220.278 34.8048ZM67.8457 17.3483L67.6436 17.3746L67.4502 17.3921L67.2744 17.4184L67.1073 17.4359L66.9579 17.4622L66.8085 17.4885L66.6766 17.5148L66.5448 17.5498L66.4305 17.5761L66.3162 17.6111L66.2195 17.6461L66.1228 17.6812L66.0349 17.7162L65.9558 17.7512L65.8767 17.795L65.8064 17.8388L65.7361 17.8826L65.6745 17.9264L65.613 17.9702L65.5603 18.014L65.5075 18.0666L65.4548 18.1104L70.2718 26.5539L75.0977 18.1104L75.0274 18.0666L74.9571 18.014L74.8867 17.9615L74.8076 17.9089L74.7285 17.8651L74.6494 17.8126L74.5615 17.7688L74.4648 17.725L74.3681 17.6812L74.2714 17.6374L74.1571 17.5936L74.0429 17.5585L73.9198 17.5235L73.7967 17.4885L73.6561 17.4622L73.5154 17.4359L73.3572 17.4096L73.199 17.3834L73.0232 17.3659L72.8386 17.3571L72.6452 17.3396H72.443L72.2321 17.3308V16.5513H79.7917V17.3308L79.5719 17.3221L79.361 17.3133H79.1588L78.9654 17.3308L78.772 17.3483L78.5874 17.3746L78.4116 17.4009L78.2358 17.4447L78.0688 17.4972L77.9106 17.5585L77.7524 17.6199L77.5941 17.6987L77.4447 17.7863L77.304 17.8739L77.1634 17.979L77.0228 18.0928L76.8909 18.2155L76.7591 18.3468L76.6272 18.487L76.5041 18.6359L76.3811 18.8023L76.258 18.9687L76.1437 19.1527L70.9311 27.859V33.7011L71.019 33.8763L71.1157 34.0427L71.2212 34.1916L71.3355 34.3318L71.4585 34.4632L71.5816 34.577L71.7134 34.6821L71.8541 34.7697L72.0035 34.8573L72.153 34.9361L72.3112 34.9974L72.4782 35.0588L72.6364 35.1113L72.8122 35.1551L72.9792 35.1989L73.1551 35.2339L73.3396 35.2602L73.5154 35.2865L73.7 35.3128L73.8846 35.3303L74.0692 35.3566L74.2626 35.3741L74.4472 35.3916V36.1711H64.4087V35.3916L64.6021 35.3828H64.7867L64.9801 35.3741L65.1735 35.3653L65.3669 35.3478L65.5603 35.3303L65.7536 35.304L65.9382 35.2777L66.1316 35.2427L66.3074 35.2077L66.492 35.1639L66.6678 35.1201L66.8349 35.0675L66.9931 35.015L67.1513 34.9449L67.3007 34.8836L67.4414 34.8048L67.5644 34.7259L67.6875 34.6383L67.8018 34.542L67.8985 34.4456L67.9864 34.3318L68.0567 34.2179V28.2444L62.8441 19.4154L62.7298 19.214L62.6067 19.03L62.4925 18.8636L62.3694 18.6972L62.2463 18.5571L62.1233 18.4169L61.9914 18.2855L61.8596 18.1717L61.7277 18.0666L61.5959 17.9702L61.4552 17.8826L61.3058 17.795L61.1563 17.725L61.0069 17.6637L60.8487 17.6023L60.6817 17.5498L60.5059 17.506L60.3301 17.4622L60.1455 17.4272L59.9521 17.4009L59.7499 17.3746L59.5477 17.3571L59.328 17.3308V16.5513H68.0567V17.3308L67.8457 17.3483ZM94.3835 16.2973V34.4807L94.4538 34.6208L94.533 34.7434L94.6297 34.8485L94.7439 34.9449L94.8758 35.0237L95.0252 35.0938L95.1922 35.1551L95.368 35.2077L95.579 35.2515L95.7988 35.2952L96.0449 35.3215L96.3086 35.3566L96.5987 35.3916V36.1711H89.6983V35.3916L90.006 35.3566L90.2873 35.3215L90.5334 35.2777L90.7444 35.2252L90.9377 35.1726L91.1048 35.1113L91.2454 35.0412L91.3685 34.9712L91.4739 34.8923L91.5706 34.796L91.6497 34.6996L91.7201 34.5945L91.7816 34.4807V18.3731L91.7728 18.1454L91.764 17.9264L91.7377 17.7337L91.6849 17.5585L91.6146 17.4009L91.5003 17.252L91.3597 17.1294L91.1751 17.0155L90.9465 16.9192L90.6565 16.8403L90.3136 16.7703L89.9093 16.7265L89.4346 16.6827V16.0345L95.1659 14.6068L95.2977 15.1236L94.3835 16.2973ZM82.0508 30.5129L81.0223 30.9859L80.1785 31.3625L80.0818 31.7304L80.0027 32.0895L79.9411 32.4749L79.9235 32.9216L80.0202 33.5873L80.3103 34.1741L80.8026 34.5858L81.4794 34.7347L82.1035 34.6909L82.6573 34.5245L83.2023 34.2442L83.8264 33.8325V29.6721L83.0617 30.0487L82.0508 30.5129ZM183.156 24.5919L182.506 25.6167L182.093 26.9481H187.569L187.384 25.7218L186.866 24.6883L186.084 23.97L185.09 23.6985L184.018 23.935L183.156 24.5919ZM102.479 24.5919L101.838 25.6167L101.425 26.9481H106.901L106.716 25.7218L106.198 24.6883L105.415 23.97L104.422 23.6985L103.35 23.935L102.479 24.5919ZM161.313 16.2009L161.647 16.744L161.77 17.3308L161.647 17.979L161.313 18.522L160.776 18.8899L160.073 19.0213L159.344 18.8724L158.772 18.4695L158.385 17.9264L158.245 17.3308L158.385 16.744L158.772 16.2009L159.344 15.798L160.073 15.6491L160.776 15.798L161.313 16.2009ZM219.829 16.2009L220.163 16.744L220.286 17.3308L220.163 17.979L219.829 18.522L219.293 18.8899L218.59 19.0213L217.86 18.8724L217.289 18.4695L216.902 17.9264L216.762 17.3308L216.902 16.744L217.289 16.2009L217.86 15.798L218.59 15.6491L219.293 15.798L219.829 16.2009Z" fill="white"/>
</svg>
